<?xml version="1.0" standalone="no"?>
<!DOCTYPE svg PUBLIC "-//W3C//DTD SVG 1.1//EN" "http://www.w3.org/Graphics/SVG/1.1/DTD/svg11.dtd" >
<svg xmlns="http://www.w3.org/2000/svg">
<metadata></metadata>
<defs>
<font id="vagrounded-thinthin" horiz-adv-x="536" >
<font-face units-per-em="1000" ascent="800" descent="-200" />
<missing-glyph horiz-adv-x="240" />
<glyph unicode=" "  horiz-adv-x="240" />
<glyph unicode="&#x09;" horiz-adv-x="240" />
<glyph unicode="&#xa0;" horiz-adv-x="240" />
<glyph unicode="!" horiz-adv-x="278" d="M93 40q0 -19 14 -32.5t32 -13.5t32 13.5t14 32.5q0 18 -14 32t-32 14t-32 -14t-14 -32zM103 248q0 -46 36 -46t36 46v424q0 46 -36 46t-36 -46v-424z" />
<glyph unicode="&#x22;" horiz-adv-x="315" d="M60 548q0 -17 9.5 -27.5t23.5 -10.5t23.5 10.5t9.5 27.5v132q0 17 -9.5 27.5t-23.5 10.5t-23.5 -10.5t-9.5 -27.5v-132zM189 548q0 -17 9.5 -27.5t23.5 -10.5t23.5 10.5t9.5 27.5v132q0 17 -9.5 27.5t-23.5 10.5t-23.5 -10.5t-9.5 -27.5v-132z" />
<glyph unicode="#" d="M182 216h132l-20 -146q-5 -32 -5 -48q0 -11 6.5 -19.5t19.5 -8.5q29 0 34 36l26 186h70q18 0 29.5 8t11.5 22q0 15 -11.5 22.5t-29.5 7.5h-62l23 160h70q18 0 29.5 8t11.5 22t-11.5 22t-29.5 8h-61l20 146q5 32 5 48q0 12 -6.5 20t-19.5 8q-29 0 -34 -36l-26 -186h-132 l20 146q5 32 5 48q0 12 -6.5 20t-19.5 8q-29 0 -34 -36l-26 -186h-70q-18 0 -29.5 -8t-11.5 -22t11.5 -22t29.5 -8h62l-23 -160h-70q-18 0 -29.5 -7.5t-11.5 -22.5q0 -14 11.5 -22t29.5 -8h61l-20 -146q-5 -32 -5 -48q0 -11 6.5 -19.5t19.5 -8.5q29 0 34 36zM324 276h-133 l22 160h133z" />
<glyph unicode="$" horiz-adv-x="463" d="M245 343q62 -22 94 -49t32 -79q0 -54 -35 -98.5t-91 -54.5v281zM209 433q-50 19 -77 44.5t-27 67.5q0 41 26.5 69.5t77.5 35.5v-217zM209 60q-41 0 -66 9.5t-50 25.5q-26 17 -41 17t-23.5 -9.5t-8.5 -20.5q0 -33 53.5 -60t135.5 -28v-45q0 -20 18 -20t18 20v47 q88 8 143 71.5t55 155.5q0 43 -15.5 74t-42 52t-56 35t-75.5 31l-9 3v234q33 -1 54 -9.5t41 -22.5q21 -14 31 -14q15 0 22.5 10t7.5 23q0 14 -13.5 28t-36 25t-50.5 18t-56 8v45q0 20 -18 20t-18 -20v-47q-76 -8 -126 -55t-50 -122q0 -42 14.5 -72.5t39 -50.5t52.5 -33 t70 -27v-296z" />
<glyph unicode="%" horiz-adv-x="741" d="M194 372q31 0 58.5 12t49.5 35t34 54t12 68q0 78 -46 127.5t-108 49.5t-108 -49.5t-46 -127.5q0 -37 12 -68t34 -54t49.5 -35t58.5 -12zM194 420q-46 0 -70 36.5t-24 84.5q0 57 25.5 93t68.5 36t68.5 -36t25.5 -93q0 -48 -24 -84.5t-70 -36.5zM547 -6q31 0 58.5 12 t49.5 35t34 54t12 68q0 78 -46 127.5t-108 49.5t-108 -49.5t-46 -127.5q0 -37 12 -68t34 -54t49.5 -35t58.5 -12zM547 42q-46 0 -70 36.5t-24 84.5q0 57 25.5 93t68.5 36t68.5 -36t25.5 -93q0 -48 -24 -84.5t-70 -36.5zM215 38q-9 -22 -9 -31q0 -23 28 -23q21 0 31 25 l260 665q9 23 9 31q0 23 -28 23q-21 0 -31 -25z" />
<glyph unicode="&#x26;" horiz-adv-x="667" d="M314 423q60 36 95 73.5t35 91.5q0 62 -45.5 96t-112.5 34q-75 0 -116 -37.5t-41 -96.5q0 -32 17.5 -62.5t64.5 -82.5q-82 -47 -126 -103.5t-44 -127.5q0 -97 62 -155.5t171 -58.5q61 0 117.5 33t99.5 85l80 -92q12 -14 18 -18.5t15 -4.5q36 0 36 39q0 5 -3 12.5t-13 17.5 l-92 103q53 66 76 106t23 53q0 32 -32 32q-14 0 -23.5 -11.5t-26.5 -39.5q-19 -32 -31 -49l-28 -40zM372 584q0 -30 -22 -53.5t-80 -56.5l-5 6q-31 34 -47.5 58.5t-16.5 45.5q0 40 23.5 57t57.5 17q40 0 65 -20t25 -54zM445 165q-35 -53 -82 -79t-92 -26q-68 0 -110 41.5 t-42 109.5q0 53 35.5 99.5t96.5 77.5z" />
<glyph unicode="'" horiz-adv-x="186" d="M60 548q0 -17 9.5 -27.5t23.5 -10.5t23.5 10.5t9.5 27.5v132q0 17 -9.5 27.5t-23.5 10.5t-23.5 -10.5t-9.5 -27.5v-132z" />
<glyph unicode="(" horiz-adv-x="204" d="M109 330q0 81 5 149.5t19 134.5q8 37 21 72q7 21 7 30q-2 24 -29 24q-17 0 -27.5 -15t-20.5 -49q-21 -77 -31 -166t-10 -180t10 -180t31 -166q10 -34 20.5 -49t27.5 -15q27 0 29 24q0 9 -7 30q-13 35 -21 72q-14 66 -19 134.5t-5 149.5z" />
<glyph unicode=")" horiz-adv-x="204" d="M95 330q0 -81 -5 -149.5t-19 -134.5q-8 -37 -21 -72q-7 -21 -7 -30q2 -24 29 -24q17 0 27.5 15t20.5 49q21 77 31 166t10 180t-10 180t-31 166q-10 34 -20.5 49t-27.5 15q-27 0 -29 -24q0 -9 7 -30q13 -35 21 -72q14 -66 19 -134.5t5 -149.5z" />
<glyph unicode="*" horiz-adv-x="388" d="M160 540l-91 -41q-29 -14 -29 -30q0 -29 31 -29q12 0 33 15l74 56l-8 -56q-4 -26 -5 -38t-1 -22q0 -33 30 -33t30 33q0 10 -1 22t-5 38l-8 56l74 -56q21 -15 33 -15q31 0 31 29q0 16 -29 30l-91 41l91 41q29 14 29 30q0 29 -31 29q-12 0 -33 -15l-74 -56l8 56 q4 26 5 38.5t1 21.5q0 33 -30 33t-30 -33q0 -9 1 -21.5t5 -38.5l8 -56l-74 56q-21 15 -33 15q-31 0 -31 -29q0 -16 29 -30z" />
<glyph unicode="+" horiz-adv-x="600" d="M267 286h-182q-17 0 -27.5 -9.5t-10.5 -23.5t10.5 -23.5t27.5 -9.5h182v-182q0 -17 9.5 -27.5t23.5 -10.5t23.5 10.5t9.5 27.5v182h182q17 0 27.5 9.5t10.5 23.5t-10.5 23.5t-27.5 9.5h-182v182q0 17 -9.5 27.5t-23.5 10.5t-23.5 -10.5t-9.5 -27.5v-182z" />
<glyph unicode="," horiz-adv-x="240" d="M40 -61q-8 -18 -8 -30t9.5 -21.5t25.5 -9.5q24 0 34 21l57 126q8 18 8 30t-9.5 21.5t-25.5 9.5q-24 0 -34 -21z" />
<glyph unicode="-" horiz-adv-x="352" d="M79 299q-17 0 -27.5 -9.5t-10.5 -23.5t10.5 -23.5t27.5 -9.5h194q17 0 27.5 9.5t10.5 23.5t-10.5 23.5t-27.5 9.5h-194z" />
<glyph unicode="." horiz-adv-x="240" d="M74 40q0 -19 13.5 -32.5t32.5 -13.5t32.5 13.5t13.5 32.5t-13.5 32.5t-32.5 13.5t-32.5 -13.5t-13.5 -32.5z" />
<glyph unicode="/" horiz-adv-x="407" d="M47 47q-7 -17 -7 -27q0 -26 31 -26q23 0 34 26l255 645q7 18 7 27q0 26 -31 26q-23 0 -34 -26z" />
<glyph unicode="0" d="M268 -6q40 0 80 19.5t73 62.5t53.5 113t20.5 167t-20.5 167t-53.5 113t-73 62.5t-80 19.5t-79.5 -19.5t-73 -62.5t-54 -113t-20.5 -167t20.5 -167t54 -113t73 -62.5t79.5 -19.5zM268 652q73 0 111 -81.5t38 -214.5t-38 -214.5t-111 -81.5t-111 81.5t-38 214.5t38 214.5 t111 81.5z" />
<glyph unicode="1" horiz-adv-x="352" d="M176 646v-606q0 -46 36 -46t36 46v639q0 14 -10.5 23.5t-27.5 9.5h-125q-17 0 -27.5 -9.5t-10.5 -23.5t10.5 -23.5t27.5 -9.5h91z" />
<glyph unicode="2" d="M165 66l224 306q37 50 52.5 88.5t15.5 75.5q0 85 -51.5 133.5t-137.5 48.5q-46 0 -84.5 -16.5t-66.5 -46.5t-43 -70t-15 -85q0 -26 9.5 -37t27.5 -11q35 0 35 36q0 80 35 122t99 42q55 0 84.5 -29t29.5 -93q0 -55 -61 -139l-231 -319q-11 -15 -15 -25t-4 -19 q0 -12 9.5 -20t28.5 -8h333q17 0 27.5 9.5t10.5 23.5t-10.5 23.5t-27.5 9.5h-274z" />
<glyph unicode="3" d="M351 535q0 -55 -24 -88.5t-67 -39.5q-23 -3 -32.5 -12t-9.5 -23q0 -15 12 -23.5t59 -16.5q17 -3 33.5 -10t32 -22t25.5 -40.5t10 -61.5q0 -59 -38.5 -98.5t-101.5 -39.5q-33 0 -57.5 12.5t-40 30t-23 32.5t-12.5 30t-14 20t-19 5q-12 0 -22.5 -10.5t-10.5 -29.5 q0 -20 13.5 -46.5t39.5 -51.5t63 -41.5t83 -16.5t86 16t69.5 45.5t46 69.5t16.5 86q0 59 -33.5 105.5t-86.5 63.5q38 25 59.5 66.5t21.5 92.5q0 77 -50.5 128t-128.5 51q-37 0 -68.5 -14t-54.5 -39t-35 -57.5t-12 -67.5q0 -15 10.5 -25.5t25.5 -10.5t25.5 10.5t10.5 25.5 q0 54 25.5 83t72.5 29q28 0 48 -11.5t31.5 -30t16.5 -38.5t5 -37z" />
<glyph unicode="4" d="M355 40q0 -46 36 -46t36 46v151h39q17 0 27.5 9.5t10.5 23.5t-10.5 23.5t-27.5 9.5h-39v402q0 27 -15.5 43t-43.5 16q-24 0 -42 -12.5t-30 -32.5l-237 -394q-27 -43 -27 -60q0 -14 8.5 -21t28.5 -7h286v-151zM355 257h-232l230 401h2v-401z" />
<glyph unicode="5" d="M123 431l-2 -11q-3 -23 -3 -32q0 -12 8.5 -19.5t18.5 -7.5q14 0 40 12q17 9 31 13.5t33 4.5q65 0 103 -42t38 -112q0 -76 -39 -126.5t-105 -50.5q-45 0 -73 15.5t-55 41.5q-23 22 -33 22q-16 0 -25.5 -12.5t-9.5 -23.5q0 -12 15.5 -30.5t42.5 -36.5t63 -30t76 -12 q98 0 159.5 69t61.5 183q0 45 -15 83.5t-42 67t-62.5 44.5t-74.5 16q-44 0 -78 -17l32 206h189q17 0 27.5 9.5t10.5 23.5t-10.5 23.5t-27.5 9.5h-214q-21 0 -30 -11t-13 -35z" />
<glyph unicode="6" d="M271 -6q51 0 90 20.5t64 55t37.5 76.5t12.5 85q0 104 -52 166t-140 62q-28 0 -55 -7.5t-48 -20.5h-2q42 85 80.5 132.5t79.5 86.5q31 29 31 40q0 17 -9 27.5t-23 10.5q-16 0 -38 -20q-49 -45 -91.5 -99t-75.5 -115t-52 -127.5t-19 -135.5q0 -39 11.5 -80t36.5 -77t66 -58 t96 -22zM265 60q-61 0 -93.5 49t-32.5 116q0 85 32 129.5t96 44.5q59 0 94.5 -48t35.5 -126q0 -79 -37.5 -122t-94.5 -43z" />
<glyph unicode="7" horiz-adv-x="481" d="M440 646q5 12 8.5 24t3.5 20q0 22 -35 22h-350q-17 0 -27.5 -9.5t-10.5 -23.5t10.5 -23.5t27.5 -9.5h298l-248 -586q-12 -27 -12 -38q0 -12 9.5 -20t23.5 -8q12 0 21 5t16 21z" />
<glyph unicode="8" d="M268 364q60 0 94.5 -43.5t34.5 -104.5q0 -60 -34.5 -108t-94.5 -48t-94.5 48t-34.5 108q0 61 34.5 104.5t94.5 43.5zM268 -6q49 0 88 17.5t65.5 47.5t40 69t13.5 82q0 68 -33 118t-89 65v2q42 26 68 67t26 91q0 32 -13.5 62t-37.5 53.5t-57 36.5t-71 13t-71 -13 t-57 -36.5t-37.5 -53.5t-13.5 -62q0 -50 26 -91t68 -67v-2q-56 -15 -89 -65t-33 -118q0 -43 13.5 -82t40.5 -69.5t65.5 -47.5t87.5 -17zM268 430q-53 0 -80 32.5t-27 83.5q0 45 29.5 75.5t77.5 30.5q46 0 76.5 -31t30.5 -77q0 -50 -27.5 -82t-79.5 -32z" />
<glyph unicode="9" d="M265 718q-51 0 -89.5 -20.5t-64 -55t-38 -76.5t-12.5 -85q0 -104 52 -166t140 -62q28 0 55 7.5t48 20.5h2q-42 -85 -80.5 -132.5t-79.5 -86.5q-31 -29 -31 -40q0 -17 9 -27.5t23 -10.5q17 0 38 20q49 45 91.5 99t75.5 115t52 128t19 135q0 39 -11.5 80t-36.5 77t-66 58 t-96 22zM271 652q61 0 93.5 -49t32.5 -116q0 -85 -32 -129.5t-96 -44.5q-59 0 -94.5 48t-35.5 126q0 79 37.5 122t94.5 43z" />
<glyph unicode=":" horiz-adv-x="240" d="M74 378q0 -19 13.5 -32.5t32.5 -13.5t32.5 13.5t13.5 32.5t-13.5 32.5t-32.5 13.5t-32.5 -13.5t-13.5 -32.5zM74 40q0 -19 13.5 -32.5t32.5 -13.5t32.5 13.5t13.5 32.5t-13.5 32.5t-32.5 13.5t-32.5 -13.5t-13.5 -32.5z" />
<glyph unicode=";" horiz-adv-x="240" d="M40 -61q-8 -18 -8 -30t9.5 -21.5t25.5 -9.5q24 0 34 21l57 126q8 18 8 30t-9.5 21.5t-25.5 9.5q-24 0 -34 -21zM166 378q0 18 -14 32t-32 14t-32 -14t-14 -32t14 -32t32 -14t32 14t14 32z" />
<glyph unicode="&#x3c;" horiz-adv-x="600" d="M138 253l391 191q34 16 34 43q0 10 -8 17.5t-21 7.5t-31 -9l-439 -215q-16 -7 -21.5 -16t-5.5 -19t5.5 -19t21.5 -16l439 -215q18 -9 31 -9q29 0 29 31q0 12 -7 19.5t-24 16.5z" />
<glyph unicode="=" horiz-adv-x="600" d="M85 386q-17 0 -27.5 -9.5t-10.5 -23.5t10.5 -23.5t27.5 -9.5h430q17 0 27.5 9.5t10.5 23.5t-10.5 23.5t-27.5 9.5h-430zM85 186q-17 0 -27.5 -9.5t-10.5 -23.5t10.5 -23.5t27.5 -9.5h430q17 0 27.5 9.5t10.5 23.5t-10.5 23.5t-27.5 9.5h-430z" />
<glyph unicode="&#x3e;" horiz-adv-x="600" d="M462 253l-394 -192q-17 -9 -24 -16.5t-7 -19.5q0 -31 29 -31q13 0 31 9l439 215q16 7 21.5 16t5.5 19t-5.5 19t-21.5 16l-439 215q-18 9 -31 9q-12 0 -20.5 -7.5t-8.5 -17.5q0 -27 34 -43z" />
<glyph unicode="?" horiz-adv-x="444" d="M175 246q0 -46 36 -46t36 46v106q37 9 66.5 23t53 36t37 54.5t13.5 76.5q0 78 -55.5 127t-143.5 49q-37 0 -72 -10.5t-62 -30.5t-42 -47.5t-15 -59.5q0 -16 8.5 -27t24.5 -11q18 0 26 8.5t13 32.5q8 37 42.5 58t76.5 21q47 0 84 -29.5t37 -82.5q0 -48 -31 -80t-94 -45 q-25 -5 -32 -13t-7 -29v-127zM165 40q0 -19 13.5 -32.5t32.5 -13.5t32.5 13.5t13.5 32.5t-13.5 32.5t-32.5 13.5t-32.5 -13.5t-13.5 -32.5z" />
<glyph unicode="@" horiz-adv-x="800" d="M262 297q0 32 12 68t33 66.5t50 49.5t61 19q41 0 61 -23t20 -66q0 -26 -12 -61.5t-33.5 -68.5t-50 -54.5t-60.5 -21.5q-38 0 -59.5 25.5t-21.5 66.5zM530 488q-17 39 -49 58.5t-69 19.5q-49 0 -91 -23.5t-73 -63.5t-47.5 -89t-16.5 -98q0 -66 37 -109.5t103 -43.5 q44 0 70.5 17t50.5 46h2q12 -63 80 -63q32 0 73 21t78 59t60.5 90t23.5 111q0 64 -27 119t-75 95t-112 62t-137 22q-75 0 -142.5 -27.5t-120 -77.5t-81.5 -115.5t-29 -139.5q0 -75 28.5 -141.5t79.5 -116.5t118.5 -78t143.5 -28q62 0 118 17.5t97 43t64.5 50.5t23.5 38 q0 22 -22 22q-10 0 -37 -24q-22 -19 -40.5 -33t-47.5 -28t-69.5 -23t-90.5 -9q-61 0 -116.5 23t-98 65t-67 98t-24.5 119t23.5 120t66 100t100.5 67t124 24q60 0 112.5 -17t93 -50t62.5 -79.5t22 -102.5q0 -38 -13 -77.5t-35.5 -72.5t-50.5 -52.5t-57 -19.5q-27 0 -27 30 q0 17 10 49l72 229q4 11 5 15.5t1 8.5q0 23 -29 23q-12 0 -20.5 -5.5t-14.5 -20.5z" />
<glyph unicode="A" horiz-adv-x="612" d="M133 155h346l47 -128q6 -16 14.5 -24.5t25.5 -8.5q32 0 32 28q0 13 -7 30l-229 614v1q-10 24 -21 37.5t-35 13.5t-35 -13.5t-21 -37.5v-1l-229 -614q-7 -17 -7 -30q0 -28 32 -28q16 0 23.5 7t15.5 23l1 3zM455 221h-298l148 403h2z" />
<glyph unicode="B" horiz-adv-x="537" d="M66 38q0 -38 44 -38h164q57 0 100 16t71 45t41.5 65.5t13.5 77.5q0 75 -41 121t-115 58v2q49 20 75 54.5t26 94.5q0 32 -11 63t-35.5 57.5t-64.5 42t-95 15.5h-129q-44 0 -44 -38v-636zM138 646h107q60 0 94 -34t34 -81q0 -54 -37 -89t-93 -35h-105v239zM138 347h127 q73 0 118 -39t45 -102q0 -68 -42.5 -104t-119.5 -36h-128v281z" />
<glyph unicode="C" horiz-adv-x="593" d="M350 718q-76 0 -135 -30.5t-97.5 -83.5t-58 -119.5t-19.5 -138.5q0 -73 19.5 -136.5t59 -112t100 -76t139.5 -27.5q47 0 88 10.5t71 27t47 33.5t17 29q0 36 -30 36q-8 0 -30 -16q-33 -24 -68 -39t-91 -15q-62 0 -108.5 23t-76.5 63.5t-44.5 91.5t-14.5 108q0 55 15 109.5 t45 99t73.5 71t97.5 26.5q51 0 84.5 -16t65.5 -42q25 -21 35 -21q12 0 22 10.5t10 27.5q0 13 -17 31.5t-47.5 36t-69.5 28.5t-82 11z" />
<glyph unicode="D" horiz-adv-x="630" d="M66 38q0 -38 44 -38h172q65 0 121 24t98 70t65.5 111.5t23.5 145.5q0 65 -17.5 129t-54 116.5t-94.5 84t-136 31.5h-178q-44 0 -44 -38v-636zM138 646h144q61 0 105.5 -24t72 -64t40 -90t12.5 -104q0 -65 -12.5 -119t-40.5 -94t-73 -62.5t-108 -22.5h-140v580z" />
<glyph unicode="E" horiz-adv-x="444" d="M138 322h199q17 0 27.5 9.5t10.5 23.5t-10.5 23.5t-27.5 9.5h-198v258h207q17 0 27.5 9.5t10.5 23.5t-10.5 23.5t-27.5 9.5h-236q-44 0 -44 -38v-636q0 -38 44 -38h246q17 0 27.5 9.5t10.5 23.5t-10.5 23.5t-27.5 9.5h-218v256z" />
<glyph unicode="F" horiz-adv-x="407" d="M138 322h192q17 0 27.5 9.5t10.5 23.5t-10.5 23.5t-27.5 9.5h-192v258h217q17 0 27.5 9.5t10.5 23.5t-10.5 23.5t-27.5 9.5h-253q-15 -1 -25.5 -11t-10.5 -25v-636q0 -46 36 -46t36 46v282z" />
<glyph unicode="G" horiz-adv-x="667" d="M444 401q-17 0 -27.5 -9.5t-10.5 -23.5t10.5 -23.5t27.5 -9.5h126q0 -56 -12 -105t-37 -87.5t-66 -60.5t-97 -22q-60 0 -105.5 23t-75 63.5t-44.5 94t-15 115.5q0 53 14 105.5t43 96t74.5 69t104.5 25.5q53 0 89 -16t73 -43q31 -22 42 -22q15 0 25 10t10 28 q0 12 -19 30.5t-52.5 36.5t-78 30t-93.5 12q-76 0 -134.5 -30.5t-97.5 -82t-58.5 -116.5t-19.5 -133q0 -71 18 -135.5t56 -116t98 -81t140 -29.5q62 0 114 17t91.5 57t62 109t22.5 169q0 25 -13.5 40t-47.5 15h-137z" />
<glyph unicode="H" horiz-adv-x="667" d="M138 332h391v-292q0 -46 36 -46t36 46v632q0 46 -36 46t-36 -46v-274h-391v274q0 46 -36 46t-36 -46v-632q0 -46 36 -46t36 46v292z" />
<glyph unicode="I" horiz-adv-x="204" d="M138 672q0 46 -36 46t-36 -46v-632q0 -46 36 -46t36 46v632z" />
<glyph unicode="J" horiz-adv-x="352" d="M286 672q0 46 -36 46t-36 -46v-508q0 -51 -19 -80.5t-69 -29.5q-30 0 -49 8t-38 22q-18 13 -28 13q-28 0 -28 -32q0 -10 11 -22.5t31.5 -23.5t47 -18t56.5 -7q72 0 114.5 46t42.5 124v508z" />
<glyph unicode="K" horiz-adv-x="556" d="M138 345l343 -327q24 -24 43 -24q14 0 23 9t9 22q0 18 -16 32l-336 320l312 280q10 8 13 15t3 16q0 12 -8 21t-23 9q-18 0 -44 -24l-319 -287v265q0 46 -36 46t-36 -46v-632q0 -46 36 -46t36 46v305z" />
<glyph unicode="L" horiz-adv-x="370" d="M138 672q0 46 -36 46t-36 -46v-636q0 -15 10.5 -25.5t25.5 -10.5h224q17 0 27.5 9.5t10.5 23.5t-10.5 23.5t-27.5 9.5h-188v606z" />
<glyph unicode="M" horiz-adv-x="834" d="M417 119h-2l-158 552q-14 47 -55 47q-28 0 -48 -12t-25 -44l-85 -570l-2 -14l-6 -34.5t-2 -16.5q0 -18 10 -25.5t24 -7.5q18 0 26.5 11t11.5 32l89 601h2l183 -607q6 -19 13.5 -28t22.5 -9q16 0 25.5 10.5t17.5 37.5l178 598h2l89 -603q3 -21 11.5 -32t26.5 -11 q14 0 24 7.5t10 25.5q0 5 -2.5 21.5t-5.5 29.5l-2 14l-85 570q-5 32 -25 44t-48 12q-39 0 -53 -47z" />
<glyph unicode="N" horiz-adv-x="666" d="M138 586h2l387 -566q10 -14 18 -20t21 -6q16 0 25 10t9 34v634q0 46 -36 46t-36 -46v-539h-2l-382 559q-9 12 -18.5 19t-23.5 7q-36 0 -36 -42v-636q0 -46 36 -46t36 46v546z" />
<glyph unicode="O" horiz-adv-x="684" d="M40 356q0 -69 19.5 -134t57.5 -116.5t95 -81.5t130 -30t130 30t95 81.5t57.5 116.5t19.5 134t-19 134t-57.5 116.5t-95.5 81.5t-130 30t-130 -30t-95 -81.5t-57.5 -116.5t-19.5 -134zM342 60q-60 0 -103 26t-70 69.5t-39 95t-12 105.5t12 106t38.5 95t70 69t103.5 26 t103.5 -26t70 -69.5t38.5 -95t12 -105.5t-12 -105.5t-38.5 -95t-70 -69.5t-103.5 -26z" />
<glyph unicode="P" horiz-adv-x="519" d="M138 272h126q60 0 105 18t74.5 50t44 72.5t14.5 85.5q0 36 -12.5 73t-38.5 69t-68.5 52t-100.5 20h-171q-24 0 -34.5 -9.5t-10.5 -28.5v-634q0 -46 36 -46t36 46v232zM138 646h132q41 0 71.5 -13.5t50 -35.5t29 -49.5t9.5 -55.5t-9.5 -55.5t-29 -49.5t-50 -35.5 t-71.5 -13.5h-132v308z" />
<glyph unicode="Q" horiz-adv-x="684" d="M585 130q30 48 44.5 106t14.5 120q0 69 -19 134t-57.5 116.5t-95.5 81.5t-130 30t-130 -30t-95 -81.5t-57.5 -116.5t-19.5 -134t19.5 -134t57.5 -116.5t95 -81.5t130 -30q64 0 115 22.5t89 63.5l66 -70q15 -16 31 -16q12 0 21.5 8t9.5 19q0 17 -15 32zM500 128 q-27 -35 -66.5 -54.5t-91.5 -19.5q-60 0 -103.5 26t-70 70t-38.5 97t-12 109t12 109t38.5 96.5t70 70t103.5 26.5t103.5 -26t70 -70t38.5 -97t12 -109q0 -46 -7.5 -90t-24.5 -81l-49 52q-14 15 -30 15q-15 0 -24.5 -8.5t-9.5 -20.5q0 -11 14 -27z" />
<glyph unicode="R" horiz-adv-x="519" d="M138 316l285 -306q15 -16 32 -16q13 0 22.5 8.5t9.5 21.5q0 10 -3 16.5t-11 14.5l-246 263h66q85 0 137.5 57t52.5 144q0 38 -14 72.5t-41.5 62t-68 43t-91.5 15.5h-157q-24 0 -34.5 -9.5t-10.5 -28.5v-634q0 -46 36 -46t36 46v276zM138 646h125q148 0 148 -140 q0 -62 -38.5 -95t-109.5 -33h-125v268z" />
<glyph unicode="S" horiz-adv-x="462" d="M216 -6q50 0 92 17t72 47.5t46 72t16 89.5q0 44 -16 76.5t-43 53.5t-57 35t-76 31q-37 14 -60.5 24t-43 23.5t-31 33t-11.5 44.5q0 45 37 78t92 33q30 0 50.5 -8.5t43.5 -23.5q28 -18 43 -18q11 0 20.5 11t9.5 27q0 13 -14 26.5t-38 25.5t-53 19t-57 7q-86 -2 -146 -51 t-60 -131q0 -41 15.5 -70.5t41 -49.5t53.5 -32.5t74 -30.5q39 -14 63 -25t45 -26t33.5 -36.5t12.5 -50.5q0 -28 -11.5 -56t-33.5 -50t-52.5 -35.5t-66.5 -13.5q-18 0 -37 4.5t-36 11t-29.5 12.5t-15.5 9q-6 6 -17 11.5t-17 5.5q-14 0 -24 -10.5t-10 -24.5q0 -31 56 -58 t140 -27z" />
<glyph unicode="T" horiz-adv-x="426" d="M249 646h138q17 0 27.5 9.5t10.5 23.5t-10.5 23.5t-27.5 9.5h-348q-17 0 -27.5 -9.5t-10.5 -23.5t10.5 -23.5t27.5 -9.5h138v-606q0 -46 36 -46t36 46v606z" />
<glyph unicode="U" horiz-adv-x="666" d="M66 242q0 -60 21.5 -106.5t59.5 -78t86 -47.5t100 -16t100.5 16t86 47.5t59 78t21.5 106.5v430q0 46 -36 46t-36 -46v-421q0 -48 -16 -84t-43.5 -60t-62 -35.5t-73.5 -11.5t-73.5 11.5t-62 35.5t-43.5 60t-16 84v421q0 46 -36 46t-36 -46v-430z" />
<glyph unicode="V" horiz-adv-x="556" d="M279 113h-2l-196 575q-9 30 -35 30q-16 0 -26 -9.5t-10 -24.5q0 -12 14 -50l211 -596q7 -20 16.5 -32t26.5 -12t26.5 12t16.5 32l211 596q14 38 14 50q0 15 -10 24.5t-26 9.5q-25 0 -35 -30z" />
<glyph unicode="W" horiz-adv-x="816" d="M198 78h-2l-96 604q-3 20 -13.5 28t-25.5 8q-33 0 -33 -30q0 -6 2 -19.5t10 -54.5l101 -580q4 -19 19.5 -29.5t33.5 -10.5q21 0 34.5 9.5t19.5 30.5l159 571h2l155 -571q6 -21 19.5 -30.5t34.5 -9.5q19 0 34.5 10.5t18.5 29.5l105 580q6 30 9 49.5t3 24.5q0 30 -33 30 q-15 0 -25.5 -8t-13.5 -28l-96 -604h-2l-172 606q-4 15 -13 24.5t-25 9.5t-24.5 -9.5t-13.5 -24.5z" />
<glyph unicode="X" horiz-adv-x="594" d="M297 439l-174 253q-10 15 -17.5 20.5t-20.5 5.5q-14 0 -24 -8.5t-10 -19.5q0 -12 14 -33l192 -275l-231 -327q-14 -21 -14 -33q0 -11 10 -19.5t24 -8.5q13 0 20.5 5.5t17.5 20.5l213 304l213 -304q10 -15 17.5 -20.5t20.5 -5.5q14 0 24 8.5t10 19.5q0 12 -14 33l-231 327 l192 275q14 21 14 33q0 11 -10 19.5t-24 8.5q-13 0 -20.5 -5.5t-17.5 -20.5z" />
<glyph unicode="Y" horiz-adv-x="482" d="M241 407l-174 290q-12 21 -36 21q-30 0 -30 -28q0 -7 4.5 -17.5t17.5 -32.5l182 -303v-297q0 -46 36 -46t36 46v297l182 303q13 22 17.5 32.5t4.5 17.5q0 28 -30 28q-24 0 -36 -21z" />
<glyph unicode="Z" horiz-adv-x="556" d="M118 66l383 583q14 20 14 36q0 11 -8.5 19t-25.5 8h-401q-17 0 -27.5 -9.5t-10.5 -23.5t10.5 -23.5t27.5 -9.5h334l-357 -544q-16 -24 -22.5 -38t-6.5 -24q0 -18 15.5 -29t44.5 -11h402q17 0 27.5 9.5t10.5 23.5t-10.5 23.5t-27.5 9.5h-372z" />
<glyph unicode="[" horiz-adv-x="222" d="M74 -22q0 -15 10.5 -25.5t25.5 -10.5h68q16 0 23.5 9.5t7.5 20.5t-7.5 20.5t-23.5 9.5h-32v656h32q16 0 23.5 9.5t7.5 20.5t-7.5 20.5t-23.5 9.5h-68q-15 0 -25.5 -10.5t-10.5 -25.5v-704z" />
<glyph unicode="\" horiz-adv-x="407" d="M105 692q-11 26 -34 26q-31 0 -31 -26q0 -9 7 -27l255 -645q11 -26 34 -26q31 0 31 26q0 10 -7 27z" />
<glyph unicode="]" horiz-adv-x="222" d="M148 682q0 15 -10.5 25.5t-25.5 10.5h-68q-16 0 -23.5 -9.5t-7.5 -20.5t7.5 -20.5t23.5 -9.5h32v-656h-32q-16 0 -23.5 -9.5t-7.5 -20.5t7.5 -20.5t23.5 -9.5h68q15 0 25.5 10.5t10.5 25.5v704z" />
<glyph unicode="^" horiz-adv-x="600" d="M57 316q-9 -15 -9 -28t10 -19.5t23 -6.5q14 1 22.5 9t18.5 26l178 323l178 -323q10 -18 18.5 -26t22.5 -9q13 0 23 6.5t10 19.5t-9 28l-211 380q-7 13 -14.5 17.5t-17.5 4.5t-17.5 -4.5t-14.5 -17.5z" />
<glyph unicode="_" horiz-adv-x="500" d="M500 -125q29 0 29 25t-29 25h-500q-29 0 -29 -25t29 -25h500z" />
<glyph unicode="`" horiz-adv-x="204" d="M158 608q14 -6 26 -6t20 11t8 23q0 11 -5 18.5t-23 14.5l-138 53q-14 6 -26 6t-20 -11t-8 -23q0 -11 5 -18.5t23 -14.5z" />
<glyph unicode="a" horiz-adv-x="556" d="M418 459h-3q-61 79 -149 79q-56 0 -99 -23t-71.5 -61.5t-42.5 -87t-14 -100.5q0 -118 59.5 -195t169.5 -77q47 0 85 20t62 59h3v-33q0 -46 36 -46t36 46v452q0 46 -36 46t-36 -46v-33zM117 266q0 38 8.5 75.5t27 68.5t47.5 49.5t68 18.5q40 0 69 -18.5t47 -49.5t26 -68 t8 -76t-8 -76t-26 -68t-47 -49.5t-69 -18.5t-69.5 18.5t-47 49.5t-26 68.5t-8.5 75.5z" />
<glyph unicode="b" horiz-adv-x="556" d="M66 40q0 -46 36 -46t36 46v33h3q24 -39 62 -59t85 -20q110 0 169.5 77t59.5 195q0 52 -14 100.5t-42.5 87t-71.5 61.5t-99 23q-88 0 -149 -79h-3v267q0 46 -36 46t-36 -46v-686zM137 266q0 38 8.5 75.5t26 68.5t47 49.5t69.5 18.5t69.5 -18.5t47 -49.5t26 -68.5 t8.5 -75.5t-8.5 -75.5t-26 -68.5t-47 -49.5t-69.5 -18.5t-69.5 18.5t-47 49.5t-26 68.5t-8.5 75.5z" />
<glyph unicode="c" horiz-adv-x="444" d="M268 60q-34 0 -62.5 17t-48 46.5t-30 68t-10.5 80.5q0 33 9.5 68t28.5 65t48 48.5t65 18.5q28 0 45.5 -6t34.5 -15q14 -9 21 -9q20 0 30 11t10 29q0 22 -40.5 39t-91.5 17q-55 0 -99.5 -23t-75.5 -62t-47 -87.5t-16 -99.5t15 -99.5t44 -87.5t72.5 -62t97.5 -23 q58 0 98 17t40 48q0 12 -9.5 20.5t-20.5 8.5q-7 0 -24 -8q-20 -9 -38 -14.5t-46 -5.5z" />
<glyph unicode="d" horiz-adv-x="556" d="M418 459h-3q-61 79 -149 79q-56 0 -99 -23t-71.5 -61.5t-42.5 -87t-14 -100.5q0 -118 59.5 -195t169.5 -77q47 0 85 20t62 59h3v-33q0 -46 36 -46t36 46v686q0 46 -36 46t-36 -46v-267zM117 266q0 38 8.5 75.5t27 68.5t47.5 49.5t68 18.5q40 0 69 -18.5t47 -49.5t26 -68 t8 -76t-8 -76t-26 -68t-47 -49.5t-69 -18.5t-69.5 18.5t-47 49.5t-26 68.5t-8.5 75.5z" />
<glyph unicode="e" horiz-adv-x="519" d="M446 234q29 0 39 12.5t10 31.5q0 51 -14.5 98t-43.5 83.5t-72 57.5t-97 21t-97 -23t-72.5 -62t-44.5 -87.5t-15 -99.5q0 -52 14 -100.5t44 -87.5t76 -61.5t107 -22.5q44 0 82 11.5t66 29t43.5 36t15.5 30.5q0 20 -9 27.5t-25 7.5q-12 0 -38 -23q-30 -27 -61 -43t-79 -16 q-34 0 -62.5 14.5t-49.5 40t-33 58t-13 67.5h329zM117 294q1 34 11 67t29 58q42 59 110 59t110 -59q19 -25 29 -58t11 -67h-300z" />
<glyph unicode="f" horiz-adv-x="241" d="M156 472h64q16 0 23.5 9.5t7.5 20.5t-7.5 20.5t-23.5 9.5h-64v141q0 14 10.5 23.5t27.5 9.5h33q20 0 29 9t9 24q0 14 -12.5 23.5t-36.5 9.5h-37q-42 0 -68.5 -25.5t-26.5 -77.5v-137h-47q-16 0 -23.5 -9.5t-7.5 -20.5t7.5 -20.5t23.5 -9.5h47v-432q0 -46 36 -46t36 46 v432z" />
<glyph unicode="g" horiz-adv-x="556" d="M418 460h-2q-24 34 -64.5 56t-85.5 22q-56 0 -99 -23t-71.5 -61.5t-42.5 -87t-14 -100.5q0 -118 59.5 -195t169.5 -77q102 0 148 81h2v-56q0 -43 -13.5 -75.5t-37 -53t-53.5 -30.5t-63 -10q-35 0 -62.5 12.5t-57.5 33.5t-41 21q-18 0 -27 -10t-9 -27q0 -14 16.5 -30.5 t46.5 -31.5t66.5 -24.5t74.5 -9.5q45 0 86.5 14.5t74.5 45t52 76t19 105.5v467q0 46 -36 46t-36 -46v-32zM117 266q0 38 8.5 75.5t26 68.5t47 49.5t69.5 18.5q35 0 63.5 -14t48 -37.5t29.5 -52t10 -57.5v-102q0 -28 -10 -56.5t-29.5 -52.5t-48 -38t-63.5 -14 q-40 0 -69.5 18.5t-47 49.5t-26 68.5t-8.5 75.5z" />
<glyph unicode="h" d="M138 333q0 65 38 102t92 37q60 0 95 -33t35 -89v-310q0 -46 36 -46t36 46v308q0 90 -60 143q-27 23 -61 35t-70 12q-47 0 -81.5 -19.5t-57.5 -52.5h-2v260q0 46 -36 46t-36 -46v-686q0 -46 36 -46t36 46v293z" />
<glyph unicode="i" horiz-adv-x="204" d="M138 492q0 46 -36 46t-36 -46v-452q0 -46 36 -46t36 46v452zM53 669q0 -20 14.5 -34.5t34.5 -14.5t34.5 14.5t14.5 34.5t-14.5 34.5t-34.5 14.5t-34.5 -14.5t-14.5 -34.5z" />
<glyph unicode="j" horiz-adv-x="204" d="M138 491q0 47 -36 47t-36 -47v-661q0 -46 36 -46t36 46v661zM53 669q0 -20 14.5 -34.5t34.5 -14.5t34.5 14.5t14.5 34.5t-14.5 34.5t-34.5 14.5t-34.5 -14.5t-14.5 -34.5z" />
<glyph unicode="k" horiz-adv-x="444" d="M138 254l218 -220q24 -23 36 -31.5t28 -8.5q12 0 20.5 9t8.5 21t-6.5 22t-20.5 24l-239 233l216 167q21 17 21 37q0 13 -9 22t-21 9q-7 0 -15 -4.5t-22 -15.5l-215 -174v382q0 46 -36 46t-36 -46v-686q0 -46 36 -46t36 46v214z" />
<glyph unicode="l" horiz-adv-x="204" d="M138 726q0 46 -36 46t-36 -46v-686q0 -46 36 -46t36 46v686z" />
<glyph unicode="m" horiz-adv-x="832" d="M452 333q0 64 37 101.5t85 37.5q24 0 44.5 -6t37.5 -20.5t27.5 -42.5t10.5 -70v-293q0 -46 36 -46t36 46v308q0 90 -60 143q-27 23 -61 35t-70 12q-44 0 -87 -24.5t-69 -68.5q-18 43 -55.5 68t-84.5 25t-81.5 -19.5t-57.5 -52.5h-2v26q0 46 -36 46t-36 -46v-452 q0 -46 36 -46t36 46v293q0 64 37 101.5t85 37.5q24 0 44.5 -6t37.5 -20.5t27.5 -42.5t10.5 -70v-293q0 -46 36 -46t36 46v293z" />
<glyph unicode="n" d="M138 333q0 65 38 102t92 37q60 0 95 -33t35 -89v-310q0 -46 36 -46t36 46v308q0 90 -60 143q-27 23 -61 35t-70 12q-47 0 -81.5 -19.5t-57.5 -52.5h-2v26q0 46 -36 46t-36 -46v-452q0 -46 36 -46t36 46v293z" />
<glyph unicode="o" d="M117 266q0 38 8.5 75.5t26 68.5t47 49.5t69.5 18.5t69.5 -18.5t47 -49.5t26 -68.5t8.5 -75.5t-8.5 -75.5t-26 -68.5t-47 -49.5t-69.5 -18.5t-69.5 18.5t-47 49.5t-26 68.5t-8.5 75.5zM497 266q0 52 -14 100.5t-42.5 87t-72 61.5t-100.5 23q-56 0 -99.5 -23t-72.5 -61.5 t-43 -87t-14 -100.5q0 -118 59.5 -195t169.5 -77t169.5 77t59.5 195z" />
<glyph unicode="p" horiz-adv-x="556" d="M66 -170q0 -46 36 -46t36 46v243h3q61 -79 149 -79q56 0 99 23t71.5 62t42.5 87t14 100q0 119 -59.5 195.5t-169.5 76.5q-47 0 -85 -20t-62 -59h-3v33q0 46 -36 46t-36 -46v-662zM137 266q0 38 8.5 75.5t26 68.5t47 49.5t69.5 18.5t69.5 -18.5t47 -49.5t26 -68.5 t8.5 -75.5t-8.5 -75.5t-26 -68.5t-47 -49.5t-69.5 -18.5t-69.5 18.5t-47 49.5t-26 68.5t-8.5 75.5z" />
<glyph unicode="q" horiz-adv-x="556" d="M39 266q0 -52 14 -100.5t42.5 -87t71.5 -61.5t99 -23q88 0 149 79h3v-243q0 -46 36 -46t36 46v662q0 46 -36 46t-36 -46v-33h-3q-24 39 -62 59t-85 20q-110 0 -169.5 -76.5t-59.5 -195.5zM419 266q0 -38 -8.5 -75.5t-26 -68.5t-47 -49.5t-69.5 -18.5t-69.5 18.5t-47 49.5 t-26 68.5t-8.5 75.5t8.5 75.5t26 68.5t47 49.5t69.5 18.5t69.5 -18.5t47 -49.5t26 -68.5t8.5 -75.5z" />
<glyph unicode="r" horiz-adv-x="315" d="M138 299q0 42 12 71.5t30 48t37.5 28t38.5 13.5q26 6 37.5 15t11.5 24q0 17 -12 28t-36 11q-34 0 -66 -26t-51 -70h-2v50q0 46 -36 46t-36 -46v-452q0 -46 36 -46t36 46v259z" />
<glyph unicode="s" horiz-adv-x="444" d="M211 538q-30 0 -60 -9.5t-54.5 -28t-38.5 -45t-14 -57.5q0 -46 24 -74t69 -46l124 -51q36 -15 55 -32.5t19 -49.5q0 -38 -32 -64.5t-83 -26.5q-39 0 -65.5 14t-54.5 38t-41 24t-23.5 -13t-10.5 -22q0 -13 14 -30.5t40 -33.5t61.5 -26.5t76.5 -10.5q85 0 140.5 42.5 t55.5 111.5q0 57 -34.5 89.5t-98.5 58.5l-109 44q-25 10 -37 26.5t-12 36.5q0 36 31.5 55.5t72.5 19.5q29 0 51.5 -10t47.5 -28q27 -19 38 -19q20 0 28 10t8 25t-15 29.5t-41 26.5t-60.5 19t-71.5 7z" />
<glyph unicode="t" horiz-adv-x="240" d="M156 472h47q16 0 23.5 9.5t7.5 20.5t-7.5 20.5t-23.5 9.5h-47v117q0 47 -36 47t-36 -47v-117h-47q-16 0 -23.5 -9.5t-7.5 -20.5t7.5 -20.5t23.5 -9.5h47v-432q0 -46 36 -46t36 46v432z" />
<glyph unicode="u" d="M66 175q0 -84 57 -132.5t145 -48.5t145 48.5t57 132.5v317q0 46 -36 46t-36 -46v-299q0 -67 -34 -103t-96 -36q-61 0 -95.5 36t-34.5 103v299q0 46 -36 46t-36 -46v-317z" />
<glyph unicode="v" horiz-adv-x="426" d="M214 119h-2l-129 386q-11 33 -38 33q-14 0 -23.5 -10t-9.5 -23q0 -10 4 -21l160 -463q5 -15 15.5 -21t21.5 -6q12 0 22 6t15 21l160 463q4 11 4 21q0 13 -9.5 23t-23.5 10q-27 0 -38 -33z" />
<glyph unicode="w" horiz-adv-x="740" d="M206 110h-2l-124 395q-11 33 -40 33q-15 0 -24.5 -9.5t-9.5 -23.5q0 -7 6 -27l152 -452q5 -15 17.5 -23.5t22.5 -8.5q13 0 24 7.5t16 24.5l125 400h2l121 -387q8 -25 18.5 -35t25.5 -10q11 0 22.5 6.5t17.5 25.5l152 452q6 20 6 27q0 14 -9.5 23.5t-24.5 9.5 q-29 0 -40 -33l-124 -395h-2l-123 395q-10 33 -41 33q-30 0 -41 -33z" />
<glyph unicode="x" horiz-adv-x="462" d="M231 230l150 -211q18 -25 39 -25q13 0 22.5 9.5t9.5 23.5q0 7 -2.5 13.5t-10.5 16.5l-166 227l144 191q8 10 10.5 16.5t2.5 13.5q0 14 -9.5 23.5t-22.5 9.5q-21 0 -39 -25l-128 -175l-128 175q-18 25 -39 25q-13 0 -22.5 -9.5t-9.5 -23.5q0 -7 2.5 -13.5t10.5 -16.5 l144 -191l-166 -227q-8 -10 -10.5 -16.5t-2.5 -13.5q0 -14 9.5 -23.5t22.5 -9.5q21 0 39 25z" />
<glyph unicode="y" horiz-adv-x="426" d="M179 14l-65 -171q-6 -15 -6 -29q0 -12 9 -21t24 -9q27 0 39 36l230 664q4 11 4 21q0 13 -9.5 23t-23.5 10q-27 0 -38 -33l-129 -386h-2l-129 386q-11 33 -38 33q-14 0 -23.5 -10t-9.5 -23q0 -10 4 -21z" />
<glyph unicode="z" horiz-adv-x="444" d="M388 461q16 23 16 44q0 13 -9.5 20t-30.5 7h-287q-17 0 -27.5 -9.5t-10.5 -23.5t10.5 -23.5t27.5 -9.5h234l-267 -395q-9 -13 -12.5 -21.5t-3.5 -20.5q0 -11 9 -20t33 -9h309q17 0 27.5 9.5t10.5 23.5t-10.5 23.5t-27.5 9.5h-258z" />
<glyph unicode="{" horiz-adv-x="258" d="M95 493q0 -72 -14.5 -104t-51.5 -32q-10 0 -17.5 -8t-7.5 -19t7.5 -19t17.5 -8q37 0 51.5 -32t14.5 -104v-117q0 -60 25 -84t73 -24h29q16 0 24 8.5t8 18.5t-8 18.5t-24 8.5h-21q-22 0 -31 22t-9 55v110q0 35 -9 62t-22 44.5t-26 27t-22 12.5v2q9 3 21.5 12.5t26 27.5 t22.5 44.5t9 61.5v110q0 33 9 55t31 22h21q16 0 24 8.5t8 18.5t-8 18.5t-24 8.5h-29q-48 0 -73 -24t-25 -84v-117z" />
<glyph unicode="|" horiz-adv-x="222" d="M78 -250q0 -17 9.5 -27.5t23.5 -10.5t23.5 10.5t9.5 27.5v1000q0 17 -9.5 27.5t-23.5 10.5t-23.5 -10.5t-9.5 -27.5v-1000z" />
<glyph unicode="}" horiz-adv-x="258" d="M97 477q0 -35 9 -62t22 -44t26 -27t22 -13v-2q-9 -3 -21.5 -12.5t-26 -27.5t-22.5 -44.5t-9 -61.5v-110q0 -33 -9 -55t-31 -22h-21q-16 0 -24 -8.5t-8 -18.5t8 -18.5t24 -8.5h29q48 0 73 24t25 84v117q0 72 14.5 104t51.5 32q10 0 17.5 8t7.5 19t-7.5 19t-17.5 8 q-37 0 -51.5 32t-14.5 104v117q0 60 -25 84t-73 24h-29q-16 0 -24 -8.5t-8 -18.5t8 -18.5t24 -8.5h21q22 0 31 -22t9 -55v-110z" />
<glyph unicode="~" horiz-adv-x="600" d="M531 295q0 31 -31 31q-14 -1 -22 -9t-19 -25q-13 -20 -25 -30.5t-34 -10.5q-20 0 -38 8t-45 23q-3 3 -11 7l-2 1q-31 18 -53 27t-47 9q-27 0 -51.5 -10t-43.5 -26t-29.5 -35.5t-10.5 -38.5q0 -31 31 -31q14 1 22 9t19 25q13 20 25 30.5t34 10.5t41.5 -8.5t48.5 -26.5 l4 -2q31 -19 53.5 -28.5t48.5 -9.5q27 0 52 10t43.5 26t29 36t10.5 38z" />
<glyph unicode="&#xa1;" horiz-adv-x="278" d="M185 492q0 19 -14 32.5t-32 13.5t-32 -13.5t-14 -32.5q0 -18 14 -32t32 -14t32 14t14 32zM175 284q0 46 -36 46t-36 -46v-424q0 -46 36 -46t36 46v424z" />
<glyph unicode="&#xa2;" horiz-adv-x="444" d="M235 57q-32 7 -55 28t-37.5 50.5t-21 63t-6.5 68.5q0 34 6.5 68t21 63.5t37.5 51t55 28.5v-421zM235 -61q0 -20 18 -20t18 20v55q21 0 44.5 4.5t43.5 13t32.5 19.5t12.5 22q0 29 -27 29q-8 0 -27 -9t-36.5 -14t-42.5 -5v423q20 0 35.5 -5t33.5 -14q24 -12 35 -12 q32 0 32 31q0 26 -37 43t-99 18v55q0 20 -18 20t-18 -20v-55q-47 -6 -84.5 -31.5t-62.5 -64t-38 -84.5t-13 -93t13 -92t38 -83t62.5 -63t84.5 -32v-56z" />
<glyph unicode="&#xa3;" horiz-adv-x="593" d="M171 66q51 52 73 95t22 89q0 43 -11 79h102q17 0 27.5 9.5t10.5 23.5t-10.5 23.5t-27.5 9.5h-122q-29 54 -39.5 82.5t-10.5 54.5q0 60 36.5 90t92.5 30q64 0 103 -32t60 -94q8 -25 32 -25q32 0 32 35q0 26 -15.5 58t-45 60t-72 46t-93.5 18q-92 0 -150 -49t-58 -128 q0 -32 11.5 -60.5t43.5 -85.5h-88q-17 0 -27.5 -9.5t-10.5 -23.5t10.5 -23.5t27.5 -9.5h109q11 -39 11 -75q0 -55 -26.5 -97.5t-72.5 -87.5q-13 -12 -17 -20t-4 -17q0 -14 9.5 -23t28.5 -9h407q17 0 27.5 9.5t10.5 23.5t-10.5 23.5t-27.5 9.5h-348z" />
<glyph unicode="&#xa4;" d="M39 172q-9 -9 -12.5 -15.5t-3.5 -14.5q0 -12 8.5 -22t21.5 -10q8 0 16.5 5t16.5 13l32 32q30 -25 68.5 -38.5t81.5 -13.5t81.5 13.5t68.5 38.5l32 -32q8 -8 16.5 -13t16.5 -5q13 0 21.5 10t8.5 22q0 8 -3.5 14.5t-12.5 15.5l-32 32q25 29 38 68.5t13 83.5t-13 83.5 t-38 68.5l32 32q9 9 12.5 15.5t3.5 14.5q0 12 -8.5 22t-21.5 10q-8 0 -16.5 -5t-16.5 -13l-32 -32q-30 25 -68.5 38.5t-81.5 13.5t-81.5 -13.5t-68.5 -38.5l-32 32q-8 8 -16.5 13t-16.5 5q-13 0 -21.5 -10t-8.5 -22q0 -8 3.5 -14.5t12.5 -15.5l32 -32q-25 -29 -38 -68.5 t-13 -83.5t13 -83.5t38 -68.5zM86 356q0 38 13.5 72.5t38.5 60.5t58.5 40.5t71.5 14.5t71.5 -14.5t58.5 -40.5t38.5 -60.5t13.5 -72.5t-13.5 -72.5t-38.5 -60.5t-58.5 -40.5t-71.5 -14.5t-71.5 14.5t-58.5 40.5t-38.5 60.5t-13.5 72.5z" />
<glyph unicode="&#xa5;" d="M235 30q0 -15 10 -25.5t23 -10.5t23 10.5t10 25.5v160h141q16 0 23.5 9.5t7.5 20.5t-7.5 20.5t-23.5 9.5h-141v76h141q16 0 23.5 9.5t7.5 20.5t-7.5 20.5t-23.5 9.5h-110l151 254q13 22 17.5 32.5t4.5 17.5q0 28 -30 28q-21 0 -33 -21l-174 -292l-174 292q-12 21 -33 21 q-30 0 -30 -28q0 -7 4.5 -17.5t17.5 -32.5l152 -254h-111q-16 0 -23.5 -9.5t-7.5 -20.5t7.5 -20.5t23.5 -9.5h141v-76h-141q-16 0 -23.5 -9.5t-7.5 -20.5t7.5 -20.5t23.5 -9.5h141v-160z" />
<glyph unicode="&#xa6;" horiz-adv-x="222" d="M78 363q0 -17 9.5 -27.5t23.5 -10.5t23.5 10.5t9.5 27.5v274q0 17 -9.5 27.5t-23.5 10.5t-23.5 -10.5t-9.5 -27.5v-274zM78 -137q0 -17 9.5 -27.5t23.5 -10.5t23.5 10.5t9.5 27.5v274q0 17 -9.5 27.5t-23.5 10.5t-23.5 -10.5t-9.5 -27.5v-274z" />
<glyph unicode="&#xa7;" horiz-adv-x="556" d="M218 490q-30 15 -45 36t-15 38q0 41 36.5 64.5t89.5 23.5q56 0 91.5 -24t38.5 -58q2 -24 13 -35.5t26 -11.5q14 0 23.5 13.5t9.5 36.5q0 36 -17 63.5t-46 45.5t-63.5 27t-71.5 9q-34 0 -69.5 -9t-66 -28t-48.5 -50t-18 -72q0 -36 19.5 -64t58.5 -53q-31 -15 -53 -28.5 t-39.5 -32t-27 -44.5t-9.5 -61q0 -57 34 -98.5t99 -74.5l149 -76q49 -25 64.5 -43t15.5 -49q0 -23 -11.5 -39.5t-30.5 -26.5t-41.5 -14.5t-45.5 -4.5q-61 0 -95 24t-37 55q-2 20 -11.5 32.5t-26.5 12.5q-15 0 -27.5 -10t-12.5 -23q0 -21 9.5 -47t32.5 -51t65 -42t104 -17 q41 0 78 10t66 29t45.5 47t16.5 63q0 82 -67 127q63 40 87.5 82.5t25.5 83.5q0 37 -11 65.5t-30 49.5t-43 36.5t-56 31.5zM182 176q-42 22 -58.5 46.5t-16.5 65.5q0 46 36.5 76.5t83.5 45.5l152 -78q36 -19 53 -44t17 -63q0 -42 -30 -81t-66 -56z" />
<glyph unicode="&#xa8;" horiz-adv-x="204" d="M-36 640q0 -20 14.5 -34.5t34.5 -14.5t34.5 14.5t14.5 34.5t-14.5 34.5t-34.5 14.5t-34.5 -14.5t-14.5 -34.5zM142 640q0 -20 14.5 -34.5t34.5 -14.5t34.5 14.5t14.5 34.5t-14.5 34.5t-34.5 14.5t-34.5 -14.5t-14.5 -34.5z" />
<glyph unicode="&#xa9;" horiz-adv-x="800" d="M257 353q0 71 38 116.5t103 45.5q48 0 70.5 -16.5t41.5 -46.5q11 -18 20 -26.5t24 -8.5q30 0 30 31q0 14 -12.5 36t-35.5 42.5t-58 34.5t-78 14q-95 0 -152 -63t-57 -161q0 -47 15 -88t43.5 -71.5t68.5 -47.5t88 -17q41 0 73.5 14.5t54.5 37t33 45t11 38.5q0 12 -6 19.5 t-19 7.5t-21.5 -8.5t-20.5 -27.5q-20 -31 -42 -48.5t-63 -17.5q-68 0 -108.5 46.5t-40.5 119.5zM38 356q0 -74 28 -140t78 -116t116 -78t140 -28t140 28t116 78t78 116t28 140t-28 140t-78 116t-116 78t-140 28t-140 -28t-116 -78t-78 -116t-28 -140zM104 356q0 62 23.5 117 t64.5 96.5t95 65t113 23.5q60 0 113.5 -23.5t95 -65t64.5 -96.5t23 -117t-23 -117t-64.5 -96.5t-95 -65t-113.5 -23.5q-59 0 -113 23.5t-95.5 65t-64.5 96.5t-23 117z" />
<glyph unicode="&#xaa;" horiz-adv-x="361" d="M322 690q0 12 -8 20t-22 8q-30 0 -30 -28v-15h-2q-33 43 -93 43q-65 0 -106 -51q-19 -23 -29 -52.5t-10 -60.5t10 -60t29 -52.5t46.5 -37t59.5 -13.5q29 0 54.5 13.5t38.5 37.5h2v-23q0 -28 30 -28q14 0 22 8t8 20v271zM262 555q0 -55 -21.5 -85.5t-68.5 -30.5 q-41 0 -62.5 35.5t-21.5 80.5q0 46 21 80.5t63 34.5q47 0 68.5 -30t21.5 -85z" />
<glyph unicode="&#xab;" horiz-adv-x="389" d="M282 94q8 -14 16 -21t20 -7q13 0 21.5 8t8.5 18q0 7 -2 13t-8 16l-84 145l84 145q6 11 8 16.5t2 12.5q0 10 -8.5 18t-21.5 8q-12 0 -20 -7t-16 -21l-81 -143q-11 -21 -11 -29t11 -29zM133 94q8 -14 16 -21t20 -7q13 0 21.5 8t8.5 18q0 7 -2 13t-8 16l-84 145l84 145 q6 11 8 16.5t2 12.5q0 10 -8.5 18t-21.5 8q-12 0 -20 -7t-16 -21l-81 -143q-11 -21 -11 -29t11 -29z" />
<glyph unicode="&#xac;" horiz-adv-x="600" d="M487 145q0 -17 9.5 -27.5t23.5 -10.5t23.5 10.5t9.5 27.5v194q0 24 -11 35.5t-39 11.5h-418q-17 0 -27.5 -9.5t-10.5 -23.5t10.5 -23.5t27.5 -9.5h402v-175z" />
<glyph unicode="&#xae;" horiz-adv-x="800" d="M324 325h78l102 -167q15 -24 35 -24q14 0 22 7.5t8 17.5q0 11 -12 30l-1 1l-88 137q44 6 72.5 34t28.5 81q0 118 -145 118h-141q-19 0 -19 -17v-368q0 -18 8 -29.5t22 -11.5t22 11.5t8 29.5v150zM324 512h90q42 0 68.5 -14.5t26.5 -52.5q0 -24 -9 -39t-24 -22t-33.5 -9 t-44.5 -2h-74v139zM38 356q0 -74 28 -140t78 -116t116 -78t140 -28t140 28t116 78t78 116t28 140t-28 140t-78 116t-116 78t-140 28t-140 -28t-116 -78t-78 -116t-28 -140zM104 356q0 62 23.5 117t64.5 96.5t95 65t113 23.5q60 0 113.5 -23.5t95 -65t64.5 -96.5t23 -117 t-23 -117t-64.5 -96.5t-95 -65t-113.5 -23.5q-59 0 -113 23.5t-95.5 65t-64.5 96.5t-23 117z" />
<glyph unicode="&#xaf;" horiz-adv-x="204" d="M196 597q46 0 46 36t-46 36h-188q-46 0 -46 -36t46 -36h188z" />
<glyph unicode="&#xb0;" horiz-adv-x="400" d="M57 575q0 -60 41.5 -101.5t101.5 -41.5t101.5 41.5t41.5 101.5t-41.5 101.5t-101.5 41.5t-101.5 -41.5t-41.5 -101.5zM105 575q0 39 28 67t67 28t67 -28t28 -67t-28 -67t-67 -28t-67 28t-28 67z" />
<glyph unicode="&#xb1;" horiz-adv-x="600" d="M267 338h-182q-17 0 -27.5 -9.5t-10.5 -23.5t10.5 -23.5t27.5 -9.5h182v-130q0 -17 9.5 -27.5t23.5 -10.5t23.5 10.5t9.5 27.5v130h182q17 0 27.5 9.5t10.5 23.5t-10.5 23.5t-27.5 9.5h-182v130q0 17 -9.5 27.5t-23.5 10.5t-23.5 -10.5t-9.5 -27.5v-130zM515 0 q17 0 27.5 9.5t10.5 23.5t-10.5 23.5t-27.5 9.5h-430q-17 0 -27.5 -9.5t-10.5 -23.5t10.5 -23.5t27.5 -9.5h430z" />
<glyph unicode="&#xb2;" horiz-adv-x="348" d="M127 345l133 173q23 30 33.5 53t10.5 48q0 42 -33.5 70.5t-98.5 28.5t-101.5 -36.5t-36.5 -95.5q0 -26 28 -26t32 26q6 36 25 57t53 21q28 0 47 -14t19 -37q0 -31 -40 -84l-138 -188q-12 -16 -12 -29q0 -21 28 -21h213q11 0 18 8t7 19t-7 19t-18 8h-162z" />
<glyph unicode="&#xb3;" horiz-adv-x="348" d="M288 611q0 46 -29 76.5t-91 30.5q-56 0 -86 -31t-30 -70q0 -13 8.5 -20.5t19.5 -7.5q31 0 32 28q2 21 16.5 34t36.5 13q29 0 43 -16.5t14 -46.5q0 -25 -8.5 -43t-30.5 -24q-19 -5 -27 -10.5t-8 -18.5q0 -9 6.5 -15t23.5 -7q32 -2 50.5 -18t18.5 -46q0 -37 -22.5 -58.5 t-54.5 -21.5q-34 0 -49.5 10.5t-22.5 26.5q-7 17 -15.5 22t-19.5 5t-19.5 -7t-8.5 -20t8 -28.5t24.5 -30t42.5 -23.5t59 -9q69 0 106.5 36t37.5 95q0 38 -21 64t-57 39q25 13 39 37.5t14 54.5z" />
<glyph unicode="&#xb4;" horiz-adv-x="204" d="M20 669q-18 -7 -23 -14.5t-5 -18.5q0 -12 8 -23t20 -11t26 6l138 53q18 7 23 14.5t5 18.5q0 12 -8 23t-20 11t-26 -6z" />
<glyph unicode="&#xb5;" d="M66 -170q0 -46 36 -46t36 46v220h2q52 -56 128 -56q78 0 130 36q0 -15 10.5 -25.5t25.5 -10.5t25.5 10.5t10.5 25.5v462q0 46 -36 46t-36 -46v-299q0 -67 -34 -103t-96 -36q-61 0 -95.5 36t-34.5 103v299q0 46 -36 46t-36 -46v-662z" />
<glyph unicode="&#xb6;" horiz-adv-x="600" d="M258 -178q0 -17 9.5 -27.5t23.5 -10.5t23.5 10.5t9.5 27.5v830h124v-830q0 -17 9.5 -27.5t23.5 -10.5t23.5 10.5t9.5 27.5v838q0 32 -11 42t-44 10h-183q-108 0 -168 -48.5t-60 -143.5q0 -39 15.5 -73t44 -59.5t67 -39.5t83.5 -14v-512z" />
<glyph unicode="&#xb7;" horiz-adv-x="240" d="M74 319q0 -18 14 -32t32 -14t32 14t14 32t-14 32t-32 14t-32 -14t-14 -32z" />
<glyph unicode="&#xb8;" horiz-adv-x="204" d="M80 0l-20 -31q-15 -25 -15 -35q0 -8 8 -10t30 -2q21 0 32.5 -5t11.5 -21q0 -25 -27 -25q-15 0 -23.5 2t-18.5 5q-12 5 -21 5q-14 0 -20 -7t-6 -17q0 -36 75 -36q44 0 72.5 23t28.5 60q0 23 -17.5 39.5t-44.5 16.5q-13 0 -24 -3l-2 2l26 39h-45z" />
<glyph unicode="&#xb9;" horiz-adv-x="229" d="M100 658v-343q0 -30 30 -30t30 30v373q0 10 -7.5 17t-19.5 7h-89q-27 0 -27 -27t27 -27h56z" />
<glyph unicode="&#xba;" horiz-adv-x="348" d="M88 555q0 45 22 80t64 35t64 -35t22 -82q0 -44 -22 -79t-64 -35t-64 35.5t-22 80.5zM22 555q0 -66 40.5 -115t111.5 -49t111.5 48.5t40.5 113.5q0 67 -40 116t-112 49q-71 0 -111.5 -48.5t-40.5 -114.5z" />
<glyph unicode="&#xbb;" horiz-adv-x="389" d="M107 438q-8 14 -16 21t-20 7q-13 0 -21.5 -8t-8.5 -18q0 -7 2 -12.5t8 -16.5l84 -145l-84 -145q-6 -10 -8 -16t-2 -13q0 -10 8.5 -18t21.5 -8q12 0 20 7t16 21l81 143q11 21 11 29t-11 29zM256 438q-8 14 -16 21t-20 7q-13 0 -21.5 -8t-8.5 -18q0 -7 2 -12.5t8 -16.5 l84 -145l-84 -145q-6 -10 -8 -16t-2 -13q0 -10 8.5 -18t21.5 -8q12 0 20 7t16 21l81 143q11 21 11 29t-11 29z" />
<glyph unicode="&#xbc;" horiz-adv-x="805" d="M192 38q-9 -22 -9 -31q0 -23 28 -23q21 0 31 25l260 665q9 23 9 31q0 23 -28 23q-21 0 -31 -25zM126 658v-343q0 -30 30 -30t30 30v373q0 10 -7.5 17t-19.5 7h-89q-27 0 -27 -27t27 -27h56zM701 101h22q25 0 25 27t-25 27h-22v227q0 23 -12 34t-32 11q-16 0 -31.5 -7.5 t-25.5 -23.5l-150 -236q-14 -22 -14 -34q0 -11 6.5 -18t22.5 -7h176v-79q0 -11 8.5 -19.5t21.5 -8.5q14 0 22 8.5t8 19.5v79zM641 155h-142l140 224h2v-224z" />
<glyph unicode="&#xbd;" horiz-adv-x="805" d="M192 38q-9 -22 -9 -31q0 -23 28 -23q21 0 31 25l260 665q9 23 9 31q0 23 -28 23q-21 0 -31 -25zM126 658v-343q0 -30 30 -30t30 30v373q0 10 -7.5 17t-19.5 7h-89q-27 0 -27 -27t27 -27h56zM538 54l133 173q23 30 33.5 53t10.5 48q0 42 -33.5 70.5t-98.5 28.5 t-101.5 -36.5t-36.5 -95.5q0 -26 28 -26t32 26q6 36 25 57t53 21q28 0 47 -14t19 -37q0 -31 -40 -84l-138 -188q-12 -16 -12 -29q0 -21 28 -21h213q11 0 18 8t7 19t-7 19t-18 8h-162z" />
<glyph unicode="&#xbe;" horiz-adv-x="805" d="M242 38q-9 -22 -9 -31q0 -23 28 -23q21 0 31 25l260 665q9 23 9 31q0 23 -28 23q-21 0 -31 -25zM269 611q0 46 -29 76.5t-91 30.5q-56 0 -86 -31t-30 -70q0 -13 8.5 -20.5t19.5 -7.5q31 0 32 28q2 21 16.5 34t36.5 13q29 0 43 -16.5t14 -46.5q0 -25 -8.5 -43t-30.5 -24 q-19 -5 -27 -10.5t-8 -18.5q0 -9 6.5 -15t23.5 -7q32 -2 50.5 -18t18.5 -46q0 -37 -22.5 -58.5t-54.5 -21.5q-34 0 -49.5 10.5t-22.5 26.5q-7 17 -15.5 22t-19.5 5t-19.5 -7t-8.5 -20t8 -28.5t24.5 -30t42.5 -23.5t59 -9q69 0 106.5 36t37.5 95q0 38 -21 64t-57 39 q25 13 39 37.5t14 54.5zM701 101h22q25 0 25 27t-25 27h-22v227q0 23 -12 34t-32 11q-16 0 -31.5 -7.5t-25.5 -23.5l-150 -236q-14 -22 -14 -34q0 -11 6.5 -18t22.5 -7h176v-79q0 -11 8.5 -19.5t21.5 -8.5q14 0 22 8.5t8 19.5v79zM641 155h-142l140 224h2v-224z" />
<glyph unicode="&#xbf;" horiz-adv-x="444" d="M269 286q0 46 -36 46t-36 -46v-106q-37 -9 -66.5 -23t-53 -36t-37 -54.5t-13.5 -76.5q0 -78 55.5 -127t143.5 -49q38 0 72.5 10.5t61.5 30.5t42 47.5t15 59.5q0 16 -8.5 27t-24.5 11q-17 0 -25.5 -8.5t-13.5 -32.5q-8 -37 -42.5 -58t-76.5 -21q-47 0 -84 29.5t-37 82.5 q0 48 31.5 80.5t93.5 44.5q25 5 32 13.5t7 28.5v127zM279 492q0 19 -13.5 32.5t-32.5 13.5t-32.5 -13.5t-13.5 -32.5t13.5 -32.5t32.5 -13.5t32.5 13.5t13.5 32.5z" />
<glyph unicode="&#xc0;" horiz-adv-x="612" d="M362 768q14 -6 26 -6t20 11t8 23q0 11 -5 18.5t-23 14.5l-138 53q-14 6 -26 6t-20 -11t-8 -23q0 -11 5 -18.5t23 -14.5zM133 155h346l47 -128q6 -16 14.5 -24.5t25.5 -8.5q32 0 32 28q0 13 -7 30l-229 614v1q-10 24 -21 37.5t-35 13.5t-35 -13.5t-21 -37.5v-1l-229 -614 q-7 -17 -7 -30q0 -28 32 -28q16 0 23.5 7t15.5 23l1 3zM455 221h-298l148 403h2z" />
<glyph unicode="&#xc1;" horiz-adv-x="612" d="M224 829q-18 -7 -23 -14.5t-5 -18.5q0 -12 8 -23t20 -11t26 6l138 53q18 7 23 14.5t5 18.5q0 12 -8 23t-20 11t-26 -6zM133 155h346l47 -128q6 -16 14.5 -24.5t25.5 -8.5q32 0 32 28q0 13 -7 30l-229 614v1q-10 24 -21 37.5t-35 13.5t-35 -13.5t-21 -37.5v-1l-229 -614 q-7 -17 -7 -30q0 -28 32 -28q16 0 23.5 7t15.5 23l1 3zM455 221h-298l148 403h2z" />
<glyph unicode="&#xc2;" horiz-adv-x="612" d="M306 874l-127 -49q-18 -7 -23.5 -16t-5.5 -21q0 -11 8.5 -20.5t21.5 -9.5q11 0 26 5l100 45l100 -45q15 -5 26 -5q13 0 21.5 9.5t8.5 20.5q0 12 -5.5 21t-23.5 16zM133 155h346l47 -128q6 -16 14.5 -24.5t25.5 -8.5q32 0 32 28q0 13 -7 30l-229 614v1q-10 24 -21 37.5 t-35 13.5t-35 -13.5t-21 -37.5v-1l-229 -614q-7 -17 -7 -30q0 -28 32 -28q16 0 23.5 7t15.5 23l1 3zM455 221h-298l148 403h2z" />
<glyph unicode="&#xc3;" horiz-adv-x="612" d="M246 800q20 0 61 -13t63 -13q31 0 55.5 18.5t24.5 38.5q0 33 -29 33q-12 0 -26 -12q-7 -6 -13.5 -9.5t-15.5 -3.5q-20 0 -60 13q-42 14 -64 14q-31 0 -55.5 -19.5t-24.5 -43.5q0 -27 29 -27q12 0 26 12q15 12 29 12zM133 155h346l47 -128q6 -16 14.5 -24.5t25.5 -8.5 q32 0 32 28q0 13 -7 30l-229 614v1q-10 24 -21 37.5t-35 13.5t-35 -13.5t-21 -37.5v-1l-229 -614q-7 -17 -7 -30q0 -28 32 -28q16 0 23.5 7t15.5 23l1 3zM455 221h-298l148 403h2z" />
<glyph unicode="&#xc4;" horiz-adv-x="612" d="M168 800q0 -20 14.5 -34.5t34.5 -14.5t34.5 14.5t14.5 34.5t-14.5 34.5t-34.5 14.5t-34.5 -14.5t-14.5 -34.5zM346 800q0 -20 14.5 -34.5t34.5 -14.5t34.5 14.5t14.5 34.5t-14.5 34.5t-34.5 14.5t-34.5 -14.5t-14.5 -34.5zM133 155h346l47 -128q6 -16 14.5 -24.5 t25.5 -8.5q32 0 32 28q0 13 -7 30l-229 614v1q-10 24 -21 37.5t-35 13.5t-35 -13.5t-21 -37.5v-1l-229 -614q-7 -17 -7 -30q0 -28 32 -28q16 0 23.5 7t15.5 23l1 3zM455 221h-298l148 403h2z" />
<glyph unicode="&#xc5;" horiz-adv-x="612" d="M213 829q0 -38 27.5 -65.5t65.5 -27.5t65.5 27.5t27.5 65.5t-27.5 65.5t-65.5 27.5t-65.5 -27.5t-27.5 -65.5zM255 829q0 21 15 36t36 15t36 -15t15 -36t-15 -36t-36 -15t-36 15t-15 36zM133 155h346l47 -128q6 -16 14.5 -24.5t25.5 -8.5q32 0 32 28q0 13 -7 30l-229 614 v1q-10 24 -21 37.5t-35 13.5t-35 -13.5t-21 -37.5v-1l-229 -614q-7 -17 -7 -30q0 -28 32 -28q16 0 23.5 7t15.5 23l1 3zM455 221h-298l148 403h2z" />
<glyph unicode="&#xc6;" horiz-adv-x="741" d="M453 322h199q17 0 27.5 9.5t10.5 23.5t-10.5 23.5t-27.5 9.5h-198v258h207q17 0 27.5 9.5t10.5 23.5t-10.5 23.5t-27.5 9.5h-296q-17 0 -26 -18l-310 -623q-11 -22 -14.5 -31t-3.5 -19q0 -11 8.5 -19t19.5 -8q15 0 26.5 12t22.5 32l60 122h233v-119q0 -18 10.5 -29.5 t25.5 -11.5h254q17 0 27.5 9.5t10.5 23.5t-10.5 23.5t-27.5 9.5h-218v256zM381 220h-204l202 408h2v-408z" />
<glyph unicode="&#xc7;" horiz-adv-x="593" d="M366 -5q45 1 84.5 11.5t69 26.5t45.5 32.5t16 28.5q0 36 -30 36q-8 0 -30 -16q-33 -24 -68 -39t-91 -15q-62 0 -108.5 23t-76.5 63.5t-44.5 91.5t-14.5 108q0 55 15 109.5t45 99t73.5 71t97.5 26.5q51 0 84.5 -16t65.5 -42q25 -21 35 -21q12 0 22 10.5t10 27.5 q0 13 -17 31.5t-47.5 36t-69.5 28.5t-82 11q-76 0 -135 -30.5t-97.5 -83.5t-58 -119.5t-19.5 -138.5q0 -68 17 -128.5t52.5 -108.5t89 -77.5t123.5 -35.5l-17 -27q-15 -25 -15 -35q0 -8 8 -10t30 -2q21 0 32.5 -5t11.5 -21q0 -25 -27 -25q-15 0 -23.5 2t-18.5 5q-12 5 -21 5 q-14 0 -20 -7t-6 -17q0 -36 75 -36q44 0 72.5 23t28.5 60q0 23 -17.5 39.5t-44.5 16.5q-13 0 -24 -3l-2 2z" />
<glyph unicode="&#xc8;" horiz-adv-x="444" d="M278 768q14 -6 26 -6t20 11t8 23q0 11 -5 18.5t-23 14.5l-138 53q-14 6 -26 6t-20 -11t-8 -23q0 -11 5 -18.5t23 -14.5zM138 322h199q17 0 27.5 9.5t10.5 23.5t-10.5 23.5t-27.5 9.5h-198v258h207q17 0 27.5 9.5t10.5 23.5t-10.5 23.5t-27.5 9.5h-236q-44 0 -44 -38v-636 q0 -38 44 -38h246q17 0 27.5 9.5t10.5 23.5t-10.5 23.5t-27.5 9.5h-218v256z" />
<glyph unicode="&#xc9;" horiz-adv-x="444" d="M140 829q-18 -7 -23 -14.5t-5 -18.5q0 -12 8 -23t20 -11t26 6l138 53q18 7 23 14.5t5 18.5q0 12 -8 23t-20 11t-26 -6zM138 322h199q17 0 27.5 9.5t10.5 23.5t-10.5 23.5t-27.5 9.5h-198v258h207q17 0 27.5 9.5t10.5 23.5t-10.5 23.5t-27.5 9.5h-236q-44 0 -44 -38v-636 q0 -38 44 -38h246q17 0 27.5 9.5t10.5 23.5t-10.5 23.5t-27.5 9.5h-218v256z" />
<glyph unicode="&#xca;" horiz-adv-x="444" d="M222 874l-127 -49q-18 -7 -23.5 -16t-5.5 -21q0 -11 8.5 -20.5t21.5 -9.5q11 0 26 5l100 45l100 -45q15 -5 26 -5q13 0 21.5 9.5t8.5 20.5q0 12 -5.5 21t-23.5 16zM138 322h199q17 0 27.5 9.5t10.5 23.5t-10.5 23.5t-27.5 9.5h-198v258h207q17 0 27.5 9.5t10.5 23.5 t-10.5 23.5t-27.5 9.5h-236q-44 0 -44 -38v-636q0 -38 44 -38h246q17 0 27.5 9.5t10.5 23.5t-10.5 23.5t-27.5 9.5h-218v256z" />
<glyph unicode="&#xcb;" horiz-adv-x="444" d="M84 800q0 -20 14.5 -34.5t34.5 -14.5t34.5 14.5t14.5 34.5t-14.5 34.5t-34.5 14.5t-34.5 -14.5t-14.5 -34.5zM262 800q0 -20 14.5 -34.5t34.5 -14.5t34.5 14.5t14.5 34.5t-14.5 34.5t-34.5 14.5t-34.5 -14.5t-14.5 -34.5zM138 322h199q17 0 27.5 9.5t10.5 23.5 t-10.5 23.5t-27.5 9.5h-198v258h207q17 0 27.5 9.5t10.5 23.5t-10.5 23.5t-27.5 9.5h-236q-44 0 -44 -38v-636q0 -38 44 -38h246q17 0 27.5 9.5t10.5 23.5t-10.5 23.5t-27.5 9.5h-218v256z" />
<glyph unicode="&#xcc;" horiz-adv-x="204" d="M158 768q14 -6 26 -6t20 11t8 23q0 11 -5 18.5t-23 14.5l-138 53q-14 6 -26 6t-20 -11t-8 -23q0 -11 5 -18.5t23 -14.5zM138 672q0 46 -36 46t-36 -46v-632q0 -46 36 -46t36 46v632z" />
<glyph unicode="&#xcd;" horiz-adv-x="204" d="M20 829q-18 -7 -23 -14.5t-5 -18.5q0 -12 8 -23t20 -11t26 6l138 53q18 7 23 14.5t5 18.5q0 12 -8 23t-20 11t-26 -6zM138 672q0 46 -36 46t-36 -46v-632q0 -46 36 -46t36 46v632z" />
<glyph unicode="&#xce;" horiz-adv-x="204" d="M102 874l-127 -49q-18 -7 -23.5 -16t-5.5 -21q0 -11 8.5 -20.5t21.5 -9.5q11 0 26 5l100 45l100 -45q15 -5 26 -5q13 0 21.5 9.5t8.5 20.5q0 12 -5.5 21t-23.5 16zM138 672q0 46 -36 46t-36 -46v-632q0 -46 36 -46t36 46v632z" />
<glyph unicode="&#xcf;" horiz-adv-x="204" d="M-36 800q0 -20 14.5 -34.5t34.5 -14.5t34.5 14.5t14.5 34.5t-14.5 34.5t-34.5 14.5t-34.5 -14.5t-14.5 -34.5zM142 800q0 -20 14.5 -34.5t34.5 -14.5t34.5 14.5t14.5 34.5t-14.5 34.5t-34.5 14.5t-34.5 -14.5t-14.5 -34.5zM138 672q0 46 -36 46t-36 -46v-632 q0 -46 36 -46t36 46v632z" />
<glyph unicode="&#xd0;" horiz-adv-x="630" d="M138 646h144q61 0 105.5 -24t72 -64t40 -90t12.5 -104q0 -65 -12.5 -119t-40.5 -94t-73 -62.5t-108 -22.5h-140v260h141q17 0 28 9.5t11 23.5t-11 23.5t-28 9.5h-141v254zM66 36q0 -15 10.5 -25.5t25.5 -10.5h180q65 0 121 24t98 70t65.5 111.5t23.5 145.5 q0 65 -17.5 129t-54 116.5t-94.5 84t-136 31.5h-186q-15 0 -25.5 -10.5t-10.5 -25.5v-284h-28q-17 0 -28 -9.5t-11 -23.5t11 -23.5t28 -9.5h28v-290z" />
<glyph unicode="&#xd1;" horiz-adv-x="666" d="M273 800q20 0 61 -13t63 -13q31 0 55.5 18.5t24.5 38.5q0 33 -29 33q-12 0 -26 -12q-7 -6 -13.5 -9.5t-15.5 -3.5q-20 0 -60 13q-42 14 -64 14q-31 0 -55.5 -19.5t-24.5 -43.5q0 -27 29 -27q12 0 26 12q15 12 29 12zM138 586h2l387 -566q10 -14 18 -20t21 -6q16 0 25 10 t9 34v634q0 46 -36 46t-36 -46v-539h-2l-382 559q-9 12 -18.5 19t-23.5 7q-36 0 -36 -42v-636q0 -46 36 -46t36 46v546z" />
<glyph unicode="&#xd2;" horiz-adv-x="684" d="M398 768q14 -6 26 -6t20 11t8 23q0 11 -5 18.5t-23 14.5l-138 53q-14 6 -26 6t-20 -11t-8 -23q0 -11 5 -18.5t23 -14.5zM40 356q0 -69 19.5 -134t57.5 -116.5t95 -81.5t130 -30t130 30t95 81.5t57.5 116.5t19.5 134t-19 134t-57.5 116.5t-95.5 81.5t-130 30t-130 -30 t-95 -81.5t-57.5 -116.5t-19.5 -134zM342 60q-60 0 -103 26t-70 69.5t-39 95t-12 105.5t12 106t38.5 95t70 69t103.5 26t103.5 -26t70 -69.5t38.5 -95t12 -105.5t-12 -105.5t-38.5 -95t-70 -69.5t-103.5 -26z" />
<glyph unicode="&#xd3;" horiz-adv-x="684" d="M260 829q-18 -7 -23 -14.5t-5 -18.5q0 -12 8 -23t20 -11t26 6l138 53q18 7 23 14.5t5 18.5q0 12 -8 23t-20 11t-26 -6zM40 356q0 -69 19.5 -134t57.5 -116.5t95 -81.5t130 -30t130 30t95 81.5t57.5 116.5t19.5 134t-19 134t-57.5 116.5t-95.5 81.5t-130 30t-130 -30 t-95 -81.5t-57.5 -116.5t-19.5 -134zM342 60q-60 0 -103 26t-70 69.5t-39 95t-12 105.5t12 106t38.5 95t70 69t103.5 26t103.5 -26t70 -69.5t38.5 -95t12 -105.5t-12 -105.5t-38.5 -95t-70 -69.5t-103.5 -26z" />
<glyph unicode="&#xd4;" horiz-adv-x="684" d="M342 874l-127 -49q-18 -7 -23.5 -16t-5.5 -21q0 -11 8.5 -20.5t21.5 -9.5q11 0 26 5l100 45l100 -45q15 -5 26 -5q13 0 21.5 9.5t8.5 20.5q0 12 -5.5 21t-23.5 16zM40 356q0 -69 19.5 -134t57.5 -116.5t95 -81.5t130 -30t130 30t95 81.5t57.5 116.5t19.5 134t-19 134 t-57.5 116.5t-95.5 81.5t-130 30t-130 -30t-95 -81.5t-57.5 -116.5t-19.5 -134zM342 60q-60 0 -103 26t-70 69.5t-39 95t-12 105.5t12 106t38.5 95t70 69t103.5 26t103.5 -26t70 -69.5t38.5 -95t12 -105.5t-12 -105.5t-38.5 -95t-70 -69.5t-103.5 -26z" />
<glyph unicode="&#xd5;" horiz-adv-x="684" d="M282 800q20 0 61 -13t63 -13q31 0 55.5 18.5t24.5 38.5q0 33 -29 33q-12 0 -26 -12q-7 -6 -13.5 -9.5t-15.5 -3.5q-20 0 -60 13q-42 14 -64 14q-31 0 -55.5 -19.5t-24.5 -43.5q0 -27 29 -27q12 0 26 12q15 12 29 12zM40 356q0 -69 19.5 -134t57.5 -116.5t95 -81.5 t130 -30t130 30t95 81.5t57.5 116.5t19.5 134t-19 134t-57.5 116.5t-95.5 81.5t-130 30t-130 -30t-95 -81.5t-57.5 -116.5t-19.5 -134zM342 60q-60 0 -103 26t-70 69.5t-39 95t-12 105.5t12 106t38.5 95t70 69t103.5 26t103.5 -26t70 -69.5t38.5 -95t12 -105.5t-12 -105.5 t-38.5 -95t-70 -69.5t-103.5 -26z" />
<glyph unicode="&#xd6;" horiz-adv-x="684" d="M204 800q0 -20 14.5 -34.5t34.5 -14.5t34.5 14.5t14.5 34.5t-14.5 34.5t-34.5 14.5t-34.5 -14.5t-14.5 -34.5zM382 800q0 -20 14.5 -34.5t34.5 -14.5t34.5 14.5t14.5 34.5t-14.5 34.5t-34.5 14.5t-34.5 -14.5t-14.5 -34.5zM40 356q0 -69 19.5 -134t57.5 -116.5t95 -81.5 t130 -30t130 30t95 81.5t57.5 116.5t19.5 134t-19 134t-57.5 116.5t-95.5 81.5t-130 30t-130 -30t-95 -81.5t-57.5 -116.5t-19.5 -134zM342 60q-60 0 -103 26t-70 69.5t-39 95t-12 105.5t12 106t38.5 95t70 69t103.5 26t103.5 -26t70 -69.5t38.5 -95t12 -105.5t-12 -105.5 t-38.5 -95t-70 -69.5t-103.5 -26z" />
<glyph unicode="&#xd7;" horiz-adv-x="600" d="M471 37q14 -14 28 -14t22.5 9t8.5 22q0 7 -3 13.5t-12 15.5l-169 170l169 170q9 9 12 15.5t3 13.5q0 13 -8.5 22t-22.5 9t-28 -14l-171 -171l-171 171q-14 14 -28 14t-22.5 -9t-8.5 -22q0 -7 3 -13.5t12 -15.5l169 -170l-169 -170q-9 -9 -12 -15.5t-3 -13.5 q0 -13 8.5 -22t22.5 -9t28 14l171 171z" />
<glyph unicode="&#xd8;" horiz-adv-x="684" d="M526 536q20 -38 30 -85.5t10 -94.5q0 -54 -12 -105.5t-38.5 -95t-70 -69.5t-103.5 -26q-49 0 -87.5 18t-65.5 51zM156 179q-19 38 -28.5 84t-9.5 93q0 54 12 106t38.5 95t70 69t103.5 26q49 0 86.5 -17.5t64.5 -49.5zM52 52q-2 -2 -2 -3q-12 -14 -16.5 -21.5t-4.5 -17.5 t7.5 -18t18.5 -8q14 0 29 18l60 73q37 -38 87 -59.5t111 -21.5q73 0 130 30t95 81.5t57.5 116.5t19.5 134q0 66 -17.5 128t-51.5 111l58 69q21 25 21 40q0 24 -27 24q-15 0 -32 -20l-57 -69q-37 38 -86.5 58.5t-109.5 20.5q-73 0 -130 -30t-95 -81.5t-57.5 -116.5 t-19.5 -134q0 -66 17.5 -127t50.5 -109z" />
<glyph unicode="&#xd9;" horiz-adv-x="666" d="M389 768q14 -6 26 -6t20 11t8 23q0 11 -5 18.5t-23 14.5l-138 53q-14 6 -26 6t-20 -11t-8 -23q0 -11 5 -18.5t23 -14.5zM66 242q0 -60 21.5 -106.5t59.5 -78t86 -47.5t100 -16t100.5 16t86 47.5t59 78t21.5 106.5v430q0 46 -36 46t-36 -46v-421q0 -48 -16 -84t-43.5 -60 t-62 -35.5t-73.5 -11.5t-73.5 11.5t-62 35.5t-43.5 60t-16 84v421q0 46 -36 46t-36 -46v-430z" />
<glyph unicode="&#xda;" horiz-adv-x="666" d="M251 829q-18 -7 -23 -14.5t-5 -18.5q0 -12 8 -23t20 -11t26 6l138 53q18 7 23 14.5t5 18.5q0 12 -8 23t-20 11t-26 -6zM66 242q0 -60 21.5 -106.5t59.5 -78t86 -47.5t100 -16t100.5 16t86 47.5t59 78t21.5 106.5v430q0 46 -36 46t-36 -46v-421q0 -48 -16 -84t-43.5 -60 t-62 -35.5t-73.5 -11.5t-73.5 11.5t-62 35.5t-43.5 60t-16 84v421q0 46 -36 46t-36 -46v-430z" />
<glyph unicode="&#xdb;" horiz-adv-x="666" d="M333 874l-127 -49q-18 -7 -23.5 -16t-5.5 -21q0 -11 8.5 -20.5t21.5 -9.5q11 0 26 5l100 45l100 -45q15 -5 26 -5q13 0 21.5 9.5t8.5 20.5q0 12 -5.5 21t-23.5 16zM66 242q0 -60 21.5 -106.5t59.5 -78t86 -47.5t100 -16t100.5 16t86 47.5t59 78t21.5 106.5v430 q0 46 -36 46t-36 -46v-421q0 -48 -16 -84t-43.5 -60t-62 -35.5t-73.5 -11.5t-73.5 11.5t-62 35.5t-43.5 60t-16 84v421q0 46 -36 46t-36 -46v-430z" />
<glyph unicode="&#xdc;" horiz-adv-x="666" d="M195 800q0 -20 14.5 -34.5t34.5 -14.5t34.5 14.5t14.5 34.5t-14.5 34.5t-34.5 14.5t-34.5 -14.5t-14.5 -34.5zM373 800q0 -20 14.5 -34.5t34.5 -14.5t34.5 14.5t14.5 34.5t-14.5 34.5t-34.5 14.5t-34.5 -14.5t-14.5 -34.5zM66 242q0 -60 21.5 -106.5t59.5 -78t86 -47.5 t100 -16t100.5 16t86 47.5t59 78t21.5 106.5v430q0 46 -36 46t-36 -46v-421q0 -48 -16 -84t-43.5 -60t-62 -35.5t-73.5 -11.5t-73.5 11.5t-62 35.5t-43.5 60t-16 84v421q0 46 -36 46t-36 -46v-430z" />
<glyph unicode="&#xdd;" horiz-adv-x="482" d="M159 829q-18 -7 -23 -14.5t-5 -18.5q0 -12 8 -23t20 -11t26 6l138 53q18 7 23 14.5t5 18.5q0 12 -8 23t-20 11t-26 -6zM241 407l-174 290q-12 21 -36 21q-30 0 -30 -28q0 -7 4.5 -17.5t17.5 -32.5l182 -303v-297q0 -46 36 -46t36 46v297l182 303q13 22 17.5 32.5 t4.5 17.5q0 28 -30 28q-24 0 -36 -21z" />
<glyph unicode="&#xde;" horiz-adv-x="519" d="M138 150h126q60 0 105 18t74.5 50t44 72.5t14.5 85.5q0 36 -12.5 73t-38.5 69t-68.5 52t-100.5 20h-144v82q0 46 -36 46t-36 -46v-632q0 -46 36 -46t36 46v110zM138 524h132q41 0 71.5 -13.5t50 -35.5t29 -49.5t9.5 -55.5t-9.5 -55.5t-29 -49.5t-50 -35.5t-71.5 -13.5 h-132v308z" />
<glyph unicode="&#xdf;" horiz-adv-x="556" d="M138 558q0 30 5.5 56t19 47t35.5 33t54 12q60 0 90 -39t30 -89q0 -64 -21.5 -93t-61.5 -41q-20 -6 -25 -13t-5 -20q0 -14 9 -22t43 -12q57 -6 85.5 -47t28.5 -105q0 -32 -6 -60t-19.5 -50.5t-36.5 -35.5t-56 -13q-28 0 -37 -9t-9 -26q2 -37 59 -37q45 0 79.5 19t57.5 51 t34.5 71.5t11.5 80.5q0 33 -7.5 65.5t-23.5 61t-42 49t-63 30.5q41 27 59 66.5t18 91.5q0 83 -53 137.5t-139 54.5q-80 0 -133 -54t-53 -152v-526q0 -46 36 -46t36 46v518z" />
<glyph unicode="&#xe0;" horiz-adv-x="556" d="M334 608q14 -6 26 -6t20 11t8 23q0 11 -5 18.5t-23 14.5l-138 53q-14 6 -26 6t-20 -11t-8 -23q0 -11 5 -18.5t23 -14.5zM418 459h-3q-61 79 -149 79q-56 0 -99 -23t-71.5 -61.5t-42.5 -87t-14 -100.5q0 -118 59.5 -195t169.5 -77q47 0 85 20t62 59h3v-33q0 -46 36 -46 t36 46v452q0 46 -36 46t-36 -46v-33zM117 266q0 38 8.5 75.5t27 68.5t47.5 49.5t68 18.5q40 0 69 -18.5t47 -49.5t26 -68t8 -76t-8 -76t-26 -68t-47 -49.5t-69 -18.5t-69.5 18.5t-47 49.5t-26 68.5t-8.5 75.5z" />
<glyph unicode="&#xe1;" horiz-adv-x="556" d="M196 669q-18 -7 -23 -14.5t-5 -18.5q0 -12 8 -23t20 -11t26 6l138 53q18 7 23 14.5t5 18.5q0 12 -8 23t-20 11t-26 -6zM418 459h-3q-61 79 -149 79q-56 0 -99 -23t-71.5 -61.5t-42.5 -87t-14 -100.5q0 -118 59.5 -195t169.5 -77q47 0 85 20t62 59h3v-33q0 -46 36 -46 t36 46v452q0 46 -36 46t-36 -46v-33zM117 266q0 38 8.5 75.5t27 68.5t47.5 49.5t68 18.5q40 0 69 -18.5t47 -49.5t26 -68t8 -76t-8 -76t-26 -68t-47 -49.5t-69 -18.5t-69.5 18.5t-47 49.5t-26 68.5t-8.5 75.5z" />
<glyph unicode="&#xe2;" horiz-adv-x="556" d="M278 714l-127 -49q-18 -7 -23.5 -16t-5.5 -21q0 -11 8.5 -20.5t21.5 -9.5q11 0 26 5l100 45l100 -45q15 -5 26 -5q13 0 21.5 9.5t8.5 20.5q0 12 -5.5 21t-23.5 16zM418 459h-3q-61 79 -149 79q-56 0 -99 -23t-71.5 -61.5t-42.5 -87t-14 -100.5q0 -118 59.5 -195 t169.5 -77q47 0 85 20t62 59h3v-33q0 -46 36 -46t36 46v452q0 46 -36 46t-36 -46v-33zM117 266q0 38 8.5 75.5t27 68.5t47.5 49.5t68 18.5q40 0 69 -18.5t47 -49.5t26 -68t8 -76t-8 -76t-26 -68t-47 -49.5t-69 -18.5t-69.5 18.5t-47 49.5t-26 68.5t-8.5 75.5z" />
<glyph unicode="&#xe3;" horiz-adv-x="556" d="M218 640q20 0 61 -13t63 -13q31 0 55.5 18.5t24.5 38.5q0 33 -29 33q-12 0 -26 -12q-7 -6 -13.5 -9.5t-15.5 -3.5q-20 0 -60 13q-42 14 -64 14q-31 0 -55.5 -19.5t-24.5 -43.5q0 -27 29 -27q12 0 26 12q15 12 29 12zM418 459h-3q-61 79 -149 79q-56 0 -99 -23 t-71.5 -61.5t-42.5 -87t-14 -100.5q0 -118 59.5 -195t169.5 -77q47 0 85 20t62 59h3v-33q0 -46 36 -46t36 46v452q0 46 -36 46t-36 -46v-33zM117 266q0 38 8.5 75.5t27 68.5t47.5 49.5t68 18.5q40 0 69 -18.5t47 -49.5t26 -68t8 -76t-8 -76t-26 -68t-47 -49.5t-69 -18.5 t-69.5 18.5t-47 49.5t-26 68.5t-8.5 75.5z" />
<glyph unicode="&#xe4;" horiz-adv-x="556" d="M140 640q0 -20 14.5 -34.5t34.5 -14.5t34.5 14.5t14.5 34.5t-14.5 34.5t-34.5 14.5t-34.5 -14.5t-14.5 -34.5zM318 640q0 -20 14.5 -34.5t34.5 -14.5t34.5 14.5t14.5 34.5t-14.5 34.5t-34.5 14.5t-34.5 -14.5t-14.5 -34.5zM418 459h-3q-61 79 -149 79q-56 0 -99 -23 t-71.5 -61.5t-42.5 -87t-14 -100.5q0 -118 59.5 -195t169.5 -77q47 0 85 20t62 59h3v-33q0 -46 36 -46t36 46v452q0 46 -36 46t-36 -46v-33zM117 266q0 38 8.5 75.5t27 68.5t47.5 49.5t68 18.5q40 0 69 -18.5t47 -49.5t26 -68t8 -76t-8 -76t-26 -68t-47 -49.5t-69 -18.5 t-69.5 18.5t-47 49.5t-26 68.5t-8.5 75.5z" />
<glyph unicode="&#xe5;" horiz-adv-x="556" d="M185 679q0 -38 27.5 -65.5t65.5 -27.5t65.5 27.5t27.5 65.5t-27.5 65.5t-65.5 27.5t-65.5 -27.5t-27.5 -65.5zM227 679q0 21 15 36t36 15t36 -15t15 -36t-15 -36t-36 -15t-36 15t-15 36zM418 459h-3q-61 79 -149 79q-56 0 -99 -23t-71.5 -61.5t-42.5 -87t-14 -100.5 q0 -118 59.5 -195t169.5 -77q47 0 85 20t62 59h3v-33q0 -46 36 -46t36 46v452q0 46 -36 46t-36 -46v-33zM117 266q0 38 8.5 75.5t27 68.5t47.5 49.5t68 18.5q40 0 69 -18.5t47 -49.5t26 -68t8 -76t-8 -76t-26 -68t-47 -49.5t-69 -18.5t-69.5 18.5t-47 49.5t-26 68.5 t-8.5 75.5z" />
<glyph unicode="&#xe6;" horiz-adv-x="889" d="M117 266q0 38 8.5 75.5t27 68.5t47.5 49.5t68 18.5q40 0 69 -18.5t47 -49.5t26 -68t8 -76t-8 -76t-26 -68t-47 -49.5t-69 -18.5t-69.5 18.5t-47 49.5t-26 68.5t-8.5 75.5zM418 40q0 -46 33 -46t33 46v28h2q26 -34 67.5 -54t105.5 -20q38 0 73 11.5t61.5 29t41.5 36 t15 30.5q0 20 -9 27.5t-25 7.5q-12 0 -39 -24q-29 -26 -58.5 -42t-76.5 -16q-34 0 -62.5 14.5t-49.5 40t-33 58t-13 67.5h325q29 0 39 12.5t10 31.5q0 51 -14.5 98t-43.5 83.5t-72 57.5t-97 21q-40 0 -81 -22t-58 -51h-8v27q0 46 -33 46t-33 -46v-31h-2q-34 40 -68 58.5 t-82 18.5q-56 0 -99 -23t-71.5 -61.5t-42.5 -87t-14 -100.5q0 -118 59.5 -195t169.5 -77q47 0 86 20.5t62 60.5h2v-35zM484 294q1 34 11 67t28.5 59.5t45.5 42t61 15.5q68 0 110 -59q19 -25 29 -58t11 -67h-296z" />
<glyph unicode="&#xe7;" horiz-adv-x="444" d="M292 -4q49 2 81.5 18.5t32.5 44.5q0 12 -9.5 20.5t-20.5 8.5q-7 0 -24 -8q-20 -9 -38 -14.5t-46 -5.5q-34 0 -62.5 17t-48 46.5t-30 68t-10.5 80.5q0 33 9.5 68t28.5 65t48 48.5t65 18.5q28 0 45.5 -6t34.5 -15q14 -9 21 -9q20 0 30 11t10 29q0 22 -40.5 39t-91.5 17 q-55 0 -99.5 -23t-75.5 -62t-47 -87.5t-16 -99.5q0 -49 13.5 -95t40 -84t65.5 -62.5t89 -29.5l-17 -26q-15 -25 -15 -35q0 -8 8 -10t30 -2q21 0 32.5 -5t11.5 -21q0 -25 -27 -25q-15 0 -23.5 2t-18.5 5q-12 5 -21 5q-14 0 -20 -7t-6 -17q0 -36 75 -36q44 0 72.5 23t28.5 60 q0 23 -17.5 39.5t-44.5 16.5q-13 0 -24 -3l-2 2z" />
<glyph unicode="&#xe8;" horiz-adv-x="519" d="M316 608q14 -6 26 -6t20 11t8 23q0 11 -5 18.5t-23 14.5l-138 53q-14 6 -26 6t-20 -11t-8 -23q0 -11 5 -18.5t23 -14.5zM446 234q29 0 39 12.5t10 31.5q0 51 -14.5 98t-43.5 83.5t-72 57.5t-97 21t-97 -23t-72.5 -62t-44.5 -87.5t-15 -99.5q0 -52 14 -100.5t44 -87.5 t76 -61.5t107 -22.5q44 0 82 11.5t66 29t43.5 36t15.5 30.5q0 20 -9 27.5t-25 7.5q-12 0 -38 -23q-30 -27 -61 -43t-79 -16q-34 0 -62.5 14.5t-49.5 40t-33 58t-13 67.5h329zM117 294q1 34 11 67t29 58q42 59 110 59t110 -59q19 -25 29 -58t11 -67h-300z" />
<glyph unicode="&#xe9;" horiz-adv-x="519" d="M178 669q-18 -7 -23 -14.5t-5 -18.5q0 -12 8 -23t20 -11t26 6l138 53q18 7 23 14.5t5 18.5q0 12 -8 23t-20 11t-26 -6zM446 234q29 0 39 12.5t10 31.5q0 51 -14.5 98t-43.5 83.5t-72 57.5t-97 21t-97 -23t-72.5 -62t-44.5 -87.5t-15 -99.5q0 -52 14 -100.5t44 -87.5 t76 -61.5t107 -22.5q44 0 82 11.5t66 29t43.5 36t15.5 30.5q0 20 -9 27.5t-25 7.5q-12 0 -38 -23q-30 -27 -61 -43t-79 -16q-34 0 -62.5 14.5t-49.5 40t-33 58t-13 67.5h329zM117 294q1 34 11 67t29 58q42 59 110 59t110 -59q19 -25 29 -58t11 -67h-300z" />
<glyph unicode="&#xea;" horiz-adv-x="519" d="M260 714l-127 -49q-18 -7 -23.5 -16t-5.5 -21q0 -11 8.5 -20.5t21.5 -9.5q11 0 26 5l100 45l100 -45q15 -5 26 -5q13 0 21.5 9.5t8.5 20.5q0 12 -5.5 21t-23.5 16zM446 234q29 0 39 12.5t10 31.5q0 51 -14.5 98t-43.5 83.5t-72 57.5t-97 21t-97 -23t-72.5 -62 t-44.5 -87.5t-15 -99.5q0 -52 14 -100.5t44 -87.5t76 -61.5t107 -22.5q44 0 82 11.5t66 29t43.5 36t15.5 30.5q0 20 -9 27.5t-25 7.5q-12 0 -38 -23q-30 -27 -61 -43t-79 -16q-34 0 -62.5 14.5t-49.5 40t-33 58t-13 67.5h329zM117 294q1 34 11 67t29 58q42 59 110 59 t110 -59q19 -25 29 -58t11 -67h-300z" />
<glyph unicode="&#xeb;" horiz-adv-x="519" d="M122 640q0 -20 14.5 -34.5t34.5 -14.5t34.5 14.5t14.5 34.5t-14.5 34.5t-34.5 14.5t-34.5 -14.5t-14.5 -34.5zM300 640q0 -20 14.5 -34.5t34.5 -14.5t34.5 14.5t14.5 34.5t-14.5 34.5t-34.5 14.5t-34.5 -14.5t-14.5 -34.5zM446 234q29 0 39 12.5t10 31.5q0 51 -14.5 98 t-43.5 83.5t-72 57.5t-97 21t-97 -23t-72.5 -62t-44.5 -87.5t-15 -99.5q0 -52 14 -100.5t44 -87.5t76 -61.5t107 -22.5q44 0 82 11.5t66 29t43.5 36t15.5 30.5q0 20 -9 27.5t-25 7.5q-12 0 -38 -23q-30 -27 -61 -43t-79 -16q-34 0 -62.5 14.5t-49.5 40t-33 58t-13 67.5h329z M117 294q1 34 11 67t29 58q42 59 110 59t110 -59q19 -25 29 -58t11 -67h-300z" />
<glyph unicode="&#xec;" horiz-adv-x="204" d="M158 608q14 -6 26 -6t20 11t8 23q0 11 -5 18.5t-23 14.5l-138 53q-14 6 -26 6t-20 -11t-8 -23q0 -11 5 -18.5t23 -14.5zM138 492q0 46 -36 46t-36 -46v-452q0 -46 36 -46t36 46v452z" />
<glyph unicode="&#xed;" horiz-adv-x="204" d="M20 669q-18 -7 -23 -14.5t-5 -18.5q0 -12 8 -23t20 -11t26 6l138 53q18 7 23 14.5t5 18.5q0 12 -8 23t-20 11t-26 -6zM138 492q0 46 -36 46t-36 -46v-452q0 -46 36 -46t36 46v452z" />
<glyph unicode="&#xee;" horiz-adv-x="204" d="M102 714l-127 -49q-18 -7 -23.5 -16t-5.5 -21q0 -11 8.5 -20.5t21.5 -9.5q11 0 26 5l100 45l100 -45q15 -5 26 -5q13 0 21.5 9.5t8.5 20.5q0 12 -5.5 21t-23.5 16zM138 492q0 46 -36 46t-36 -46v-452q0 -46 36 -46t36 46v452z" />
<glyph unicode="&#xef;" horiz-adv-x="204" d="M-36 640q0 -20 14.5 -34.5t34.5 -14.5t34.5 14.5t14.5 34.5t-14.5 34.5t-34.5 14.5t-34.5 -14.5t-14.5 -34.5zM142 640q0 -20 14.5 -34.5t34.5 -14.5t34.5 14.5t14.5 34.5t-14.5 34.5t-34.5 14.5t-34.5 -14.5t-14.5 -34.5zM138 492q0 46 -36 46t-36 -46v-452 q0 -46 36 -46t36 46v452z" />
<glyph unicode="&#xf0;" d="M268 -6q38 0 77 14t74 47.5t56.5 93.5t21.5 147q0 117 -41 214t-124 168l79 39q14 7 14 21q0 24 -22 24q-8 0 -25 -8l-85 -42q-40 27 -71.5 43.5t-55.5 16.5q-15 0 -23.5 -9t-8.5 -20q0 -10 9.5 -16.5t29.5 -14.5q39 -15 59 -31l-84 -43q-20 -11 -20 -26q0 -9 5.5 -16 t14.5 -7q5 0 10 1.5t14 6.5l96 48q45 -36 80 -82t53 -96l-2 -2q-21 32 -57.5 49.5t-73.5 17.5q-55 0 -98 -23t-72.5 -62t-44 -87t-14.5 -98q0 -49 15 -96.5t44 -86.5t72 -62t98 -23zM117 262q0 37 8.5 74t26.5 68t47.5 49.5t68.5 18.5q39 -1 68.5 -19.5t47.5 -49t26.5 -67.5 t8.5 -74q0 -36 -8.5 -73t-26.5 -67.5t-47.5 -49t-68.5 -18.5t-68.5 18.5t-47.5 49t-26.5 67.5t-8.5 73z" />
<glyph unicode="&#xf1;" d="M208 640q20 0 61 -13t63 -13q31 0 55.5 18.5t24.5 38.5q0 33 -29 33q-12 0 -26 -12q-7 -6 -13.5 -9.5t-15.5 -3.5q-20 0 -60 13q-42 14 -64 14q-31 0 -55.5 -19.5t-24.5 -43.5q0 -27 29 -27q12 0 26 12q15 12 29 12zM138 333q0 65 38 102t92 37q60 0 95 -33t35 -89v-310 q0 -46 36 -46t36 46v308q0 90 -60 143q-27 23 -61 35t-70 12q-47 0 -81.5 -19.5t-57.5 -52.5h-2v26q0 46 -36 46t-36 -46v-452q0 -46 36 -46t36 46v293z" />
<glyph unicode="&#xf2;" d="M324 608q14 -6 26 -6t20 11t8 23q0 11 -5 18.5t-23 14.5l-138 53q-14 6 -26 6t-20 -11t-8 -23q0 -11 5 -18.5t23 -14.5zM117 266q0 38 8.5 75.5t26 68.5t47 49.5t69.5 18.5t69.5 -18.5t47 -49.5t26 -68.5t8.5 -75.5t-8.5 -75.5t-26 -68.5t-47 -49.5t-69.5 -18.5 t-69.5 18.5t-47 49.5t-26 68.5t-8.5 75.5zM497 266q0 52 -14 100.5t-42.5 87t-72 61.5t-100.5 23q-56 0 -99.5 -23t-72.5 -61.5t-43 -87t-14 -100.5q0 -118 59.5 -195t169.5 -77t169.5 77t59.5 195z" />
<glyph unicode="&#xf3;" d="M186 669q-18 -7 -23 -14.5t-5 -18.5q0 -12 8 -23t20 -11t26 6l138 53q18 7 23 14.5t5 18.5q0 12 -8 23t-20 11t-26 -6zM117 266q0 38 8.5 75.5t26 68.5t47 49.5t69.5 18.5t69.5 -18.5t47 -49.5t26 -68.5t8.5 -75.5t-8.5 -75.5t-26 -68.5t-47 -49.5t-69.5 -18.5 t-69.5 18.5t-47 49.5t-26 68.5t-8.5 75.5zM497 266q0 52 -14 100.5t-42.5 87t-72 61.5t-100.5 23q-56 0 -99.5 -23t-72.5 -61.5t-43 -87t-14 -100.5q0 -118 59.5 -195t169.5 -77t169.5 77t59.5 195z" />
<glyph unicode="&#xf4;" d="M268 714l-127 -49q-18 -7 -23.5 -16t-5.5 -21q0 -11 8.5 -20.5t21.5 -9.5q11 0 26 5l100 45l100 -45q15 -5 26 -5q13 0 21.5 9.5t8.5 20.5q0 12 -5.5 21t-23.5 16zM117 266q0 38 8.5 75.5t26 68.5t47 49.5t69.5 18.5t69.5 -18.5t47 -49.5t26 -68.5t8.5 -75.5t-8.5 -75.5 t-26 -68.5t-47 -49.5t-69.5 -18.5t-69.5 18.5t-47 49.5t-26 68.5t-8.5 75.5zM497 266q0 52 -14 100.5t-42.5 87t-72 61.5t-100.5 23q-56 0 -99.5 -23t-72.5 -61.5t-43 -87t-14 -100.5q0 -118 59.5 -195t169.5 -77t169.5 77t59.5 195z" />
<glyph unicode="&#xf5;" d="M208 640q20 0 61 -13t63 -13q31 0 55.5 18.5t24.5 38.5q0 33 -29 33q-12 0 -26 -12q-7 -6 -13.5 -9.5t-15.5 -3.5q-20 0 -60 13q-42 14 -64 14q-31 0 -55.5 -19.5t-24.5 -43.5q0 -27 29 -27q12 0 26 12q15 12 29 12zM117 266q0 38 8.5 75.5t26 68.5t47 49.5t69.5 18.5 t69.5 -18.5t47 -49.5t26 -68.5t8.5 -75.5t-8.5 -75.5t-26 -68.5t-47 -49.5t-69.5 -18.5t-69.5 18.5t-47 49.5t-26 68.5t-8.5 75.5zM497 266q0 52 -14 100.5t-42.5 87t-72 61.5t-100.5 23q-56 0 -99.5 -23t-72.5 -61.5t-43 -87t-14 -100.5q0 -118 59.5 -195t169.5 -77 t169.5 77t59.5 195z" />
<glyph unicode="&#xf6;" d="M130 640q0 -20 14.5 -34.5t34.5 -14.5t34.5 14.5t14.5 34.5t-14.5 34.5t-34.5 14.5t-34.5 -14.5t-14.5 -34.5zM308 640q0 -20 14.5 -34.5t34.5 -14.5t34.5 14.5t14.5 34.5t-14.5 34.5t-34.5 14.5t-34.5 -14.5t-14.5 -34.5zM117 266q0 38 8.5 75.5t26 68.5t47 49.5 t69.5 18.5t69.5 -18.5t47 -49.5t26 -68.5t8.5 -75.5t-8.5 -75.5t-26 -68.5t-47 -49.5t-69.5 -18.5t-69.5 18.5t-47 49.5t-26 68.5t-8.5 75.5zM497 266q0 52 -14 100.5t-42.5 87t-72 61.5t-100.5 23q-56 0 -99.5 -23t-72.5 -61.5t-43 -87t-14 -100.5q0 -118 59.5 -195 t169.5 -77t169.5 77t59.5 195z" />
<glyph unicode="&#xf7;" horiz-adv-x="600" d="M515 220q17 0 27.5 9.5t10.5 23.5t-10.5 23.5t-27.5 9.5h-430q-17 0 -27.5 -9.5t-10.5 -23.5t10.5 -23.5t27.5 -9.5h430zM237 43q0 -26 18.5 -44.5t44.5 -18.5t44.5 18.5t18.5 44.5t-18.5 44.5t-44.5 18.5t-44.5 -18.5t-18.5 -44.5zM237 463q0 -26 18.5 -44.5t44.5 -18.5 t44.5 18.5t18.5 44.5t-18.5 44.5t-44.5 18.5t-44.5 -18.5t-18.5 -44.5z" />
<glyph unicode="&#xf8;" d="M139 149q-22 51 -22 117q0 38 8.5 75.5t26 68.5t47 49.5t69.5 18.5q61 0 98 -44zM408 487q-56 51 -140 51q-56 0 -99.5 -23t-72.5 -61.5t-43 -87t-14 -100.5q0 -53 12.5 -99t37.5 -81l-41 -51q-17 -22 -17 -34q0 -11 8 -19t18 -8q16 0 29 18l41 51q55 -49 141 -49 q110 0 169.5 77t59.5 195q0 50 -13 96.5t-38 81.5l42 53q17 22 17 34q0 11 -8 19t-18 8q-15 0 -29 -18zM397 383q11 -25 16.5 -55.5t5.5 -61.5q0 -38 -8.5 -75.5t-26 -68.5t-47 -49.5t-69.5 -18.5q-60 0 -98 44z" />
<glyph unicode="&#xf9;" d="M324 608q14 -6 26 -6t20 11t8 23q0 11 -5 18.5t-23 14.5l-138 53q-14 6 -26 6t-20 -11t-8 -23q0 -11 5 -18.5t23 -14.5zM66 175q0 -84 57 -132.5t145 -48.5t145 48.5t57 132.5v317q0 46 -36 46t-36 -46v-299q0 -67 -34 -103t-96 -36q-61 0 -95.5 36t-34.5 103v299 q0 46 -36 46t-36 -46v-317z" />
<glyph unicode="&#xfa;" d="M186 669q-18 -7 -23 -14.5t-5 -18.5q0 -12 8 -23t20 -11t26 6l138 53q18 7 23 14.5t5 18.5q0 12 -8 23t-20 11t-26 -6zM66 175q0 -84 57 -132.5t145 -48.5t145 48.5t57 132.5v317q0 46 -36 46t-36 -46v-299q0 -67 -34 -103t-96 -36q-61 0 -95.5 36t-34.5 103v299 q0 46 -36 46t-36 -46v-317z" />
<glyph unicode="&#xfb;" d="M268 714l-127 -49q-18 -7 -23.5 -16t-5.5 -21q0 -11 8.5 -20.5t21.5 -9.5q11 0 26 5l100 45l100 -45q15 -5 26 -5q13 0 21.5 9.5t8.5 20.5q0 12 -5.5 21t-23.5 16zM66 175q0 -84 57 -132.5t145 -48.5t145 48.5t57 132.5v317q0 46 -36 46t-36 -46v-299q0 -67 -34 -103 t-96 -36q-61 0 -95.5 36t-34.5 103v299q0 46 -36 46t-36 -46v-317z" />
<glyph unicode="&#xfc;" d="M130 640q0 -20 14.5 -34.5t34.5 -14.5t34.5 14.5t14.5 34.5t-14.5 34.5t-34.5 14.5t-34.5 -14.5t-14.5 -34.5zM308 640q0 -20 14.5 -34.5t34.5 -14.5t34.5 14.5t14.5 34.5t-14.5 34.5t-34.5 14.5t-34.5 -14.5t-14.5 -34.5zM66 175q0 -84 57 -132.5t145 -48.5t145 48.5 t57 132.5v317q0 46 -36 46t-36 -46v-299q0 -67 -34 -103t-96 -36q-61 0 -95.5 36t-34.5 103v299q0 46 -36 46t-36 -46v-317z" />
<glyph unicode="&#xfd;" horiz-adv-x="426" d="M131 669q-18 -7 -23 -14.5t-5 -18.5q0 -12 8 -23t20 -11t26 6l138 53q18 7 23 14.5t5 18.5q0 12 -8 23t-20 11t-26 -6zM179 14l-65 -171q-6 -15 -6 -29q0 -12 9 -21t24 -9q27 0 39 36l230 664q4 11 4 21q0 13 -9.5 23t-23.5 10q-27 0 -38 -33l-129 -386h-2l-129 386 q-11 33 -38 33q-14 0 -23.5 -10t-9.5 -23q0 -10 4 -21z" />
<glyph unicode="&#xfe;" horiz-adv-x="556" d="M66 -170q0 -46 36 -46t36 46v243h3q61 -79 147 -79q54 0 97.5 23t72.5 62t44 87.5t15 99.5t-15 100t-44 87.5t-72.5 61.5t-97.5 23q-86 0 -147 -79h-3v267q0 46 -36 46t-36 -46v-896zM137 266q0 38 8.5 75.5t26 68.5t47 49.5t69.5 18.5t69.5 -18.5t47 -49.5t26 -68.5 t8.5 -75.5t-8.5 -75.5t-26 -68.5t-47 -49.5t-69.5 -18.5t-69.5 18.5t-47 49.5t-26 68.5t-8.5 75.5z" />
<glyph unicode="&#xff;" horiz-adv-x="426" d="M75 640q0 -20 14.5 -34.5t34.5 -14.5t34.5 14.5t14.5 34.5t-14.5 34.5t-34.5 14.5t-34.5 -14.5t-14.5 -34.5zM253 640q0 -20 14.5 -34.5t34.5 -14.5t34.5 14.5t14.5 34.5t-14.5 34.5t-34.5 14.5t-34.5 -14.5t-14.5 -34.5zM179 14l-65 -171q-6 -15 -6 -29q0 -12 9 -21 t24 -9q27 0 39 36l230 664q4 11 4 21q0 13 -9.5 23t-23.5 10q-27 0 -38 -33l-129 -386h-2l-129 386q-11 33 -38 33q-14 0 -23.5 -10t-9.5 -23q0 -10 4 -21z" />
<glyph unicode="&#x152;" horiz-adv-x="926" d="M40 356q0 -69 19.5 -133.5t57.5 -116.5t95 -82t130 -30q72 0 128 33t94 95h2v-86q0 -15 10.5 -25.5t25.5 -10.5h254q17 0 27.5 9.5t10.5 23.5t-10.5 23.5t-27.5 9.5h-218v256h199q17 0 27.5 9.5t10.5 23.5t-10.5 23.5t-27.5 9.5h-198v258h207q17 0 27.5 9.5t10.5 23.5 t-10.5 23.5t-27.5 9.5h-231q-25 0 -37 -10t-12 -26v-81h-2q-29 58 -89 90.5t-133 32.5t-130 -30t-95 -82t-57.5 -116.5t-19.5 -133.5zM566 356q0 -53 -12 -105t-38.5 -95.5t-70 -69.5t-103.5 -26t-103 26t-70 69.5t-39 95.5t-12 105q0 54 12 105.5t38.5 95t70 69.5t103.5 26 t103 -26t70 -69.5t39 -95t12 -105.5z" />
<glyph unicode="&#x153;" horiz-adv-x="908" d="M117 266q0 38 8.5 75.5t26 68.5t47 49.5t69.5 18.5t69.5 -18.5t47 -49.5t26 -68.5t8.5 -75.5t-8.5 -75.5t-26 -68.5t-47 -49.5t-69.5 -18.5t-69.5 18.5t-47 49.5t-26 68.5t-8.5 75.5zM268 538q-56 0 -99.5 -23t-72.5 -61.5t-43 -87t-14 -100.5q0 -118 59.5 -195 t169.5 -77q69 0 115 30t73 78q62 -108 203 -108q38 0 73 11.5t61.5 29t41.5 36t15 30.5q0 20 -9 27.5t-25 7.5q-12 0 -39 -24q-29 -27 -58.5 -42.5t-75.5 -15.5q-33 0 -61 14.5t-48 40t-31 58t-12 67.5h318q29 0 39 12.5t10 31.5q0 51 -14.5 98t-43.5 83.5t-72 57.5t-97 21 q-52 0 -99 -30.5t-76 -81.5q-29 54 -76.5 83t-111.5 29zM491 294q1 34 10.5 66.5t28 59.5t44 42.5t56.5 15.5q68 0 110 -59q19 -25 29 -58t11 -67h-289z" />
<glyph unicode="&#x160;" horiz-adv-x="462" d="M231 758l127 49q18 7 23.5 16t5.5 21q0 11 -8.5 20.5t-21.5 9.5q-11 0 -26 -5l-100 -45l-100 45q-15 5 -26 5q-13 0 -21.5 -9.5t-8.5 -20.5q0 -12 5.5 -21t23.5 -16zM216 -6q50 0 92 17t72 47.5t46 72t16 89.5q0 44 -16 76.5t-43 53.5t-57 35t-76 31q-37 14 -60.5 24 t-43 23.5t-31 33t-11.5 44.5q0 45 37 78t92 33q30 0 50.5 -8.5t43.5 -23.5q28 -18 43 -18q11 0 20.5 11t9.5 27q0 13 -14 26.5t-38 25.5t-53 19t-57 7q-86 -2 -146 -51t-60 -131q0 -41 15.5 -70.5t41 -49.5t53.5 -32.5t74 -30.5q39 -14 63 -25t45 -26t33.5 -36.5t12.5 -50.5 q0 -28 -11.5 -56t-33.5 -50t-52.5 -35.5t-66.5 -13.5q-18 0 -37 4.5t-36 11t-29.5 12.5t-15.5 9q-6 6 -17 11.5t-17 5.5q-14 0 -24 -10.5t-10 -24.5q0 -31 56 -58t140 -27z" />
<glyph unicode="&#x161;" horiz-adv-x="444" d="M222 598l127 49q18 7 23.5 16t5.5 21q0 11 -8.5 20.5t-21.5 9.5q-11 0 -26 -5l-100 -45l-100 45q-15 5 -26 5q-13 0 -21.5 -9.5t-8.5 -20.5q0 -12 5.5 -21t23.5 -16zM211 538q-30 0 -60 -9.5t-54.5 -28t-38.5 -45t-14 -57.5q0 -46 24 -74t69 -46l124 -51q36 -15 55 -32.5 t19 -49.5q0 -38 -32 -64.5t-83 -26.5q-39 0 -65.5 14t-54.5 38t-41 24t-23.5 -13t-10.5 -22q0 -13 14 -30.5t40 -33.5t61.5 -26.5t76.5 -10.5q85 0 140.5 42.5t55.5 111.5q0 57 -34.5 89.5t-98.5 58.5l-109 44q-25 10 -37 26.5t-12 36.5q0 36 31.5 55.5t72.5 19.5 q29 0 51.5 -10t47.5 -28q27 -19 38 -19q20 0 28 10t8 25t-15 29.5t-41 26.5t-60.5 19t-71.5 7z" />
<glyph unicode="&#x178;" horiz-adv-x="482" d="M103 800q0 -20 14.5 -34.5t34.5 -14.5t34.5 14.5t14.5 34.5t-14.5 34.5t-34.5 14.5t-34.5 -14.5t-14.5 -34.5zM281 800q0 -20 14.5 -34.5t34.5 -14.5t34.5 14.5t14.5 34.5t-14.5 34.5t-34.5 14.5t-34.5 -14.5t-14.5 -34.5zM241 407l-174 290q-12 21 -36 21q-30 0 -30 -28 q0 -7 4.5 -17.5t17.5 -32.5l182 -303v-297q0 -46 36 -46t36 46v297l182 303q13 22 17.5 32.5t4.5 17.5q0 28 -30 28q-24 0 -36 -21z" />
<glyph unicode="&#x192;" d="M152 488q-18 0 -29.5 -8t-11.5 -22t11.5 -22t29.5 -8h49l-66 -384q-14 -82 -36.5 -110t-58.5 -28h-26q-17 0 -27.5 -9.5t-10.5 -23.5t10.5 -23.5t27.5 -9.5h27q60 0 102.5 47.5t62.5 162.5l67 378h64q18 0 29.5 8t11.5 22t-11.5 22t-29.5 8h-53l22 122q10 54 30.5 75 t49.5 21h32q17 0 27.5 9.5t10.5 23.5t-10.5 23.5t-27.5 9.5h-41q-25 0 -47 -8t-41.5 -26.5t-34 -51t-22.5 -80.5l-20 -118h-60z" />
<glyph unicode="&#x2c6;" horiz-adv-x="204" d="M102 714l-127 -49q-18 -7 -23.5 -16t-5.5 -21q0 -11 8.5 -20.5t21.5 -9.5q11 0 26 5l100 45l100 -45q15 -5 26 -5q13 0 21.5 9.5t8.5 20.5q0 12 -5.5 21t-23.5 16z" />
<glyph unicode="&#x2dc;" horiz-adv-x="204" d="M42 640q20 0 61 -13t63 -13q31 0 55.5 18.5t24.5 38.5q0 33 -29 33q-12 0 -26 -12q-7 -6 -13.5 -9.5t-15.5 -3.5q-20 0 -60 13q-42 14 -64 14q-31 0 -55.5 -19.5t-24.5 -43.5q0 -27 29 -27q12 0 26 12q15 12 29 12z" />
<glyph unicode="&#x2013;" horiz-adv-x="500" d="M469 236q16 0 23.5 9.5t7.5 20.5t-7.5 20.5t-23.5 9.5h-438q-16 0 -23.5 -9.5t-7.5 -20.5t7.5 -20.5t23.5 -9.5h438z" />
<glyph unicode="&#x2014;" horiz-adv-x="1000" d="M1000 236q16 0 23.5 9.5t7.5 20.5t-7.5 20.5t-23.5 9.5h-1000q-16 0 -23.5 -9.5t-7.5 -20.5t7.5 -20.5t23.5 -9.5h1000z" />
<glyph unicode="&#x2018;" horiz-adv-x="186" d="M34 571q-8 -18 -8 -30t9.5 -21.5t25.5 -9.5q24 0 34 21l57 126q8 18 8 30t-9.5 21.5t-25.5 9.5q-24 0 -34 -21z" />
<glyph unicode="&#x2019;" horiz-adv-x="186" d="M34 571q-8 -18 -8 -30t9.5 -21.5t25.5 -9.5q24 0 34 21l57 126q8 18 8 30t-9.5 21.5t-25.5 9.5q-24 0 -34 -21z" />
<glyph unicode="&#x201a;" horiz-adv-x="186" d="M34 -61q-8 -18 -8 -30t9.5 -21.5t25.5 -9.5q24 0 34 21l57 126q8 18 8 30t-9.5 21.5t-25.5 9.5q-24 0 -34 -21z" />
<glyph unicode="&#x201c;" horiz-adv-x="315" d="M34 571q-8 -18 -8 -30t9.5 -21.5t25.5 -9.5q24 0 34 21l57 126q8 18 8 30t-9.5 21.5t-25.5 9.5q-24 0 -34 -21zM163 571q-8 -18 -8 -30t9.5 -21.5t25.5 -9.5q24 0 34 21l57 126q8 18 8 30t-9.5 21.5t-25.5 9.5q-24 0 -34 -21z" />
<glyph unicode="&#x201d;" horiz-adv-x="315" d="M34 571q-8 -18 -8 -30t9.5 -21.5t25.5 -9.5q24 0 34 21l57 126q8 18 8 30t-9.5 21.5t-25.5 9.5q-24 0 -34 -21zM163 571q-8 -18 -8 -30t9.5 -21.5t25.5 -9.5q24 0 34 21l57 126q8 18 8 30t-9.5 21.5t-25.5 9.5q-24 0 -34 -21z" />
<glyph unicode="&#x201e;" horiz-adv-x="315" d="M34 -61q-8 -18 -8 -30t9.5 -21.5t25.5 -9.5q24 0 34 21l57 126q8 18 8 30t-9.5 21.5t-25.5 9.5q-24 0 -34 -21zM163 -61q-8 -18 -8 -30t9.5 -21.5t25.5 -9.5q24 0 34 21l57 126q8 18 8 30t-9.5 21.5t-25.5 9.5q-24 0 -34 -21z" />
<glyph unicode="&#x2020;" horiz-adv-x="610" d="M338 391h199q46 0 46 33t-46 33h-199v215q0 46 -33 46t-33 -46v-215h-199q-46 0 -46 -33t46 -33h199v-561q0 -46 33 -46t33 46v561z" />
<glyph unicode="&#x2021;" horiz-adv-x="610" d="M272 87h-207q-17 0 -27.5 -9.5t-10.5 -23.5t10.5 -23.5t27.5 -9.5h207v-199q0 -17 9.5 -27.5t23.5 -10.5t23.5 10.5t9.5 27.5v199h207q17 0 27.5 9.5t10.5 23.5t-10.5 23.5t-27.5 9.5h-207v332h207q17 0 27.5 9.5t10.5 23.5t-10.5 23.5t-27.5 9.5h-207v199 q0 17 -9.5 27.5t-23.5 10.5t-23.5 -10.5t-9.5 -27.5v-199h-207q-17 0 -27.5 -9.5t-10.5 -23.5t10.5 -23.5t27.5 -9.5h207v-332z" />
<glyph unicode="&#x2022;" horiz-adv-x="500" d="M72 356q0 -36 14 -68.5t38.5 -57t57 -38.5t68.5 -14t68.5 14t57.5 38.5t38.5 57t13.5 68.5t-13.5 68.5t-38.5 57.5t-57.5 38.5t-68.5 13.5t-68.5 -13.5t-57 -38.5t-38.5 -57.5t-14 -68.5z" />
<glyph unicode="&#x2026;" horiz-adv-x="1000" d="M121 40q0 -19 13.5 -32.5t32.5 -13.5t32.5 13.5t13.5 32.5t-13.5 32.5t-32.5 13.5t-32.5 -13.5t-13.5 -32.5zM454 40q0 -19 13.5 -32.5t32.5 -13.5t32.5 13.5t13.5 32.5t-13.5 32.5t-32.5 13.5t-32.5 -13.5t-13.5 -32.5zM787 40q0 -19 13.5 -32.5t32.5 -13.5t32.5 13.5 t13.5 32.5t-13.5 32.5t-32.5 13.5t-32.5 -13.5t-13.5 -32.5z" />
<glyph unicode="&#x2030;" horiz-adv-x="1093" d="M899 -6q31 0 58.5 12t49.5 35t34 54t12 68q0 78 -46 127.5t-108 49.5t-108 -49.5t-46 -127.5q0 -37 12 -68t34 -54t49.5 -35t58.5 -12zM899 42q-46 0 -70 36.5t-24 84.5q0 57 25.5 93t68.5 36t68.5 -36t25.5 -93q0 -48 -24 -84.5t-70 -36.5zM194 372q31 0 58.5 12 t49.5 35t34 54t12 68q0 78 -46 127.5t-108 49.5t-108 -49.5t-46 -127.5q0 -37 12 -68t34 -54t49.5 -35t58.5 -12zM194 420q-46 0 -70 36.5t-24 84.5q0 57 25.5 93t68.5 36t68.5 -36t25.5 -93q0 -48 -24 -84.5t-70 -36.5zM547 -6q31 0 58.5 12t49.5 35t34 54t12 68 q0 78 -46 127.5t-108 49.5t-108 -49.5t-46 -127.5q0 -37 12 -68t34 -54t49.5 -35t58.5 -12zM547 42q-46 0 -70 36.5t-24 84.5q0 57 25.5 93t68.5 36t68.5 -36t25.5 -93q0 -48 -24 -84.5t-70 -36.5zM214 38q-9 -22 -9 -31q0 -23 28 -23q21 0 31 25l260 665q9 23 9 31 q0 23 -28 23q-21 0 -31 -25z" />
<glyph unicode="&#x2039;" horiz-adv-x="240" d="M133 94q8 -14 16 -21t20 -7q13 0 21.5 8t8.5 18q0 7 -2 13t-8 16l-84 145l84 145q6 11 8 16.5t2 12.5q0 10 -8.5 18t-21.5 8q-12 0 -20 -7t-16 -21l-81 -143q-11 -21 -11 -29t11 -29z" />
<glyph unicode="&#x203a;" horiz-adv-x="240" d="M107 438q-8 14 -16 21t-20 7q-13 0 -21.5 -8t-8.5 -18q0 -7 2 -12.5t8 -16.5l84 -145l-84 -145q-6 -10 -8 -16t-2 -13q0 -10 8.5 -18t21.5 -8q12 0 20 7t16 21l81 143q11 21 11 29t-11 29z" />
<glyph unicode="&#x2122;" horiz-adv-x="990" d="M194 338q0 -17 9.5 -27.5t23.5 -10.5t23.5 10.5t9.5 27.5v314h99q16 0 23.5 9.5t7.5 20.5t-7.5 20.5t-23.5 9.5h-264q-16 0 -23.5 -9.5t-7.5 -20.5t7.5 -20.5t23.5 -9.5h99v-314zM475 336q0 -17 9.5 -27.5t23.5 -10.5t23.5 10.5t9.5 27.5v310h2l124 -315 q8 -20 15.5 -26.5t18.5 -6.5t18.5 6.5t15.5 26.5l123 315h2v-310q0 -17 9.5 -27.5t23.5 -10.5t23.5 10.5t9.5 27.5v320q0 29 -14.5 45.5t-39.5 16.5q-21 0 -38.5 -11.5t-29.5 -41.5l-102 -265l-105 265q-12 30 -29 41.5t-39 11.5q-24 0 -39 -16.5t-15 -45.5v-320z" />
<glyph unicode="&#x2212;" horiz-adv-x="600" d="M515 220q17 0 27.5 9.5t10.5 23.5t-10.5 23.5t-27.5 9.5h-430q-17 0 -27.5 -9.5t-10.5 -23.5t10.5 -23.5t27.5 -9.5h430z" />
<glyph unicode="&#xe000;" horiz-adv-x="540" d="M0 540h540v-540h-540v540z" />
</font>
</defs>
</svg>
