<?xml version="1.0" standalone="no"?>
<!DOCTYPE svg PUBLIC "-//W3C//DTD SVG 1.1//EN" "http://www.w3.org/Graphics/SVG/1.1/DTD/svg11.dtd" >
<svg xmlns="http://www.w3.org/2000/svg">
<metadata></metadata>
<defs>
<font id="vagrounded-thinthin" horiz-adv-x="1097" >
<font-face units-per-em="2048" ascent="1638" descent="-410" />
<missing-glyph horiz-adv-x="491" />
<glyph horiz-adv-x="2048" />
<glyph horiz-adv-x="2048" />
<glyph unicode="&#xd;" horiz-adv-x="2048" />
<glyph unicode=" "  horiz-adv-x="491" />
<glyph unicode="&#x09;" horiz-adv-x="491" />
<glyph unicode="&#xa0;" horiz-adv-x="491" />
<glyph unicode="!" horiz-adv-x="569" d="M190 82q0 -39 29 -66.5t66 -27.5t65.5 27.5t28.5 66.5q0 37 -28.5 65.5t-65.5 28.5t-66 -28.5t-29 -65.5zM211 508q0 -94 74 -94t73 94v868q0 94 -73 94q-74 0 -74 -94v-868z" />
<glyph unicode="&#x22;" horiz-adv-x="645" d="M123 1122q0 -35 19.5 -56.5t47.5 -21.5q29 0 48.5 21.5t19.5 56.5v271q0 35 -19.5 56t-48.5 21t-48 -21.5t-19 -55.5v-271zM387 1122q0 -35 19.5 -56.5t48.5 -21.5t48 21.5t19 56.5v271q0 35 -19.5 56t-47.5 21q-29 0 -48.5 -21.5t-19.5 -55.5v-271z" />
<glyph unicode="#" d="M39 504q0 -29 23.5 -45.5t60.5 -16.5h125l-41 -299q-10 -66 -10 -98q0 -23 13 -40t40 -17q59 0 69 73l54 381h270l-41 -299q-10 -66 -10 -98q0 -23 13 -40t40 -17q59 0 70 73l53 381h143q37 0 60.5 16.5t23.5 45.5q0 31 -23.5 46t-60.5 15h-127l47 328h144 q37 0 60.5 16.5t23.5 44.5q0 29 -23.5 45.5t-60.5 16.5h-125l41 299q10 66 10 98q0 25 -13.5 41t-39.5 16q-59 0 -70 -73l-53 -381h-270l41 299q10 66 10 98q0 25 -13.5 41t-39.5 16q-59 0 -70 -73l-53 -381h-144q-37 0 -60.5 -16.5t-23.5 -45.5t24 -45t60 -16h127l-47 -328 h-143q-37 0 -60.5 -15t-23.5 -46zM391 565l45 328h273l-45 -328h-273z" />
<glyph unicode="$" horiz-adv-x="948" d="M41 168q0 -68 109.5 -123t277.5 -57v-92q0 -41 37 -41t37 41v96q180 16 292.5 146t112.5 319q0 88 -31.5 151.5t-86 106.5t-115 71.5t-154.5 63.5l-18 6v479q68 -2 110.5 -19.5t83.5 -45.5q43 -29 64 -29q31 0 46 20.5t15 47.5q0 29 -27.5 57.5t-73.5 51t-103.5 36.5 t-114.5 16v93q0 41 -37 41t-37 -41v-97q-156 -16 -258 -112.5t-102 -249.5q0 -86 29.5 -148.5t79.5 -103.5t107.5 -67.5t143.5 -55.5v-606q-84 0 -135 19.5t-103 52.5q-53 35 -84 34q-31 0 -48 -19.5t-17 -41.5zM215 1116q0 84 54.5 142.5t158.5 72.5v-444 q-102 39 -157.5 91t-55.5 138zM502 127v575q127 -45 192.5 -100t65.5 -162q0 -111 -72 -202t-186 -111z" />
<glyph unicode="%" horiz-adv-x="1517" d="M82 1108q0 -76 24.5 -139.5t69.5 -110.5t101.5 -71.5t119.5 -24.5t119.5 24.5t102 71.5t70 110.5t24.5 139.5q0 160 -94.5 261t-221.5 101t-221 -101t-94 -261zM205 1108q0 117 52 190.5t140 73.5t140.5 -73.5t52.5 -190.5q0 -98 -49.5 -173t-143.5 -75t-143 75t-49 173z M422 14q0 -47 57 -47q43 0 64 51l532 1362q18 47 19 64q0 47 -58 47q-43 0 -63 -51l-533 -1362q-18 -45 -18 -64zM805 334q0 -76 24.5 -139.5t69.5 -110.5t101.5 -71.5t119.5 -24.5t119.5 24.5t101.5 71.5t70 110.5t25 139.5q0 160 -94.5 261t-221.5 101t-221 -101t-94 -261 zM928 334q0 117 52 190.5t140 73.5t140.5 -73.5t52.5 -190.5q0 -98 -49.5 -173t-143.5 -75t-143 75t-49 173z" />
<glyph unicode="&#x26;" horiz-adv-x="1366" d="M84 426q0 -199 127 -318.5t350 -119.5q125 0 241 67.5t204 173.5l163 -188q25 -29 37.5 -38t30.5 -9q74 0 74 80q0 10 -6.5 25.5t-26.5 35.5l-188 211q109 135 155.5 217t46.5 109q0 66 -65 65q-29 0 -48.5 -23.5t-54.5 -80.5q-39 -66 -63 -101l-57 -81l-361 415 q123 74 194.5 151t71.5 187q0 127 -93 196.5t-230 69.5q-154 0 -238 -76.5t-84 -197.5q0 -66 36 -128t132 -169q-168 -96 -258 -212t-90 -261zM244 432q0 109 72.5 204t197.5 159l397 -457q-72 -109 -168 -162t-188 -53q-139 0 -225 85t-86 224zM412 1196q0 82 48 117 t118 35q82 0 133 -41t51 -111q0 -61 -45 -109.5t-164 -115.5l-10 12q-63 70 -97 120t-34 93z" />
<glyph unicode="'" horiz-adv-x="380" d="M123 1122q0 -35 19.5 -56.5t47.5 -21.5q29 0 48.5 21.5t19.5 56.5v271q0 35 -19.5 56t-48.5 21t-48 -21.5t-19 -55.5v-271z" />
<glyph unicode="(" horiz-adv-x="417" d="M88 676q0 -186 20.5 -368.5t63.5 -340.5q20 -70 42 -100.5t56 -30.5q55 0 60 49q0 18 -15 62q-27 72 -43 147q-29 135 -39 275.5t-10 306.5t10.5 306t38.5 275q16 76 43 148q14 43 15 61q-4 49 -60 50q-35 0 -56 -31t-42 -101q-43 -158 -63.5 -340t-20.5 -368z" />
<glyph unicode=")" horiz-adv-x="417" d="M88 -115q4 -49 59 -49q35 0 56.5 31t42.5 100q43 158 63.5 340t20.5 369q0 186 -20.5 368.5t-63.5 339.5q-20 70 -42 101t-57 31q-55 0 -59 -50q0 -18 14 -61q27 -72 43 -148q29 -135 39.5 -275t10.5 -306t-10.5 -306.5t-39.5 -275.5q-16 -76 -43 -147q-14 -43 -14 -62z " />
<glyph unicode="*" horiz-adv-x="794" d="M82 961q0 -59 63 -60q25 0 68 31l152 115l-17 -115q-8 -53 -10 -78t-2 -45q0 -68 61 -68t62 68q0 20 -2 45t-11 78l-16 115l152 -115q43 -31 67 -31q63 0 64 60q0 33 -60 61l-186 84l186 84q59 29 60 61q0 59 -64 60q-25 0 -67 -31l-152 -115l16 115q8 53 10.5 78.5 t2.5 44.5q0 68 -62 67q-61 0 -61 -67q0 -18 2 -44t10 -79l17 -115l-152 115q-43 31 -68 31q-63 0 -63 -60q0 -33 59 -61l187 -84l-187 -84q-59 -29 -59 -61z" />
<glyph unicode="+" horiz-adv-x="1228" d="M96 518q0 -29 21.5 -48t56.5 -19h373v-373q0 -35 19.5 -56.5t47.5 -21.5q29 0 48.5 21.5t19.5 56.5v373h373q35 0 56.5 19t21.5 48t-21.5 48.5t-56.5 19.5h-373v372q0 35 -19.5 56.5t-48.5 21.5t-48 -21.5t-19 -56.5v-372h-373q-35 0 -56.5 -19.5t-21.5 -48.5z" />
<glyph unicode="," horiz-adv-x="491" d="M66 -186q0 -25 19 -44.5t52 -19.5q49 0 70 43l117 258q16 37 16 62t-19.5 44t-52.5 19q-49 0 -69 -43l-117 -258q-16 -37 -16 -61z" />
<glyph unicode="-" horiz-adv-x="720" d="M84 545q0 -29 21.5 -48.5t56.5 -19.5h397q35 0 56.5 19.5t21.5 48.5t-21.5 48t-56.5 19h-397q-35 0 -56.5 -19.5t-21.5 -47.5z" />
<glyph unicode="." horiz-adv-x="491" d="M152 82q0 -39 27.5 -66.5t66.5 -27.5t66.5 27.5t27.5 66.5t-27.5 66.5t-66.5 27.5t-66.5 -27.5t-27.5 -66.5z" />
<glyph unicode="/" horiz-adv-x="833" d="M82 41q0 -53 63 -53q47 0 70 53l522 1321q14 37 15 55q0 53 -64 53q-47 0 -70 -53l-522 -1321q-14 -35 -14 -55z" />
<glyph unicode="0" d="M84 729q0 -199 42 -342t110.5 -231t149.5 -128t163 -40t164 40t149.5 128t109.5 231t42 342t-42 342t-109.5 231.5t-149.5 128t-164 39.5t-163 -39.5t-149.5 -128t-110.5 -231.5t-42 -342zM244 729q0 272 77.5 439t227.5 167t227.5 -167t77.5 -439t-78 -439t-227 -167 q-150 0 -227.5 167t-77.5 439z" />
<glyph unicode="1" horiz-adv-x="720" d="M96 1391q0 -29 21.5 -48.5t56.5 -19.5h186v-1241q0 -94 74 -94t74 94v1309q0 29 -21.5 48t-56.5 19h-256q-35 0 -56.5 -19.5t-21.5 -47.5z" />
<glyph unicode="2" d="M121 1024q0 -53 19.5 -75.5t56.5 -22.5q72 0 71 73q0 164 72 250t203 86q113 0 173 -59t60 -191q0 -113 -125 -284l-473 -654q-23 -31 -31 -51t-8 -39q0 -25 19.5 -41t58.5 -16h682q35 0 56.5 19.5t21.5 48.5t-21.5 48t-56.5 19h-561l459 627q76 102 107.5 181t31.5 155 q0 174 -105.5 273t-281.5 99q-94 0 -173 -33.5t-136.5 -95t-88 -143.5t-30.5 -174z" />
<glyph unicode="3" d="M104 307q0 -41 28 -95t81 -105.5t129 -85t170 -33.5t176 32.5t142.5 93t94 142.5t33.5 176q0 121 -68.5 216t-176.5 130q78 51 122 136t44 190q0 158 -103.5 262t-263.5 104q-76 0 -140.5 -28.5t-111.5 -79.5t-71.5 -117.5t-24.5 -138.5q0 -31 21.5 -52.5t52.5 -21.5 t52 21.5t21 52.5q0 111 52.5 170t148.5 59q57 0 98 -23.5t64.5 -61.5t34 -78.5t10.5 -75.5q0 -113 -49 -181.5t-138 -80.5q-47 -6 -66.5 -24.5t-19.5 -47.5q0 -31 25 -48.5t121 -33.5q35 -6 68.5 -20.5t65.5 -45t52.5 -83t20.5 -125.5q0 -121 -79 -202t-208 -81 q-68 0 -118 25.5t-81.5 61.5t-47 66.5t-25.5 61.5t-28.5 41t-39.5 10q-25 0 -46.5 -21.5t-21.5 -60.5z" />
<glyph unicode="4" d="M66 449q0 -29 17 -43.5t58 -14.5h586v-309q0 -94 74 -94t73 94v309h80q35 0 56.5 19.5t21.5 48.5t-21.5 48t-56.5 19h-80v824q0 55 -31.5 87.5t-88.5 32.5q-49 0 -86 -25.5t-62 -66.5l-485 -807q-55 -88 -55 -122zM252 526l471 822h4v-822h-475z" />
<glyph unicode="5" d="M102 211q0 -25 32 -62.5t87 -74.5t129 -61.5t156 -24.5q201 0 326.5 141t125.5 375q0 92 -30.5 171t-86 137t-128 91t-152.5 33q-90 0 -160 -35l66 422h387q35 0 56.5 19.5t21.5 48.5t-21.5 48t-56.5 19h-438q-43 0 -61.5 -22.5t-26.5 -71.5l-76 -481l-4 -23 q-6 -47 -6 -65q0 -25 17 -40.5t38 -15.5q29 0 82 25q35 18 63.5 27.5t67.5 9.5q133 0 211 -86t78 -230q0 -156 -80 -259t-215 -103q-92 0 -149.5 31.5t-112.5 85.5q-47 45 -68 45q-33 0 -52.5 -26t-19.5 -48z" />
<glyph unicode="6" d="M125 473q0 -80 23.5 -164t74.5 -157.5t135 -118.5t197 -45q104 0 184 42t131.5 112.5t77 156.5t25.5 174q0 213 -106.5 340t-286.5 127q-57 0 -112.5 -15.5t-98.5 -41.5h-4q86 174 164.5 271t162.5 177q63 59 64 82q0 35 -18.5 56.5t-47.5 21.5q-33 0 -78 -41 q-100 -92 -187 -202.5t-154.5 -235.5t-106.5 -261.5t-39 -277.5zM285 461q0 174 65.5 265t196.5 91q121 0 193.5 -98t72.5 -258q0 -162 -76.5 -250t-193.5 -88q-125 0 -191.5 100.5t-66.5 237.5z" />
<glyph unicode="7" horiz-adv-x="985" d="M59 1391q0 -29 21.5 -48.5t56.5 -19.5h611l-508 -1200q-25 -55 -25 -78q0 -25 19.5 -41t48.5 -16q25 0 43 10t32 43l543 1282q10 25 17.5 49.5t7.5 40.5q0 45 -72 45h-717q-35 0 -56.5 -19.5t-21.5 -47.5z" />
<glyph unicode="8" d="M125 430q0 -88 27.5 -168t83 -142.5t134.5 -97t179 -34.5t180 35.5t134.5 97t82 141.5t27.5 168q0 139 -67.5 241.5t-182.5 133.5v4q86 53 139 137t53 187q0 66 -27.5 127t-76.5 109t-116.5 74.5t-145.5 26.5t-145.5 -26.5t-116.5 -74.5t-77 -109.5t-28 -126.5 q0 -102 53.5 -186.5t139.5 -137.5v-4q-115 -31 -182.5 -133.5t-67.5 -241.5zM285 442q0 125 70.5 214t193.5 89t193.5 -89t70.5 -214q0 -123 -70.5 -221t-193.5 -98t-193.5 98t-70.5 221zM330 1118q0 92 60.5 154.5t158.5 62.5q94 0 156.5 -63.5t62.5 -157.5 q0 -102 -56.5 -167.5t-162.5 -65.5q-109 0 -164 66.5t-55 170.5z" />
<glyph unicode="9" d="M125 985q0 -213 106.5 -340t286.5 -127q57 0 112.5 15.5t98.5 41.5h4q-86 -174 -165 -271t-162 -177q-63 -59 -64 -82q0 -35 18.5 -56.5t47.5 -21.5q35 0 77 41q100 92 187.5 203t155 235.5t106.5 262t39 276.5q0 80 -23.5 164t-75 157.5t-135 118.5t-196.5 45 q-104 0 -183 -42t-131.5 -112.5t-78 -156.5t-25.5 -174zM285 997q0 162 76.5 250t193.5 88q125 0 191.5 -100t66.5 -238q0 -174 -65.5 -265t-196.5 -91q-121 0 -193.5 98.5t-72.5 257.5z" />
<glyph unicode=":" horiz-adv-x="491" d="M152 82q0 -39 27.5 -66.5t66.5 -27.5t66.5 27.5t27.5 66.5t-27.5 66.5t-66.5 27.5t-66.5 -27.5t-27.5 -66.5zM152 774q0 -39 27.5 -66.5t66.5 -27.5t66.5 27.5t27.5 66.5t-27.5 66.5t-66.5 27.5t-66.5 -27.5t-27.5 -66.5z" />
<glyph unicode=";" horiz-adv-x="491" d="M66 -186q0 -25 19 -44.5t52 -19.5q49 0 70 43l117 258q16 37 16 62t-19.5 44t-52.5 19q-49 0 -69 -43l-117 -258q-16 -37 -16 -61zM152 774q0 -37 28.5 -65.5t65.5 -28.5t65.5 28.5t28.5 65.5t-28.5 65.5t-65.5 28.5t-65.5 -28.5t-28.5 -65.5z" />
<glyph unicode="&#x3c;" horiz-adv-x="1228" d="M76 518q0 -20 11 -38.5t44 -33.5l899 -440q37 -18 64 -18q59 0 59 63q0 25 -14.5 40t-48.5 34l-807 393l800 391q70 33 70 88q0 20 -16.5 36t-42.5 16q-27 0 -64 -19l-899 -440q-33 -14 -44 -32.5t-11 -39.5z" />
<glyph unicode="=" horiz-adv-x="1228" d="M96 313q0 -29 21.5 -48t56.5 -19h881q35 0 56.5 19.5t21.5 47.5q0 29 -21.5 48.5t-56.5 19.5h-881q-35 0 -56.5 -19.5t-21.5 -48.5zM96 723q0 -29 21.5 -48.5t56.5 -19.5h881q35 0 56.5 19.5t21.5 48.5t-21.5 48.5t-56.5 19.5h-881q-35 0 -56.5 -19.5t-21.5 -48.5z" />
<glyph unicode="&#x3e;" horiz-adv-x="1228" d="M76 51q0 -63 59 -63q27 0 64 18l899 440q33 14 44 33t11 39t-11.5 38.5t-43.5 33.5l-899 440q-37 18 -64 19q-25 0 -42 -15.5t-17 -36.5q0 -55 69 -88l801 -391l-807 -393q-35 -18 -49 -33.5t-14 -40.5z" />
<glyph unicode="?" horiz-adv-x="909" d="M55 1167q0 -33 17.5 -55t50.5 -22q37 0 53.5 17t26.5 67q16 76 86.5 118.5t156.5 42.5q96 0 172 -60.5t76 -168.5q0 -98 -63.5 -163.5t-192.5 -92.5q-51 -10 -65.5 -26.5t-14.5 -59.5v-260q0 -94 74 -94t74 94v217q76 18 136 47t108.5 74t76 111.5t27.5 156.5 q0 160 -113.5 260t-294.5 100q-76 0 -147.5 -21.5t-126.5 -62t-86 -97t-31 -122.5zM338 82q0 -39 27.5 -66.5t66.5 -27.5t66.5 27.5t27.5 66.5t-27.5 66.5t-66.5 27.5t-66.5 -27.5t-27.5 -66.5z" />
<glyph unicode="@" horiz-adv-x="1638" d="M78 733q0 -154 58.5 -290t162.5 -238.5t242.5 -159.5t294.5 -57q127 0 241.5 35.5t198.5 88t132 103.5t48 78q0 45 -45 45q-20 0 -76 -49q-45 -39 -83 -67.5t-97 -57.5t-142 -47.5t-186 -18.5q-125 0 -238.5 47.5t-200.5 133.5t-137 200.5t-50 243.5t48 245.5t135 205 t206 137.5t254 49q123 0 230.5 -35t190.5 -102.5t128 -162.5t45 -210q0 -78 -27 -159t-73 -148.5t-103 -107.5t-117 -40q-55 0 -55 62q0 35 20 100l148 469q8 23 10 32t2 17q0 47 -59 47q-25 0 -42.5 -11t-29.5 -42l-27 -70q-35 80 -100 120t-141 40q-100 0 -186.5 -48 t-150 -130t-97 -182.5t-33.5 -200.5q0 -135 75.5 -224t211.5 -89q90 0 144 34.5t103 94.5h4q25 -129 164 -129q66 0 150 43t159.5 120.5t124 184t48.5 227.5q0 131 -55.5 244t-154 194.5t-229.5 126.5t-280 45q-154 0 -292 -56t-245.5 -158.5t-167 -236.5t-59.5 -286z M537 608q0 66 24.5 139.5t67.5 136t102.5 101.5t124.5 39q84 0 125 -47t41 -135q0 -53 -24.5 -126t-68.5 -140.5t-102.5 -111.5t-124.5 -44q-78 0 -121.5 52t-43.5 136z" />
<glyph unicode="A" horiz-adv-x="1253" d="M29 45q0 -57 65 -57q33 0 48.5 14t31.5 47l2 6l96 262h709l96 -262q12 -33 29.5 -50t52.5 -17q66 0 66 57q0 27 -15 61l-469 1258v2q-20 49 -42.5 76.5t-71.5 27.5t-72 -27.5t-43 -76.5v-2l-469 -1258q-14 -35 -14 -61zM322 453l303 825h4l303 -825h-610z" />
<glyph unicode="B" horiz-adv-x="1099" d="M135 78q0 -78 90 -78h336q117 0 205 33t145.5 92t85 134t27.5 159q0 154 -84 248t-235 118v4q100 41 153 112t53 194q0 66 -22.5 129t-72.5 117.5t-132 86t-195 31.5h-264q-90 0 -90 -78v-1302zM283 135v576h260q150 0 242 -80t92 -209q0 -139 -87.5 -213t-244.5 -74 h-262zM283 834v489h219q123 0 192.5 -69.5t69.5 -166.5q0 -111 -76 -182t-190 -71h-215z" />
<glyph unicode="C" horiz-adv-x="1214" d="M82 709q0 -150 40 -280t121 -229.5t204.5 -155.5t285.5 -56q96 0 180 21.5t145.5 55t96.5 68.5t35 60q0 73 -60 73h-2q-16 0 -61 -33q-68 -49 -139.5 -79.5t-186.5 -30.5q-127 0 -222 47t-156.5 130t-91 187.5t-29.5 221.5q0 113 30.5 224t92 202.5t150.5 145.5t200 54 q104 0 172.5 -32.5t134.5 -85.5q51 -43 72 -43q25 0 45 21.5t20 55.5q0 27 -34.5 65t-97 73.5t-142.5 58t-168 22.5q-156 0 -277 -62t-199.5 -171t-118.5 -245t-40 -283z" />
<glyph unicode="D" horiz-adv-x="1290" d="M135 78q0 -78 90 -78h353q133 0 247.5 49t200.5 143.5t134 228.5t48 298q0 133 -35.5 264t-110.5 238.5t-193.5 172t-278.5 64.5h-365q-90 0 -90 -78v-1302zM283 135v1188h295q125 0 216 -49t147 -131t82 -184.5t26 -213.5q0 -133 -26 -243.5t-83 -192.5t-149.5 -128 t-221.5 -46h-286z" />
<glyph unicode="E" horiz-adv-x="909" d="M135 78q0 -78 90 -78h504q35 0 56.5 19.5t21.5 48.5t-21.5 48t-56.5 19h-446v524h407q35 0 56.5 19.5t21.5 48.5t-21.5 48.5t-56.5 19.5h-405v528h424q35 0 56 19.5t21 48.5t-21.5 48t-55.5 19h-484q-90 0 -90 -78v-1302z" />
<glyph unicode="F" horiz-adv-x="833" d="M135 82q0 -94 74 -94t74 94v577h393q35 0 56.5 19.5t21.5 48.5t-21.5 48.5t-56.5 19.5h-393v528h444q35 0 56.5 19.5t21.5 48.5t-21.5 48t-56.5 19h-518q-31 -2 -52.5 -22.5t-21.5 -51.5v-1302z" />
<glyph unicode="G" horiz-adv-x="1366" d="M82 729q0 -145 37 -277.5t114.5 -237.5t200.5 -165.5t287 -60.5q127 0 233.5 34.5t187.5 116.5t127 223.5t46 346.5q0 51 -27.5 81.5t-97.5 30.5h-281q-35 0 -56.5 -19.5t-21.5 -47.5q0 -29 21.5 -48.5t56.5 -19.5h258q0 -115 -24.5 -215t-75.5 -179t-135 -124t-199 -45 q-123 0 -216 47t-153.5 130t-91 192.5t-30.5 236.5q0 109 28.5 216.5t88 196.5t152.5 141t214 52q109 0 182.5 -32.5t149.5 -88.5q63 -45 86 -45q31 0 51 20.5t20 57.5q0 25 -38.5 63t-107.5 74.5t-160 61t-191 24.5q-156 0 -275.5 -62t-199.5 -167.5t-120 -239t-40 -272.5z " />
<glyph unicode="H" horiz-adv-x="1366" d="M135 82q0 -94 74 -94t74 94v598h800v-598q0 -94 74 -94t74 94v1294q0 94 -74 94t-74 -94v-561h-800v561q0 94 -74 94t-74 -94v-1294z" />
<glyph unicode="I" horiz-adv-x="417" d="M135 82q0 -94 74 -94t74 94v1294q0 94 -74 94t-74 -94v-1294z" />
<glyph unicode="J" horiz-adv-x="720" d="M-35 133q0 -20 22.5 -46t64.5 -48.5t96.5 -36.5t115.5 -14q147 0 234.5 94t87.5 254v1040q0 94 -74 94t-74 -94v-1040q0 -104 -39 -164.5t-141 -60.5q-61 0 -100 16t-78 45q-37 27 -57 27q-57 0 -58 -66z" />
<glyph unicode="K" horiz-adv-x="1138" d="M135 82q0 -94 74 -94t74 94v625l702 -670q49 -49 88 -49q29 0 47.5 18.5t18.5 44.5q0 37 -33 66l-688 655l639 574q20 16 26.5 30.5t6.5 32.5q0 25 -16.5 43t-47.5 18q-37 0 -90 -49l-653 -587v542q0 94 -74 94t-74 -94v-1294z" />
<glyph unicode="L" horiz-adv-x="757" d="M135 74q0 -31 21.5 -52.5t52.5 -21.5h459q35 0 56 19.5t21 48.5t-21.5 48t-55.5 19h-385v1241q0 94 -74 94t-74 -94v-1302z" />
<glyph unicode="M" horiz-adv-x="1708" d="M70 55q0 -37 20.5 -52t48.5 -15q37 0 54.5 22.5t23.5 65.5l182 1231h4l375 -1244q12 -39 27.5 -57t46.5 -18q33 0 52.5 21.5t35.5 76.5l365 1225h4l182 -1235q6 -43 23.5 -65.5t54.5 -22.5q29 0 49 15t20 52q0 10 -5 44t-11 61l-4 28l-174 1168q-10 66 -51 90t-99 24 q-80 0 -108 -96l-332 -1130h-4l-324 1130q-29 96 -112 96q-57 0 -98.5 -24.5t-51.5 -89.5l-174 -1168l-4 -28l-12 -70.5t-4 -34.5z" />
<glyph unicode="N" horiz-adv-x="1363" d="M135 82q0 -94 74 -94t74 94v1118h4l792 -1159q20 -29 37 -41t43 -12q33 0 51.5 20.5t18.5 69.5v1298q0 94 -74 94t-74 -94v-1104h-4l-782 1145q-18 25 -37.5 39t-48.5 14q-74 0 -74 -86v-1302z" />
<glyph unicode="O" horiz-adv-x="1400" d="M82 729q0 -141 40 -274t117.5 -238.5t194.5 -167t266 -61.5q150 0 266.5 61.5t194.5 167t118 238.5t40 274t-39 274.5t-118 239t-195.5 166.5t-266.5 61t-266.5 -61t-194 -166.5t-117.5 -239t-40 -274.5zM242 729q0 111 24.5 217.5t78.5 194.5t143.5 141t211.5 53 q123 0 212 -53t143.5 -142t79 -194.5t24.5 -216.5t-24.5 -216t-79 -194.5t-143.5 -142.5t-212 -53t-211 53t-143 142.5t-79.5 194.5t-24.5 216z" />
<glyph unicode="P" horiz-adv-x="1062" d="M135 82q0 -94 74 -94t74 94v475h258q123 0 215 37t152.5 102.5t90 148.5t29.5 175q0 74 -25.5 149.5t-79 141t-140.5 106.5t-205 41h-351q-49 0 -70.5 -19.5t-21.5 -58.5v-1298zM283 692v631h270q84 0 146.5 -27.5t102.5 -72.5t59.5 -101.5t19.5 -113.5t-19.5 -113.5 t-59.5 -101.5t-102.5 -73t-146.5 -28h-270z" />
<glyph unicode="Q" horiz-adv-x="1400" d="M82 729q0 -141 40 -274t117.5 -238.5t194.5 -167t266 -61.5q131 0 235.5 46t182.5 130l135 -144q30 -32 62 -32h2q25 0 44 16t19 39q0 35 -30 66l-152 157q61 98 91 217t30 246q0 141 -39 274.5t-118 239t-195.5 166.5t-266.5 61t-266.5 -61t-194 -166.5t-117.5 -239 t-40 -274.5zM242 729q0 115 24.5 223.5t78.5 197.5t143.5 143.5t211.5 54.5q123 0 212 -53.5t143.5 -143.5t79 -198.5t24.5 -223.5q0 -94 -15.5 -184t-49.5 -166l-101 106q-29 31 -61 31q-31 0 -50.5 -17.5t-19.5 -41.5q0 -23 29 -56l133 -139q-55 -72 -136 -111.5 t-188 -39.5q-123 0 -212 53t-143 143t-78.5 198.5t-24.5 223.5z" />
<glyph unicode="R" horiz-adv-x="1062" d="M135 82q0 -94 74 -94t74 94v565l583 -627q30 -32 64 -32h2q27 0 46 17.5t19 43.5q0 20 -6 33.5t-22 30.5l-504 538h135q174 0 281.5 117t107.5 295q0 78 -28.5 148.5t-85 127t-139.5 88t-187 31.5h-322q-49 0 -70.5 -19.5t-21.5 -58.5v-1298zM283 774v549h256 q303 0 303 -287q0 -127 -79 -194.5t-224 -67.5h-256z" />
<glyph unicode="S" horiz-adv-x="946" d="M41 162q0 -63 114.5 -118.5t286.5 -55.5q102 0 188.5 34.5t148 97t94 147.5t32.5 184q0 90 -32.5 156.5t-88 109.5t-117 71.5t-155.5 63.5q-76 29 -124 49.5t-88 48t-63.5 67.5t-23.5 91q0 92 76 159.5t188 67.5q61 0 103.5 -17.5t89.5 -47.5q57 -37 88 -37q23 0 42 22.5 t19 55.5q0 27 -28.5 54.5t-77.5 52t-108.5 38.5t-117.5 14q-176 -4 -298.5 -104t-122.5 -268q0 -84 31.5 -144.5t83.5 -101.5t109.5 -66.5t151.5 -62.5q80 -29 129.5 -51.5t92.5 -53t68.5 -74.5t25.5 -104q0 -57 -23.5 -114.5t-68.5 -102.5t-107.5 -72.5t-136.5 -27.5 q-37 0 -76 9t-73.5 22.5t-60.5 26t-32 18.5q-12 12 -34.5 23t-34.5 11q-29 0 -49.5 -21.5t-20.5 -49.5z" />
<glyph unicode="T" horiz-adv-x="872" d="M2 1391q0 -29 21.5 -48.5t56.5 -19.5h282v-1241q0 -94 74 -94t74 94v1241h283q35 0 56 19.5t21 48.5t-21.5 48t-55.5 19h-713q-35 0 -56.5 -19.5t-21.5 -47.5z" />
<glyph unicode="U" horiz-adv-x="1363" d="M135 496q0 -123 44 -218.5t122 -160t176 -97t205 -32.5q106 0 205.5 32.5t176.5 97t121 160t44 218.5v880q0 94 -74 94t-74 -94v-862q0 -98 -32.5 -172t-89 -123t-127 -72.5t-150.5 -23.5t-150.5 23.5t-127 72.5t-89 123t-32.5 172v862q0 94 -74 94t-74 -94v-880z" />
<glyph unicode="V" horiz-adv-x="1138" d="M20 1401q0 -25 29 -103l432 -1220q14 -41 34 -65.5t54 -24.5q35 0 54.5 24.5t33.5 65.5l433 1220q29 78 28 103q0 31 -20.5 50t-53.5 19q-51 0 -71 -61l-402 -1178h-4l-401 1178q-18 61 -72 61q-33 0 -53.5 -19t-20.5 -50z" />
<glyph unicode="W" horiz-adv-x="1671" d="M57 1409q0 -12 4.5 -40t20.5 -112l207 -1187q8 -39 39.5 -60.5t68.5 -21.5q43 0 71 19.5t40 62.5l326 1169h4l317 -1169q12 -43 40 -62.5t71 -19.5q39 0 70.5 21.5t37.5 60.5l215 1187q12 61 18.5 101.5t6.5 50.5q0 61 -68 61q-31 0 -52 -16t-28 -57l-196 -1237h-4 l-353 1241q-8 31 -26.5 50t-50.5 19q-33 0 -50.5 -19t-27.5 -50l-352 -1241h-5l-196 1237q-6 41 -27.5 57t-52.5 16q-68 0 -68 -61z" />
<glyph unicode="X" horiz-adv-x="1216" d="M45.5 5q20.5 -17 48.5 -17q27 0 42.5 11t35.5 42l436 623l436 -623q20 -31 36 -42t42 -11q29 0 49.5 17.5t20.5 39.5q0 25 -29 68l-473 669l393 564q29 43 29 67q0 23 -20.5 40t-49.5 17q-27 0 -42 -11t-35 -42l-357 -518l-356 518q-20 31 -35.5 42t-42.5 11 q-29 0 -49.5 -17t-20.5 -40q0 -25 29 -67l393 -564l-473 -669q-28 -42 -28 -66.5t20.5 -41.5z" />
<glyph unicode="Y" horiz-adv-x="987" d="M2 1413q0 -14 9 -35.5t36 -66.5l373 -621v-608q0 -94 74 -94t73 94v608l373 621q27 45 36 66.5t9 35.5q0 57 -61 57q-49 0 -74 -43l-356 -593l-357 593q-25 43 -74 43q-61 0 -61 -57z" />
<glyph unicode="Z" horiz-adv-x="1138" d="M57 82q0 -37 32 -59.5t91 -22.5h824q35 0 56 19.5t21 48.5t-21.5 48t-55.5 19h-762l784 1194q29 41 29 74q0 23 -17.5 39t-52.5 16h-821q-35 0 -56.5 -19.5t-21.5 -47.5q0 -29 21.5 -48.5t56.5 -19.5h684l-731 -1114q-33 -49 -46.5 -78t-13.5 -49z" />
<glyph unicode="[" horiz-adv-x="454" d="M152 -45q0 -31 21.5 -52.5t51.5 -21.5h140q33 0 48 19.5t15 42.5t-15.5 42t-47.5 19h-66v1344h66q33 0 48 19t15 42t-15.5 42t-47.5 19h-140q-31 0 -52 -21.5t-21 -51.5v-1442z" />
<glyph unicode="\" horiz-adv-x="833" d="M82 1417q0 -18 14 -55l522 -1321q23 -53 70 -53q63 0 64 53q0 20 -15 55l-522 1321q-23 53 -70 53q-63 0 -63 -53z" />
<glyph unicode="]" horiz-adv-x="454" d="M27 -57q0 -23 15 -42.5t48 -19.5h139q31 0 52.5 21.5t21.5 52.5v1442q0 31 -21.5 52t-52.5 21h-139q-33 0 -48 -19t-15 -42t15 -42t48 -19h66v-1344h-66q-33 0 -48 -19.5t-15 -41.5z" />
<glyph unicode="^" horiz-adv-x="1228" d="M98 590q0 -27 20.5 -40t47.5 -13q29 2 46 18t38 53l364 662l365 -662q20 -37 37.5 -53t46.5 -18q27 0 47 13t20 40t-18 57l-432 778q-14 27 -29.5 36t-36.5 9q-20 0 -35.5 -9t-29.5 -36l-432 -778q-18 -31 -19 -57z" />
<glyph unicode="_" horiz-adv-x="1024" d="M-59 -205q0 -51 59 -51h1024q59 0 59 51t-59 51h-1024q-59 0 -59 -51z" />
<glyph unicode="`" horiz-adv-x="417" d="M-16 1421q0 -23 10 -38t47 -29l283 -109q29 -12 53 -12q25 0 41 22.5t16 47.5q0 23 -10 38t-47 29l-283 109q-29 12 -53 12q-25 0 -41 -22.5t-16 -47.5z" />
<glyph unicode="a" horiz-adv-x="1138" d="M80 545q0 -242 122 -399.5t347 -157.5q96 0 174 41t127 121h6v-68q0 -94 74 -94t74 94v926q0 94 -74 94t-74 -94v-68h-6q-125 162 -305 162q-115 0 -203 -47t-146.5 -126t-87 -178.5t-28.5 -205.5zM240 545q0 78 17 154.5t55 140t97.5 101.5t139.5 38q82 0 141.5 -38 t96 -101.5t53 -139t16.5 -155.5t-16.5 -156t-53 -139.5t-96 -101t-141.5 -37.5t-142.5 37.5t-96.5 101t-53 140.5t-17 155z" />
<glyph unicode="b" horiz-adv-x="1138" d="M135 82q0 -94 74 -94t74 94v68h6q49 -80 127 -121t174 -41q225 0 347 157.5t122 399.5q0 106 -29 205.5t-87 178.5t-146 126t-203 47q-180 0 -305 -162h-6v547q0 94 -74 94t-74 -94v-1405zM281 545q0 78 17 154.5t53 140t96.5 101.5t142.5 38t142.5 -38t96 -101.5 t53 -140t17.5 -154.5t-17.5 -155t-53 -140.5t-96 -101t-142.5 -37.5t-142.5 37.5t-96.5 101t-53 140.5t-17 155z" />
<glyph unicode="c" horiz-adv-x="909" d="M80 545q0 -104 30.5 -203.5t90 -179.5t148.5 -127t200 -47q119 0 200.5 34.5t81.5 98.5q0 25 -19 42t-42 17q-14 0 -49 -16q-41 -18 -78 -29.5t-94 -11.5q-70 0 -128.5 35t-98 95t-61 139t-21.5 165q0 68 19.5 139.5t58 133t98 99.5t133.5 38q57 0 93 -12.5t71 -30.5 q29 -18 43 -19q41 0 61.5 22.5t20.5 59.5q0 45 -83 80t-188 35q-113 0 -204 -47t-154.5 -127t-96 -179.5t-32.5 -203.5z" />
<glyph unicode="d" horiz-adv-x="1138" d="M80 545q0 -242 122 -399.5t347 -157.5q96 0 174 41t127 121h6v-68q0 -94 74 -94t74 94v1405q0 94 -74 94t-74 -94v-547h-6q-125 162 -305 162q-115 0 -203 -47t-146.5 -126t-87 -178.5t-28.5 -205.5zM240 545q0 78 17 154.5t55 140t97.5 101.5t139.5 38q82 0 141.5 -38 t96 -101.5t53 -139t16.5 -155.5t-16.5 -156t-53 -139.5t-96 -101t-141.5 -37.5t-142.5 37.5t-96.5 101t-53 140.5t-17 155z" />
<glyph unicode="e" horiz-adv-x="1062" d="M80 545q0 -106 28.5 -205.5t90 -179.5t156 -126t218.5 -46q90 0 168 23.5t135.5 59t89 73.5t31.5 63q0 41 -18 56.5t-51 15.5q-25 0 -78 -48q-61 -55 -124.5 -87.5t-162.5 -32.5q-70 0 -128 29.5t-101 81.5t-67.5 119t-26.5 138h673q59 0 80 25.5t21 64.5 q0 104 -30 200.5t-89 171.5t-147.5 118t-198.5 43q-111 0 -199 -47t-148.5 -127t-91 -179.5t-30.5 -203.5zM240 602q2 70 22.5 137.5t59.5 118.5q86 121 225 121t225 -121q39 -51 59.5 -118.5t22.5 -137.5h-614z" />
<glyph unicode="f" horiz-adv-x="493" d="M12 1028q0 -23 15.5 -42t48.5 -19h96v-885q0 -94 74 -94t73 94v885h132q33 0 48 19.5t15 41.5q0 23 -15.5 42.5t-47.5 19.5h-132v288q0 29 21.5 48.5t56.5 19.5h68q41 0 59.5 18.5t18.5 48.5q0 29 -25.5 48.5t-75.5 19.5h-75q-86 0 -140.5 -52t-54.5 -159v-280h-96 q-33 0 -48.5 -19.5t-15.5 -42.5z" />
<glyph unicode="g" horiz-adv-x="1138" d="M80 545q0 -242 122 -399.5t347 -157.5q209 0 303 166h4v-115q0 -88 -27.5 -154.5t-75.5 -108.5t-109.5 -62.5t-129.5 -20.5q-72 0 -128 25.5t-118 68.5q-61 43 -84 43q-37 0 -55 -20.5t-18 -55.5q0 -29 33.5 -62.5t95 -64t136.5 -50t152 -19.5q92 0 177.5 29.5t153 92 t106.5 155.5t39 216v957q0 94 -74 94t-74 -94v-66h-4q-49 70 -132 115t-175 45q-115 0 -203 -47t-146.5 -126t-87 -178.5t-28.5 -205.5zM240 545q0 78 17 154.5t53 140t96.5 101.5t142.5 38q72 0 130 -28.5t98 -77t60.5 -106.5t20.5 -118v-209q0 -57 -20.5 -115.5 t-60.5 -107.5t-98 -77.5t-130 -28.5q-82 0 -142.5 37.5t-96.5 101t-53 140.5t-17 155z" />
<glyph unicode="h" d="M135 82q0 -94 74 -94t74 94v600q0 133 77.5 209t188.5 76q123 0 194.5 -68t71.5 -182v-635q0 -94 74 -94t74 94v631q0 184 -123 293q-55 47 -125 71.5t-144 24.5q-96 0 -166.5 -40t-117.5 -108h-4v533q0 94 -74 94t-74 -94v-1405z" />
<glyph unicode="i" horiz-adv-x="417" d="M109 1370q0 -41 29.5 -70.5t70.5 -29.5t70.5 29.5t29.5 70.5t-29.5 70.5t-70.5 29.5t-70.5 -29.5t-29.5 -70.5zM135 82q0 -94 74 -94t74 94v926q0 94 -74 94t-74 -94v-926z" />
<glyph unicode="j" horiz-adv-x="417" d="M109 1370q0 -41 29.5 -70.5t70.5 -29.5t70.5 29.5t29.5 70.5t-29.5 70.5t-70.5 29.5t-70.5 -29.5t-29.5 -70.5zM135 -348q0 -94 74 -94t74 94v1354q0 96 -74 96t-74 -96v-1354z" />
<glyph unicode="k" horiz-adv-x="909" d="M135 82q0 -94 74 -94t74 94v438l446 -450q49 -47 73.5 -64.5t57.5 -17.5q25 0 42.5 18.5t17.5 42.5q0 25 -13.5 45.5t-42.5 48.5l-489 478l442 342q43 35 43 75q0 27 -18.5 45.5t-42.5 18.5q-14 0 -30.5 -9.5t-45.5 -31.5l-440 -356v782q0 94 -74 94t-74 -94v-1405z" />
<glyph unicode="l" horiz-adv-x="417" d="M135 82q0 -94 74 -94t74 94v1405q0 94 -74 94t-74 -94v-1405z" />
<glyph unicode="m" horiz-adv-x="1703" d="M135 82q0 -94 74 -94t74 94v600q0 131 75.5 208t173.5 77q49 0 91.5 -12.5t77 -42t56 -87t21.5 -143.5v-600q0 -94 74 -94t74 94v600q0 131 75.5 208t174.5 77q49 0 91 -12.5t76.5 -42t56 -87t21.5 -143.5v-600q0 -94 74 -94t74 94v631q0 184 -123 293q-55 47 -125 71.5 t-143 24.5q-90 0 -178.5 -50.5t-141.5 -140.5q-37 88 -113.5 139.5t-173.5 51.5q-96 0 -166.5 -40t-117.5 -108h-4v54q0 94 -74 94t-74 -94v-926z" />
<glyph unicode="n" d="M135 82q0 -94 74 -94t74 94v600q0 133 77.5 209t188.5 76q123 0 194.5 -68t71.5 -182v-635q0 -94 74 -94t74 94v631q0 184 -123 293q-55 47 -125 71.5t-144 24.5q-96 0 -166.5 -40t-117.5 -108h-4v54q0 94 -74 94t-74 -94v-926z" />
<glyph unicode="o" d="M80 545q0 -242 122 -399.5t347 -157.5t347 157.5t122 399.5q0 106 -28.5 205.5t-87 178.5t-147.5 126t-206 47q-115 0 -204 -47t-148.5 -126t-88 -178.5t-28.5 -205.5zM240 545q0 78 17 154.5t53 140t96.5 101.5t142.5 38t142.5 -38t96 -101.5t53 -140t17.5 -154.5 t-17.5 -155t-53 -140.5t-96 -101t-142.5 -37.5t-142.5 37.5t-96.5 101t-53 140.5t-17 155z" />
<glyph unicode="p" horiz-adv-x="1138" d="M135 -348q0 -94 74 -94t74 94v498h6q125 -162 305 -162q115 0 203 47t146 127t87 178t29 205q0 244 -122 400.5t-347 156.5q-96 0 -174 -41t-127 -121h-6v68q0 94 -74 94t-74 -94v-1356zM281 545q0 78 17 154.5t53 140t96.5 101.5t142.5 38t142.5 -38t96 -101.5t53 -140 t17.5 -154.5t-17.5 -155t-53 -140.5t-96 -101t-142.5 -37.5t-142.5 37.5t-96.5 101t-53 140.5t-17 155z" />
<glyph unicode="q" horiz-adv-x="1138" d="M80 545q0 -106 28.5 -205.5t87 -178.5t146.5 -126t203 -47q180 0 305 162h6v-498q0 -94 74 -94t74 94v1356q0 94 -74 94t-74 -94v-68h-6q-49 80 -127 121t-174 41q-225 0 -347 -156.5t-122 -400.5zM240 545q0 78 17 154.5t53 140t96.5 101.5t142.5 38t142.5 -38 t96 -101.5t53 -140t17.5 -154.5t-17.5 -155t-53 -140.5t-96 -101t-142.5 -37.5t-142.5 37.5t-96.5 101t-53 140.5t-17 155z" />
<glyph unicode="r" horiz-adv-x="645" d="M135 82q0 -94 74 -94t74 94v530q0 86 24.5 146.5t61.5 98.5t76.5 57.5t78.5 27.5q53 12 77 30.5t24 49.5q0 35 -25 57.5t-74 22.5q-70 0 -135 -53.5t-104 -143.5h-4v103q0 94 -74 94t-74 -94v-926z" />
<glyph unicode="s" horiz-adv-x="909" d="M51 195q0 -27 29 -63t82 -68.5t125.5 -54t156.5 -21.5q174 0 288 87t114 228q0 117 -70.5 183.5t-202.5 119.5l-223 90q-51 20 -75.5 54t-24.5 75q0 74 64.5 114t148.5 40q59 0 105 -20.5t98 -57.5q55 -39 77 -39q41 0 57.5 20.5t16.5 51.5t-30.5 60.5t-84 54t-124 39 t-146.5 14.5q-61 0 -122.5 -19.5t-112 -57.5t-79 -92t-28.5 -118q0 -94 49 -151.5t142 -94.5l254 -104q74 -31 112.5 -67t38.5 -101q0 -78 -65.5 -132t-169.5 -54q-80 0 -134.5 28.5t-111.5 77.5t-84 49t-48.5 -26.5t-21.5 -44.5z" />
<glyph unicode="t" horiz-adv-x="491" d="M12 1028q0 -23 15.5 -42t48.5 -19h96v-885q0 -94 74 -94t73 94v885h97q33 0 48 19.5t15 41.5q0 23 -15 42.5t-48 19.5h-97v239q0 96 -73 96q-74 0 -74 -96v-239h-96q-33 0 -48.5 -19.5t-15.5 -42.5z" />
<glyph unicode="u" d="M135 358q0 -172 117 -271t297 -99t297 99t117 271v650q0 94 -74 94t-74 -94v-613q0 -137 -69.5 -210.5t-196.5 -73.5q-125 0 -195.5 73.5t-70.5 210.5v613q0 94 -74 94t-74 -94v-650z" />
<glyph unicode="v" horiz-adv-x="872" d="M25 1034q0 -20 8 -43l327 -948q10 -31 32 -43t44 -12q25 0 45.5 12t30.5 43l328 948q8 23 8 43q0 27 -19.5 47.5t-48.5 20.5q-55 0 -78 -68l-264 -790h-4l-264 790q-23 68 -78 68q-29 0 -48 -20.5t-19 -47.5z" />
<glyph unicode="w" horiz-adv-x="1515" d="M12 1034q0 -14 13 -55l311 -926q10 -31 35.5 -48t46.5 -17q27 0 49 15t33 50l256 819h4l248 -792q16 -51 37.5 -71.5t52.5 -20.5q23 0 46 13t36 52l311 926q12 41 12 55q0 29 -19.5 48.5t-49.5 19.5q-59 0 -82 -68l-254 -809h-4l-252 809q-20 68 -84 68q-61 0 -84 -68 l-252 -809h-4l-254 809q-23 68 -82 68q-31 0 -50.5 -19.5t-19.5 -48.5z" />
<glyph unicode="x" horiz-adv-x="946" d="M20 55q0 -29 19.5 -48t46.5 -19q43 0 80 51l307 432l307 -432q37 -51 80 -51q27 0 46.5 19.5t19.5 47.5q0 14 -5.5 27.5t-21.5 34.5l-340 465l295 391q16 20 21.5 33.5t5.5 27.5q0 29 -19.5 48.5t-46.5 19.5q-43 0 -80 -51l-262 -359l-262 359q-37 51 -80 51 q-27 0 -46 -19.5t-19 -48.5q0 -14 5 -27.5t21 -33.5l295 -391l-340 -465q-16 -20 -21.5 -33.5t-5.5 -28.5z" />
<glyph unicode="y" horiz-adv-x="872" d="M25 1034q0 -20 8 -43l334 -962l-134 -351q-12 -31 -12 -59q0 -25 18.5 -43t49.5 -18q55 0 80 73l471 1360q8 23 8 43q0 27 -19.5 47.5t-48.5 20.5q-55 0 -78 -68l-264 -790h-4l-264 790q-23 68 -78 68q-29 0 -48 -20.5t-19 -47.5z" />
<glyph unicode="z" horiz-adv-x="909" d="M57 59q0 -23 18.5 -41t67.5 -18h633q35 0 56.5 19.5t21.5 48.5t-21.5 48t-56.5 19h-528l547 809q32 46 32 87q0 30 -19.5 44.5t-62.5 14.5h-587q-35 0 -56.5 -19.5t-21.5 -48.5t21.5 -48.5t56.5 -19.5h479l-547 -809q-18 -27 -25.5 -44t-7.5 -42z" />
<glyph unicode="{" horiz-adv-x="528" d="M8 676q0 -23 15.5 -39t35.5 -16q76 0 106 -66t30 -213v-240q0 -123 51 -172t149 -49h60q33 0 49 17.5t16 38.5q0 20 -16.5 37.5t-48.5 17.5h-43q-45 0 -63.5 45t-18.5 113v225q0 72 -18.5 127t-45 91t-53.5 55.5t-45 25.5v4q18 6 44 25.5t53.5 56.5t46 91t18.5 126v225 q0 68 18.5 113t63.5 45h43q33 0 49 17.5t16 37.5t-16.5 37.5t-48.5 17.5h-60q-98 0 -149 -49t-51 -172v-239q0 -147 -30 -213t-106 -66q-20 0 -35.5 -16.5t-15.5 -38.5z" />
<glyph unicode="|" horiz-adv-x="454" d="M160 -512q0 -35 19.5 -56.5t47.5 -21.5q29 0 48.5 21.5t19.5 56.5v2048q0 35 -19.5 56.5t-48.5 21.5t-48 -21.5t-19 -56.5v-2048z" />
<glyph unicode="}" horiz-adv-x="528" d="M8 -63q0 -20 16.5 -38t49.5 -18h59q98 0 149.5 49.5t51.5 171.5v240q0 147 29.5 213t105.5 66q20 0 35.5 16t15.5 39t-15.5 39t-35.5 16q-76 0 -105.5 65.5t-29.5 213.5v239q0 123 -51.5 172t-149.5 49h-59q-33 0 -49.5 -17t-16.5 -38q0 -20 16.5 -37.5t49.5 -17.5h43 q45 0 63.5 -45t18.5 -113v-225q0 -72 18.5 -127t45 -90t53 -55.5t44.5 -26.5v-4q-18 -6 -43.5 -25.5t-53 -56.5t-46 -91.5t-18.5 -125.5v-225q0 -68 -18.5 -113t-63.5 -45h-43q-33 0 -49.5 -17.5t-16.5 -37.5z" />
<glyph unicode="~" horiz-adv-x="1228" d="M141 442q0 -63 64 -63q29 2 45 18.5t39 51.5q27 41 51.5 62t69.5 21t85 -17t99 -54l8 -4q63 -39 109.5 -58.5t99.5 -19.5q55 0 106.5 20.5t89 53t59 73.5t21.5 78q0 63 -63 64q-29 -2 -45 -18.5t-39 -51.5q-27 -41 -51.5 -62.5t-69.5 -21.5q-41 0 -77.5 16.5t-92.5 47.5 q-6 6 -22 14l-4 2q-63 37 -108.5 55.5t-96.5 18.5q-55 0 -105.5 -20.5t-89.5 -53.5t-60.5 -73t-21.5 -79z" />
<glyph unicode="&#xa1;" horiz-adv-x="569" d="M190 1008q0 -37 29 -66t66 -29t65.5 29t28.5 66q0 39 -28.5 66.5t-65.5 27.5t-66 -27.5t-29 -66.5zM211 -287q0 -94 74 -94t73 94v869q0 94 -73 94q-74 0 -74 -94v-869z" />
<glyph unicode="&#xa2;" horiz-adv-x="909" d="M76 543q0 -96 26.5 -188.5t77.5 -170.5t128 -129t173 -65v-115q0 -41 37 -41t37 41v113q43 0 91 9t89 26.5t66.5 40t25.5 45.5q0 59 -55 59q-16 0 -55 -18t-75 -28.5t-87 -10.5v866q41 0 72.5 -10.5t68.5 -28.5q49 -25 72 -25q66 0 66 64q0 53 -76 88t-203 37v112 q0 41 -37 41t-37 -41v-112q-96 -12 -173 -64.5t-128 -131.5t-77.5 -173t-26.5 -190zM236 547q0 70 13 139.5t43 130t77 104.5t112 58v-862q-66 14 -112.5 57t-76.5 103.5t-43 129t-13 140.5z" />
<glyph unicode="&#xa3;" horiz-adv-x="1214" d="M74 741q0 -29 21.5 -48t56.5 -19h223q23 -80 22 -154q0 -113 -54 -200t-148 -179q-27 -25 -35 -41t-8 -34q0 -29 19 -47.5t58 -18.5h834q35 0 56.5 19.5t21.5 48.5t-21.5 48t-56.5 19h-713q104 106 149.5 194.5t45.5 182.5q0 88 -23 162h209q35 0 56.5 19.5t21.5 47.5 q0 29 -21.5 48.5t-56.5 19.5h-250q-59 111 -80.5 169t-21.5 112q0 123 74.5 184t189.5 61q131 0 211 -65.5t123 -192.5q16 -51 65 -51q66 0 66 72q0 53 -32 118.5t-92 123t-147 94t-192 36.5q-188 0 -307 -100t-119 -262q0 -66 23.5 -124t89.5 -175h-180q-35 0 -56.5 -19.5 t-21.5 -48.5z" />
<glyph unicode="&#xa4;" d="M41 729q0 -90 26.5 -171t77.5 -140l-65 -66q-18 -18 -25.5 -31.5t-7.5 -29.5q0 -25 17.5 -45.5t44.5 -20.5q16 0 33.5 10.5t33.5 26.5l66 66q61 -51 140 -79t167 -28t167 27.5t140 79.5l66 -66q16 -16 33.5 -26.5t33.5 -10.5q27 0 44.5 20.5t17.5 45.5q0 16 -7.5 29.5 t-25.5 31.5l-66 66q51 59 78 140t27 171t-26.5 171t-78.5 140l66 66q18 18 25.5 31.5t7.5 29.5q0 25 -17.5 45.5t-44.5 20.5q-16 0 -33.5 -10.5t-33.5 -26.5l-66 -66q-61 51 -140 79t-167 28t-167 -27.5t-140 -79.5l-66 66q-16 16 -33.5 26.5t-33.5 10.5q-27 0 -44.5 -20.5 t-17.5 -45.5q0 -16 7 -29.5t26 -31.5l65 -66q-51 -59 -77.5 -140t-26.5 -171zM176 729q0 78 27.5 148.5t79 124t120 83t146.5 29.5t146.5 -29.5t119.5 -83t79 -124t28 -148.5t-28 -148.5t-79 -124t-119.5 -83t-146.5 -29.5t-146.5 29.5t-120 83t-79 124t-27.5 148.5z" />
<glyph unicode="&#xa5;" d="M63 1413q0 -14 9.5 -35.5t36.5 -66.5l311 -520h-227q-33 0 -48.5 -19.5t-15.5 -42.5t15.5 -42t48.5 -19h288v-156h-288q-33 0 -48.5 -19.5t-15.5 -41.5q0 -23 15.5 -42.5t48.5 -19.5h288v-328q0 -31 20.5 -52t47.5 -21t47 21.5t20 51.5v328h289q33 0 48.5 19.5t15.5 42.5 t-15.5 42t-48.5 19h-289v156h289q33 0 48.5 19.5t15.5 41.5q0 23 -15.5 42.5t-48.5 19.5h-225l309 520q27 45 36 66.5t9 35.5q0 57 -61 57q-43 0 -68 -43l-356 -598l-356 598q-25 43 -68 43q-61 0 -62 -57z" />
<glyph unicode="&#xa6;" horiz-adv-x="454" d="M160 -281q0 -35 19.5 -56t47.5 -21q29 0 48.5 21.5t19.5 55.5v562q0 35 -19.5 56t-48.5 21t-48 -21.5t-19 -55.5v-562zM160 743q0 -35 19.5 -56t47.5 -21q29 0 48.5 21.5t19.5 55.5v562q0 35 -19.5 56t-48.5 21t-48 -21.5t-19 -55.5v-562z" />
<glyph unicode="&#xa7;" horiz-adv-x="1138" d="M72 565q0 -117 69.5 -201.5t202.5 -152.5l305 -156q100 -51 132 -88t32 -100q0 -47 -23.5 -81t-62.5 -54.5t-85 -29.5t-93 -9q-125 0 -194.5 49t-75.5 113q-4 41 -23.5 66.5t-54.5 25.5q-31 0 -56.5 -20.5t-25.5 -47.5q0 -43 19.5 -96t66.5 -104.5t133 -86t213 -34.5 q84 0 159.5 20.5t135 59t93.5 96t34 129.5q0 168 -137 260q129 82 179 169t52 171q0 76 -22.5 134t-61.5 101t-88 75t-115 65l-334 166q-61 31 -91.5 73.5t-30.5 77.5q0 84 74.5 132t183.5 48q115 0 187.5 -49t78.5 -119q4 -49 26.5 -72.5t53.5 -23.5q29 0 48 27.5t19 75.5 q0 74 -34.5 130t-94 93t-130 55t-146.5 18q-70 0 -142.5 -18t-135 -57t-99.5 -102.5t-37 -147.5q0 -74 40 -131.5t120 -108.5q-63 -31 -108.5 -58.5t-81 -65.5t-55 -91t-19.5 -125zM219 590q0 94 75 156.5t171 93.5l311 -160q74 -39 109 -90t35 -129q0 -86 -61.5 -166 t-135.5 -115l-350 180q-86 45 -120 95.5t-34 134.5z" />
<glyph unicode="&#xa8;" horiz-adv-x="417" d="M-74 1311q0 -41 30 -71t71 -30t70.5 30t29.5 71t-29.5 70.5t-70.5 29.5t-71 -29.5t-30 -70.5zM291 1311q0 -41 29.5 -71t70.5 -30t71 30t30 71t-30 70.5t-71 29.5t-70.5 -29.5t-29.5 -70.5z" />
<glyph unicode="&#xa9;" horiz-adv-x="1638" d="M78 729q0 -152 57.5 -287t159.5 -237.5t237.5 -159.5t286.5 -57q152 0 287 57t237.5 159.5t160 238t57.5 286.5q0 152 -57.5 287t-160 237.5t-237.5 159.5t-287 57t-287 -57t-237 -159.5t-159.5 -237.5t-57.5 -287zM213 729q0 127 48 239.5t132 197.5t194.5 133.5 t231.5 48.5q123 0 232.5 -48.5t194.5 -133.5t132 -197.5t47 -239.5t-47 -239.5t-132 -197.5t-194.5 -133t-232.5 -48q-121 0 -231.5 48t-195.5 133t-132 197.5t-47 239.5zM391 719q0 -96 31 -180t89 -146.5t140 -97.5t180 -35q84 0 151 29.5t112 76t67.5 92.5t22.5 79 q0 25 -12.5 40t-38.5 15q-27 0 -44.5 -17.5t-41.5 -56.5q-41 -63 -86.5 -99t-129.5 -36q-139 0 -222 95t-83 245q0 145 78 238.5t211 93.5q98 0 144.5 -34t84.5 -95q23 -37 41.5 -54.5t49.5 -17.5q61 0 61 64q0 29 -25.5 73.5t-72.5 86.5t-119 71t-160 29 q-195 0 -311.5 -129t-116.5 -330z" />
<glyph unicode="&#xaa;" horiz-adv-x="739" d="M45 1135q0 -63 20.5 -123t59.5 -108t95 -75.5t122 -27.5q59 0 111.5 27.5t78.5 76.5h5v-47q0 -57 61 -57q29 0 45 16.5t16 40.5v555q0 25 -16 41t-45 16q-61 0 -61 -57v-31h-5q-68 88 -190 88q-133 0 -217 -104q-39 -47 -59.5 -107.5t-20.5 -123.5zM180 1137 q0 94 43 164.5t129 70.5q96 0 140.5 -61t44.5 -174t-44 -175.5t-141 -62.5q-84 0 -128 72.5t-44 165.5z" />
<glyph unicode="&#xab;" horiz-adv-x="796" d="M84 545q0 -16 22 -60l166 -292q16 -29 33 -43.5t41 -14.5q27 0 44.5 16.5t17.5 36.5q0 14 -4.5 26.5t-16.5 33.5l-172 297l172 297q12 23 16.5 34t4.5 25q0 20 -17.5 36.5t-44.5 16.5q-25 0 -41 -14t-33 -43l-166 -293q-23 -43 -22 -59zM389 545q0 -16 23 -60l166 -292 q16 -29 32.5 -43.5t40.5 -14.5q27 0 44.5 16.5t17.5 36.5q0 14 -4 26.5t-17 33.5l-172 297l172 297q12 23 16.5 34t4.5 25q0 20 -17.5 36.5t-44.5 16.5q-25 0 -41 -14t-32 -43l-166 -293q-23 -43 -23 -59z" />
<glyph unicode="&#xac;" horiz-adv-x="1228" d="M96 723q0 -29 21.5 -48.5t56.5 -19.5h823v-358q0 -35 19.5 -56.5t48.5 -21.5t48.5 21.5t19.5 56.5v397q0 49 -23 73t-80 24h-856q-35 0 -56.5 -19.5t-21.5 -48.5z" />
<glyph unicode="&#xad;" horiz-adv-x="720" d="M84 545q0 -29 21.5 -48.5t56.5 -19.5h397q35 0 56.5 19.5t21.5 48.5t-21.5 48t-56.5 19h-397q-35 0 -56.5 -19.5t-21.5 -47.5z" />
<glyph unicode="&#xae;" horiz-adv-x="1638" d="M78 729q0 -152 57.5 -287t159.5 -237.5t237.5 -159.5t286.5 -57q152 0 287 57t237.5 159.5t160 238t57.5 286.5q0 152 -57.5 287t-160 237.5t-237.5 159.5t-287 57t-287 -57t-237 -159.5t-159.5 -237.5t-57.5 -287zM213 729q0 127 48 239.5t132 197.5t194.5 133.5 t231.5 48.5q123 0 232.5 -48.5t194.5 -133.5t132 -197.5t47 -239.5t-47 -239.5t-132 -197.5t-194.5 -133t-232.5 -48q-121 0 -231.5 48t-195.5 133t-132 197.5t-47 239.5zM541 358q0 -37 16 -60.5t45 -23.5t45.5 24t16.5 60v308h159l209 -342q31 -49 72 -50q29 0 45 15.5 t16 36.5q0 23 -24 61l-2 2l-181 281q90 12 148.5 69.5t58.5 165.5q0 242 -297 242h-288q-39 0 -39 -35v-754zM664 764v285h184q86 0 140 -30t54 -108q0 -49 -18 -79.5t-49 -45t-69 -18.5t-91 -4h-151z" />
<glyph unicode="&#xaf;" horiz-adv-x="417" d="M-78 1296q0 -74 94 -73h385q94 0 95 73q0 74 -95 74h-385q-94 0 -94 -74z" />
<glyph unicode="&#xb0;" horiz-adv-x="819" d="M117 1178q0 -123 85 -208t208 -85t207.5 85t84.5 208t-85 207.5t-207 84.5q-123 0 -208 -84.5t-85 -207.5zM215 1178q0 80 57.5 137t137.5 57t137 -57.5t57 -136.5q0 -80 -57.5 -137.5t-136.5 -57.5q-80 0 -137.5 57.5t-57.5 137.5z" />
<glyph unicode="&#xb1;" horiz-adv-x="1228" d="M96 68q0 -29 21.5 -48.5t56.5 -19.5h881q35 0 56.5 19.5t21.5 48.5t-21.5 48t-56.5 19h-881q-35 0 -56.5 -19.5t-21.5 -47.5zM96 625q0 -29 21.5 -48.5t56.5 -19.5h373v-266q0 -35 19.5 -56.5t47.5 -21.5q29 0 48.5 21.5t19.5 56.5v266h373q35 0 56.5 19.5t21.5 48.5 t-21.5 48t-56.5 19h-373v266q0 35 -19.5 56.5t-48.5 21.5t-48 -21.5t-19 -56.5v-266h-373q-35 0 -56.5 -19.5t-21.5 -47.5z" />
<glyph unicode="&#xb2;" horiz-adv-x="712" d="M70 1200q0 -53 57 -53t66 53q12 74 51 117t108 43q57 0 96 -28.5t39 -76.5q0 -63 -81 -172l-283 -385q-25 -33 -25 -59q0 -43 58 -43h436q23 0 37 16.5t14 38.5q0 23 -14.5 39.5t-36.5 16.5h-332l272 354q47 61 69 108.5t22 98.5q0 86 -69 144t-202 58t-207.5 -74.5 t-74.5 -195.5z" />
<glyph unicode="&#xb3;" horiz-adv-x="712" d="M72 770q0 -27 16 -58.5t50 -61t87.5 -48t120.5 -18.5q141 0 218 73.5t77 194.5q0 78 -43 131t-117 80q51 27 80 77t29 111q0 94 -59.5 156.5t-186.5 62.5q-115 0 -176.5 -63.5t-61.5 -142.5q0 -27 17.5 -42.5t40.5 -15.5q63 0 65 58q4 43 34 69.5t75 26.5q59 0 88 -34 t29 -95q0 -51 -17.5 -88t-62.5 -49q-39 -10 -55.5 -21.5t-16.5 -38.5q0 -18 13.5 -30.5t48.5 -14.5q66 -4 103.5 -36.5t37.5 -94.5q0 -76 -46 -120t-112 -44q-70 0 -101.5 21.5t-45.5 54.5q-14 35 -31.5 45t-40.5 10t-40 -14t-17 -41z" />
<glyph unicode="&#xb4;" horiz-adv-x="417" d="M-16 1303q0 -25 16 -47.5t41 -22.5t53 12l283 109q37 14 47 29.5t10 37.5q0 25 -16.5 47.5t-40.5 22.5q-25 0 -53 -12l-283 -109q-37 -14 -47 -29.5t-10 -37.5z" />
<glyph unicode="&#xb5;" d="M135 -348q0 -94 74 -94t74 94v450h4q106 -115 262 -114q160 0 266 73q0 -31 21.5 -52t52.5 -21t52.5 21.5t21.5 51.5v947q0 94 -74 94t-74 -94v-613q0 -137 -69.5 -210.5t-196.5 -73.5q-125 0 -195.5 73.5t-70.5 210.5v613q0 94 -74 94t-74 -94v-1356z" />
<glyph unicode="&#xb6;" horiz-adv-x="1228" d="M98 1065q0 -80 32 -149.5t90.5 -122t137 -81t170.5 -28.5v-1049q0 -35 19.5 -56t48.5 -21t48.5 21.5t19.5 55.5v1700h254v-1700q0 -35 19 -56t48 -21t48.5 21.5t19.5 55.5v1717q0 66 -22.5 86t-90.5 20h-375q-221 0 -344 -99t-123 -294z" />
<glyph unicode="&#xb7;" horiz-adv-x="491" d="M152 653q0 -37 28.5 -65.5t65.5 -28.5t65.5 28.5t28.5 65.5t-28.5 66t-65.5 29t-65.5 -29t-28.5 -66z" />
<glyph unicode="&#xb8;" horiz-adv-x="417" d="M23 -289q0 -74 153 -73q90 0 148.5 47t58.5 122q0 47 -36 81t-91 34q-27 0 -49 -6l-4 4l53 80h-92l-41 -63q-31 -51 -31 -72q0 -16 16.5 -20.5t61.5 -4.5q43 0 66.5 -10t23.5 -43q0 -51 -55 -51q-31 0 -48.5 4t-37.5 10q-25 10 -43 10q-29 0 -41 -14t-12 -35z" />
<glyph unicode="&#xb9;" horiz-adv-x="468" d="M35 1403q0 -55 55 -55h115v-703q0 -61 61 -61t62 61v764q0 20 -15.5 34.5t-40.5 14.5h-182q-55 0 -55 -55z" />
<glyph unicode="&#xba;" horiz-adv-x="712" d="M45 1137q0 -135 83 -235.5t228 -100.5t228.5 99t83.5 233q0 137 -82 237t-230 100q-145 0 -228 -99t-83 -234zM180 1137q0 92 45 163.5t131 71.5t131 -71.5t45 -167.5q0 -90 -45 -162t-131 -72t-131 73t-45 165z" />
<glyph unicode="&#xbb;" horiz-adv-x="796" d="M84 188q0 -20 17.5 -36.5t43.5 -16.5q25 0 41.5 14.5t32.5 43.5l166 292q23 43 23 60q0 16 -23 59l-166 293q-16 29 -32.5 43t-41.5 14q-27 0 -44 -16t-17 -37q0 -14 4 -25.5t16 -33.5l172 -297l-172 -297q-12 -20 -16 -32.5t-4 -27.5zM389 188q0 -20 17.5 -36.5 t44.5 -16.5q25 0 41 14.5t32 43.5l166 292q23 43 23 60q0 16 -23 59l-166 293q-16 29 -32.5 43t-40.5 14q-27 0 -44.5 -16t-17.5 -37q0 -14 4 -25.5t17 -33.5l172 -297l-172 -297q-12 -20 -16.5 -32.5t-4.5 -27.5z" />
<glyph unicode="&#xbc;" horiz-adv-x="1648" d="M88 1403q0 -55 55 -55h115v-703q0 -61 61 -61t62 61v764q0 20 -15.5 34.5t-39.5 14.5h-183q-55 0 -55 -55zM375 14q0 -47 57 -47q43 0 64 51l532 1362q18 47 19 64q0 47 -58 47q-43 0 -63 -51l-533 -1362q-18 -45 -18 -64zM893 258q0 -23 13.5 -37t45.5 -14h361v-162 q0 -23 17.5 -40t43.5 -17q29 0 45.5 17.5t16.5 39.5v162h45q51 0 51 55t-51 55h-45v465q0 47 -25 69.5t-65 22.5q-33 0 -65 -15t-52 -48l-307 -483q-29 -45 -29 -70zM1022 317l287 459h4v-459h-291z" />
<glyph unicode="&#xbd;" horiz-adv-x="1648" d="M88 1403q0 -55 55 -55h115v-703q0 -61 61 -61t62 61v764q0 20 -15.5 34.5t-39.5 14.5h-183q-55 0 -55 -55zM375 14q0 -47 57 -47q43 0 64 51l532 1362q18 47 19 64q0 47 -58 47q-43 0 -63 -51l-533 -1362q-18 -45 -18 -64zM911 604q0 -53 58 -53q57 0 65 53q12 74 51 117 t109 43q57 0 96 -28.5t39 -76.5q0 -63 -82 -172l-282 -385q-25 -33 -25 -59q0 -43 57 -43h437q23 0 37 16.5t14 38.5q0 23 -14.5 39.5t-36.5 16.5h-332l272 354q47 61 68.5 108.5t21.5 98.5q0 86 -68.5 144t-201.5 58t-208 -74.5t-75 -195.5z" />
<glyph unicode="&#xbe;" horiz-adv-x="1648" d="M33 770q0 -27 16.5 -58.5t50 -61t87 -48t120.5 -18.5q141 0 218 73.5t77 194.5q0 78 -43 131t-117 80q51 27 80 77t29 111q0 94 -59.5 156.5t-186.5 62.5q-115 0 -176 -63.5t-61 -142.5q0 -27 17 -42.5t40 -15.5q63 0 65 58q4 43 34 69.5t75 26.5q59 0 88 -34t29 -95 q0 -51 -17.5 -88t-62.5 -49q-39 -10 -55.5 -21.5t-16.5 -38.5q0 -18 13.5 -30.5t48.5 -14.5q66 -4 103.5 -36.5t37.5 -94.5q0 -76 -46 -120t-112 -44q-70 0 -101.5 21.5t-45.5 54.5q-14 35 -31.5 45t-40.5 10t-40 -14t-17 -41zM477 14q0 -47 58 -47q43 0 63 51l532 1362 q18 47 19 64q0 47 -57 47q-43 0 -64 -51l-532 -1362q-18 -45 -19 -64zM893 258q0 -23 13.5 -37t45.5 -14h361v-162q0 -23 17.5 -40t43.5 -17q29 0 45.5 17.5t16.5 39.5v162h45q51 0 51 55t-51 55h-45v465q0 47 -25 69.5t-65 22.5q-33 0 -65 -15t-52 -48l-307 -483 q-29 -45 -29 -70zM1022 317l287 459h4v-459h-291z" />
<glyph unicode="&#xbf;" horiz-adv-x="909" d="M55 -20q0 -160 114 -260.5t294 -100.5q78 0 148.5 21.5t126 62.5t86 97.5t30.5 121.5q0 33 -17.5 55.5t-50.5 22.5q-35 0 -52 -17.5t-27 -66.5q-16 -76 -87 -119t-157 -43q-96 0 -172 60.5t-76 169.5q0 98 64.5 164.5t191.5 91.5q51 10 65.5 27.5t14.5 58.5v260 q0 94 -74 94t-74 -94v-217q-76 -18 -136 -47t-108 -74t-76 -111.5t-28 -156.5zM383 1008q0 -39 27.5 -67t66.5 -28t66.5 28t27.5 67t-27.5 66.5t-66.5 27.5t-66.5 -27.5t-27.5 -66.5z" />
<glyph unicode="&#xc0;" horiz-adv-x="1253" d="M29 45q0 -57 65 -57q33 0 48.5 14t31.5 47l2 6l96 262h709l96 -262q12 -33 29.5 -50t52.5 -17q66 0 66 57q0 27 -15 61l-469 1258v2q-20 49 -42.5 76.5t-71.5 27.5t-72 -27.5t-43 -76.5v-2l-469 -1258q-14 -35 -14 -61zM322 453l303 825h4l303 -825h-610zM401 1749 q0 -23 10.5 -38t47.5 -30l282 -108q29 -12 54 -12t41 22.5t16 46.5q0 23 -10.5 38t-46.5 30l-283 108q-29 12 -53 13q-25 0 -41.5 -22.5t-16.5 -47.5z" />
<glyph unicode="&#xc1;" horiz-adv-x="1253" d="M29 45q0 -57 65 -57q33 0 48.5 14t31.5 47l2 6l96 262h709l96 -262q12 -33 29.5 -50t52.5 -17q66 0 66 57q0 27 -15 61l-469 1258v2q-20 49 -42.5 76.5t-71.5 27.5t-72 -27.5t-43 -76.5v-2l-469 -1258q-14 -35 -14 -61zM322 453l303 825h4l303 -825h-610zM401 1630 q0 -25 16.5 -47t41.5 -22t53 12l283 108q37 14 47 29.5t10 38.5q0 25 -16.5 47.5t-40.5 22.5q-25 0 -54 -13l-282 -108q-37 -14 -47.5 -29.5t-10.5 -38.5z" />
<glyph unicode="&#xc2;" horiz-adv-x="1253" d="M29 45q0 -57 65 -57q33 0 48.5 14t31.5 47l2 6l96 262h709l96 -262q12 -33 29.5 -50t52.5 -17q66 0 66 57q0 27 -15 61l-469 1258v2q-20 49 -42.5 76.5t-71.5 27.5t-72 -27.5t-43 -76.5v-2l-469 -1258q-14 -35 -14 -61zM307 1614q0 -23 17.5 -42.5t44.5 -19.5q23 0 53 11 l205 92l204 -92q31 -10 54 -11q27 0 44 19.5t17 42.5q0 25 -11 43t-48 33l-260 100l-260 -100q-37 -14 -48.5 -33t-11.5 -43zM322 453l303 825h4l303 -825h-610z" />
<glyph unicode="&#xc3;" horiz-adv-x="1253" d="M29 45q0 -57 65 -57q33 0 48.5 14t31.5 47l2 6l96 262h709l96 -262q12 -33 29.5 -50t52.5 -17q66 0 66 57q0 27 -15 61l-469 1258v2q-20 49 -42.5 76.5t-71.5 27.5t-72 -27.5t-43 -76.5v-2l-469 -1258q-14 -35 -14 -61zM322 453l303 825h4l303 -825h-610zM332 1645 q0 -55 59 -56q25 0 53 25q31 24 60 24q41 0 125 -26q84 -27 129 -27q63 0 113.5 38t50.5 79q0 68 -60 67q-25 0 -53 -24q-14 -12 -27.5 -19.5t-31.5 -7.5q-41 0 -123 27q-86 29 -131 29q-63 0 -113.5 -40t-50.5 -89z" />
<glyph unicode="&#xc4;" horiz-adv-x="1253" d="M29 45q0 -57 65 -57q33 0 48.5 14t31.5 47l2 6l96 262h709l96 -262q12 -33 29.5 -50t52.5 -17q66 0 66 57q0 27 -15 61l-469 1258v2q-20 49 -42.5 76.5t-71.5 27.5t-72 -27.5t-43 -76.5v-2l-469 -1258q-14 -35 -14 -61zM322 453l303 825h4l303 -825h-610zM344 1638 q0 -41 29.5 -70.5t70.5 -29.5t71 29.5t30 70.5t-30 71t-71 30t-70.5 -30t-29.5 -71zM709 1638q0 -41 29.5 -70.5t70.5 -29.5t70.5 29.5t29.5 70.5t-29.5 71t-70.5 30t-70.5 -30t-29.5 -71z" />
<glyph unicode="&#xc5;" horiz-adv-x="1253" d="M29 45q0 -57 65 -57q33 0 48.5 14t31.5 47l2 6l96 262h709l96 -262q12 -33 29.5 -50t52.5 -17q66 0 66 57q0 27 -15 61l-469 1258v2q-20 49 -42.5 76.5t-71.5 27.5t-72 -27.5t-43 -76.5v-2l-469 -1258q-14 -35 -14 -61zM322 453l303 825h4l303 -825h-610zM436 1698 q0 -78 56.5 -134.5t134.5 -56.5t134 56.5t56 134.5t-56 134t-134 56t-134.5 -56t-56.5 -134zM522 1698q0 43 31 73.5t74 30.5t73.5 -30.5t30.5 -73.5t-30.5 -74t-73.5 -31t-74 31t-31 74z" />
<glyph unicode="&#xc6;" horiz-adv-x="1517" d="M23 43q0 -23 17 -39t40 -16q31 0 54.5 24.5t45.5 65.5l123 250h477v-244q0 -37 21.5 -60.5t52.5 -23.5h520q35 0 56.5 19.5t21.5 48.5t-21.5 48t-56.5 19h-446v524h407q35 0 56.5 19.5t21.5 48.5t-21.5 48.5t-56.5 19.5h-405v528h424q35 0 56.5 19.5t21.5 48.5t-21.5 48 t-56.5 19h-606q-35 0 -54 -37l-635 -1276q-23 -45 -29.5 -63.5t-6.5 -38.5zM362 451l414 835h4v-835h-418z" />
<glyph unicode="&#xc7;" horiz-adv-x="1214" d="M82 709q0 -139 35 -263t107.5 -222.5t182 -159t252.5 -72.5l-34 -55q-31 -51 -31 -72q0 -16 16.5 -20.5t61.5 -4.5q43 0 66.5 -10t23.5 -43q0 -51 -55 -51q-31 0 -48.5 4t-37.5 10q-25 10 -43 10q-29 0 -41.5 -14t-12.5 -35q0 -74 154 -73q90 0 148.5 47t58.5 122 q0 47 -36 81t-91 34q-27 0 -49 -6l-4 4l45 70q92 2 173 23.5t141 54t93 66.5t33 59q0 74 -62 73q-16 0 -61 -33q-68 -49 -139.5 -79.5t-186.5 -30.5q-127 0 -222 47t-156.5 130t-91 187.5t-29.5 221.5q0 113 30.5 224t92 202.5t150.5 145.5t200 54q104 0 172.5 -32.5 t134.5 -85.5q51 -43 72 -43q25 0 45 21.5t20 55.5q0 27 -34.5 65t-97 73.5t-142.5 58t-168 22.5q-156 0 -277 -62t-199.5 -171t-118.5 -245t-40 -283z" />
<glyph unicode="&#xc8;" horiz-adv-x="909" d="M135 78q0 -78 90 -78h504q35 0 56.5 19.5t21.5 48.5t-21.5 48t-56.5 19h-446v524h407q35 0 56.5 19.5t21.5 48.5t-21.5 48.5t-56.5 19.5h-405v528h424q35 0 56 19.5t21 48.5t-21.5 48t-55.5 19h-484q-90 0 -90 -78v-1302zM229 1749q0 -23 10.5 -38t47.5 -30l282 -108 q29 -12 54 -12t41 22.5t16 46.5q0 23 -10.5 38t-46.5 30l-283 108q-29 12 -53 13q-25 0 -41.5 -22.5t-16.5 -47.5z" />
<glyph unicode="&#xc9;" horiz-adv-x="909" d="M135 78q0 -78 90 -78h504q35 0 56.5 19.5t21.5 48.5t-21.5 48t-56.5 19h-446v524h407q35 0 56.5 19.5t21.5 48.5t-21.5 48.5t-56.5 19.5h-405v528h424q35 0 56 19.5t21 48.5t-21.5 48t-55.5 19h-484q-90 0 -90 -78v-1302zM229 1630q0 -25 16.5 -47t41.5 -22t53 12 l283 108q37 14 47 29.5t10 38.5q0 25 -16.5 47.5t-40.5 22.5q-25 0 -54 -13l-282 -108q-37 -14 -47.5 -29.5t-10.5 -38.5z" />
<glyph unicode="&#xca;" horiz-adv-x="909" d="M135 78q0 -78 90 -78h504q35 0 56.5 19.5t21.5 48.5t-21.5 48t-56.5 19h-446v524h407q35 0 56.5 19.5t21.5 48.5t-21.5 48.5t-56.5 19.5h-405v528h424q35 0 56 19.5t21 48.5t-21.5 48t-55.5 19h-484q-90 0 -90 -78v-1302zM135 1614q0 -23 17.5 -42.5t44.5 -19.5 q23 0 53 11l205 92l204 -92q31 -10 54 -11q27 0 44 19.5t17 42.5q0 25 -11 43t-48 33l-260 100l-260 -100q-37 -14 -48.5 -33t-11.5 -43z" />
<glyph unicode="&#xcb;" horiz-adv-x="909" d="M135 78q0 -78 90 -78h504q35 0 56.5 19.5t21.5 48.5t-21.5 48t-56.5 19h-446v524h407q35 0 56.5 19.5t21.5 48.5t-21.5 48.5t-56.5 19.5h-405v528h424q35 0 56 19.5t21 48.5t-21.5 48t-55.5 19h-484q-90 0 -90 -78v-1302zM172 1638q0 -41 29.5 -70.5t70.5 -29.5t71 29.5 t30 70.5t-30 71t-71 30t-70.5 -30t-29.5 -71zM537 1638q0 -41 29.5 -70.5t70.5 -29.5t70.5 29.5t29.5 70.5t-29.5 71t-70.5 30t-70.5 -30t-29.5 -71z" />
<glyph unicode="&#xcc;" horiz-adv-x="417" d="M-16 1749q0 -23 10 -38t47 -30l283 -108q29 -12 53 -12q25 0 41 22.5t16 46.5q0 23 -10 38t-47 30l-283 108q-29 12 -53 13q-25 0 -41 -22.5t-16 -47.5zM135 82q0 -94 74 -94t74 94v1294q0 94 -74 94t-74 -94v-1294z" />
<glyph unicode="&#xcd;" horiz-adv-x="417" d="M-16 1630q0 -25 16 -47t41 -22t53 12l283 108q37 14 47 29.5t10 38.5q0 25 -16.5 47.5t-40.5 22.5q-25 0 -53 -13l-283 -108q-37 -14 -47 -29.5t-10 -38.5zM135 82q0 -94 74 -94t74 94v1294q0 94 -74 94t-74 -94v-1294z" />
<glyph unicode="&#xce;" horiz-adv-x="417" d="M-111 1614q0 -23 17.5 -42.5t44.5 -19.5q23 0 53 11l205 92l205 -92q31 -10 53 -11q27 0 44 19.5t17 42.5q0 25 -11 43t-48 33l-260 100l-260 -100q-37 -14 -48.5 -33t-11.5 -43zM135 82q0 -94 74 -94t74 94v1294q0 94 -74 94t-74 -94v-1294z" />
<glyph unicode="&#xcf;" horiz-adv-x="417" d="M-74 1638q0 -41 30 -70.5t71 -29.5t70.5 29.5t29.5 70.5t-29.5 71t-70.5 30t-71 -30t-30 -71zM135 82q0 -94 74 -94t74 94v1294q0 94 -74 94t-74 -94v-1294zM291 1638q0 -41 29.5 -70.5t70.5 -29.5t71 29.5t30 70.5t-30 71t-71 30t-70.5 -30t-29.5 -71z" />
<glyph unicode="&#xd0;" horiz-adv-x="1290" d="M-2 735q0 -29 22.5 -48t57.5 -19h57v-594q0 -31 21.5 -52.5t52.5 -21.5h369q133 0 247.5 49t200.5 143.5t134 228.5t48 298q0 133 -35.5 264t-110.5 238.5t-193.5 172t-278.5 64.5h-381q-31 0 -52.5 -21.5t-21.5 -52.5v-581h-57q-35 0 -57.5 -19.5t-22.5 -48.5zM283 135 v533h288q35 0 57.5 19.5t22.5 47.5q0 29 -22.5 48.5t-57.5 19.5h-288v520h295q125 0 216 -49t147 -131t82 -184.5t26 -213.5q0 -133 -26 -243.5t-83 -192.5t-149.5 -128t-221.5 -46h-286z" />
<glyph unicode="&#xd1;" horiz-adv-x="1363" d="M135 82q0 -94 74 -94t74 94v1118h4l792 -1159q20 -29 37 -41t43 -12q33 0 51.5 20.5t18.5 69.5v1298q0 94 -74 94t-74 -94v-1104h-4l-782 1145q-18 25 -37.5 39t-48.5 14q-74 0 -74 -86v-1302zM387 1645q0 -55 59 -56q25 0 54 25q30 24 59 24q41 0 125 -26 q84 -27 129 -27q63 0 113.5 38t50.5 79q0 68 -59 67q-25 0 -54 -24q-14 -12 -27.5 -19.5t-31.5 -7.5q-41 0 -123 27q-86 29 -131 29q-63 0 -113.5 -40t-50.5 -89z" />
<glyph unicode="&#xd2;" horiz-adv-x="1400" d="M82 729q0 -141 40 -274t117.5 -238.5t194.5 -167t266 -61.5q150 0 266.5 61.5t194.5 167t118 238.5t40 274t-39 274.5t-118 239t-195.5 166.5t-266.5 61t-266.5 -61t-194 -166.5t-117.5 -239t-40 -274.5zM242 729q0 111 24.5 217.5t78.5 194.5t143.5 141t211.5 53 q123 0 212 -53t143.5 -142t79 -194.5t24.5 -216.5t-24.5 -216t-79 -194.5t-143.5 -142.5t-212 -53t-211 53t-143 142.5t-79.5 194.5t-24.5 216zM475 1749q0 -23 10.5 -38t46.5 -30l283 -108q29 -12 53 -12q25 0 41.5 22.5t16.5 46.5q0 23 -10.5 38t-47.5 30l-282 108 q-29 12 -54 13q-25 0 -41 -22.5t-16 -47.5z" />
<glyph unicode="&#xd3;" horiz-adv-x="1400" d="M82 729q0 -141 40 -274t117.5 -238.5t194.5 -167t266 -61.5q150 0 266.5 61.5t194.5 167t118 238.5t40 274t-39 274.5t-118 239t-195.5 166.5t-266.5 61t-266.5 -61t-194 -166.5t-117.5 -239t-40 -274.5zM242 729q0 111 24.5 217.5t78.5 194.5t143.5 141t211.5 53 q123 0 212 -53t143.5 -142t79 -194.5t24.5 -216.5t-24.5 -216t-79 -194.5t-143.5 -142.5t-212 -53t-211 53t-143 142.5t-79.5 194.5t-24.5 216zM475 1630q0 -25 16.5 -47t40.5 -22q25 0 54 12l282 108q37 14 47.5 29.5t10.5 38.5q0 25 -16.5 47.5t-41.5 22.5t-53 -13 l-283 -108q-37 -14 -47 -29.5t-10 -38.5z" />
<glyph unicode="&#xd4;" horiz-adv-x="1400" d="M82 729q0 -141 40 -274t117.5 -238.5t194.5 -167t266 -61.5q150 0 266.5 61.5t194.5 167t118 238.5t40 274t-39 274.5t-118 239t-195.5 166.5t-266.5 61t-266.5 -61t-194 -166.5t-117.5 -239t-40 -274.5zM242 729q0 111 24.5 217.5t78.5 194.5t143.5 141t211.5 53 q123 0 212 -53t143.5 -142t79 -194.5t24.5 -216.5t-24.5 -216t-79 -194.5t-143.5 -142.5t-212 -53t-211 53t-143 142.5t-79.5 194.5t-24.5 216zM381 1614q0 -23 17.5 -42.5t43.5 -19.5q23 0 54 11l204 92l205 -92q31 -10 53 -11q27 0 44.5 19.5t17.5 42.5q0 25 -11.5 43 t-47.5 33l-261 100l-260 -100q-37 -14 -48 -33t-11 -43z" />
<glyph unicode="&#xd5;" horiz-adv-x="1400" d="M82 729q0 -141 40 -274t117.5 -238.5t194.5 -167t266 -61.5q150 0 266.5 61.5t194.5 167t118 238.5t40 274t-39 274.5t-118 239t-195.5 166.5t-266.5 61t-266.5 -61t-194 -166.5t-117.5 -239t-40 -274.5zM242 729q0 111 24.5 217.5t78.5 194.5t143.5 141t211.5 53 q123 0 212 -53t143.5 -142t79 -194.5t24.5 -216.5t-24.5 -216t-79 -194.5t-143.5 -142.5t-212 -53t-211 53t-143 142.5t-79.5 194.5t-24.5 216zM406 1645q0 -55 59 -56q25 0 53 25q31 24 60 24q41 0 124 -26q84 -27 129 -27q63 0 113.5 38t50.5 79q0 68 -59 67 q-25 0 -53 -24q-14 -12 -27.5 -19.5t-32.5 -7.5q-41 0 -123 27q-86 29 -131 29q-63 0 -113 -40t-50 -89z" />
<glyph unicode="&#xd6;" horiz-adv-x="1400" d="M82 729q0 -141 40 -274t117.5 -238.5t194.5 -167t266 -61.5q150 0 266.5 61.5t194.5 167t118 238.5t40 274t-39 274.5t-118 239t-195.5 166.5t-266.5 61t-266.5 -61t-194 -166.5t-117.5 -239t-40 -274.5zM242 729q0 111 24.5 217.5t78.5 194.5t143.5 141t211.5 53 q123 0 212 -53t143.5 -142t79 -194.5t24.5 -216.5t-24.5 -216t-79 -194.5t-143.5 -142.5t-212 -53t-211 53t-143 142.5t-79.5 194.5t-24.5 216zM418 1638q0 -41 29.5 -70.5t70.5 -29.5t70.5 29.5t29.5 70.5t-29.5 71t-70.5 30t-70.5 -30t-29.5 -71zM782 1638q0 -41 30 -70.5 t71 -29.5t70.5 29.5t29.5 70.5t-29.5 71t-70.5 30t-71 -30t-30 -71z" />
<glyph unicode="&#xd7;" horiz-adv-x="1228" d="M143 111q0 -27 17.5 -45.5t46.5 -18.5t57 29l350 350l351 -350q29 -29 57 -29q29 0 46 18.5t17 45.5q0 14 -6 27.5t-24 31.5l-346 348l346 348q18 18 24 31.5t6 28.5q0 27 -17 45t-46 18t-57 -28l-351 -351l-350 351q-29 29 -57 28q-29 0 -46.5 -18.5t-17.5 -44.5 q0 -14 6.5 -27.5t24.5 -32.5l346 -348l-346 -348q-18 -18 -24.5 -31.5t-6.5 -27.5z" />
<glyph unicode="&#xd8;" horiz-adv-x="1400" d="M59 20q0 -20 15.5 -36.5t38.5 -16.5q29 0 59 37l123 150q76 -78 178 -122t227 -44q150 0 266.5 61.5t194.5 167t118 238.5t40 274q0 135 -36 262t-105 228l118 141q43 51 43 82q0 49 -55 49q-31 0 -65 -41l-117 -141q-76 78 -177.5 119.5t-224.5 41.5q-150 0 -266.5 -61 t-194 -166.5t-117.5 -239t-40 -274.5q0 -135 36 -260t103 -223l-115 -140q-4 -4 -4 -6q-25 -29 -34 -44t-9 -36zM242 729q0 111 24.5 217.5t78.5 194.5t143.5 141t211.5 53q100 0 177 -35.5t133 -101.5l-691 -831q-39 78 -58 172t-19 190zM387 264l690 834 q41 -78 61.5 -175.5t20.5 -193.5q0 -111 -24.5 -216t-79 -194.5t-143.5 -142.5t-212 -53q-100 0 -179 37t-134 104z" />
<glyph unicode="&#xd9;" horiz-adv-x="1363" d="M135 496q0 -123 44 -218.5t122 -160t176 -97t205 -32.5q106 0 205.5 32.5t176.5 97t121 160t44 218.5v880q0 94 -74 94t-74 -94v-862q0 -98 -32.5 -172t-89 -123t-127 -72.5t-150.5 -23.5t-150.5 23.5t-127 72.5t-89 123t-32.5 172v862q0 94 -74 94t-74 -94v-880z M457 1749q0 -23 10 -38t47 -30l283 -108q29 -12 53 -12q25 0 41 22.5t16 46.5q0 23 -10 38t-47 30l-283 108q-29 12 -53 13q-25 0 -41 -22.5t-16 -47.5z" />
<glyph unicode="&#xda;" horiz-adv-x="1363" d="M135 496q0 -123 44 -218.5t122 -160t176 -97t205 -32.5q106 0 205.5 32.5t176.5 97t121 160t44 218.5v880q0 94 -74 94t-74 -94v-862q0 -98 -32.5 -172t-89 -123t-127 -72.5t-150.5 -23.5t-150.5 23.5t-127 72.5t-89 123t-32.5 172v862q0 94 -74 94t-74 -94v-880z M457 1630q0 -25 16 -47t41 -22t53 12l283 108q37 14 47 29.5t10 38.5q0 25 -16.5 47.5t-40.5 22.5q-25 0 -53 -13l-283 -108q-37 -14 -47 -29.5t-10 -38.5z" />
<glyph unicode="&#xdb;" horiz-adv-x="1363" d="M135 496q0 -123 44 -218.5t122 -160t176 -97t205 -32.5q106 0 205.5 32.5t176.5 97t121 160t44 218.5v880q0 94 -74 94t-74 -94v-862q0 -98 -32.5 -172t-89 -123t-127 -72.5t-150.5 -23.5t-150.5 23.5t-127 72.5t-89 123t-32.5 172v862q0 94 -74 94t-74 -94v-880z M362 1614q0 -23 17.5 -42.5t44.5 -19.5q23 0 53 11l205 92l205 -92q31 -10 53 -11q27 0 44 19.5t17 42.5q0 25 -11 43t-48 33l-260 100l-260 -100q-37 -14 -48.5 -33t-11.5 -43z" />
<glyph unicode="&#xdc;" horiz-adv-x="1363" d="M135 496q0 -123 44 -218.5t122 -160t176 -97t205 -32.5q106 0 205.5 32.5t176.5 97t121 160t44 218.5v880q0 94 -74 94t-74 -94v-862q0 -98 -32.5 -172t-89 -123t-127 -72.5t-150.5 -23.5t-150.5 23.5t-127 72.5t-89 123t-32.5 172v862q0 94 -74 94t-74 -94v-880z M399 1638q0 -41 30 -70.5t71 -29.5t70.5 29.5t29.5 70.5t-29.5 71t-70.5 30t-71 -30t-30 -71zM764 1638q0 -41 29.5 -70.5t70.5 -29.5t71 29.5t30 70.5t-30 71t-71 30t-70.5 -30t-29.5 -71z" />
<glyph unicode="&#xdd;" horiz-adv-x="987" d="M2 1413q0 -14 9 -35.5t36 -66.5l373 -621v-608q0 -94 74 -94t73 94v608l373 621q27 45 36 66.5t9 35.5q0 57 -61 57q-49 0 -74 -43l-356 -593l-357 593q-25 43 -74 43q-61 0 -61 -57zM268 1630q0 -25 16.5 -47t41.5 -22t53 12l283 108q37 14 47 29.5t10 38.5 q0 25 -16.5 47.5t-40.5 22.5q-25 0 -54 -13l-282 -108q-37 -14 -47.5 -29.5t-10.5 -38.5z" />
<glyph unicode="&#xde;" horiz-adv-x="1062" d="M135 82q0 -94 74 -94t74 94v225h258q123 0 215 37t152.5 102.5t90 148.5t29.5 175q0 74 -25.5 149.5t-79 141t-140.5 106.5t-205 41h-295v168q0 94 -74 94t-74 -94v-1294zM283 442v631h270q84 0 146.5 -27.5t102.5 -72.5t59.5 -101.5t19.5 -113.5t-19.5 -113.5 t-59.5 -101.5t-102.5 -73t-146.5 -28h-270z" />
<glyph unicode="&#xdf;" horiz-adv-x="1138" d="M135 82q0 -94 74 -94t74 94v1061q0 61 11 114.5t38.5 96.5t73 67.5t110.5 24.5q123 0 184.5 -80t61.5 -182q0 -131 -44 -190.5t-126 -84.5q-41 -12 -51.5 -26.5t-10.5 -40.5q0 -29 18.5 -45.5t88.5 -24.5q117 -12 175 -96t58 -215q0 -66 -12 -123t-39.5 -103.5t-75 -73 t-114.5 -26.5q-57 0 -75.5 -18.5t-18.5 -53.5q4 -76 120 -75q92 0 163 39t118 104.5t70.5 146t23.5 164.5q0 68 -15.5 134.5t-48 125t-86 100.5t-128.5 62q84 55 120.5 136t36.5 188q0 170 -108.5 281.5t-284.5 111.5q-164 0 -272.5 -110.5t-108.5 -311.5v-1077z" />
<glyph unicode="&#xe0;" horiz-adv-x="1138" d="M80 545q0 -242 122 -399.5t347 -157.5q96 0 174 41t127 121h6v-68q0 -94 74 -94t74 94v926q0 94 -74 94t-74 -94v-68h-6q-125 162 -305 162q-115 0 -203 -47t-146.5 -126t-87 -178.5t-28.5 -205.5zM240 545q0 78 17 154.5t55 140t97.5 101.5t139.5 38q82 0 141.5 -38 t96 -101.5t53 -139t16.5 -155.5t-16.5 -156t-53 -139.5t-96 -101t-141.5 -37.5t-142.5 37.5t-96.5 101t-53 140.5t-17 155zM344 1421q0 -23 10.5 -38t46.5 -29l283 -109q29 -12 53 -12q25 0 41.5 22.5t16.5 47.5q0 23 -10.5 38t-47.5 29l-282 109q-29 12 -54 12t-41 -22.5 t-16 -47.5z" />
<glyph unicode="&#xe1;" horiz-adv-x="1138" d="M80 545q0 -242 122 -399.5t347 -157.5q96 0 174 41t127 121h6v-68q0 -94 74 -94t74 94v926q0 94 -74 94t-74 -94v-68h-6q-125 162 -305 162q-115 0 -203 -47t-146.5 -126t-87 -178.5t-28.5 -205.5zM240 545q0 78 17 154.5t55 140t97.5 101.5t139.5 38q82 0 141.5 -38 t96 -101.5t53 -139t16.5 -155.5t-16.5 -156t-53 -139.5t-96 -101t-141.5 -37.5t-142.5 37.5t-96.5 101t-53 140.5t-17 155zM344 1303q0 -25 16.5 -47.5t40.5 -22.5q25 0 54 12l282 109q37 14 47.5 29.5t10.5 37.5q0 25 -16.5 47.5t-41.5 22.5t-53 -12l-283 -109 q-37 -14 -47 -29.5t-10 -37.5z" />
<glyph unicode="&#xe2;" horiz-adv-x="1138" d="M80 545q0 -242 122 -399.5t347 -157.5q96 0 174 41t127 121h6v-68q0 -94 74 -94t74 94v926q0 94 -74 94t-74 -94v-68h-6q-125 162 -305 162q-115 0 -203 -47t-146.5 -126t-87 -178.5t-28.5 -205.5zM240 545q0 78 17 154.5t55 140t97.5 101.5t139.5 38q82 0 141.5 -38 t96 -101.5t53 -139t16.5 -155.5t-16.5 -156t-53 -139.5t-96 -101t-141.5 -37.5t-142.5 37.5t-96.5 101t-53 140.5t-17 155zM250 1286q0 -23 17.5 -42t43.5 -19q23 0 54 10l204 92l205 -92q31 -10 53 -10q27 0 44.5 19.5t17.5 41.5q0 25 -11.5 43.5t-48.5 32.5l-260 100 l-260 -100q-37 -14 -48 -32.5t-11 -43.5z" />
<glyph unicode="&#xe3;" horiz-adv-x="1138" d="M80 545q0 -242 122 -399.5t347 -157.5q96 0 174 41t127 121h6v-68q0 -94 74 -94t74 94v926q0 94 -74 94t-74 -94v-68h-6q-125 162 -305 162q-115 0 -203 -47t-146.5 -126t-87 -178.5t-28.5 -205.5zM240 545q0 78 17 154.5t55 140t97.5 101.5t139.5 38q82 0 141.5 -38 t96 -101.5t53 -139t16.5 -155.5t-16.5 -156t-53 -139.5t-96 -101t-141.5 -37.5t-142.5 37.5t-96.5 101t-53 140.5t-17 155zM274 1317q0 -55 60 -55q25 0 53 24q30 25 59 25q41 0 125 -27t129 -27q63 0 113.5 38t50.5 79q0 68 -59 68q-25 0 -53 -25q-14 -12 -27.5 -19 t-32.5 -7q-41 0 -123 26q-86 29 -131 29q-63 0 -113.5 -40t-50.5 -89z" />
<glyph unicode="&#xe4;" horiz-adv-x="1138" d="M80 545q0 -242 122 -399.5t347 -157.5q96 0 174 41t127 121h6v-68q0 -94 74 -94t74 94v926q0 94 -74 94t-74 -94v-68h-6q-125 162 -305 162q-115 0 -203 -47t-146.5 -126t-87 -178.5t-28.5 -205.5zM240 545q0 78 17 154.5t55 140t97.5 101.5t139.5 38q82 0 141.5 -38 t96 -101.5t53 -139t16.5 -155.5t-16.5 -156t-53 -139.5t-96 -101t-141.5 -37.5t-142.5 37.5t-96.5 101t-53 140.5t-17 155zM287 1311q0 -41 29.5 -71t70.5 -30t70.5 30t29.5 71t-29.5 70.5t-70.5 29.5t-70.5 -29.5t-29.5 -70.5zM651 1311q0 -41 30 -71t71 -30t70.5 30 t29.5 71t-29.5 70.5t-70.5 29.5t-71 -29.5t-30 -70.5z" />
<glyph unicode="&#xe5;" horiz-adv-x="1138" d="M80 545q0 -242 122 -399.5t347 -157.5q96 0 174 41t127 121h6v-68q0 -94 74 -94t74 94v926q0 94 -74 94t-74 -94v-68h-6q-125 162 -305 162q-115 0 -203 -47t-146.5 -126t-87 -178.5t-28.5 -205.5zM240 545q0 78 17 154.5t55 140t97.5 101.5t139.5 38q82 0 141.5 -38 t96 -101.5t53 -139t16.5 -155.5t-16.5 -156t-53 -139.5t-96 -101t-141.5 -37.5t-142.5 37.5t-96.5 101t-53 140.5t-17 155zM379 1391q0 -78 56.5 -134.5t133.5 -56.5q78 0 134.5 56.5t56.5 134.5t-56.5 134t-134.5 56t-134 -56t-56 -134zM465 1391q0 43 30.5 73.5t73.5 30.5 t74 -30.5t31 -73.5t-31 -74t-74 -31t-73.5 31t-30.5 74z" />
<glyph unicode="&#xe6;" horiz-adv-x="1820" d="M80 545q0 -242 122 -399.5t347 -157.5q96 0 176 42t127 124h4v-72q0 -94 68 -94t67 94v57h4q53 -70 138.5 -110.5t216.5 -40.5q78 0 149.5 23.5t125.5 59t85 73.5t31 63q0 41 -18.5 56.5t-51.5 15.5q-25 0 -80 -50q-59 -53 -119.5 -85.5t-156.5 -32.5q-70 0 -128.5 29.5 t-101.5 81.5t-67.5 119t-26.5 138h666q59 0 79.5 25.5t20.5 64.5q0 104 -29.5 200.5t-89 171.5t-147.5 118t-199 43q-82 0 -166 -45t-118 -105h-17v56q0 94 -67 94q-68 0 -68 -94v-64h-4q-70 82 -139.5 120t-167.5 38q-115 0 -203 -47t-146.5 -126t-87 -178.5t-28.5 -205.5z M240 545q0 78 17 154.5t55 140t97.5 101.5t139.5 38q82 0 141.5 -38t96 -101.5t53 -139t16.5 -155.5t-16.5 -156t-53 -139.5t-96 -101t-141.5 -37.5t-142.5 37.5t-96.5 101t-53 140.5t-17 155zM991 602q2 70 22.5 137.5t58.5 121.5t93.5 86t124.5 32q139 0 226 -121 q39 -51 59 -118.5t22 -137.5h-606z" />
<glyph unicode="&#xe7;" horiz-adv-x="909" d="M80 545q0 -100 27.5 -194.5t82 -172.5t134 -128t182.5 -60l-35 -53q-31 -51 -31 -72q0 -16 16.5 -20.5t61.5 -4.5q43 0 66.5 -10t23.5 -43q0 -51 -55 -51q-31 0 -48.5 4t-37.5 10q-25 10 -43 10q-29 0 -41 -14t-12 -35q0 -74 153 -73q90 0 148.5 47t58.5 122q0 47 -36 81 t-91 34q-27 0 -49 -6l-4 4l47 72q100 4 166.5 37.5t66.5 91.5q0 25 -19 42t-42 17q-14 0 -49 -16q-41 -18 -78 -29.5t-94 -11.5q-70 0 -128.5 35t-98 95t-61 139t-21.5 165q0 68 19.5 139.5t58 133t98 99.5t133.5 38q57 0 93 -12.5t71 -30.5q29 -18 43 -19q41 0 61.5 22.5 t20.5 59.5q0 45 -83 80t-188 35q-113 0 -204 -47t-154.5 -127t-96 -179.5t-32.5 -203.5z" />
<glyph unicode="&#xe8;" horiz-adv-x="1062" d="M80 545q0 -106 28.5 -205.5t90 -179.5t156 -126t218.5 -46q90 0 168 23.5t135.5 59t89 73.5t31.5 63q0 41 -18 56.5t-51 15.5q-25 0 -78 -48q-61 -55 -124.5 -87.5t-162.5 -32.5q-70 0 -128 29.5t-101 81.5t-67.5 119t-26.5 138h673q59 0 80 25.5t21 64.5 q0 104 -30 200.5t-89 171.5t-147.5 118t-198.5 43q-111 0 -199 -47t-148.5 -127t-91 -179.5t-30.5 -203.5zM240 602q2 70 22.5 137.5t59.5 118.5q86 121 225 121t225 -121q39 -51 59.5 -118.5t22.5 -137.5h-614zM307 1421q0 -23 10.5 -38t47.5 -29l282 -109q29 -12 53 -12 q25 0 41.5 22.5t16.5 47.5q0 23 -10.5 38t-47.5 29l-282 109q-29 12 -53 12q-25 0 -41.5 -22.5t-16.5 -47.5z" />
<glyph unicode="&#xe9;" horiz-adv-x="1062" d="M80 545q0 -106 28.5 -205.5t90 -179.5t156 -126t218.5 -46q90 0 168 23.5t135.5 59t89 73.5t31.5 63q0 41 -18 56.5t-51 15.5q-25 0 -78 -48q-61 -55 -124.5 -87.5t-162.5 -32.5q-70 0 -128 29.5t-101 81.5t-67.5 119t-26.5 138h673q59 0 80 25.5t21 64.5 q0 104 -30 200.5t-89 171.5t-147.5 118t-198.5 43q-111 0 -199 -47t-148.5 -127t-91 -179.5t-30.5 -203.5zM240 602q2 70 22.5 137.5t59.5 118.5q86 121 225 121t225 -121q39 -51 59.5 -118.5t22.5 -137.5h-614zM307 1303q0 -25 16.5 -47.5t41.5 -22.5t53 12l282 109 q37 14 47.5 29.5t10.5 37.5q0 25 -16.5 47.5t-41.5 22.5t-53 -12l-282 -109q-37 -14 -47.5 -29.5t-10.5 -37.5z" />
<glyph unicode="&#xea;" horiz-adv-x="1062" d="M80 545q0 -106 28.5 -205.5t90 -179.5t156 -126t218.5 -46q90 0 168 23.5t135.5 59t89 73.5t31.5 63q0 41 -18 56.5t-51 15.5q-25 0 -78 -48q-61 -55 -124.5 -87.5t-162.5 -32.5q-70 0 -128 29.5t-101 81.5t-67.5 119t-26.5 138h673q59 0 80 25.5t21 64.5 q0 104 -30 200.5t-89 171.5t-147.5 118t-198.5 43q-111 0 -199 -47t-148.5 -127t-91 -179.5t-30.5 -203.5zM213 1286q0 -23 17.5 -42t43.5 -19q23 0 54 10l204 92l205 -92q31 -10 54 -10q27 0 44 19.5t17 41.5q0 25 -11.5 43.5t-47.5 32.5l-261 100l-260 -100 q-37 -14 -48 -32.5t-11 -43.5zM240 602q2 70 22.5 137.5t59.5 118.5q86 121 225 121t225 -121q39 -51 59.5 -118.5t22.5 -137.5h-614z" />
<glyph unicode="&#xeb;" horiz-adv-x="1062" d="M80 545q0 -106 28.5 -205.5t90 -179.5t156 -126t218.5 -46q90 0 168 23.5t135.5 59t89 73.5t31.5 63q0 41 -18 56.5t-51 15.5q-25 0 -78 -48q-61 -55 -124.5 -87.5t-162.5 -32.5q-70 0 -128 29.5t-101 81.5t-67.5 119t-26.5 138h673q59 0 80 25.5t21 64.5 q0 104 -30 200.5t-89 171.5t-147.5 118t-198.5 43q-111 0 -199 -47t-148.5 -127t-91 -179.5t-30.5 -203.5zM240 602q2 70 22.5 137.5t59.5 118.5q86 121 225 121t225 -121q39 -51 59.5 -118.5t22.5 -137.5h-614zM250 1311q0 -41 29.5 -71t70.5 -30t71 30t30 71t-30 70.5 t-71 29.5t-70.5 -29.5t-29.5 -70.5zM614 1311q0 -41 30 -71t71 -30t70.5 30t29.5 71t-29.5 70.5t-70.5 29.5t-71 -29.5t-30 -70.5z" />
<glyph unicode="&#xec;" horiz-adv-x="417" d="M-16 1421q0 -23 10 -38t47 -29l283 -109q29 -12 53 -12q25 0 41 22.5t16 47.5q0 23 -10 38t-47 29l-283 109q-29 12 -53 12q-25 0 -41 -22.5t-16 -47.5zM135 82q0 -94 74 -94t74 94v926q0 94 -74 94t-74 -94v-926z" />
<glyph unicode="&#xed;" horiz-adv-x="417" d="M-16 1303q0 -25 16 -47.5t41 -22.5t53 12l283 109q37 14 47 29.5t10 37.5q0 25 -16.5 47.5t-40.5 22.5q-25 0 -53 -12l-283 -109q-37 -14 -47 -29.5t-10 -37.5zM135 82q0 -94 74 -94t74 94v926q0 94 -74 94t-74 -94v-926z" />
<glyph unicode="&#xee;" horiz-adv-x="417" d="M-111 1286q0 -23 17.5 -42t44.5 -19q23 0 53 10l205 92l205 -92q31 -10 53 -10q27 0 44 19.5t17 41.5q0 25 -11 43.5t-48 32.5l-260 100l-260 -100q-37 -14 -48.5 -32.5t-11.5 -43.5zM135 82q0 -94 74 -94t74 94v926q0 94 -74 94t-74 -94v-926z" />
<glyph unicode="&#xef;" horiz-adv-x="417" d="M-74 1311q0 -41 30 -71t71 -30t70.5 30t29.5 71t-29.5 70.5t-70.5 29.5t-71 -29.5t-30 -70.5zM135 82q0 -94 74 -94t74 94v926q0 94 -74 94t-74 -94v-926zM291 1311q0 -41 29.5 -71t70.5 -30t71 30t30 71t-30 70.5t-71 29.5t-70.5 -29.5t-29.5 -70.5z" />
<glyph unicode="&#xf0;" d="M80 537q0 -100 30.5 -197.5t90 -177.5t147.5 -127t201 -47q78 0 157.5 28.5t151.5 97t116 191.5t44 301q0 240 -84 438.5t-254 344.5l162 79q29 14 28 43q0 49 -45 50q-16 0 -51 -17l-174 -86q-82 55 -146.5 89t-113.5 34q-31 0 -48.5 -18.5t-17.5 -40.5 q0 -20 19.5 -33.5t60.5 -30.5q80 -31 121 -63l-172 -88q-41 -23 -41 -54q0 -18 11.5 -32.5t29.5 -14.5q10 0 20.5 3t28.5 14l197 98q92 -74 163.5 -168t108.5 -197l-4 -4q-43 66 -117.5 102t-150.5 36q-113 0 -201 -47.5t-148.5 -127t-90 -178t-29.5 -200.5zM240 537 q0 76 17 151.5t54 139t97.5 101.5t140.5 38q80 -2 140.5 -40t97 -100.5t54 -138.5t17.5 -151q0 -74 -17.5 -150t-54 -138.5t-97 -100t-140.5 -37.5t-140.5 37.5t-97.5 100t-54 138.5t-17 150z" />
<glyph unicode="&#xf1;" d="M135 82q0 -94 74 -94t74 94v600q0 133 77.5 209t188.5 76q123 0 194.5 -68t71.5 -182v-635q0 -94 74 -94t74 94v631q0 184 -123 293q-55 47 -125 71.5t-144 24.5q-96 0 -166.5 -40t-117.5 -108h-4v54q0 94 -74 94t-74 -94v-926zM254 1317q0 -55 59 -55q25 0 54 24 q30 25 59 25q41 0 125 -27t129 -27q63 0 113.5 38t50.5 79q0 68 -60 68q-25 0 -53 -25q-14 -12 -27.5 -19t-31.5 -7q-41 0 -123 26q-86 29 -131 29q-63 0 -113.5 -40t-50.5 -89z" />
<glyph unicode="&#xf2;" d="M80 545q0 -242 122 -399.5t347 -157.5t347 157.5t122 399.5q0 106 -28.5 205.5t-87 178.5t-147.5 126t-206 47q-115 0 -204 -47t-148.5 -126t-88 -178.5t-28.5 -205.5zM240 545q0 78 17 154.5t53 140t96.5 101.5t142.5 38t142.5 -38t96 -101.5t53 -140t17.5 -154.5 t-17.5 -155t-53 -140.5t-96 -101t-142.5 -37.5t-142.5 37.5t-96.5 101t-53 140.5t-17 155zM324 1421q0 -23 10 -38t47 -29l283 -109q29 -12 53 -12q25 0 41 22.5t16 47.5q0 23 -10 38t-47 29l-283 109q-29 12 -53 12q-25 0 -41 -22.5t-16 -47.5z" />
<glyph unicode="&#xf3;" d="M80 545q0 -242 122 -399.5t347 -157.5t347 157.5t122 399.5q0 106 -28.5 205.5t-87 178.5t-147.5 126t-206 47q-115 0 -204 -47t-148.5 -126t-88 -178.5t-28.5 -205.5zM240 545q0 78 17 154.5t53 140t96.5 101.5t142.5 38t142.5 -38t96 -101.5t53 -140t17.5 -154.5 t-17.5 -155t-53 -140.5t-96 -101t-142.5 -37.5t-142.5 37.5t-96.5 101t-53 140.5t-17 155zM324 1303q0 -25 16 -47.5t41 -22.5t53 12l283 109q37 14 47 29.5t10 37.5q0 25 -16.5 47.5t-40.5 22.5q-25 0 -53 -12l-283 -109q-37 -14 -47 -29.5t-10 -37.5z" />
<glyph unicode="&#xf4;" d="M80 545q0 -242 122 -399.5t347 -157.5t347 157.5t122 399.5q0 106 -28.5 205.5t-87 178.5t-147.5 126t-206 47q-115 0 -204 -47t-148.5 -126t-88 -178.5t-28.5 -205.5zM229 1286q0 -23 17.5 -42t44.5 -19q23 0 53 10l205 92l205 -92q31 -10 53 -10q27 0 44 19.5t17 41.5 q0 25 -11 43.5t-48 32.5l-260 100l-260 -100q-37 -14 -48.5 -32.5t-11.5 -43.5zM240 545q0 78 17 154.5t53 140t96.5 101.5t142.5 38t142.5 -38t96 -101.5t53 -140t17.5 -154.5t-17.5 -155t-53 -140.5t-96 -101t-142.5 -37.5t-142.5 37.5t-96.5 101t-53 140.5t-17 155z" />
<glyph unicode="&#xf5;" d="M80 545q0 -242 122 -399.5t347 -157.5t347 157.5t122 399.5q0 106 -28.5 205.5t-87 178.5t-147.5 126t-206 47q-115 0 -204 -47t-148.5 -126t-88 -178.5t-28.5 -205.5zM240 545q0 78 17 154.5t53 140t96.5 101.5t142.5 38t142.5 -38t96 -101.5t53 -140t17.5 -154.5 t-17.5 -155t-53 -140.5t-96 -101t-142.5 -37.5t-142.5 37.5t-96.5 101t-53 140.5t-17 155zM254 1317q0 -55 59 -55q25 0 54 24q30 25 59 25q41 0 125 -27t129 -27q63 0 113.5 38t50.5 79q0 68 -60 68q-25 0 -53 -25q-14 -12 -27.5 -19t-31.5 -7q-41 0 -123 26 q-86 29 -131 29q-63 0 -113.5 -40t-50.5 -89z" />
<glyph unicode="&#xf6;" d="M80 545q0 -242 122 -399.5t347 -157.5t347 157.5t122 399.5q0 106 -28.5 205.5t-87 178.5t-147.5 126t-206 47q-115 0 -204 -47t-148.5 -126t-88 -178.5t-28.5 -205.5zM240 545q0 78 17 154.5t53 140t96.5 101.5t142.5 38t142.5 -38t96 -101.5t53 -140t17.5 -154.5 t-17.5 -155t-53 -140.5t-96 -101t-142.5 -37.5t-142.5 37.5t-96.5 101t-53 140.5t-17 155zM266 1311q0 -41 30 -71t71 -30t70.5 30t29.5 71t-29.5 70.5t-70.5 29.5t-71 -29.5t-30 -70.5zM631 1311q0 -41 29.5 -71t70.5 -30t70.5 30t29.5 71t-29.5 70.5t-70.5 29.5 t-70.5 -29.5t-29.5 -70.5z" />
<glyph unicode="&#xf7;" horiz-adv-x="1228" d="M96 518q0 -29 21.5 -48t56.5 -19h881q35 0 56.5 19t21.5 48t-21.5 48.5t-56.5 19.5h-881q-35 0 -56.5 -19.5t-21.5 -48.5zM485 88q0 -53 38 -91t91 -38t91 38t38 91t-37.5 91t-91.5 38q-53 0 -91 -38t-38 -91zM485 948q0 -53 38 -91t91 -38t91 38t38 91t-37.5 91 t-91.5 38q-53 0 -91 -38t-38 -91z" />
<glyph unicode="&#xf8;" d="M63 2q0 -23 16.5 -39t37.5 -16q33 0 59 37l84 104q113 -100 289 -100q225 0 347 157.5t122 399.5q0 102 -26.5 197.5t-78.5 166.5l86 109q35 45 35 69q0 23 -16.5 39.5t-36.5 16.5q-31 0 -59 -37l-86 -109q-115 104 -287 105q-115 0 -204 -47t-148.5 -126t-88 -178.5 t-28.5 -205.5q0 -109 25.5 -203t76.5 -166l-84 -104q-35 -45 -35 -70zM240 545q0 78 17 154.5t53 140t96.5 101.5t142.5 38q125 0 201 -90l-465 -584q-45 104 -45 240zM348 201l465 583q23 -51 34 -113.5t11 -125.5q0 -78 -17.5 -155t-53 -140.5t-96 -101t-142.5 -37.5 q-123 0 -201 90z" />
<glyph unicode="&#xf9;" d="M135 358q0 -172 117 -271t297 -99t297 99t117 271v650q0 94 -74 94t-74 -94v-613q0 -137 -69.5 -210.5t-196.5 -73.5q-125 0 -195.5 73.5t-70.5 210.5v613q0 94 -74 94t-74 -94v-650zM324 1421q0 -23 10 -38t47 -29l283 -109q29 -12 53 -12q25 0 41 22.5t16 47.5 q0 23 -10 38t-47 29l-283 109q-29 12 -53 12q-25 0 -41 -22.5t-16 -47.5z" />
<glyph unicode="&#xfa;" d="M135 358q0 -172 117 -271t297 -99t297 99t117 271v650q0 94 -74 94t-74 -94v-613q0 -137 -69.5 -210.5t-196.5 -73.5q-125 0 -195.5 73.5t-70.5 210.5v613q0 94 -74 94t-74 -94v-650zM324 1303q0 -25 16 -47.5t41 -22.5t53 12l283 109q37 14 47 29.5t10 37.5 q0 25 -16.5 47.5t-40.5 22.5q-25 0 -53 -12l-283 -109q-37 -14 -47 -29.5t-10 -37.5z" />
<glyph unicode="&#xfb;" d="M135 358q0 -172 117 -271t297 -99t297 99t117 271v650q0 94 -74 94t-74 -94v-613q0 -137 -69.5 -210.5t-196.5 -73.5q-125 0 -195.5 73.5t-70.5 210.5v613q0 94 -74 94t-74 -94v-650zM229 1286q0 -23 17.5 -42t44.5 -19q23 0 53 10l205 92l205 -92q31 -10 53 -10 q27 0 44 19.5t17 41.5q0 25 -11 43.5t-48 32.5l-260 100l-260 -100q-37 -14 -48.5 -32.5t-11.5 -43.5z" />
<glyph unicode="&#xfc;" d="M135 358q0 -172 117 -271t297 -99t297 99t117 271v650q0 94 -74 94t-74 -94v-613q0 -137 -69.5 -210.5t-196.5 -73.5q-125 0 -195.5 73.5t-70.5 210.5v613q0 94 -74 94t-74 -94v-650zM266 1311q0 -41 30 -71t71 -30t70.5 30t29.5 71t-29.5 70.5t-70.5 29.5t-71 -29.5 t-30 -70.5zM631 1311q0 -41 29.5 -71t70.5 -30t70.5 30t29.5 71t-29.5 70.5t-70.5 29.5t-70.5 -29.5t-29.5 -70.5z" />
<glyph unicode="&#xfd;" horiz-adv-x="872" d="M25 1034q0 -20 8 -43l334 -962l-134 -351q-12 -31 -12 -59q0 -25 18.5 -43t49.5 -18q55 0 80 73l471 1360q8 23 8 43q0 27 -19.5 47.5t-48.5 20.5q-55 0 -78 -68l-264 -790h-4l-264 790q-23 68 -78 68q-29 0 -48 -20.5t-19 -47.5zM211 1303q0 -25 16.5 -47.5t40.5 -22.5 q25 0 54 12l282 109q37 14 47.5 29.5t10.5 37.5q0 25 -16.5 47.5t-41.5 22.5t-53 -12l-283 -109q-37 -14 -47 -29.5t-10 -37.5z" />
<glyph unicode="&#xfe;" horiz-adv-x="1138" d="M135 -348q0 -94 74 -94t74 94v498h6q125 -162 301 -162q111 0 200 47t148 127t90 179t31 204q0 104 -31 204.5t-90 179.5t-148.5 126t-199.5 47q-176 0 -301 -162h-6v547q0 94 -74 94t-74 -94v-1835zM281 545q0 78 17 154.5t53 140t96.5 101.5t142.5 38t142.5 -38 t96 -101.5t53 -140t17.5 -154.5t-17.5 -155t-53 -140.5t-96 -101t-142.5 -37.5t-142.5 37.5t-96.5 101t-53 140.5t-17 155z" />
<glyph unicode="&#xff;" horiz-adv-x="872" d="M25 1034q0 -20 8 -43l334 -962l-134 -351q-12 -31 -12 -59q0 -25 18.5 -43t49.5 -18q55 0 80 73l471 1360q8 23 8 43q0 27 -19.5 47.5t-48.5 20.5q-55 0 -78 -68l-264 -790h-4l-264 790q-23 68 -78 68q-29 0 -48 -20.5t-19 -47.5zM154 1311q0 -41 29.5 -71t70.5 -30 t70.5 30t29.5 71t-29.5 70.5t-70.5 29.5t-70.5 -29.5t-29.5 -70.5zM518 1311q0 -41 30 -71t70 -30q41 0 71 30t30 71t-30 70.5t-71 29.5t-70.5 -29.5t-29.5 -70.5z" />
<glyph unicode="&#x152;" horiz-adv-x="1896" d="M82 729q0 -141 40 -273t117.5 -238.5t194.5 -168t266 -61.5q147 0 262 67.5t193 194.5h4v-176q0 -31 21.5 -52.5t52.5 -21.5h520q35 0 56.5 19.5t21.5 48.5t-21.5 48t-56.5 19h-446v524h407q35 0 56.5 19.5t21.5 48.5t-21.5 48.5t-56.5 19.5h-405v528h424q35 0 56 19.5 t21 48.5t-21.5 48t-55.5 19h-473q-51 0 -76 -20.5t-25 -53.5v-165h-4q-59 119 -182 185t-273 66t-266.5 -61t-194 -167.5t-117.5 -239t-40 -273.5zM242 729q0 111 24.5 216.5t78.5 194.5t143.5 142t211.5 53q123 0 211 -53t143.5 -142t80 -194.5t24.5 -216.5 q0 -109 -24.5 -215t-79 -195.5t-143.5 -142.5t-212 -53t-211 53t-143 142.5t-79.5 196t-24.5 214.5z" />
<glyph unicode="&#x153;" horiz-adv-x="1859" d="M80 545q0 -242 122 -399.5t347 -157.5q141 0 235.5 61.5t149.5 159.5q127 -221 416 -221q78 0 149.5 23.5t125.5 59t85 73.5t31 63q0 41 -18.5 56.5t-51.5 15.5q-25 0 -80 -50q-59 -55 -119.5 -86.5t-154.5 -31.5q-68 0 -125 29.5t-98 81.5t-63.5 119t-24.5 138h651 q59 0 79.5 25.5t20.5 64.5q0 104 -29.5 200.5t-89 171.5t-147.5 118t-199 43q-106 0 -202.5 -62.5t-155.5 -167.5q-59 111 -156.5 170.5t-228.5 59.5q-115 0 -204 -47t-148.5 -126t-88 -178.5t-28.5 -205.5zM240 545q0 78 17 154.5t53 140t96.5 101.5t142.5 38t142.5 -38 t96 -101.5t53 -140t17.5 -154.5t-17.5 -155t-53 -140.5t-96 -101t-142.5 -37.5t-142.5 37.5t-96.5 101t-53 140.5t-17 155zM1006 602q2 70 21.5 136.5t57 121.5t90 87t115.5 32q139 0 226 -121q39 -51 59 -118.5t22 -137.5h-591z" />
<glyph unicode="&#x178;" horiz-adv-x="987" d="M2 1413q0 -14 9 -35.5t36 -66.5l373 -621v-608q0 -94 74 -94t73 94v608l373 621q27 45 36 66.5t9 35.5q0 57 -61 57q-49 0 -74 -43l-356 -593l-357 593q-25 43 -74 43q-61 0 -61 -57zM211 1638q0 -41 29.5 -70.5t70.5 -29.5t71 29.5t30 70.5t-30 71t-71 30t-70.5 -30 t-29.5 -71zM575 1638q0 -41 30 -70.5t71 -29.5t70.5 29.5t29.5 70.5t-29.5 71t-70.5 30t-71 -30t-30 -71z" />
<glyph unicode="&#x2c6;" horiz-adv-x="417" d="M-111 1286q0 -23 17.5 -42t44.5 -19q23 0 53 10l205 92l205 -92q31 -10 53 -10q27 0 44 19.5t17 41.5q0 25 -11 43.5t-48 32.5l-260 100l-260 -100q-37 -14 -48.5 -32.5t-11.5 -43.5z" />
<glyph unicode="&#x2dc;" horiz-adv-x="417" d="M-86 1317q0 -55 59 -55q25 0 54 24q30 25 59 25q41 0 125 -27t129 -27q63 0 113.5 38t50.5 79q0 68 -60 68q-25 0 -53 -25q-14 -12 -27.5 -19t-31.5 -7q-41 0 -123 26q-86 29 -131 29q-63 0 -113.5 -40t-50.5 -89z" />
<glyph unicode="&#x2000;" horiz-adv-x="944" />
<glyph unicode="&#x2001;" horiz-adv-x="1888" />
<glyph unicode="&#x2002;" horiz-adv-x="944" />
<glyph unicode="&#x2003;" horiz-adv-x="1888" />
<glyph unicode="&#x2004;" horiz-adv-x="629" />
<glyph unicode="&#x2005;" horiz-adv-x="472" />
<glyph unicode="&#x2006;" horiz-adv-x="314" />
<glyph unicode="&#x2007;" horiz-adv-x="314" />
<glyph unicode="&#x2008;" horiz-adv-x="236" />
<glyph unicode="&#x2009;" horiz-adv-x="377" />
<glyph unicode="&#x200a;" horiz-adv-x="104" />
<glyph unicode="&#x2010;" horiz-adv-x="720" d="M84 545q0 -29 21.5 -48.5t56.5 -19.5h397q35 0 56.5 19.5t21.5 48.5t-21.5 48t-56.5 19h-397q-35 0 -56.5 -19.5t-21.5 -47.5z" />
<glyph unicode="&#x2011;" horiz-adv-x="720" d="M84 545q0 -29 21.5 -48.5t56.5 -19.5h397q35 0 56.5 19.5t21.5 48.5t-21.5 48t-56.5 19h-397q-35 0 -56.5 -19.5t-21.5 -47.5z" />
<glyph unicode="&#x2012;" horiz-adv-x="720" d="M84 545q0 -29 21.5 -48.5t56.5 -19.5h397q35 0 56.5 19.5t21.5 48.5t-21.5 48t-56.5 19h-397q-35 0 -56.5 -19.5t-21.5 -47.5z" />
<glyph unicode="&#x2013;" horiz-adv-x="1024" d="M0 545q0 -23 15.5 -42.5t47.5 -19.5h898q33 0 48 19.5t15 42.5t-15.5 42t-47.5 19h-898q-33 0 -48 -19.5t-15 -41.5z" />
<glyph unicode="&#x2014;" horiz-adv-x="2048" d="M-63 545q0 -23 15 -42.5t48 -19.5h2048q33 0 48 19.5t15 42.5t-15 42t-48 19h-2048q-33 0 -48 -19.5t-15 -41.5z" />
<glyph unicode="&#x2018;" horiz-adv-x="380" d="M53 1108q0 -25 19.5 -44.5t52.5 -19.5q49 0 70 43l116 259q16 37 17 61q0 25 -19.5 44t-52.5 19q-49 0 -70 -43l-116 -258q-16 -37 -17 -61z" />
<glyph unicode="&#x2019;" horiz-adv-x="380" d="M53 1108q0 -25 19.5 -44.5t52.5 -19.5q49 0 70 43l116 259q16 37 17 61q0 25 -19.5 44t-52.5 19q-49 0 -70 -43l-116 -258q-16 -37 -17 -61z" />
<glyph unicode="&#x201a;" horiz-adv-x="380" d="M53 -186q0 -25 19.5 -44.5t52.5 -19.5q49 0 70 43l116 258q16 37 17 62q0 25 -19.5 44t-52.5 19q-49 0 -70 -43l-116 -258q-16 -37 -17 -61z" />
<glyph unicode="&#x201c;" horiz-adv-x="645" d="M53 1108q0 -25 19.5 -44.5t52.5 -19.5q49 0 70 43l116 259q16 37 17 61q0 25 -19.5 44t-52.5 19q-49 0 -70 -43l-116 -258q-16 -37 -17 -61zM317 1108q0 -25 19.5 -44.5t52.5 -19.5q49 0 70 43l116 259q16 37 17 61q0 25 -19.5 44t-52.5 19q-49 0 -69 -43l-117 -258 q-16 -37 -17 -61z" />
<glyph unicode="&#x201d;" horiz-adv-x="645" d="M53 1108q0 -25 19.5 -44.5t52.5 -19.5q49 0 70 43l116 259q16 37 17 61q0 25 -19.5 44t-52.5 19q-49 0 -70 -43l-116 -258q-16 -37 -17 -61zM317 1108q0 -25 19.5 -44.5t52.5 -19.5q49 0 70 43l116 259q16 37 17 61q0 25 -19.5 44t-52.5 19q-49 0 -69 -43l-117 -258 q-16 -37 -17 -61z" />
<glyph unicode="&#x201e;" horiz-adv-x="645" d="M53 -186q0 -25 19.5 -44.5t52.5 -19.5q49 0 70 43l116 258q16 37 17 62q0 25 -19.5 44t-52.5 19q-49 0 -70 -43l-116 -258q-16 -37 -17 -61zM317 -186q0 -25 19.5 -44.5t52.5 -19.5q49 0 70 43l116 258q16 37 17 62q0 25 -19.5 44t-52.5 19q-49 0 -69 -43l-117 -258 q-16 -37 -17 -61z" />
<glyph unicode="&#x2022;" horiz-adv-x="1024" d="M147 729q0 -74 29 -140.5t79 -116.5t116.5 -78.5t140.5 -28.5t140.5 28.5t117.5 78.5t79 116.5t28 140.5t-28 140.5t-79 117.5t-117.5 79t-140.5 28t-140.5 -28t-116.5 -79t-79 -117.5t-29 -140.5z" />
<glyph unicode="&#x2026;" horiz-adv-x="2048" d="M248 82q0 -39 27.5 -66.5t66.5 -27.5t66.5 27.5t27.5 66.5t-27.5 66.5t-66.5 27.5t-66.5 -27.5t-27.5 -66.5zM930 82q0 -39 27.5 -66.5t66.5 -27.5t66.5 27.5t27.5 66.5t-27.5 66.5t-66.5 27.5t-66.5 -27.5t-27.5 -66.5zM1612 82q0 -39 27.5 -66.5t66.5 -27.5t66.5 27.5 t27.5 66.5t-27.5 66.5t-66.5 27.5t-66.5 -27.5t-27.5 -66.5z" />
<glyph unicode="&#x202f;" horiz-adv-x="377" />
<glyph unicode="&#x2039;" horiz-adv-x="491" d="M84 545q0 -16 22 -60l166 -292q16 -29 33 -43.5t41 -14.5q27 0 44.5 16.5t17.5 36.5q0 14 -4.5 26.5t-16.5 33.5l-172 297l172 297q12 23 16.5 34t4.5 25q0 20 -17.5 36.5t-44.5 16.5q-25 0 -41 -14t-33 -43l-166 -293q-23 -43 -22 -59z" />
<glyph unicode="&#x203a;" horiz-adv-x="491" d="M84 188q0 -20 17.5 -36.5t43.5 -16.5q25 0 41.5 14.5t32.5 43.5l166 292q23 43 23 60q0 16 -23 59l-166 293q-16 29 -32.5 43t-41.5 14q-27 0 -44 -16t-17 -37q0 -14 4 -25.5t16 -33.5l172 -297l-172 -297q-12 -20 -16 -32.5t-4 -27.5z" />
<glyph unicode="&#x205f;" horiz-adv-x="472" />
<glyph unicode="&#x2122;" horiz-adv-x="2027" d="M131 1397q0 -23 15.5 -42.5t48.5 -19.5h202v-643q0 -35 19.5 -56.5t48.5 -21.5t48 21.5t19 56.5v643h203q33 0 48.5 19.5t15.5 42.5t-15.5 42t-48.5 19h-540q-33 0 -48.5 -19.5t-15.5 -41.5zM973 688q0 -35 19.5 -56.5t47.5 -21.5q29 0 48.5 21.5t19.5 56.5v635h4 l254 -645q16 -41 31.5 -54.5t38.5 -13.5t38 13.5t31 54.5l252 645h4v-635q0 -35 19.5 -56.5t48.5 -21.5t48 21.5t19 56.5v655q0 59 -29.5 93t-80.5 34q-43 0 -79 -23.5t-60 -84.5l-209 -543l-215 543q-25 61 -60 84.5t-80 23.5q-49 0 -79.5 -33.5t-30.5 -93.5v-655z" />
<glyph unicode="&#xe000;" horiz-adv-x="1105" d="M0 0v1106h1106v-1106h-1106z" />
</font>
</defs>
</svg>
