<?xml version="1.0" standalone="no"?>
<!DOCTYPE svg PUBLIC "-//W3C//DTD SVG 1.1//EN" "http://www.w3.org/Graphics/SVG/1.1/DTD/svg11.dtd" >
<svg>
<metadata>
Created by FontForge 20090914 at Thu Oct 10 13:55:58 2013
 By www-data
Copyright (c) 1989, 1995 Adobe Systems Incorporated.  All Rights Reserved.
</metadata>
<defs>
<font id="VAGRounded-Light" horiz-adv-x="204" >
  <font-face 
    font-family="VAGRounded-Light"
    font-weight="300"
    font-stretch="normal"
    units-per-em="1000"
    panose-1="2 11 4 0 0 0 0 0 0 0"
    ascent="800"
    descent="-200"
    x-height="532"
    cap-height="718"
    bbox="-50 -293 1047 922"
    underline-thickness="50"
    underline-position="-50"
    unicode-range="U+0020-U+2122"
  />
<missing-glyph horiz-adv-x="502" 
d="M-1 0h500v500h-500v-500zM9 10v480h480v-480h-480z" />
    <glyph glyph-name=".notdef" horiz-adv-x="502" 
d="M-1 0h500v500h-500v-500zM9 10v480h480v-480h-480z" />
    <glyph glyph-name="space" unicode=" " horiz-adv-x="250" 
 />
    <glyph glyph-name="exclam" unicode="!" horiz-adv-x="296" 
d="M104 238c0 -14.667 4 -26.167 12 -34.5s18.667 -12.5 32 -12.5s24 4.16699 32 12.5s12 19.833 12 34.5v433c0 14.667 -4 26.167 -12 34.5s-18.667 12.5 -32 12.5s-24 -4.16699 -32 -12.5s-12 -19.833 -12 -34.5v-433zM97 45c0 -14 5 -26 15 -36s22 -15 36 -15s26 5 36 15
s15 22 15 36s-5 26 -15 36s-22 15 -36 15s-26 -5 -36 -15s-15 -22 -15 -36z" />
    <glyph glyph-name="quotedbl" unicode="&#x22;" horiz-adv-x="334" 
d="M197 539c0 -13.333 3.5 -23.833 10.5 -31.5s17.167 -11.5 30.5 -11.5s23.5 3.83301 30.5 11.5s10.5 18.167 10.5 31.5v136c0 13.333 -3.5 23.833 -10.5 31.5s-17.167 11.5 -30.5 11.5s-23.5 -3.83301 -30.5 -11.5s-10.5 -18.167 -10.5 -31.5v-136zM55 539
c0 -13.333 3.5 -23.833 10.5 -31.5s17.167 -11.5 30.5 -11.5s23.5 3.83301 30.5 11.5s10.5 18.167 10.5 31.5v136c0 13.333 -3.5 23.833 -10.5 31.5s-17.167 11.5 -30.5 11.5s-23.5 -3.83301 -30.5 -11.5s-10.5 -18.167 -10.5 -31.5v-136z" />
    <glyph glyph-name="numbersign" unicode="#" horiz-adv-x="536" 
d="M381 216h69.998c12 0 21.833 2.83301 29.5 8.5s11.5 13.834 11.5 24.501s-3.83301 18.834 -11.5 24.501s-17.5 8.5 -29.5 8.5h-61l21 148h70c12 0 21.833 2.83301 29.5 8.5s11.5 13.834 11.5 24.501s-3.83301 18.834 -11.5 24.501s-17.5 8.5 -29.5 8.5h-61l20 146l1 3
c2.66699 19.333 4 32.333 4 39c0 10 -2.83301 18.167 -8.5 24.5s-14.167 9.5 -25.5 9.5c-12 0 -21 -3 -27 -9s-9.66699 -15 -11 -27l-26 -186h-119l20 146l1 3c2.66699 19.333 4 32.333 4 39c0 10 -2.83301 18.167 -8.5 24.5s-14.167 9.5 -25.5 9.5c-12 0 -21 -3 -27 -9
s-9.66699 -15 -11 -27l-26 -186h-70c-12 0 -21.833 -2.83301 -29.5 -8.5s-11.5 -13.834 -11.5 -24.501s3.83301 -18.834 11.5 -24.501s17.5 -8.5 29.5 -8.5h61l-21 -148h-70c-12 0 -21.833 -2.83301 -29.5 -8.5s-11.5 -13.834 -11.5 -24.501s3.83301 -18.834 11.5 -24.501
s17.5 -8.5 29.5 -8.5h61l-20 -146v-3c-3.33301 -19.333 -5 -32.333 -5 -39c0 -10 2.83301 -18.167 8.5 -24.5s14.167 -9.5 25.5 -9.5c12.667 0 21.834 3 27.501 9s9.16699 15 10.5 27l26 186h119l-20 -146v-3c-3.33301 -19.333 -5 -32.333 -5 -39
c0 -10 2.83301 -18.167 8.5 -24.5s14.167 -9.5 25.5 -9.5c12.667 0 21.834 3 27.501 9s9.16699 15 10.5 27zM316.998 282h-119l21 148h119z" />
    <glyph glyph-name="dollar" unicode="$" horiz-adv-x="481" 
d="M218 439c-31.333 12 -55.168 25.6699 -71.501 41.0029s-24.5 35.666 -24.5 60.999c0 27.333 8.83301 50.166 26.5 68.499s40.834 29.166 69.501 32.499v-203zM217.998 70.0029c-24 0 -44.498 3.16797 -61.498 9.50098s-35.167 15.166 -54.5 26.499
c-20.667 12.667 -36 19 -46 19c-10.667 0 -19.167 -4.16699 -25.5 -12.5s-9.5 -18.166 -9.5 -29.499c0 -10.667 5.33301 -21.167 16 -31.5s25.5 -20 44.5 -29s40.333 -16 64 -21s47.834 -7.5 72.501 -7.5v-47c0 -14 7 -21 21 -21s21 7 21 21v51
c62 8 110.833 32.833 146.5 74.5s53.5 90.5 53.5 146.5c0 31.333 -5.5 58.333 -16.5 81s-25.833 41.334 -44.5 56.001s-38 26.5 -58 35.5s-45.667 19.167 -77 30.5l-4 1v219c16 -2.66699 29.333 -6.33398 40 -11.001s21.667 -10.667 33 -18
c17.333 -11.333 31.333 -17 42 -17s19.667 3.83301 27 11.5s11 16.834 11 27.501c0 20.667 -15.167 38.834 -45.5 54.501s-66.166 25.167 -107.499 28.5v47c0 14 -7 21 -21 21s-21 -7 -21 -21v-47c-28.667 -2.66699 -54.834 -9.83398 -78.501 -21.501
s-43.834 -26.334 -60.501 -44.001s-29.334 -36.667 -38.001 -57s-13 -40.5 -13 -60.5c0 -29.333 5.16699 -54.333 15.5 -75s24.166 -37.834 41.499 -51.501s35.333 -24.5 54 -32.5s43.667 -17.333 75 -28l4 -1v-277zM260 332.004c34 -12.667 60.167 -27.833 78.5 -45.5
s27.5 -41.5 27.5 -71.5c0 -36 -9.33301 -66.667 -28 -92s-44.667 -41.333 -78 -48v257z" />
    <glyph glyph-name="percent" unicode="%" horiz-adv-x="741" 
d="M194 434c-29.333 0 -51 11.5 -65 34.5s-21 49.833 -21 80.5s7 57.5 21 80.5s35.667 34.5 65 34.5s51 -11.5 65 -34.5s21 -49.833 21 -80.5s-7 -57.5 -21 -80.5s-35.667 -34.5 -65 -34.5zM547 -6c48 0 85.333 16.333 112 49s40 72.667 40 120s-13.333 87.333 -40 120
s-64 49 -112 49s-85.333 -16.333 -112 -49s-40 -72.667 -40 -120s13.333 -87.333 40 -120s64 -49 112 -49zM547 48c-29.333 0 -51 11.5 -65 34.5s-21 49.833 -21 80.5s7 57.5 21 80.5s35.667 34.5 65 34.5s51 -11.5 65 -34.5s21 -49.833 21 -80.5s-7 -57.5 -21 -80.5
s-35.667 -34.5 -65 -34.5zM194 380c48 0 85.333 16.333 112 49s40 72.667 40 120s-13.333 87.333 -40 120s-64 49 -112 49s-85.333 -16.333 -112 -49s-40 -72.667 -40 -120s13.333 -87.333 40 -120s64 -49 112 -49zM209 58
c-5.33301 -13.333 -8.99902 -23.1699 -10.999 -29.5029s-3 -11.5 -3 -15.5c0 -7.33301 3 -13.666 9 -18.999s14 -8 24 -8c16 0 28.333 10 37 30l266 638c6 14.667 9.83301 24.834 11.5 30.501s2.5 10.5 2.5 14.5c0 6.66699 -3 12.834 -9 18.501s-14.667 8.5 -26 8.5
c-14.667 0 -26.334 -10 -35.001 -30z" />
    <glyph glyph-name="ampersand" unicode="&#x26;" horiz-adv-x="667" 
d="M318 417c39.333 22 70.5029 46.333 93.5029 73s34.5 60.667 34.5 102c0 36 -15.333 66 -46 90s-67.334 36 -110.001 36c-52 0 -94 -11.667 -126 -35s-48 -60 -48 -110c0 -22 7.33301 -44.667 22 -68s33.667 -47 57 -71c-55.333 -34 -95.666 -67.333 -120.999 -100
s-38 -77 -38 -133c0 -32 5.83301 -60.833 17.5 -86.5s27.667 -47.5 48 -65.5s43.666 -31.667 69.999 -41s54.166 -14 83.499 -14c40 0 78.833 9.33301 116.5 28s72.167 47.667 103.5 87l86 -99c8.66699 -10.667 20 -16 34 -16c10 0 18.5 3.33301 25.5 10
s10.5 15.334 10.5 26.001c0 11.333 -6 24 -18 38l-87 103c33.333 40 57.166 72.833 71.499 98.5s21.5 46.167 21.5 61.5c0 9.33301 -3.5 16.666 -10.5 21.999s-15.833 8 -26.5 8c-8.66699 0 -17.167 -4.83301 -25.5 -14.5s-19.5 -26.167 -33.5 -49.5
c-16 -26 -29.333 -46 -40 -60l-6 -8zM204.003 575c0 23.333 7.5 41.332 22.5 53.999s33.833 19 56.5 19c22 0 41 -6.16699 57 -18.5s24 -29.833 24 -52.5c0 -20 -9 -38.667 -27 -56s-40.333 -33.666 -67 -48.999l-2 2c-21.333 24 -37.333 43.5 -48 58.5s-16 29.167 -16 42.5
zM124.003 210.999c0 34 8.83105 63.834 26.498 89.501s48.834 51.167 93.501 76.5l182 -210c-27.333 -32.667 -53.666 -56 -78.999 -70s-53.333 -21 -84 -21c-44.667 0 -79 12.667 -103 38s-36 57.666 -36 96.999z" />
    <glyph glyph-name="quotesingle" unicode="'" 
d="M61 539c0 -13.333 3.5 -23.833 10.5 -31.5s17.167 -11.5 30.5 -11.5s23.5 3.83301 30.5 11.5s10.5 18.167 10.5 31.5v136c0 13.333 -3.5 23.833 -10.5 31.5s-17.167 11.5 -30.5 11.5s-23.5 -3.83301 -30.5 -11.5s-10.5 -18.167 -10.5 -31.5v-136z" />
    <glyph glyph-name="parenleft" unicode="(" horiz-adv-x="241" 
d="M65 318c0 -68.667 5 -135.83 15 -201.497s24.333 -122.834 43 -171.501c5.33301 -14 11.333 -25 18 -33s15.334 -12 26.001 -12c11.333 0 20 2.83301 26 8.5s9 12.5 9 20.5s-3 20.667 -9 38l-5 15c-13.333 42 -23.5 90.5 -30.5 145.5s-10.5 118.5 -10.5 190.5
s3.5 135.5 10.5 190.5s17.167 103.5 30.5 145.5l5 15c6 17.333 9 30 9 38s-3 14.833 -9 20.5s-14.667 8.5 -26 8.5c-10.667 0 -19.334 -4 -26.001 -12s-12.667 -19 -18 -33c-18.667 -48.667 -33 -105.834 -43 -171.501s-15 -132.834 -15 -201.501z" />
    <glyph glyph-name="parenright" unicode=")" horiz-adv-x="241" 
d="M176 318c0 68.667 -5 135.83 -15 201.497s-24.333 122.834 -43 171.501c-5.33301 14 -11.333 25 -18 33s-15.334 12 -26.001 12c-11.333 0 -20 -2.83301 -26 -8.5s-9 -12.5 -9 -20.5s3 -20.667 9 -38l5 -15c13.333 -42 23.5 -90.5 30.5 -145.5s10.5 -118.5 10.5 -190.5
s-3.5 -135.5 -10.5 -190.5s-17.167 -103.5 -30.5 -145.5l-5 -15c-6 -17.333 -9 -30 -9 -38s3 -14.833 9 -20.5s14.667 -8.5 26 -8.5c10.667 0 19.334 4 26.001 12s12.667 19 18 33c18.667 48.667 33 105.834 43 171.501s15 132.834 15 201.501z" />
    <glyph glyph-name="asterisk" unicode="*" horiz-adv-x="390" 
d="M150 541l-89 -37c-10 -4 -16.333 -8.5 -19 -13.5s-4 -11.167 -4 -18.5c0 -9.33301 3.33301 -17.333 10 -24s15 -10 25 -10c7.33301 0 15.666 3 24.999 9s21.666 15.333 36.999 28c14 12 25.667 21.333 35 28c0 -12.667 -2 -32.334 -6 -59.001c-3.33301 -22 -5 -37 -5 -45
c0 -10 3.16699 -18.333 9.5 -25s15.166 -10 26.499 -10s20.166 3.33301 26.499 10s9.5 15 9.5 25c0 8 -1.66699 23 -5 45c-4 26.667 -6 46.334 -6 59.001c9.33301 -6.66699 21 -16 35 -28c16 -13.333 28.5 -22.833 37.5 -28.5s17.167 -8.5 24.5 -8.5
c10 0 18.333 3.33301 25 10s10 14.667 10 24c0 7.33301 -1.33301 13.5 -4 18.5s-9 9.5 -19 13.5l-89 37l89 37c10 4 16.333 8.5 19 13.5s4 11.167 4 18.5c0 9.33301 -3.33301 17.333 -10 24s-15 10 -25 10c-7.33301 0 -15.666 -3 -24.999 -9s-21.666 -15.333 -36.999 -28
c-14 -12 -25.667 -21.333 -35 -28c0 12.667 2 32.334 6 59.001c3.33301 22 5 37 5 45c0 10 -3.16699 18.333 -9.5 25s-15.166 10 -26.499 10s-20.166 -3.33301 -26.499 -10s-9.5 -15 -9.5 -25c0 -8 1.66699 -23 5 -45c4 -26.667 6 -46.334 6 -59.001
c-9.33301 6.66699 -21 16 -35 28c-16 13.333 -28.5 22.833 -37.5 28.5s-17.167 8.5 -24.5 8.5c-10 0 -18.333 -3.33301 -25 -10s-10 -14.667 -10 -24c0 -7.33301 1.33301 -13.5 4 -18.5s9 -9.5 19 -13.5z" />
    <glyph glyph-name="plus" unicode="+" horiz-adv-x="600" 
d="M259 294h-169c-13.333 0 -23.833 -3.5 -31.5 -10.5s-11.5 -17.167 -11.5 -30.5s3.83301 -23.5 11.5 -30.5s18.167 -10.5 31.5 -10.5h169v-169c0 -13.333 3.5 -23.833 10.5 -31.5s17.167 -11.5 30.5 -11.5s23.5 3.83301 30.5 11.5s10.5 18.167 10.5 31.5v169h169
c13.333 0 23.833 3.5 31.5 10.5s11.5 17.167 11.5 30.5s-3.83301 23.5 -11.5 30.5s-18.167 10.5 -31.5 10.5h-169v169c0 13.333 -3.5 23.833 -10.5 31.5s-17.167 11.5 -30.5 11.5s-23.5 -3.83301 -30.5 -11.5s-10.5 -18.167 -10.5 -31.5v-169z" />
    <glyph glyph-name="comma" unicode="," horiz-adv-x="250" 
d="M33 -51c-7.33301 -14.667 -10.999 -27 -10.999 -37c0 -10.667 4 -19.667 12 -27s17.333 -11 28 -11c11.333 0 20.5 3.16699 27.5 9.5s13.5 15.5 19.5 27.5l56 110c7.33301 14.667 11 27 11 37c0 10.667 -4 19.667 -12 27s-17.333 11 -28 11
c-11.333 0 -20.333 -3.16699 -27 -9.5s-13.334 -15.5 -20.001 -27.5z" />
    <glyph glyph-name="hyphen" unicode="-" horiz-adv-x="352" 
d="M279 230c10.667 0 19.667 3.66699 27 11s11 16.333 11 27s-3.66699 19.667 -11 27s-16.333 11 -27 11h-206c-10.667 0 -19.667 -3.66699 -27 -11s-11 -16.333 -11 -27s3.66699 -19.667 11 -27s16.333 -11 27 -11h206z" />
    <glyph glyph-name="period" unicode="." horiz-adv-x="250" 
d="M74 45c0 -14 5 -26 15 -36s22 -15 36 -15s26 5 36 15s15 22 15 36s-5 26 -15 36s-22 15 -36 15s-26 -5 -36 -15s-15 -22 -15 -36z" />
    <glyph glyph-name="slash" unicode="/" horiz-adv-x="407" 
d="M34 75c-9.33301 -20.667 -14 -35.334 -14 -44.001c0 -11.333 3.66699 -20.333 11 -27s16.666 -10 27.999 -10c10.667 0 19.167 2.66699 25.5 8s11.5 12.666 15.5 21.999l273 613c9.33301 20.667 14 35.334 14 44.001c0 11.333 -3.66699 20.333 -11 27
s-16.666 10 -27.999 10c-10.667 0 -19.167 -2.66699 -25.5 -8s-11.5 -12.666 -15.5 -21.999z" />
    <glyph glyph-name="zero" unicode="0" horiz-adv-x="536" 
d="M33 356c0 -56 6 -106.5 18 -151.5s28.833 -83.167 50.5 -114.5s46.667 -55.166 75 -71.499s58.833 -24.5 91.5 -24.5s63.167 8.16699 91.5 24.5s53.333 40.166 75 71.499s38.5 69.5 50.5 114.5s18 95.5 18 151.5s-6 106.5 -18 151.5s-28.833 83.167 -50.5 114.5
s-46.667 55.166 -75 71.499s-58.833 24.5 -91.5 24.5s-63.167 -8.16699 -91.5 -24.5s-53.333 -40.166 -75 -71.499s-38.5 -69.5 -50.5 -114.5s-18 -95.5 -18 -151.5zM127 356c0 94.667 13.167 166 39.5 214s60.166 72 101.499 72s75.166 -24 101.499 -72
s39.5 -119.333 39.5 -214s-13.167 -166 -39.5 -214s-60.166 -72 -101.499 -72s-75.166 24 -101.499 72s-39.5 119.333 -39.5 214z" />
    <glyph glyph-name="one" unicode="1" horiz-adv-x="352" 
d="M164 41c0 -14.667 3.99902 -26.167 11.999 -34.5s18.667 -12.5 32 -12.5s24 4.16699 32 12.5s12 19.833 12 34.5v647c0 10 -2.16699 16.5 -6.5 19.5s-11.166 4.5 -20.499 4.5h-153c-10.667 0 -19.667 -3.66699 -27 -11s-11 -16.333 -11 -27s3.66699 -19.667 11 -27
s16.333 -11 27 -11h92v-595z" />
    <glyph glyph-name="two" unicode="2" horiz-adv-x="536" 
d="M182 76l238.998 317.997c20.667 26.667 34 51.167 40 73.5s9 46.833 9 73.5c0 23.333 -4.5 45.5 -13.5 66.5s-22 39.833 -39 56.5s-37.333 29.834 -61 39.501s-49.834 14.5 -78.501 14.5c-36 0 -68.167 -5.83301 -96.5 -17.5s-52.166 -28 -71.499 -49
s-34 -44.833 -44 -71.5s-15 -55 -15 -85c0 -36 14.333 -54 43 -54c10.667 0 19.834 3.16699 27.501 9.5s11.5 16.5 11.5 30.5c0 46.667 11.5 85.167 34.5 115.5s54.833 45.5 95.5 45.5c32 0 58.833 -10.333 80.5 -31s32.5 -47.334 32.5 -80.001
c0 -20 -4.66699 -40.667 -14 -62s-22 -42.666 -38 -63.999l-246 -329c-7.33301 -10.667 -12.333 -18.667 -15 -24s-4 -10.666 -4 -15.999c0 -9.33301 3.83301 -17.666 11.5 -24.999s19.834 -11 36.501 -11h345c10.667 0 19.667 3.66699 27 11s11 16.333 11 27
s-3.66699 19.667 -11 27s-16.333 11 -27 11h-270z" />
    <glyph glyph-name="three" unicode="3" horiz-adv-x="536" 
d="M476 210c0 41.333 -10.502 77.4971 -31.502 108.497s-51.167 52.5 -90.5 64.5c27.333 16.667 48.166 38.334 62.499 65.001s21.5 55.334 21.5 86.001c0 51.333 -17 94.833 -51 130.5s-78.667 53.5 -134 53.5c-56.667 0 -102 -17.5 -136 -52.5s-51 -77.5 -51 -127.5
c0 -12 3.66699 -21.833 11 -29.5s17 -11.5 29 -11.5c11.333 0 20.833 2.5 28.5 7.5s12.167 16.167 13.5 33.5c2.66699 30.667 12 55.667 28 75s40.333 29 73 29c30.667 0 55.167 -10.833 73.5 -32.5s27.5 -49.5 27.5 -83.5c0 -32.667 -7.83301 -58 -23.5 -76
s-41.167 -31 -76.5 -39c-30.667 -6.66699 -46 -19.334 -46 -38.001c0 -25.333 18 -38 54 -38c18 0 34.333 -2.16699 49 -6.5s27.334 -11.166 38.001 -20.499c24.667 -21.333 37 -56.666 37 -105.999c0 -36.667 -12.667 -67.834 -38 -93.501s-57.666 -38.5 -96.999 -38.5
c-31.333 0 -56.833 8.16699 -76.5 24.5s-34.167 38.5 -43.5 66.5c-10 30.667 -26.333 46 -49 46c-10.667 0 -19.5 -4.33301 -26.5 -13s-10.5 -20.667 -10.5 -36c0 -14 4.16699 -30.5 12.5 -49.5s21 -37.167 38 -54.5s38.833 -31.666 65.5 -42.999s57.334 -17 92.001 -17
c32 0 61.667 5 89 15s51.333 24 72 42c44 40 66 93 66 159z" />
    <glyph glyph-name="four" unicode="4" horiz-adv-x="536" 
d="M334 183l0.000976562 -142c0 -14.667 4 -26.167 12 -34.5s18.667 -12.5 32 -12.5s24 4.16699 32 12.5s12 19.833 12 34.5v142h45c10.667 0 19.667 3.66699 27 11s11 16.333 11 27s-3.66699 19.667 -11 27s-16.333 11 -27 11h-45v386c0 24.667 -6 43 -18 55
s-28.333 18 -49 18c-16 0 -29.333 -3 -40 -9s-20.334 -16.333 -29.001 -31l-252 -413c-14.667 -23.333 -22 -40.333 -22 -51c0 -10 2.83301 -17.667 8.5 -23s15.5 -8 29.5 -8h284zM122.001 259l210 365h2v-365h-212z" />
    <glyph glyph-name="five" unicode="5" horiz-adv-x="536" 
d="M228 636h203.001c10.667 0 19.667 3.66699 27 11s11 16.333 11 27s-3.66699 19.667 -11 27s-16.333 11 -27 11h-247c-10.667 0 -18.5 -1.66699 -23.5 -5s-8.16699 -9.33301 -9.5 -18l-37 -249c-0.666992 -2.66699 -1.33398 -7 -2.00098 -13
c-1.33301 -11.333 -2.5 -20.666 -3.5 -27.999s-1.5 -13.333 -1.5 -18c0 -8 2.5 -14.5 7.5 -19.5s12.5 -7.5 22.5 -7.5c6.66699 0 17.667 3 33 9s29.333 10.5 42 13.5s28 4.5 46 4.5c40.667 0 71.334 -14 92.001 -42s31 -64.333 31 -109
c0 -43.333 -12.333 -79.833 -37 -109.5s-57.667 -44.5 -99 -44.5c-28 0 -51.167 4.5 -69.5 13.5s-37.166 21.5 -56.499 37.5c-19.333 15.333 -33.666 23 -42.999 23c-10 0 -17.833 -3.83301 -23.5 -11.5s-8.5 -16.5 -8.5 -26.5c0 -10.667 5 -22.834 15 -36.501
s24.167 -26.834 42.5 -39.501s39.666 -22.834 63.999 -30.501s50.5 -11.5 78.5 -11.5c71.333 0 127.666 22.833 168.999 68.5s62 107.167 62 184.5c0 28 -4.33301 54.833 -13 80.5s-21 48.834 -37 69.501s-35.333 36.834 -58 48.501s-47.334 17.5 -74.001 17.5
c-36.667 0 -68 -6.66699 -94 -20z" />
    <glyph glyph-name="six" unicode="6" horiz-adv-x="536" 
d="M266 -6c31.333 0 60.3311 6.00098 86.998 18.001s49.834 28.5 69.501 49.5s34.834 45.667 45.501 74s16 58.5 16 90.5c0 31.333 -4 61.166 -12 89.499s-19.667 53.333 -35 75s-34.166 38.667 -56.499 51s-47.833 18.5 -76.5 18.5c-22.667 0 -42.667 -2.33301 -60 -7
s-35 -11.667 -53 -21h-2c25.333 46.667 49.5 84.5 72.5 113.5s49.833 57.167 80.5 84.5c13.333 12 22.5 21.167 27.5 27.5s7.5 12.833 7.5 19.5c0 12 -4 21.833 -12 29.5s-16 11.5 -24 11.5c-6 0 -12.167 -1.5 -18.5 -4.5s-13.833 -8.16699 -22.5 -15.5
c-30 -25.333 -59.167 -53.5 -87.5 -84.5s-54.833 -66 -79.5 -105s-44.334 -81.333 -59.001 -127s-22 -93.167 -22 -142.5c0 -35.333 5.33301 -68 16 -98s25.667 -56 45 -78s42 -39 68 -51s54.333 -18 85 -18zM139.998 230.001c0 44.667 10.5 81.5 31.5 110.5
s52.167 43.5 93.5 43.5c42 0 73.333 -13.5 94 -40.5s31 -64.833 31 -113.5c0 -44.667 -10.5 -81.5 -31.5 -110.5s-52.167 -43.5 -93.5 -43.5s-72.5 14.5 -93.5 43.5s-31.5 65.833 -31.5 110.5z" />
    <glyph glyph-name="seven" unicode="7" horiz-adv-x="500" 
d="M366 636l0.00195312 -2l-249 -559c-9.33301 -22 -14 -37.667 -14 -47c0 -10.667 3.66699 -19 11 -25s14.666 -9 21.999 -9c12 0 22.5 2.16699 31.5 6.5s16.167 12.833 21.5 25.5l266 605c11.333 26 17 43.667 17 53c0 10 -3.83301 17.167 -11.5 21.5
s-18.834 6.5 -33.501 6.5h-361c-10.667 0 -19.667 -3.66699 -27 -11s-11 -16.333 -11 -27s3.66699 -19.667 11 -27s16.333 -11 27 -11h300z" />
    <glyph glyph-name="eight" unicode="8" horiz-adv-x="536" 
d="M86 555c0 -37.333 7.33105 -67.833 21.998 -91.5s38.334 -45.834 71.001 -66.501c-40 -9.33301 -71.5 -30.5 -94.5 -63.5s-34.5 -71.167 -34.5 -114.5c0 -29.333 4.83301 -57.5 14.5 -84.5s24 -51 43 -72s42 -37.667 69 -50s57.5 -18.5 91.5 -18.5s64.5 6 91.5 18
s50 28.667 69 50s33.333 45.5 43 72.5s14.5 55.167 14.5 84.5c0 43.333 -11.5 81.5 -34.5 114.5s-54.5 54.167 -94.5 63.5c32.667 20.667 56.334 42.834 71.001 66.501s22 54.167 22 91.5c0 51.333 -18 91.333 -54 120s-78.667 43 -128 43s-92 -14.333 -128 -43
s-54 -68.667 -54 -120zM167.998 538c0 30.667 9 55.667 27 75s42.333 29 73 29s55 -9.66699 73 -29s27 -44.333 27 -75c0 -31.333 -9 -56.666 -27 -75.999s-42.333 -29 -73 -29s-55 9.66699 -73 29s-27 44.666 -27 75.999zM143.998 215c0 39.333 11 72.833 33 100.5
s52.333 41.5 91 41.5s69 -13.833 91 -41.5s33 -61.167 33 -100.5c0 -44 -12 -79.167 -36 -105.5s-53.333 -39.5 -88 -39.5s-64 13.167 -88 39.5s-36 61.5 -36 105.5z" />
    <glyph glyph-name="nine" unicode="9" horiz-adv-x="536" 
d="M270 718c-30.667 0 -59.5 -6.00098 -86.5 -18.001s-50.333 -28.5 -70 -49.5s-34.834 -45.667 -45.501 -74s-16 -58.5 -16 -90.5c0 -31.333 4 -61.166 12 -89.499s19.667 -53.333 35 -75s34.333 -38.667 57 -51s48 -18.5 76 -18.5c22.667 0 42.667 2.33301 60 7
s35 11.667 53 21h2c-25.333 -46.667 -49.5 -84.5 -72.5 -113.5s-49.833 -57.167 -80.5 -84.5c-13.333 -12 -22.5 -21.167 -27.5 -27.5s-7.5 -12.833 -7.5 -19.5c0 -12 4 -21.833 12 -29.5s16 -11.5 24 -11.5c6 0 12.167 1.5 18.5 4.5s13.833 8.16699 22.5 15.5
c30 25.333 59.167 53.5 87.5 84.5s54.833 66 79.5 105s44.334 81.333 59.001 127s22 93.167 22 142.5c0 35.333 -5.33301 68 -16 98s-25.5 56 -44.5 78s-41.667 39 -68 51s-54.833 18 -85.5 18zM396 481.999c0 -44 -10.5 -80.667 -31.5 -110s-52.167 -44 -93.5 -44
c-42 0 -73.333 13.5 -94 40.5s-31 64.833 -31 113.5c0 44.667 10.5 81.5 31.5 110.5s52.167 43.5 93.5 43.5s72.5 -14.5 93.5 -43.5s31.5 -65.833 31.5 -110.5z" />
    <glyph glyph-name="colon" unicode=":" horiz-adv-x="250" 
d="M74 45c0 -14 5 -26 15 -36s22 -15 36 -15s26 5 36 15s15 22 15 36s-5 26 -15 36s-22 15 -36 15s-26 -5 -36 -15s-15 -22 -15 -36zM74 381c0 -14 5 -26 15 -36s22 -15 36 -15s26 5 36 15s15 22 15 36s-5 26 -15 36s-22 15 -36 15s-26 -5 -36 -15s-15 -22 -15 -36z" />
    <glyph glyph-name="semicolon" unicode=";" horiz-adv-x="250" 
d="M33 -51c-7.33301 -14.667 -10.999 -27 -10.999 -37c0 -10.667 4 -19.667 12 -27s17.333 -11 28 -11c11.333 0 20.5 3.16699 27.5 9.5s13.5 15.5 19.5 27.5l56 110c7.33301 14.667 11 27 11 37c0 10.667 -4 19.667 -12 27s-17.333 11 -28 11
c-11.333 0 -20.333 -3.16699 -27 -9.5s-13.334 -15.5 -20.001 -27.5zM74.001 381c0 -14 5 -26 15 -36s22 -15 36 -15s26 5 36 15s15 22 15 36s-5 26 -15 36s-22 15 -36 15s-26 -5 -36 -15s-15 -22 -15 -36z" />
    <glyph glyph-name="less" unicode="&#x3c;" horiz-adv-x="600" 
d="M150 253l372 184.006v0c10.667 5.33301 18.667 10.666 24 15.999s8 12.666 8 21.999c0 10.667 -3.33301 19.5 -10 26.5s-14.334 10.5 -23.001 10.5c-7.33301 0 -22.333 -5.33301 -45 -16c-2 -0.666992 -3.33301 -1.33398 -4 -2.00098l-390 -195
c-12.667 -6.66699 -21.834 -13.5 -27.501 -20.5s-8.5 -15.5 -8.5 -25.5s2.83301 -18.5 8.5 -25.5s14.834 -13.833 27.501 -20.5l390 -195c0.666992 -0.666992 2 -1.33398 4 -2.00098c22.667 -10.667 37.667 -16 45 -16c8.66699 0 16.334 3.66699 23.001 11s10 16 10 26
c0 9.33301 -2.66699 16.666 -8 21.999s-13.333 10.666 -24 15.999v0z" />
    <glyph glyph-name="equal" unicode="=" horiz-adv-x="600" 
d="M510 316c13.333 0 23.833 3.5 31.5 10.5s11.5 17.167 11.5 30.5s-3.83301 23.5 -11.5 30.5s-18.167 10.5 -31.5 10.5h-420c-13.333 0 -23.833 -3.5 -31.5 -10.5s-11.5 -17.167 -11.5 -30.5s3.83301 -23.5 11.5 -30.5s18.167 -10.5 31.5 -10.5h420zM510 108
c13.333 0 23.833 3.5 31.5 10.5s11.5 17.167 11.5 30.5s-3.83301 23.5 -11.5 30.5s-18.167 10.5 -31.5 10.5h-420c-13.333 0 -23.833 -3.5 -31.5 -10.5s-11.5 -17.167 -11.5 -30.5s3.83301 -23.5 11.5 -30.5s18.167 -10.5 31.5 -10.5h420z" />
    <glyph glyph-name="greater" unicode="&#x3e;" horiz-adv-x="600" 
d="M78 69c-10.667 -5.33301 -18.667 -10.6719 -24 -16.0049s-8 -12.666 -8 -21.999c0 -10 3.33301 -18.667 10 -26s14.334 -11 23.001 -11c8 0 23 5.33301 45 16c2 0.666992 3.33301 1.33398 4 2.00098l390 195c12.667 6.66699 21.834 13.5 27.501 20.5s8.5 15.5 8.5 25.5
s-2.83301 18.5 -8.5 25.5s-14.834 13.833 -27.501 20.5l-390 195c-0.666992 0.666992 -2 1.33398 -4 2.00098c-22 10.667 -37 16 -45 16c-8.66699 0 -16.334 -3.5 -23.001 -10.5s-10 -15.833 -10 -26.5c0 -9.33301 2.66699 -16.666 8 -21.999s13.333 -10.666 24 -15.999v0
l372 -184z" />
    <glyph glyph-name="question" unicode="?" horiz-adv-x="444" 
d="M258 338c51.333 10.667 92.1699 32.8281 122.503 66.4951s45.5 76.834 45.5 129.501c0 26 -5.33301 50.333 -16 73s-25.667 42.334 -45 59.001s-42 29.5 -68 38.5s-54 13.5 -84 13.5c-23.333 0 -46.333 -3.66699 -69 -11s-43.334 -17.833 -62.001 -31.5
s-33.834 -29.834 -45.501 -48.501s-17.834 -38.667 -18.501 -60c0 -14 4.16699 -25.167 12.5 -33.5s18.5 -12.5 30.5 -12.5c9.33301 0 17.166 2.33301 23.499 7s11.5 13.334 15.5 26.001c10.667 30 25.667 51.167 45 63.5s43 18.5 71 18.5c34 0 61.833 -10 83.5 -30
s32.5 -46.667 32.5 -80c0 -10.667 -1.33301 -21.334 -4 -32.001s-7.16699 -21 -13.5 -31s-15.666 -19 -27.999 -27s-27.833 -14 -46.5 -18c-18 -3.33301 -31.5 -6.66602 -40.5 -9.99902s-15.667 -7.16602 -20 -11.499s-7 -9.66602 -8 -15.999s-1.5 -16.166 -1.5 -29.499
v-113c0 -14.667 4 -26.167 12 -34.5s18.667 -12.5 32 -12.5s24 4.16699 32 12.5s12 19.833 12 34.5v100zM163.004 44.9941c0 -14 5 -26 15 -36s22 -15 36 -15s26 5 36 15s15 22 15 36s-5 26 -15 36s-22 15 -36 15s-26 -5 -36 -15s-15 -22 -15 -36z" />
    <glyph glyph-name="at" unicode="@" horiz-adv-x="800" 
d="M266 308c0 19.333 2.99902 39.168 8.99902 59.501s15 39.166 27 56.499s27.167 31.333 45.5 42s38.833 16 61.5 16c50 0 75 -24 75 -72c0 -15.333 -2.66699 -33.833 -8 -55.5s-13.5 -43 -24.5 -64s-25.167 -38.333 -42.5 -52s-37.666 -20.5 -60.999 -20.5
c-22.667 0 -42 8.5 -58 25.5s-24 38.5 -24 64.5zM597.999 494.002c3.33301 11.333 5.49219 19.499 6.49219 24.499s1.5 8.83301 1.5 11.5c0 7.33301 -3.16699 12.833 -9.5 16.5s-13.833 5.5 -22.5 5.5c-20.667 0 -34 -9.66699 -40 -29l-13 -40
c-12.667 26 -28.834 45 -48.501 57s-42.5 18 -68.5 18c-32.667 0 -63 -7.33301 -91 -22s-52 -34.334 -72 -59.001s-35.5 -52.667 -46.5 -84s-16.5 -62.666 -16.5 -93.999c0 -21.333 3.83301 -41.5 11.5 -60.5s18.167 -35.833 31.5 -50.5c29.333 -30.667 65.333 -46 108 -46
c20.667 0 41.334 5.5 62.001 16.5s38.334 24.5 53.001 40.5h2c6.66699 -38 30 -57 70 -57c24 0 50.167 5.66699 78.5 17s55.5 28.5 81.5 51.5s47.167 52.167 63.5 87.5s24.5 76 24.5 122c0 43.333 -9.16699 83.333 -27.5 120s-43.666 68.334 -75.999 95.001
s-69.666 47.167 -111.999 61.5s-87.166 21.5 -134.499 21.5c-51.333 0 -99.833 -9.16699 -145.5 -27.5s-86 -44 -121 -77s-62.333 -71.667 -82 -116s-29.5 -91.5 -29.5 -141.5s9.66699 -97.167 29 -141.5s46.5 -83 81.5 -116s75.667 -58.667 122 -77s95.5 -27.5 147.5 -27.5
c31.333 0 64.5 5.16699 99.5 15.5s67.5 23.666 97.5 39.999s54.167 33.333 72.5 51s27.5 33.167 27.5 46.5c0 15.333 -8.33301 23 -25 23c-9.33301 0 -18.166 -2.5 -26.499 -7.5s-20.166 -13.5 -35.499 -25.5c-29.333 -24 -58.666 -42.833 -87.999 -56.5
s-67.666 -20.5 -114.999 -20.5c-44 0 -85 7.16699 -123 21.5s-71 34.833 -99 61.5s-49.833 58.167 -65.5 94.5s-23.5 75.833 -23.5 118.5c0 40.667 7.5 79 22.5 115s36.167 67.667 63.5 95s59.5 48.5 96.5 63.5s76.833 22.5 119.5 22.5c36 0 70.5 -5.5 103.5 -16.5
s62.333 -27 88 -48s45.834 -46.833 60.501 -77.5s22 -64.667 22 -102c0 -25.333 -3.83301 -49.833 -11.5 -73.5s-17.834 -45 -30.501 -64s-27 -33.833 -43 -44.5s-31.667 -16 -47 -16c-18.667 0 -28 9.66699 -28 29c0 8.66699 2.66699 22.334 8 41.001z" />
    <glyph glyph-name="A" unicode="A" horiz-adv-x="612" 
d="M141 155h330.002l46 -128c4 -10.667 9.33301 -18.834 16 -24.501s15.667 -8.5 27 -8.5c12 0 22 3.33301 30 10s12 15.667 12 27c0 4 -1 9.33301 -3 16s-4.33301 14 -7 22c-0.666992 2.66699 -1.33398 4.66699 -2.00098 6l-221 589c-6 16.667 -14 29.834 -24 39.501
s-23 14.5 -39 14.5s-29 -4.83301 -39 -14.5s-18 -22.834 -24 -39.501l-221 -589c-0.666992 -1.33301 -1.33398 -3.33301 -2.00098 -6c-2.66699 -8 -5 -15.333 -7 -22s-3 -12 -3 -16c0 -11.333 4 -20.333 12 -27s18 -10 30 -10c11.333 0 20.333 2.83301 27 8.5
s12 13.834 16 24.501zM444.002 231h-276l137 385h2z" />
    <glyph glyph-name="B" unicode="B" horiz-adv-x="537" 
d="M146 636h103c38 0 66.667 -10 86 -30s29 -46.667 29 -80s-10.5 -60.833 -31.5 -82.5s-49.833 -32.5 -86.5 -32.5h-100v225zM146 339l128 -0.000976562c44.667 0 80 -12.333 106 -37s39 -56 39 -94c0 -39.333 -14 -71.166 -42 -95.499s-63.667 -36.5 -107 -36.5h-124v263z
M58 47.999c0 -14 3.83203 -25.498 11.499 -34.498s19.5 -13.5 35.5 -13.5h169c72 0 128.833 20 170.5 60s62.5 89.333 62.5 148c0 46.667 -14.833 86.5 -44.5 119.5s-66.167 51.833 -109.5 56.5v2c29.333 9.33301 53.166 28 71.499 56s27.5 61.333 27.5 100
c0 20.667 -4.16699 41.167 -12.5 61.5s-20.666 38.666 -36.999 54.999s-36.666 29.333 -60.999 39s-51.5 14.5 -81.5 14.5h-155c-16 0 -27.833 -4.33301 -35.5 -13s-11.5 -20.334 -11.5 -35.001v-616z" />
    <glyph glyph-name="C" unicode="C" horiz-adv-x="593" 
d="M125 356c0 36 4.33301 70.833 13 104.5s22.167 64.167 40.5 91.5s41.666 49.166 69.999 65.499s61.5 24.5 99.5 24.5c30 0 54.333 -4.33301 73 -13s37 -20.334 55 -35.001c9.33301 -7.33301 17 -12.833 23 -16.5s12.333 -5.5 19 -5.5c10.667 0 19.334 4 26.001 12
s10 18 10 30c0 9.33301 -5 20 -15 32s-24.167 23.5 -42.5 34.5s-40.333 20 -66 27s-53.167 10.5 -82.5 10.5c-51.333 0 -96.833 -9.83301 -136.5 -29.5s-73 -46.5 -100 -80.5s-47.167 -72.833 -60.5 -116.5s-20 -88.834 -20 -135.501c0 -47.333 6.66699 -92.666 20 -135.999
s33.333 -82 60 -116s59.5 -60.833 98.5 -80.5s83.5 -29.5 133.5 -29.5c30.667 0 59.667 3 87 9s51.5 13.833 72.5 23.5s37.333 20.334 49 32.001s17.5 23.167 17.5 34.5c0 12.667 -3.16699 22.667 -9.5 30s-14.833 11 -25.5 11c-9.33301 0 -25.333 -6.66699 -48 -20
c-23.333 -13.333 -45.5 -24 -66.5 -32s-46.5 -12 -76.5 -12c-36 0 -68 8.16699 -96 24.5s-51 38.333 -69 66s-31.333 58.334 -40 92.001s-13 68.167 -13 103.5z" />
    <glyph glyph-name="D" unicode="D" horiz-adv-x="630" 
d="M63 48c0 -14 3.83203 -25.499 11.499 -34.499s19.5 -13.5 35.5 -13.5h185c46.667 0 89 8.66699 127 26s70.167 42 96.5 74s46.333 70 60 114s20.5 92.667 20.5 146c0 48 -6.66699 93.167 -20 135.5s-33.166 79.833 -59.499 112.5s-59.5 58.167 -99.5 76.5
s-85.667 27.5 -137 27.5h-173c-16 0 -27.833 -4.33301 -35.5 -13s-11.5 -20.334 -11.5 -35.001v-616zM150.999 636.001l119.998 0.000976562c40.667 0 76 -7.16699 106 -21.5s54.333 -34.333 73 -60s32.5 -55 41.5 -88s13.5 -68.5 13.5 -106.5
s-4.16699 -73.833 -12.5 -107.5s-21.666 -63.834 -39.999 -90.501s-42.166 -47.667 -71.499 -63s-64 -23 -104 -23h-126v560z" />
    <glyph glyph-name="E" unicode="E" horiz-adv-x="444" 
d="M146 315l193 0.000976562c13.333 0 23.833 3.5 31.5 10.5s11.5 17.167 11.5 30.5s-3.83301 23.5 -11.5 30.5s-18.167 10.5 -31.5 10.5h-193v233h212c13.333 0 23.833 3.5 31.5 10.5s11.5 17.167 11.5 30.5s-3.83301 23.5 -11.5 30.5s-18.167 10.5 -31.5 10.5h-253
c-16 0 -27.833 -4.33301 -35.5 -13s-11.5 -20.334 -11.5 -35.001v-616c0 -14 3.83301 -25.5 11.5 -34.5s19.5 -13.5 35.5 -13.5h253c13.333 0 23.833 3.5 31.5 10.5s11.5 17.167 11.5 30.5s-3.83301 23.5 -11.5 30.5s-18.167 10.5 -31.5 10.5h-212v233z" />
    <glyph glyph-name="F" unicode="F" horiz-adv-x="407" 
d="M146 315l185 0.000976562c13.333 0 23.833 3.5 31.5 10.5s11.5 17.167 11.5 30.5s-3.83301 23.5 -11.5 30.5s-18.167 10.5 -31.5 10.5h-185v233h209c13.333 0 23.833 3.5 31.5 10.5s11.5 17.167 11.5 30.5s-3.83301 23.5 -11.5 30.5s-18.167 10.5 -31.5 10.5h-250
c-16 0 -27.833 -4.33301 -35.5 -13s-11.5 -20.334 -11.5 -35.001v-623c0 -14.667 4 -26.167 12 -34.5s18.667 -12.5 32 -12.5s24 4.16699 32 12.5s12 19.833 12 34.5v274z" />
    <glyph glyph-name="G" unicode="G" horiz-adv-x="667" 
d="M559 326l0.000976562 -41.999c0 -24.667 -4.33301 -49.5 -13 -74.5s-21.667 -48.167 -39 -69.5s-38.833 -38.333 -64.5 -51s-55.167 -19 -88.5 -19c-39.333 0 -73.833 8.16699 -103.5 24.5s-53.667 38.166 -72 65.499s-31.833 57.833 -40.5 91.5s-13 68.5 -13 104.5
s4.33301 70.833 13 104.5s22.167 64.167 40.5 91.5s42 49.166 71 65.499s62.5 24.5 100.5 24.5c35.333 0 64.5 -5 87.5 -15s46.167 -23.333 69.5 -40c12 -8.66699 21.667 -15 29 -19s14.666 -6 21.999 -6c12 0 22 4 30 12s12 18 12 30c0 10 -6 21.5 -18 34.5
s-29 25.667 -51 38s-48 22.333 -78 30s-62.333 11.5 -97 11.5c-54 0 -101.5 -9.83301 -142.5 -29.5s-75 -46.5 -102 -80.5s-47.167 -72.667 -60.5 -116s-20 -88.666 -20 -135.999c0 -46.667 6.66699 -91.667 20 -135s33.333 -82.166 60 -116.499s59.667 -61.333 99 -81
s83.666 -29.5 132.999 -29.5c58 0 107 9.33301 147 28s71.333 44 94 76s38.834 68 48.501 108s14.5 83.333 14.5 130c0 27.333 -4.83301 46.166 -14.5 56.499s-26.167 15.5 -49.5 15.5h-148c-13.333 0 -23.833 -3.5 -31.5 -10.5s-11.5 -17.167 -11.5 -30.5
s3.83301 -23.5 11.5 -30.5s18.167 -10.5 31.5 -10.5h124z" />
    <glyph glyph-name="H" unicode="H" horiz-adv-x="667" 
d="M146 319h375v-272c0 -35.333 14.667 -53 44 -53s44 17.667 44 53v618c0 35.333 -14.667 53 -44 53s-44 -17.667 -44 -53v-270h-375v270c0 35.333 -14.667 53 -44 53s-44 -17.667 -44 -53v-618c0 -35.333 14.667 -53 44 -53s44 17.667 44 53v272z" />
    <glyph glyph-name="I" unicode="I" 
d="M146 671c0 14.667 -4 26.167 -12 34.5s-18.667 12.5 -32 12.5s-24 -4.16699 -32 -12.5s-12 -19.833 -12 -34.5v-630c0 -14.667 4 -26.167 12 -34.5s18.667 -12.5 32 -12.5s24 4.16699 32 12.5s12 19.833 12 34.5v630z" />
    <glyph glyph-name="J" unicode="J" horiz-adv-x="370" 
d="M224 172c0 -31.333 -5.83301 -56.167 -17.5 -74.5s-31.834 -27.5 -60.501 -27.5c-19.333 0 -34.5 2.16699 -45.5 6.5s-22.167 10.5 -33.5 18.5c-8 6 -14.667 10.167 -20 12.5s-11.666 3.5 -18.999 3.5c-10.667 0 -19.167 -3.33301 -25.5 -10s-9.5 -15.667 -9.5 -27
c0 -12 5 -23 15 -33s23 -18.5 39 -25.5s32.333 -12.333 49 -16s31 -5.5 43 -5.5c60 0 103.833 16.333 131.5 49s41.5 78.667 41.5 138v490c0 14.667 -4 26.167 -12 34.5s-18.667 12.5 -32 12.5s-24 -4.16699 -32 -12.5s-12 -19.833 -12 -34.5v-499z" />
    <glyph glyph-name="K" unicode="K" horiz-adv-x="574" 
d="M146 339l332.002 -326.001c8.66699 -8 16.167 -13.167 22.5 -15.5s13.166 -3.5 20.499 -3.5c12 0 22.167 3.83301 30.5 11.5s12.5 16.834 12.5 27.501c0 12.667 -6 24.667 -18 36l-319 308l292 263c6 6 10.5 11.667 13.5 17s4.5 13 4.5 23c0 11.333 -3.5 20.5 -10.5 27.5
s-16.167 10.5 -27.5 10.5c-8 0 -15.333 -2.16699 -22 -6.5s-15.334 -11.5 -26.001 -21.5l-305 -279v260c0 14.667 -4 26.167 -12 34.5s-18.667 12.5 -32 12.5s-24 -4.16699 -32 -12.5s-12 -19.833 -12 -34.5v-630c0 -14.667 4 -26.167 12 -34.5s18.667 -12.5 32 -12.5
s24 4.16699 32 12.5s12 19.833 12 34.5v298z" />
    <glyph glyph-name="L" unicode="L" horiz-adv-x="389" 
d="M146 671c0 14.667 -4 26.167 -12 34.5s-18.667 12.5 -32 12.5s-24 -4.16699 -32 -12.5s-12 -19.833 -12 -34.5v-623c0 -14 3.83301 -25.5 11.5 -34.5s19.5 -13.5 35.5 -13.5h229c13.333 0 23.833 3.5 31.5 10.5s11.5 17.167 11.5 30.5s-3.83301 23.5 -11.5 30.5
s-18.167 10.5 -31.5 10.5h-188v589z" />
    <glyph glyph-name="M" unicode="M" horiz-adv-x="834" 
d="M200 604h2l170 -574c4 -13.333 9.66699 -22.666 17 -27.999s16.666 -8 27.999 -8s20.666 2.66699 27.999 8s13 14.666 17 27.999l170 574h2l83 -572c2 -14 7.16699 -23.833 15.5 -29.5s18.833 -8.5 31.5 -8.5c27.333 0 41 15 41 45c0 8 -1.66699 21.333 -5 40l-97 572
c-4 23.333 -12.167 40.333 -24.5 51s-27.166 16 -44.499 16s-31 -3.5 -41 -10.5s-17.667 -18.833 -23 -35.5l-152 -521h-2l-152 521c-4.66699 16.667 -12 28.5 -22 35.5s-24 10.5 -42 10.5c-17.333 0 -32.166 -5.33301 -44.499 -16s-20.5 -27.667 -24.5 -51l-97 -572
c-3.33301 -18.667 -5 -32 -5 -40c0 -30 13.667 -45 41 -45c13.333 0 24 2.83301 32 8.5s13 15.5 15 29.5z" />
    <glyph glyph-name="N" unicode="N" horiz-adv-x="668" 
d="M146 557h2l360 -517c12.667 -18 23 -30.167 31 -36.5s18.333 -9.5 31 -9.5c26.667 0 40 17.333 40 52v625c0 14.667 -4 26.167 -12 34.5s-18.667 12.5 -32 12.5s-24 -4.16699 -32 -12.5s-12 -19.833 -12 -34.5v-516h-2l-360 517c-12.667 18 -23 30.167 -31 36.5
s-18.333 9.5 -31 9.5c-26.667 0 -40 -17.333 -40 -52v-625c0 -14.667 4 -26.167 12 -34.5s18.667 -12.5 32 -12.5s24 4.16699 32 12.5s12 19.833 12 34.5v516z" />
    <glyph glyph-name="O" unicode="O" horiz-adv-x="686" 
d="M125 356c0 35.333 4 70 12 104s20.667 64.667 38 92s40.166 49.166 68.499 65.499s61.5 24.5 99.5 24.5c38.667 0 72 -8.16699 100 -24.5s50.667 -38.166 68 -65.499s30 -58 38 -92s12 -68.667 12 -104s-4 -70 -12 -104s-20.667 -64.667 -38 -92s-40 -49.166 -68 -65.499
s-61.333 -24.5 -100 -24.5c-38 0 -71.167 8.16699 -99.5 24.5s-51.166 38.166 -68.499 65.499s-30 58 -38 92s-12 68.667 -12 104zM31 356c0 -46.667 6.83301 -91.667 20.5 -135s33.834 -82.166 60.501 -116.499s59.5 -61.333 98.5 -81s83.167 -29.5 132.5 -29.5
s93.5 9.83301 132.5 29.5s71.833 46.667 98.5 81s46.834 73.166 60.501 116.499s20.5 88.333 20.5 135s-6.83301 91.667 -20.5 135s-33.834 82.166 -60.501 116.499s-59.5 61.333 -98.5 81s-83.167 29.5 -132.5 29.5s-93.5 -9.83301 -132.5 -29.5s-71.833 -46.667 -98.5 -81
s-46.834 -73.166 -60.501 -116.499s-20.5 -88.333 -20.5 -135z" />
    <glyph glyph-name="P" unicode="P" horiz-adv-x="519" 
d="M146 266l136.001 0.00195312c32 0 61.833 5.66699 89.5 17s52 27.166 73 47.499s37.167 44 48.5 71s17 55.833 17 86.5c0 31.333 -5.33301 60.5 -16 87.5s-26.167 50.833 -46.5 71.5s-44.833 36.667 -73.5 48s-60.334 17 -95.001 17h-174
c-16 0 -27.833 -4.33301 -35.5 -13s-11.5 -20.334 -11.5 -35.001v-623c0 -14.667 4 -26.167 12 -34.5s18.667 -12.5 32 -12.5s24 4.16699 32 12.5s12 19.833 12 34.5v225zM146.001 636.002l126 -0.00195312c26 0 48.667 -4.16699 68 -12.5s35 -19.666 47 -33.999
s20.833 -30.166 26.5 -47.499s8.5 -35.333 8.5 -54c0 -41.333 -13.667 -76 -41 -104s-62.333 -42 -105 -42h-130v294z" />
    <glyph glyph-name="Q" unicode="Q" horiz-adv-x="685" 
d="M485 127c-36.667 -38 -84.001 -56.999 -142.001 -56.999c-38 0 -71.167 8.16699 -99.5 24.5s-51.166 38.166 -68.499 65.499s-30 58 -38 92s-12 68.667 -12 104s4 70 12 104s20.667 64.667 38 92s40.166 49.166 68.499 65.499s61.5 24.5 99.5 24.5
c38.667 0 72 -8.16699 100 -24.5s50.667 -38.166 68 -65.499s30 -58 38 -92s12 -68.667 12 -104c0 -28.667 -2.66699 -57 -8 -85s-13.333 -53.667 -24 -77l-49 48c-10.667 10.667 -21.667 16 -33 16s-20.666 -3.83301 -27.999 -11.5s-11 -17.167 -11 -28.5
c0 -10 6 -21 18 -33zM611.999 2.00098c4.66699 -4.66699 9.66992 -8.5 15.0029 -11.5s11.666 -4.5 18.999 -4.5c11.333 0 20.5 3.66699 27.5 11s10.5 16 10.5 26c0 12 -5.66699 23.667 -17 35l-74 73c20.667 32 36.167 67.167 46.5 105.5s15.5 78.166 15.5 119.499
c0 46.667 -6.83301 91.667 -20.5 135s-33.834 82.166 -60.501 116.499s-59.5 61.333 -98.5 81s-83.167 29.5 -132.5 29.5s-93.5 -9.83301 -132.5 -29.5s-71.833 -46.667 -98.5 -81s-46.834 -73.166 -60.501 -116.499s-20.5 -88.333 -20.5 -135s6.83301 -91.667 20.5 -135
s33.834 -82.166 60.501 -116.499s59.5 -61.333 98.5 -81s83.167 -29.5 132.5 -29.5c79.333 0 145.666 25.667 198.999 77z" />
    <glyph glyph-name="R" unicode="R" horiz-adv-x="519" 
d="M146 312l271.999 -297.998c12 -13.333 25.333 -20 40 -20c11.333 0 20.833 3.33301 28.5 10s11.5 14.667 11.5 24c0 14.667 -5.66699 28 -17 40l-227 249l38 1c28 1.33301 53.5 5.83301 76.5 13.5s43.333 19.667 61 36s31.5 37.166 41.5 62.499s15 55.333 15 90
c0 28 -6 54 -18 78s-28.167 44.5 -48.5 61.5s-43.666 30 -69.999 39s-53.5 13.5 -81.5 13.5h-163c-16 0 -27.833 -4.33301 -35.5 -13s-11.5 -20.334 -11.5 -35.001v-623c0 -14.667 4 -26.167 12 -34.5s18.667 -12.5 32 -12.5s24 4.16699 32 12.5s12 19.833 12 34.5v271z
M145.999 636.002h118c40 0 72.333 -11.833 97 -35.5s37 -52.5 37 -86.5c0 -46 -10.5 -79.333 -31.5 -100s-54.5 -31 -100.5 -31h-120v253z" />
    <glyph glyph-name="S" unicode="S" horiz-adv-x="481" 
d="M238 718c-32 0 -61.001 -5.33398 -87.001 -16.001s-48.167 -25.167 -66.5 -43.5s-32.333 -38.166 -42 -59.499s-14.5 -42.666 -14.5 -63.999c0 -30 5.16699 -55.5 15.5 -76.5s24.5 -38.5 42.5 -52.5s36.833 -25.167 56.5 -33.5s44.5 -17.833 74.5 -28.5
c25.333 -8.66699 45.833 -16.167 61.5 -22.5s30.334 -14.333 44.001 -24s24.334 -21.167 32.001 -34.5s11.5 -29.333 11.5 -48c0 -40.667 -13.333 -75 -40 -103s-62 -42 -106 -42c-24.667 0 -46.167 3.5 -64.5 10.5s-37.5 16.167 -57.5 27.5
c-19.333 11.333 -32.666 17 -39.999 17c-12 0 -21.167 -4.33301 -27.5 -13s-9.5 -19.334 -9.5 -32.001c0 -12 5.66699 -23.333 17 -34s26.666 -19.834 45.999 -27.501s40.666 -13.667 63.999 -18s47 -6.5 71 -6.5c38 0 72 6 102 18s55.333 28.5 76 49.5s36.334 45 47.001 72
s16 55.5 16 85.5c0 31.333 -5.5 58.166 -16.5 80.499s-25.667 40.833 -44 55.5s-37.5 26.5 -57.5 35.5s-46 19.167 -78 30.5c-23.333 8 -42.666 15.167 -57.999 21.5s-29.5 14 -42.5 23s-23.167 19.667 -30.5 32s-11 26.833 -11 43.5c0 30 10.667 54.333 32 73
s48.333 28 81 28c23.333 0 42.166 -2.66699 56.499 -8s28.5 -12.666 42.5 -21.999c17.333 -10.667 31 -16 41 -16c10.667 0 19.667 3.83301 27 11.5s11 16.834 11 27.501c0 11.333 -4.83301 22 -14.5 32s-22.834 18.833 -39.501 26.5s-35.5 13.667 -56.5 18
s-42.5 6.5 -64.5 6.5z" />
    <glyph glyph-name="T" unicode="T" horiz-adv-x="444" 
d="M178 41c0 -14.667 4 -26.167 12 -34.5s18.667 -12.5 32 -12.5s24 4.16699 32 12.5s12 19.833 12 34.5v589h133c13.333 0 23.833 3.5 31.5 10.5s11.5 17.167 11.5 30.5s-3.83301 23.5 -11.5 30.5s-18.167 10.5 -31.5 10.5h-354c-13.333 0 -23.833 -3.5 -31.5 -10.5
s-11.5 -17.167 -11.5 -30.5s3.83301 -23.5 11.5 -30.5s18.167 -10.5 31.5 -10.5h133v-589z" />
    <glyph glyph-name="U" unicode="U" horiz-adv-x="668" 
d="M58 282c0 -56.667 8.16699 -104.167 24.5 -142.5s38 -68 65 -89s56.333 -35.667 88 -44s64.5 -12.5 98.5 -12.5s66.833 4.16699 98.5 12.5s61 23 88 44s48.667 50.667 65 89s24.5 85.833 24.5 142.5v389c0 14.667 -4 26.167 -12 34.5s-18.667 12.5 -32 12.5
s-24 -4.16699 -32 -12.5s-12 -19.833 -12 -34.5v-423c0 -55.333 -17.167 -98.833 -51.5 -130.5s-79.833 -47.5 -136.5 -47.5s-102.167 15.833 -136.5 47.5s-51.5 75.167 -51.5 130.5v423c0 14.667 -4 26.167 -12 34.5s-18.667 12.5 -32 12.5s-24 -4.16699 -32 -12.5
s-12 -19.833 -12 -34.5v-389z" />
    <glyph glyph-name="V" unicode="V" horiz-adv-x="556" 
d="M279 142l-1.99805 -0.00195312l-180 519l-1 3c-6.66699 18.667 -13.334 32.334 -20.001 41.001s-17.667 13 -33 13c-11.333 0 -20.666 -3.66699 -27.999 -11s-11 -15.666 -11 -24.999c0 -10.667 2 -22 6 -34l217 -606c6 -16.667 12.5 -28.834 19.5 -36.501
s17.5 -11.5 31.5 -11.5s24.667 3.83301 32 11.5s13.666 19.834 18.999 36.501l217 606c4 12 6 23.333 6 34c0 9.33301 -3.5 17.666 -10.5 24.999s-16.5 11 -28.5 11c-15.333 0 -26.333 -4.16699 -33 -12.5s-13.334 -22.166 -20.001 -41.499l-1 -3z" />
    <glyph glyph-name="W" unicode="W" horiz-adv-x="834" 
d="M208 108h-1.99805l-93 569c-4.66699 27.333 -20.667 41 -48 41c-12 0 -21.667 -3.83301 -29 -11.5s-11 -17.167 -11 -28.5c0 -12.667 1.66699 -27.667 5 -45l108 -581c3.33301 -18 9.66602 -32.167 18.999 -42.5s24 -15.5 44 -15.5c18.667 0 33.167 3.83301 43.5 11.5
s18.833 23.167 25.5 46.5l146 522h2l146 -522c6.66699 -23.333 15.167 -38.833 25.5 -46.5s24.833 -11.5 43.5 -11.5c20 0 34.667 5.16699 44 15.5s15.666 24.5 18.999 42.5l108 581c3.33301 17.333 5 32.333 5 45c0 11.333 -3.66699 20.833 -11 28.5s-17 11.5 -29 11.5
c-27.333 0 -43.333 -13.667 -48 -41l-93 -569h-2l-164 575c-6.66699 23.333 -21.667 35 -45 35s-38.333 -11.667 -45 -35z" />
    <glyph glyph-name="X" unicode="X" horiz-adv-x="594" 
d="M297 313l204.004 -291c8 -11.333 15.333 -18.833 22 -22.5s14 -5.5 22 -5.5c10.667 0 20 3.66699 28 11s12 16 12 26c0 6 -1.33301 12 -4 18s-6 12 -10 18l-223 315l186 263c9.33301 13.333 14 25.333 14 36s-3.83301 19.5 -11.5 26.5s-16.834 10.5 -27.501 10.5
c-8.66699 0 -16.334 -1.83301 -23.001 -5.5s-14 -11.167 -22 -22.5l-167 -244l-167 244c-8 11.333 -15.333 18.833 -22 22.5s-14.334 5.5 -23.001 5.5c-10.667 0 -19.834 -3.5 -27.501 -10.5s-11.5 -15.833 -11.5 -26.5s4.66699 -22.667 14 -36l186 -263l-223 -315
c-4 -6 -7.33301 -12 -10 -18s-4 -12 -4 -18c0 -10 4.16699 -18.667 12.5 -26s17.5 -11 27.5 -11c8 0 15.333 1.83301 22 5.5s14 11.167 22 22.5z" />
    <glyph glyph-name="Y" unicode="Y" horiz-adv-x="500" 
d="M206 41c0 -14.667 4.00098 -26.167 12.001 -34.5s18.667 -12.5 32 -12.5s24 4.16699 32 12.5s12 19.833 12 34.5v293l191 311c9.33301 14.667 14 27 14 37c0 10.667 -3.83301 19.334 -11.5 26.001s-17.167 10 -28.5 10c-18 0 -32.667 -9.33301 -44 -28l-165 -269
l-165 269c-10.667 18.667 -25.334 28 -44.001 28c-11.333 0 -20.833 -3.33301 -28.5 -10s-11.5 -15.334 -11.5 -26.001c0 -10 4.66699 -22.333 14 -37l191 -311v-293z" />
    <glyph glyph-name="Z" unicode="Z" horiz-adv-x="556" 
d="M41 87c-6.66699 -10 -11.167 -18.3311 -13.5 -24.998s-3.5 -14 -3.5 -22c0 -26.667 17.333 -40 52 -40h413c28.667 0 43 12.667 43 38s-14.333 38 -43 38h-359l367 549c9.33301 13.333 15.333 23.666 18 30.999s4 15.666 4 24.999c0 8.66699 -4.16699 16 -12.5 22
s-19.5 9 -33.5 9h-389c-28.667 0 -43 -12.667 -43 -38s14.333 -38 43 -38h323z" />
    <glyph glyph-name="bracketleft" unicode="[" horiz-adv-x="241" 
d="M158 642l34 0.00195312c10.667 0 19.667 3.66699 27 11s11 16.333 11 27s-3.66699 19.667 -11 27s-16.333 11 -27 11h-69c-16 0 -27.833 -4.33301 -35.5 -13s-11.5 -20.334 -11.5 -35.001v-704c0 -14.667 3.83301 -26.334 11.5 -35.001s19.5 -13 35.5 -13h69
c10.667 0 19.667 3.66699 27 11s11 16.333 11 27s-3.66699 19.667 -11 27s-16.333 11 -27 11h-34v648z" />
    <glyph glyph-name="backslash" unicode="\" horiz-adv-x="407" 
d="M307 24c4 -9.33301 9.16699 -16.666 15.5 -21.999s14.833 -8 25.5 -8c11.333 0 20.666 3.33301 27.999 10s11 15.667 11 27c0 8.66699 -4.66699 23.334 -14 44.001l-273 613c-4 9.33301 -9.16699 16.666 -15.5 21.999s-14.833 8 -25.5 8
c-11.333 0 -20.666 -3.33301 -27.999 -10s-11 -15.667 -11 -27c0 -8.66699 4.66699 -23.334 14 -44.001z" />
    <glyph glyph-name="bracketright" unicode="]" horiz-adv-x="241" 
d="M83 -6l-34 -0.00195312c-10.667 0 -19.667 -3.66699 -27 -11s-11 -16.333 -11 -27s3.66699 -19.667 11 -27s16.333 -11 27 -11h69c16 0 27.833 4.33301 35.5 13s11.5 20.334 11.5 35.001v704c0 14.667 -3.83301 26.334 -11.5 35.001s-19.5 13 -35.5 13h-69
c-10.667 0 -19.667 -3.66699 -27 -11s-11 -16.333 -11 -27s3.66699 -19.667 11 -27s16.333 -11 27 -11h34v-648z" />
    <glyph glyph-name="asciicircum" unicode="^" horiz-adv-x="600" 
d="M300 630l157 -291l2 -4c10 -18 18 -30.167 24 -36.5s14 -9.5 24 -9.5c10.667 0 19.5 3.16699 26.5 9.5s10.5 14.166 10.5 23.499c0 8 -4.66699 20.667 -14 38c-1.33301 2 -2.33301 3.66699 -3 5l-175 312c-7.33301 13.333 -14.833 23.5 -22.5 30.5s-17.5 10.5 -29.5 10.5
s-21.667 -3.5 -29 -10.5s-15 -17.167 -23 -30.5l-175 -312c-0.666992 -1.33301 -1.66699 -3 -3 -5c-9.33301 -17.333 -14 -30 -14 -38c0 -9.33301 3.5 -17.166 10.5 -23.499s15.833 -9.5 26.5 -9.5c10 0 18 3.16699 24 9.5s14 18.5 24 36.5l2 4z" />
    <glyph glyph-name="underscore" unicode="_" horiz-adv-x="500" 
d="M500 -125c19.333 0 29 8.33301 29 25s-9.66699 25 -29 25h-500c-19.333 0 -29 -8.33301 -29 -25s9.66699 -25 29 -25h500z" />
    <glyph glyph-name="grave" unicode="`" 
d="M141 616c8 -3.33301 14.5 -5.66602 19.5 -6.99902s9.83301 -2 14.5 -2c12 0 21.333 4.66699 28 14s10 18.666 10 27.999c0 6.66699 -2.5 13.167 -7.5 19.5s-14.167 12.166 -27.5 17.499l-115 47c-8 3.33301 -14.5 5.66602 -19.5 6.99902s-9.83301 2 -14.5 2
c-12 0 -21.333 -4.66699 -28 -14s-10 -18.666 -10 -27.999c0 -6.66699 2.66699 -13.167 8 -19.5s14.333 -12.166 27 -17.499z" />
    <glyph glyph-name="a" unicode="a" horiz-adv-x="556" 
d="M498 495c0 14 -4.33203 24.6709 -12.999 32.0039s-18 11 -28 11c-10.667 0 -20.167 -3.66699 -28.5 -11s-12.5 -18 -12.5 -32v-28h-2c-21.333 24 -43.5 41.833 -66.5 53.5s-49.167 17.5 -78.5 17.5c-36.667 0 -69.5 -7.33301 -98.5 -22s-53.667 -34.834 -74 -60.501
s-35.666 -54.834 -45.999 -87.501s-15.5 -66.667 -15.5 -102s5.16699 -69.333 15.5 -102s25.666 -61.834 45.999 -87.501s45 -45.834 74 -60.501s61.833 -22 98.5 -22c59.333 0 107.666 26.667 144.999 80h2v-37c0 -14 4.16699 -24.667 12.5 -32s17.833 -11 28.5 -11
c10 0 19.333 3.66699 28 11s13 18 13 32v458zM123.001 266.004c0 24 2.66699 47.333 8 70s13.833 43.667 25.5 63s26.834 34.666 45.501 45.999s41 17 67 17s48.333 -5.66699 67 -17s33.834 -26.666 45.501 -45.999s20.167 -40.333 25.5 -63s8 -46 8 -70
s-2.66699 -47.333 -8 -70s-13.833 -43.667 -25.5 -63s-26.834 -34.666 -45.501 -45.999s-41 -17 -67 -17s-48.333 5.66699 -67 17s-33.834 26.666 -45.501 45.999s-20.167 40.333 -25.5 63s-8 46 -8 70z" />
    <glyph glyph-name="b" unicode="b" horiz-adv-x="556" 
d="M141 266c0 24 2.66699 47.333 8 70s13.833 43.667 25.5 63s26.834 34.666 45.501 45.999s41 17 67 17s48.333 -5.66699 67 -17s33.834 -26.666 45.501 -45.999s20.167 -40.333 25.5 -63s8 -46 8 -70s-2.66699 -47.333 -8 -70s-13.833 -43.667 -25.5 -63
s-26.834 -34.666 -45.501 -45.999s-41 -17 -67 -17s-48.333 5.66699 -67 17s-33.834 26.666 -45.501 45.999s-20.167 40.333 -25.5 63s-8 46 -8 70zM62 41c0 -14.667 3.99805 -26.1719 11.998 -34.5049s18.667 -12.5 32 -12.5s24 4.16699 32 12.5s12 19.833 12 34.5v26h2
c25.333 -48.667 72.666 -73 141.999 -73c35.333 0 67 7.33301 95 22s52 34.834 72 60.501s35 54.834 45 87.501s15 66.667 15 102s-5.16699 69.333 -15.5 102s-25.166 61.834 -44.499 87.501s-43.166 45.834 -71.499 60.501s-60.166 22 -95.499 22
c-32 0 -60.333 -7.16699 -85 -21.5s-43.667 -31.166 -57 -50.499h-2v259c0 14.667 -4 26.167 -12 34.5s-18.667 12.5 -32 12.5s-24 -4.16699 -32 -12.5s-12 -19.833 -12 -34.5v-684z" />
    <glyph glyph-name="c" unicode="c" horiz-adv-x="444" 
d="M35 266c0 -36 5 -70.3311 15 -102.998s25 -61.667 45 -87s45.167 -45.333 75.5 -60s65.166 -22 104.499 -22c42.667 0 76.667 7 102 21s38 30 38 48c0 24.667 -11.333 37 -34 37c-7.33301 0 -18 -3.66699 -32 -11c-11.333 -6 -22.5 -10.667 -33.5 -14s-24.5 -5 -40.5 -5
c-26 0 -48.667 5.66699 -68 17s-35.333 26.666 -48 45.999s-21.834 40.5 -27.501 63.5s-8.5 46.167 -8.5 69.5s2.83301 46.5 8.5 69.5s14.834 44.167 27.501 63.5s28.667 34.666 48 45.999s42 17 68 17c15.333 0 27.833 -1.5 37.5 -4.5s20.167 -7.16699 31.5 -12.5
c15.333 -7.33301 28 -11 38 -11s18.5 3.83301 25.5 11.5s10.5 16.167 10.5 25.5c0 18.667 -13 34.5 -39 47.5s-60.667 19.5 -104 19.5c-39.333 0 -74.166 -7.33301 -104.499 -22s-55.5 -34.667 -75.5 -60s-35 -54.333 -45 -87s-15 -67 -15 -103z" />
    <glyph glyph-name="d" unicode="d" horiz-adv-x="556" 
d="M415 266c0 -24 -2.66699 -47.333 -8 -70s-13.833 -43.667 -25.5 -63s-26.834 -34.666 -45.501 -45.999s-41 -17 -67 -17s-48.333 5.66699 -67 17s-33.834 26.666 -45.501 45.999s-20.167 40.333 -25.5 63s-8 46 -8 70s2.66699 47.333 8 70s13.833 43.667 25.5 63
s26.834 34.666 45.501 45.999s41 17 67 17s48.333 -5.66699 67 -17s33.834 -26.666 45.501 -45.999s20.167 -40.333 25.5 -63s8 -46 8 -70zM406 41c0 -14.667 4.00391 -26.1621 12.0039 -34.4951s18.667 -12.5 32 -12.5s24 4.16699 32 12.5s12 19.833 12 34.5v684
c0 14.667 -4 26.167 -12 34.5s-18.667 12.5 -32 12.5s-24 -4.16699 -32 -12.5s-12 -19.833 -12 -34.5v-259h-2c-13.333 19.333 -32.333 36.166 -57 50.499s-53 21.5 -85 21.5c-35.333 0 -67 -7.33301 -95 -22s-51.833 -34.834 -71.5 -60.501s-34.667 -54.834 -45 -87.501
s-15.5 -66.667 -15.5 -102s5.16699 -69.333 15.5 -102s25.166 -61.834 44.499 -87.501s43.166 -45.834 71.499 -60.501s60.166 -22 95.499 -22c69.333 0 116.666 24.333 141.999 73h2v-26z" />
    <glyph glyph-name="e" unicode="e" horiz-adv-x="520" 
d="M445 232c18.667 0 31.5 3.83008 38.5 11.4971s10.5 19.5 10.5 35.5c0 32 -5.16699 63.5 -15.5 94.5s-25.5 59 -45.5 84s-44.167 44.667 -72.5 59s-60.166 21.5 -95.499 21.5c-36 0 -68.833 -7.16699 -98.5 -21.5s-55 -34.166 -76 -59.499s-37 -54.5 -48 -87.5
s-16.5 -67.5 -16.5 -103.5s4.83301 -70.333 14.5 -103s24.5 -61.667 44.5 -87s45.5 -45.333 76.5 -60s67.167 -22 108.5 -22c25.333 0 50.666 3.5 75.999 10.5s48.333 16.167 69 27.5s37.167 23.333 49.5 36s18.5 24.334 18.5 35.001c0 12 -3.16699 21.5 -9.5 28.5
s-13.833 10.5 -22.5 10.5c-7.33301 0 -19.666 -6.66699 -36.999 -20c-20.667 -16 -41.334 -28.667 -62.001 -38s-47.667 -14 -81 -14c-48 0 -86.167 15.333 -114.5 46s-42.5 69.334 -42.5 116.001h331zM114 297.997c0.666992 21.333 4 41.666 10 60.999
s14.833 36.666 26.5 51.999s27 27.666 46 36.999s41.833 14 68.5 14c23.333 0 43.833 -4.66699 61.5 -14s32.5 -22.166 44.5 -38.499s20.833 -34.166 26.5 -53.499s8.5 -38.666 8.5 -57.999h-292z" />
    <glyph glyph-name="f" unicode="f" horiz-adv-x="259" 
d="M174 456h54.999c29.333 0 44 12.667 44 38s-14.667 38 -44 38h-55v129c0 11.333 2.83301 20 8.5 26s14.834 9 27.501 9h22c32 0 48 12.667 48 38c0 11.333 -5.16699 20.5 -15.5 27.5s-21.833 10.5 -34.5 10.5h-27c-34 0 -62 -9.83301 -84 -29.5s-33 -48.167 -33 -85.5
v-125h-36c-29.333 0 -44 -12.667 -44 -38s14.667 -38 44 -38h36v-415c0 -14.667 4 -26.167 12 -34.5s18.667 -12.5 32 -12.5s24 4.16699 32 12.5s12 19.833 12 34.5v415z" />
    <glyph glyph-name="g" unicode="g" horiz-adv-x="556" 
d="M494 495c0 14 -4.33301 24.6738 -13 32.0068s-18 11 -28 11c-13.333 0 -24.5 -3.5 -33.5 -10.5s-13.5 -17.833 -13.5 -32.5v-24h-2c-12.667 17.333 -31.667 32.833 -57 46.5s-51.333 20.5 -78 20.5c-36.667 0 -69.5 -7.33301 -98.5 -22s-53.667 -34.834 -74 -60.501
s-35.666 -54.834 -45.999 -87.501s-15.5 -66.667 -15.5 -102s5.16699 -69.333 15.5 -102s25.666 -61.834 45.999 -87.501s45 -45.834 74 -60.501s61.833 -22 98.5 -22c29.333 0 55.666 6.83301 78.999 20.5s42 32.167 56 55.5h2v-46c0 -20.667 -2.5 -40.5 -7.5 -59.5
s-13 -36.5 -24 -52.5s-26 -28.667 -45 -38s-41.833 -14 -68.5 -14c-25.333 0 -47.166 3.66699 -65.499 11s-37.833 17.333 -58.5 30c-22.667 14 -39.334 21 -50.001 21c-12.667 0 -22 -4.16699 -28 -12.5s-9 -17.833 -9 -28.5s6.16699 -21.834 18.5 -33.501
s28.833 -22.334 49.5 -32.001s43 -17.334 67 -23.001s47 -8.5 69 -8.5c72.667 0 130.834 22.833 174.501 68.5s65.5 107.5 65.5 185.5v457zM123 266.007c0 24 2.66699 47.333 8 70s13.833 43.667 25.5 63s26.834 34.666 45.501 45.999s41 17 67 17s48.333 -5.66699 67 -17
s33.834 -26.666 45.501 -45.999s20.167 -40.333 25.5 -63s8 -46 8 -70s-2.66699 -47.333 -8 -70s-13.833 -43.667 -25.5 -63s-26.834 -34.666 -45.501 -45.999s-41 -17 -67 -17s-48.333 5.66699 -67 17s-33.834 26.666 -45.501 45.999s-20.167 40.333 -25.5 63s-8 46 -8 70z
" />
    <glyph glyph-name="h" unicode="h" horiz-adv-x="538" 
d="M392 41c0 -14.667 3.99805 -26.167 11.998 -34.5s18.667 -12.5 32 -12.5s24 4.16699 32 12.5s12 19.833 12 34.5v295c0 36 -5.5 67 -16.5 93s-25.667 47 -44 63s-38.166 27.667 -59.499 35s-43 11 -65 11c-28 0 -54.833 -5.66699 -80.5 -17s-47.834 -29 -66.501 -53l-2 2
v255c0 14.667 -4 26.167 -12 34.5s-18.667 12.5 -32 12.5s-24 -4.16699 -32 -12.5s-12 -19.833 -12 -34.5v-684c0 -14.667 4 -26.167 12 -34.5s18.667 -12.5 32 -12.5s24 4.16699 32 12.5s12 19.833 12 34.5v290c0 43.333 12.333 76 37 98s53.334 33 86.001 33
s61.334 -11 86.001 -33s37 -54.667 37 -98v-290z" />
    <glyph glyph-name="i" unicode="i" 
d="M146 491c0 14.667 -4 26.167 -12 34.5s-18.667 12.5 -32 12.5s-24 -4.16699 -32 -12.5s-12 -19.833 -12 -34.5v-450c0 -14.667 4 -26.167 12 -34.5s18.667 -12.5 32 -12.5s24 4.16699 32 12.5s12 19.833 12 34.5v450zM48 664c0 -14.667 5.33301 -27.334 16 -38.001
s23.334 -16 38.001 -16s27.334 5.33301 38.001 16s16 23.334 16 38.001s-5.33301 27.334 -16 38.001s-23.334 16 -38.001 16s-27.334 -5.33301 -38.001 -16s-16 -23.334 -16 -38.001z" />
    <glyph glyph-name="j" unicode="j" 
d="M146 491c0 14.667 -4 26.167 -12 34.5s-18.667 12.5 -32 12.5s-24 -4.16699 -32 -12.5s-12 -19.833 -12 -34.5v-660c0 -14.667 4 -26.167 12 -34.5s18.667 -12.5 32 -12.5s24 4.16699 32 12.5s12 19.833 12 34.5v660zM48 664c0 -14.667 5.33301 -27.334 16 -38.001
s23.334 -16 38.001 -16s27.334 5.33301 38.001 16s16 23.334 16 38.001s-5.33301 27.334 -16 38.001s-23.334 16 -38.001 16s-27.334 -5.33301 -38.001 -16s-16 -23.334 -16 -38.001z" />
    <glyph glyph-name="k" unicode="k" horiz-adv-x="463" 
d="M58 41c0 -14.667 4.00098 -26.166 12.001 -34.499s18.667 -12.5 32 -12.5s24 4.16699 32 12.5s12 19.833 12 34.5v212l222 -232c11.333 -10.667 20.166 -17.834 26.499 -21.501s14.5 -5.5 24.5 -5.5s18.667 3.33301 26 10s11 15 11 25c0 8.66699 -1.5 16.334 -4.5 23.001
s-8.5 14 -16.5 22l-232 229l200 158c14.667 11.333 22 24 22 38c0 11.333 -3.33301 20.666 -10 27.999s-15.667 11 -27 11c-13.333 0 -30 -9 -50 -27l-192 -161v375c0 14.667 -4 26.167 -12 34.5s-18.667 12.5 -32 12.5s-24 -4.16699 -32 -12.5s-12 -19.833 -12 -34.5v-684z
" />
    <glyph glyph-name="l" unicode="l" 
d="M146 725c0 14.667 -4 26.167 -12 34.5s-18.667 12.5 -32 12.5s-24 -4.16699 -32 -12.5s-12 -19.833 -12 -34.5v-684c0 -14.667 4 -26.167 12 -34.5s18.667 -12.5 32 -12.5s24 4.16699 32 12.5s12 19.833 12 34.5v684z" />
    <glyph glyph-name="m" unicode="m" horiz-adv-x="834" 
d="M373 41c0 -14.667 4.00195 -26.167 12.002 -34.5s18.667 -12.5 32 -12.5s24 4.16699 32 12.5s12 19.833 12 34.5v298c0 38 10 68 30 90s47.667 33 83 33c36 0 64 -11 84 -33s30 -52 30 -90v-298c0 -14.667 4 -26.167 12 -34.5s18.667 -12.5 32 -12.5s24 4.16699 32 12.5
s12 19.833 12 34.5v295c0 36 -5.5 67 -16.5 93s-25.667 47 -44 63s-38.166 27.667 -59.499 35s-43 11 -65 11c-36.667 0 -67.834 -7.5 -93.501 -22.5s-48.834 -37.5 -69.501 -67.5c-18.667 32 -40.5 55 -65.5 69s-51.833 21 -80.5 21c-35.333 0 -62.833 -6 -82.5 -18
s-36.834 -27.667 -51.501 -47l-2 2v16c0 14.667 -4 26.167 -12 34.5s-18.667 12.5 -32 12.5s-24 -4.16699 -32 -12.5s-12 -19.833 -12 -34.5v-450c0 -14.667 4 -26.167 12 -34.5s18.667 -12.5 32 -12.5s24 4.16699 32 12.5s12 19.833 12 34.5v298c0 38 10 68 30 90
s47.667 33 83 33c36 0 64 -11 84 -33s30 -52 30 -90v-298z" />
    <glyph glyph-name="n" unicode="n" horiz-adv-x="538" 
d="M58 41c0 -14.667 3.99805 -26.167 11.998 -34.5s18.667 -12.5 32 -12.5s24 4.16699 32 12.5s12 19.833 12 34.5v290c0 43.333 12.333 76 37 98s53.334 33 86.001 33s61.334 -11 86.001 -33s37 -54.667 37 -98v-290c0 -14.667 4 -26.167 12 -34.5s18.667 -12.5 32 -12.5
s24 4.16699 32 12.5s12 19.833 12 34.5v295c0 36 -5.5 67 -16.5 93s-25.667 47 -44 63s-38.166 27.667 -59.499 35s-43 11 -65 11c-28 0 -54.833 -5.66699 -80.5 -17s-47.834 -29 -66.501 -53l-2 2v21c0 14.667 -4 26.167 -12 34.5s-18.667 12.5 -32 12.5
s-24 -4.16699 -32 -12.5s-12 -19.833 -12 -34.5v-450z" />
    <glyph glyph-name="o" unicode="o" horiz-adv-x="538" 
d="M35 266c0 -35.333 5.16699 -69.333 15.5 -102s25.666 -61.834 45.999 -87.501s45 -45.834 74 -60.501s61.833 -22 98.5 -22s69.5 7.33301 98.5 22s53.667 34.834 74 60.501s35.666 54.834 45.999 87.501s15.5 66.667 15.5 102s-5.16699 69.333 -15.5 102
s-25.666 61.834 -45.999 87.501s-45 45.834 -74 60.501s-61.833 22 -98.5 22s-69.5 -7.33301 -98.5 -22s-53.667 -34.834 -74 -60.501s-35.666 -54.834 -45.999 -87.501s-15.5 -66.667 -15.5 -102zM123 266c0 24 2.66699 47.333 8 70s13.833 43.667 25.5 63
s26.834 34.666 45.501 45.999s41 17 67 17s48.333 -5.66699 67 -17s33.834 -26.666 45.501 -45.999s20.167 -40.333 25.5 -63s8 -46 8 -70s-2.66699 -47.333 -8 -70s-13.833 -43.667 -25.5 -63s-26.834 -34.666 -45.501 -45.999s-41 -17 -67 -17s-48.333 5.66699 -67 17
s-33.834 26.666 -45.501 45.999s-20.167 40.333 -25.5 63s-8 46 -8 70z" />
    <glyph glyph-name="p" unicode="p" horiz-adv-x="556" 
d="M141 266c0 24 2.66699 47.333 8 70s13.833 43.667 25.5 63s26.834 34.666 45.501 45.999s41 17 67 17s48.333 -5.66699 67 -17s33.834 -26.666 45.501 -45.999s20.167 -40.333 25.5 -63s8 -46 8 -70s-2.66699 -47.333 -8 -70s-13.833 -43.667 -25.5 -63
s-26.834 -34.666 -45.501 -45.999s-41 -17 -67 -17s-48.333 5.66699 -67 17s-33.834 26.666 -45.501 45.999s-20.167 40.333 -25.5 63s-8 46 -8 70zM62 -169c0 -14.667 3.99609 -26.1719 11.9961 -34.5049s18.667 -12.5 32 -12.5s24 4.16699 32 12.5s12 19.833 12 34.5v235
h2c13.333 -19.333 32.333 -36.166 57 -50.499s53 -21.5 85 -21.5c35.333 0 67 7.33301 95 22s52 34.834 72 60.501s35 54.834 45 87.501s15 66.667 15 102s-5.16699 69.333 -15.5 102s-25.166 61.834 -44.499 87.501s-43.166 45.834 -71.499 60.501s-60.166 22 -95.499 22
c-69.333 0 -116.666 -24.333 -141.999 -73h-2v26c0 14.667 -4 26.167 -12 34.5s-18.667 12.5 -32 12.5s-24 -4.16699 -32 -12.5s-12 -19.833 -12 -34.5v-660z" />
    <glyph glyph-name="q" unicode="q" horiz-adv-x="556" 
d="M415 266c0 -24 -2.66699 -47.333 -8 -70s-13.833 -43.667 -25.5 -63s-26.834 -34.666 -45.501 -45.999s-41 -17 -67 -17s-48.333 5.66699 -67 17s-33.834 26.666 -45.501 45.999s-20.167 40.333 -25.5 63s-8 46 -8 70s2.66699 47.333 8 70s13.833 43.667 25.5 63
s26.834 34.666 45.501 45.999s41 17 67 17s48.333 -5.66699 67 -17s33.834 -26.666 45.501 -45.999s20.167 -40.333 25.5 -63s8 -46 8 -70zM35 266c0 -35.333 5.16895 -69.3281 15.502 -101.995s25.166 -61.834 44.499 -87.501s43.166 -45.834 71.499 -60.501
s60.166 -22 95.499 -22c32 0 60.333 7.16699 85 21.5s43.667 31.166 57 50.499h2v-235c0 -14.667 4 -26.167 12 -34.5s18.667 -12.5 32 -12.5s24 4.16699 32 12.5s12 19.833 12 34.5v660c0 14.667 -4 26.167 -12 34.5s-18.667 12.5 -32 12.5s-24 -4.16699 -32 -12.5
s-12 -19.833 -12 -34.5v-26h-2c-25.333 48.667 -72.666 73 -141.999 73c-35.333 0 -67 -7.33301 -95 -22s-51.833 -34.834 -71.5 -60.501s-34.667 -54.834 -45 -87.501s-15.5 -66.667 -15.5 -102z" />
    <glyph glyph-name="r" unicode="r" horiz-adv-x="315" 
d="M58 41c0 -14.667 4 -26.166 12 -34.499s18.667 -12.5 32 -12.5s24 4.16699 32 12.5s12 19.833 12 34.5v253c0 24.667 3.5 46.167 10.5 64.5s16 33.5 27 45.5s23.333 21.167 37 27.5s27.5 10.833 41.5 13.5c36.667 6.66699 55 22.667 55 48
c0 13.333 -4.33301 24.166 -13 32.499s-20.667 12.5 -36 12.5c-23.333 0 -46.333 -9.5 -69 -28.5s-39.667 -40.167 -51 -63.5h-2v45c0 14.667 -4 26.167 -12 34.5s-18.667 12.5 -32 12.5s-24 -4.16699 -32 -12.5s-12 -19.833 -12 -34.5v-450z" />
    <glyph glyph-name="s" unicode="s" horiz-adv-x="444" 
d="M46 388c0 -19.333 4.50293 -36.499 13.5029 -51.499s21 -28 36 -39s30.833 -20.5 47.5 -28.5s38 -17.333 64 -28c41.333 -17.333 72.166 -32.833 92.499 -46.5s30.5 -31.167 30.5 -52.5c0 -18.667 -9.5 -35.334 -28.5 -50.001s-43.833 -22 -74.5 -22
c-25.333 0 -47 3.83301 -65 11.5s-36.333 18.167 -55 31.5c-21.333 14.667 -37 22 -47 22s-18.5 -3.83301 -25.5 -11.5s-10.5 -17.167 -10.5 -28.5s5.16699 -23 15.5 -35s24.666 -23 42.999 -33s39.666 -18 63.999 -24s50.166 -9 77.499 -9c53.333 0 99 14.167 137 42.5
s57 68.833 57 121.5c0 20.667 -4.83301 38.834 -14.5 54.501s-22.334 29.167 -38.001 40.5s-32.5 21.166 -50.5 29.499s-40 17.5 -66 27.5c-39.333 15.333 -68.333 28.833 -87 40.5s-28 26.5 -28 44.5c0 21.333 8.83301 37.833 26.5 49.5s39.834 17.5 66.501 17.5
c22 0 40 -3.16699 54 -9.5s28 -14.833 42 -25.5c9.33301 -6.66699 16.833 -11.5 22.5 -14.5s11.834 -4.5 18.501 -4.5c12.667 0 22.5 3.5 29.5 10.5s10.5 15.5 10.5 25.5c0 13.333 -5.5 25.833 -16.5 37.5s-25.5 21.667 -43.5 30s-37.5 14.833 -58.5 19.5s-40.5 7 -58.5 7
c-22.667 0 -44.667 -3.16699 -66 -9.5s-40.833 -16 -58.5 -29s-31.5 -29 -41.5 -48s-15 -40.167 -15 -63.5z" />
    <glyph glyph-name="t" unicode="t" horiz-adv-x="260" 
d="M86 532h-36c-29.333 0 -44 -12.667 -44 -38s14.667 -38 44 -38h36v-415c0 -14.667 4 -26.167 12 -34.5s18.667 -12.5 32 -12.5s24 4.16699 32 12.5s12 19.833 12 34.5v415h36c29.333 0 44 12.667 44 38s-14.667 38 -44 38h-36v115c0 14.667 -4 26.167 -12 34.5
s-18.667 12.5 -32 12.5s-24 -4.16699 -32 -12.5s-12 -19.833 -12 -34.5v-115z" />
    <glyph glyph-name="u" unicode="u" horiz-adv-x="538" 
d="M58 206c0 -37.333 5.66699 -69.666 17 -96.999s27 -49.5 47 -66.5s42.5 -29.333 67.5 -37s51.5 -11.5 79.5 -11.5s54.5 3.83301 79.5 11.5s47.5 20 67.5 37s35.667 39.167 47 66.5s17 59.666 17 96.999v285c0 14.667 -4 26.167 -12 34.5s-18.667 12.5 -32 12.5
s-24 -4.16699 -32 -12.5s-12 -19.833 -12 -34.5v-282c0 -92.667 -41 -139 -123 -139s-123 46.333 -123 139v282c0 14.667 -4 26.167 -12 34.5s-18.667 12.5 -32 12.5s-24 -4.16699 -32 -12.5s-12 -19.833 -12 -34.5v-285z" />
    <glyph glyph-name="v" unicode="v" horiz-adv-x="426" 
d="M167 32c4.66699 -14 10.1689 -23.833 16.502 -29.5s16.166 -8.5 29.499 -8.5s23.166 2.83301 29.499 8.5s11.833 15.5 16.5 29.5l153 429c6 16 9 28 9 36c0 12.667 -3.83301 22.667 -11.5 30s-17.167 11 -28.5 11c-13.333 0 -23.333 -2.83301 -30 -8.5
s-12 -14.167 -16 -25.5l-121 -368h-2l-121 368c-4 11.333 -9.33301 19.833 -16 25.5s-16.667 8.5 -30 8.5c-10.667 0 -20 -3.66699 -28 -11s-12 -17.333 -12 -30c0 -8 3 -20 9 -36z" />
    <glyph glyph-name="w" unicode="w" horiz-adv-x="742" 
d="M155 40c6 -16.667 12.833 -28.5 20.5 -35.5s17.834 -10.5 30.501 -10.5c12 0 22 3.5 30 10.5s14.667 18.833 20 35.5l114 359h2l114 -359c5.33301 -16.667 12 -28.5 20 -35.5s18 -10.5 30 -10.5c12.667 0 22.834 3.5 30.501 10.5s14.5 18.833 20.5 35.5l146 425
c4.66699 15.333 7 26.666 7 33.999c0 10 -3.5 19 -10.5 27s-17.5 12 -31.5 12c-10.667 0 -20.167 -3.16699 -28.5 -9.5s-15.166 -18.166 -20.499 -35.499l-113 -363h-2l-111 350c-6.66699 21.333 -13.334 36.333 -20.001 45s-17.334 13 -32.001 13
s-25.334 -4.33301 -32.001 -13s-13.334 -23.667 -20.001 -45l-111 -350h-2l-113 363c-5.33301 17.333 -12 29.166 -20 35.499s-17.667 9.5 -29 9.5c-13.333 0 -23.666 -4 -30.999 -12s-11 -17 -11 -27c0 -7.33301 2.33301 -18.666 7 -33.999z" />
    <glyph glyph-name="x" unicode="x" horiz-adv-x="464" 
d="M24 76c-12 -16 -17.998 -30 -17.998 -42c0 -11.333 3.83301 -20.833 11.5 -28.5s17.167 -11.5 28.5 -11.5c16.667 0 29.667 6.66699 39 20l147 204l147 -204c9.33301 -13.333 22.333 -20 39 -20c11.333 0 20.833 3.83301 28.5 11.5s11.5 17.167 11.5 28.5
c0 12 -6 26 -18 42l-157 206l138 181c10 12.667 15 24.334 15 35.001c0 11.333 -3.5 20.833 -10.5 28.5s-15.833 11.5 -26.5 11.5c-8.66699 0 -15.834 -1.66699 -21.501 -5s-11.167 -8.33301 -16.5 -15l-129 -172l-129 172c-5.33301 6.66699 -10.833 11.667 -16.5 15
s-12.834 5 -21.501 5c-10.667 0 -19.5 -3.83301 -26.5 -11.5s-10.5 -17.167 -10.5 -28.5c0 -10.667 5 -22.334 15 -35.001l138 -181z" />
    <glyph glyph-name="y" unicode="y" horiz-adv-x="444" 
d="M179 19l-56.001 -149c-5.33301 -14 -8.83301 -24.333 -10.5 -31s-2.5 -12.667 -2.5 -18c0 -10.667 4 -19.5 12 -26.5s17.333 -10.5 28 -10.5c20.667 0 35 11 43 33l222 635c4.66699 14.667 7.83398 25.167 9.50098 31.5s2.5 12.166 2.5 17.499c0 10.667 -4 19.5 -12 26.5
s-17.333 10.5 -28 10.5c-21.333 0 -35.333 -11 -42 -33l-120 -365h-2l-122 365c-3.33301 10 -8.83301 18 -16.5 24s-16.834 9 -27.501 9s-20 -3.5 -28 -10.5s-12 -15.833 -12 -26.5c0 -5.33301 0.833008 -11.166 2.5 -17.499s4.83398 -16.833 9.50098 -31.5z" />
    <glyph glyph-name="z" unicode="z" horiz-adv-x="444" 
d="M141 76l-3 2l257 378c12 17.333 18 32.333 18 45c0 8.66699 -3.33301 16 -10 22s-17.667 9 -33 9h-296c-29.333 0 -44 -12.667 -44 -38s14.667 -38 44 -38h218l-254 -380c-12 -17.333 -18 -32.333 -18 -45c0 -8.66699 3.33301 -16 10 -22s17.667 -9 33 -9h317
c29.333 0 44 12.667 44 38s-14.667 38 -44 38h-239z" />
    <glyph glyph-name="braceleft" unicode="{" horiz-adv-x="241" 
d="M76 26c0 -72 34 -108.002 102 -108.002h38c26.667 0 40 10 40 30s-13.333 30 -40 30h-14c-13.333 0 -24 4.33301 -32 13s-12 20.334 -12 35.001v158c0 26 -2.83301 47.5 -8.5 64.5s-13.167 30.333 -22.5 40s-19 16.5 -29 20.5s-20.333 6.66699 -31 8v2
c10.667 1.33301 21 4 31 8s19.667 10.833 29 20.5s16.833 23.167 22.5 40.5s8.5 38.666 8.5 63.999v158c0 14.667 4 26.334 12 35.001s18.667 13 32 13h14c26.667 0 40 10 40 30s-13.333 30 -40 30h-38c-68 0 -102 -36 -102 -108v-122c0 -43.333 -2.5 -74.833 -7.5 -94.5
s-18.167 -32.167 -39.5 -37.5c-16 -4 -27.333 -8.66699 -34 -14s-10 -13.333 -10 -24c0 -10 3.33301 -17.667 10 -23s18 -10.333 34 -15c21.333 -6 34.5 -18.667 39.5 -38s7.5 -50.666 7.5 -93.999v-122z" />
    <glyph glyph-name="bar" unicode="|" horiz-adv-x="222" 
d="M70 -250c0 -13.333 3.5 -23.833 10.5 -31.5s17.167 -11.5 30.5 -11.5s23.5 3.83301 30.5 11.5s10.5 18.167 10.5 31.5v1000c0 13.333 -3.5 23.833 -10.5 31.5s-17.167 11.5 -30.5 11.5s-23.5 -3.83301 -30.5 -11.5s-10.5 -18.167 -10.5 -31.5v-1000z" />
    <glyph glyph-name="braceright" unicode="}" horiz-adv-x="241" 
d="M165 610c0 72 -34 108.001 -102 108.001h-38c-26.667 0 -40 -10 -40 -30s13.333 -30 40 -30h14c13.333 0 24 -4.33301 32 -13s12 -20.334 12 -35.001v-158c0 -25.333 2.83301 -46.666 8.5 -63.999s13.167 -30.833 22.5 -40.5s19 -16.5 29 -20.5s20.333 -6.66699 31 -8v-2
c-10.667 -1.33301 -21 -4 -31 -8s-19.667 -10.833 -29 -20.5s-16.833 -23 -22.5 -40s-8.5 -38.5 -8.5 -64.5v-158c0 -14.667 -4 -26.334 -12 -35.001s-18.667 -13 -32 -13h-14c-26.667 0 -40 -10 -40 -30s13.333 -30 40 -30h38c68 0 102 36 102 108v122
c0 43.333 2.5 74.833 7.5 94.5s18.167 32.167 39.5 37.5c16 4 27.333 8.83301 34 14.5s10 13.5 10 23.5c0 10.667 -3.16699 18.5 -9.5 23.5s-17.833 9.83301 -34.5 14.5c-21.333 6.66699 -34.5 19.667 -39.5 39s-7.5 50.333 -7.5 93v122z" />
    <glyph glyph-name="asciitilde" unicode="~" horiz-adv-x="600" 
d="M64 210c0 -7.33301 3.33301 -13.834 10 -19.501s15 -8.83398 25 -9.50098c11.333 0 20.666 3 27.999 9s15.666 15 24.999 27c8 10.667 15.167 18.667 21.5 24s14.166 8 23.499 8c10.667 0 22.334 -2.5 35.001 -7.5s29 -12.5 49 -22.5l7 -4
c22.667 -10.667 42.834 -19 60.501 -25s36.834 -9 57.501 -9c14.667 0 29.834 3.33301 45.501 10s29.834 15.5 42.501 26.5s22.834 23.333 30.501 37s11.5 27.5 11.5 41.5c0 7.33301 -3.33301 13.833 -10 19.5s-15 8.83398 -25 9.50098c-11.333 0 -20.666 -3 -27.999 -9
s-15.666 -15 -24.999 -27c-8 -10.667 -15.167 -18.667 -21.5 -24s-14.166 -8 -23.499 -8c-10.667 0 -22.334 2.66699 -35.001 8s-29 13 -49 23l-7 3c-22.667 11.333 -42.834 19.833 -60.501 25.5s-36.834 8.5 -57.501 8.5c-14.667 0 -29.834 -3.16699 -45.501 -9.5
s-29.834 -15.166 -42.501 -26.499s-22.834 -23.833 -30.501 -37.5s-11.5 -27.5 -11.5 -41.5z" />
    <glyph glyph-name="exclamdown" unicode="&#xa1;" horiz-adv-x="296" 
d="M192 294c0 14.667 -4 26.167 -12 34.5s-18.667 12.5 -32 12.5s-24 -4.16699 -32 -12.5s-12 -19.833 -12 -34.5v-433c0 -14.667 4 -26.167 12 -34.5s18.667 -12.5 32 -12.5s24 4.16699 32 12.5s12 19.833 12 34.5v433zM199 487c0 14 -5 26 -15 36s-22 15 -36 15
s-26 -5 -36 -15s-15 -22 -15 -36s5 -26 15 -36s22 -15 36 -15s26 5 36 15s15 22 15 36z" />
    <glyph glyph-name="cent" unicode="&#xa2;" horiz-adv-x="444" 
d="M227 -60c0 -14 7 -21.001 21 -21.001s21 7 21 21v54c45.333 0 81 7 107 21s39 30 39 48c0 24.667 -11.333 37 -34 37c-7.33301 0 -17.666 -3.33301 -30.999 -10c-12.667 -6.66699 -24.667 -11.667 -36 -15s-26.333 -5 -45 -5v392c17.333 0 31.333 -1.5 42 -4.5
s22 -7.16699 34 -12.5c15.333 -7.33301 27.666 -11 36.999 -11c10 0 18.5 3.83301 25.5 11.5s10.5 16.167 10.5 25.5c0 18.667 -13.333 34.5 -40 47.5s-63 19.5 -109 19.5v54c0 14 -7 21 -21 21s-21 -7 -21 -21v-58c-62 -10.667 -109.5 -41.167 -142.5 -91.5
s-49.5 -109.166 -49.5 -176.499s16.5 -126 49.5 -176s80.5 -80.333 142.5 -91v-59zM227 78.999c-34.667 12 -60.667 35.667 -78 71s-26 74 -26 116s8.66699 80.667 26 116s43.333 59.333 78 72v-375z" />
    <glyph glyph-name="sterling" unicode="&#xa3;" horiz-adv-x="593" 
d="M242 398l-14.001 26.002c-13.333 23.333 -23.166 43 -29.499 59s-9.5 33.333 -9.5 52c0 31.333 12.833 56 38.5 74s55.834 27 90.501 27c22 0 40.667 -2.66699 56 -8s28 -12.333 38 -21s17.833 -17.5 23.5 -26.5s11.834 -20.5 18.501 -34.5
c8 -16.667 15.333 -28.834 22 -36.501s16 -11.5 28 -11.5c12.667 0 22.834 3.83301 30.501 11.5s11.5 18.167 11.5 31.5c0 19.333 -6.16699 39.5 -18.5 60.5s-29.5 40.333 -51.5 58s-46.833 31.834 -74.5 42.501s-55.834 16 -84.501 16c-28 0 -55 -4.33301 -81 -13
s-49.167 -20.834 -69.5 -36.501s-36.333 -34.5 -48 -56.5s-17.5 -45.667 -17.5 -71c0 -23.333 4.33301 -46 13 -68s20.667 -47 36 -75h-77c-13.333 0 -23.833 -3.5 -31.5 -10.5s-11.5 -17.167 -11.5 -30.5s3.83301 -23.5 11.5 -30.5s18.167 -10.5 31.5 -10.5h101
c2.66699 -10 4.5 -20.333 5.5 -31s1.5 -22 1.5 -34c0 -32.667 -6.83301 -60.334 -20.5 -83.001s-32.834 -46.667 -57.501 -72c-12.667 -13.333 -21.834 -23.833 -27.501 -31.5s-8.5 -15.167 -8.5 -22.5c0 -16 4.83301 -27 14.5 -33s22.5 -9 38.5 -9h400
c13.333 0 23.833 3.5 31.5 10.5s11.5 17.167 11.5 30.5s-3.83301 23.5 -11.5 30.5s-18.167 10.5 -31.5 10.5h-337c26 23.333 46.833 51 62.5 83s23.5 60.333 23.5 85c0 18 -2 38.333 -6 61c-0.666992 2 -1 3.66699 -1 5h109c13.333 0 23.833 3.5 31.5 10.5
s11.5 17.167 11.5 30.5s-3.83301 23.5 -11.5 30.5s-18.167 10.5 -31.5 10.5h-129z" />
    <glyph glyph-name="currency" unicode="&#xa4;" horiz-adv-x="536" 
d="M35 172c-9.33301 -9.33301 -14 -18.666 -14 -27.999c0 -10 3.83301 -18.5 11.5 -25.5s15.167 -10.5 22.5 -10.5c6.66699 0 13.667 3.66699 21 11l42 43c18.667 -17.333 41 -30.666 67 -39.999s53.667 -14 83 -14s57 4.66699 83 14s48.333 22.666 67 39.999l42 -43
c7.33301 -7.33301 14.333 -11 21 -11c7.33301 0 14.833 3.5 22.5 10.5s11.5 15.5 11.5 25.5c0 9.33301 -4.66699 18.666 -14 27.999l-34 35c16 18 28.167 40 36.5 66s12.5 53.667 12.5 83s-4.16699 57 -12.5 83s-20.5 48 -36.5 66l34 35
c9.33301 9.33301 14 18.666 14 27.999c0 10 -3.83301 18.5 -11.5 25.5s-15.167 10.5 -22.5 10.5c-6.66699 0 -13.667 -3.66699 -21 -11l-42 -43c-18.667 17.333 -41 30.666 -67 39.999s-53.667 14 -83 14s-57 -4.66699 -83 -14s-48.333 -22.666 -67 -39.999l-42 43
c-7.33301 7.33301 -14.333 11 -21 11c-7.33301 0 -14.833 -3.5 -22.5 -10.5s-11.5 -15.5 -11.5 -25.5c0 -9.33301 4.66699 -18.666 14 -27.999l34 -35c-16 -18 -28.167 -40 -36.5 -66s-12.5 -53.667 -12.5 -83s4.16699 -57 12.5 -83s20.5 -48 36.5 -66zM102 356
c0 24.667 4.33301 47.667 13 69s20.667 39.666 36 54.999s33.166 27.166 53.499 35.499s41.5 12.5 63.5 12.5s43.167 -4.16699 63.5 -12.5s38.166 -20.166 53.499 -35.499s27.333 -33.666 36 -54.999s13 -44.333 13 -69s-4.33301 -47.667 -13 -69
s-20.667 -39.666 -36 -54.999s-33.166 -27.166 -53.499 -35.499s-41.5 -12.5 -63.5 -12.5s-43.167 4.16699 -63.5 12.5s-38.166 20.166 -53.499 35.499s-27.333 33.666 -36 54.999s-13 44.333 -13 69z" />
    <glyph glyph-name="yen" unicode="&#xa5;" horiz-adv-x="536" 
d="M224 261h-137c-12 0 -21.833 -2.83301 -29.5 -8.5s-11.5 -13.834 -11.5 -24.501s3.83301 -18.834 11.5 -24.501s17.5 -8.5 29.5 -8.5h137v-154c0 -14.667 4 -26.167 12 -34.5s18.667 -12.5 32 -12.5s24 4.16699 32 12.5s12 19.833 12 34.5v154h137
c12 0 21.833 2.83301 29.5 8.5s11.5 13.834 11.5 24.501s-3.83301 18.834 -11.5 24.501s-17.5 8.5 -29.5 8.5h-137v71h137c12 0 21.833 2.83301 29.5 8.5s11.5 13.834 11.5 24.501s-3.83301 18.834 -11.5 24.501s-17.5 8.5 -29.5 8.5h-96l160 247
c10 15.333 15 28.666 15 39.999c0 9.33301 -3.66699 17.166 -11 23.499s-15.333 9.5 -24 9.5c-18 0 -33.333 -9.33301 -46 -28l-179 -269l-179 269c-12.667 18.667 -28 28 -46 28c-8.66699 0 -16.667 -3.16699 -24 -9.5s-11 -14.166 -11 -23.499
c0 -11.333 5 -24.666 15 -39.999l160 -247h-96c-12 0 -21.833 -2.83301 -29.5 -8.5s-11.5 -13.834 -11.5 -24.501s3.83301 -18.834 11.5 -24.501s17.5 -8.5 29.5 -8.5h137v-71z" />
    <glyph glyph-name="brokenbar" unicode="&#xa6;" horiz-adv-x="222" 
d="M70 368c0 -13.333 3.5 -23.833 10.5 -31.5s17.167 -11.5 30.5 -11.5s23.5 3.83301 30.5 11.5s10.5 18.167 10.5 31.5v264c0 13.333 -3.5 23.833 -10.5 31.5s-17.167 11.5 -30.5 11.5s-23.5 -3.83301 -30.5 -11.5s-10.5 -18.167 -10.5 -31.5v-264zM70 -132
c0 -13.333 3.5 -23.833 10.5 -31.5s17.167 -11.5 30.5 -11.5s23.5 3.83301 30.5 11.5s10.5 18.167 10.5 31.5v264c0 13.333 -3.5 23.833 -10.5 31.5s-17.167 11.5 -30.5 11.5s-23.5 -3.83301 -30.5 -11.5s-10.5 -18.167 -10.5 -31.5v-264z" />
    <glyph glyph-name="section" unicode="&#xa7;" horiz-adv-x="556" 
d="M85 554c0 -24.667 4.83594 -45.335 14.5029 -62.002s26.5 -33.667 50.5 -51c-39.333 -20 -69.5 -43.167 -90.5 -69.5s-31.5 -60.166 -31.5 -101.499c0 -28.667 6.16699 -54 18.5 -76s29 -41 50 -57s42.667 -29.5 65 -40.5s50.833 -23.833 85.5 -38.5
c51.333 -21.333 89 -40.166 113 -56.499s36 -36.833 36 -61.5c0 -22.667 -11 -41.667 -33 -57s-52.333 -23 -91 -23c-20.667 0 -38.167 2.16699 -52.5 6.5s-26.166 10.166 -35.499 17.499s-16.833 14.833 -22.5 22.5s-11.834 17.5 -18.501 29.5
c-8.66699 14.667 -16.334 25.334 -23.001 32.001s-16 10 -28 10c-14 0 -24.833 -4 -32.5 -12s-11.5 -20.667 -11.5 -38c0 -12 5 -26.167 15 -42.5s24.5 -32.166 43.5 -47.499s42.833 -28 71.5 -38s60.667 -15.333 96 -16c26 0 51.5 3.5 76.5 10.5s47.5 17.167 67.5 30.5
s36 29.833 48 49.5s18 41.167 18 64.5c0 49.333 -21.667 88.666 -65 117.999c32 18 58.167 42.5 78.5 73.5s30.5 62.833 30.5 95.5c0 29.333 -6 55 -18 77s-28 41.167 -48 57.5s-40.833 30 -62.5 41s-49.5 23.833 -83.5 38.5c-49.333 21.333 -85.5 40 -108.5 56
s-34.5 36.667 -34.5 62c0 26 11.167 46.5 33.5 61.5s50.166 22.5 83.499 22.5c20 0 36.833 -2.33301 50.5 -7s25 -10.667 34 -18s16.167 -15 21.5 -23s11 -17.667 17 -29c7.33301 -15.333 14.166 -26.5 20.499 -33.5s15.5 -10.5 27.5 -10.5c12.667 0 22.5 4.5 29.5 13.5
s10.5 19.833 10.5 32.5c0 17.333 -5 35 -15 53s-24.333 34.333 -43 49s-40.667 26.5 -66 35.5s-52.333 13.5 -81 13.5c-63.333 0 -114.333 -14.5 -153 -43.5s-58 -69.167 -58 -120.5zM116.003 276.999c0 28.667 9.66699 51.833 29 69.5s46.333 33.834 81 48.501l125 -58
c36.667 -16.667 60.667 -33.667 72 -51s17 -38.333 17 -63c0 -20.667 -5.83301 -40.5 -17.5 -59.5s-34.5 -41.167 -68.5 -66.5l-114 56c-42.667 21.333 -74 41.166 -94 59.499s-30 39.833 -30 64.5z" />
    <glyph glyph-name="dieresis" unicode="&#xa8;" 
d="M-45 658c0 -14.667 5.33301 -27.334 16 -38.001s23.334 -16 38.001 -16s27.334 5.33301 38.001 16s16 23.334 16 38.001s-5.33301 27.334 -16 38.001s-23.334 16 -38.001 16s-27.334 -5.33301 -38.001 -16s-16 -23.334 -16 -38.001zM141 658
c0 -14.667 5.33301 -27.334 16 -38.001s23.334 -16 38.001 -16s27.334 5.33301 38.001 16s16 23.334 16 38.001s-5.33301 27.334 -16 38.001s-23.334 16 -38.001 16s-27.334 -5.33301 -38.001 -16s-16 -23.334 -16 -38.001z" />
    <glyph glyph-name="copyright" unicode="&#xa9;" horiz-adv-x="800" 
d="M272 358c0 46 11.335 83.333 34.002 112s54.667 43 96 43c27.333 0 48 -4.83301 62 -14.5s27 -23.5 39 -41.5c7.33301 -11.333 14.166 -19.666 20.499 -24.999s14.5 -8 24.5 -8c22 0 33 9.33301 33 28c0 10 -3.66699 22.167 -11 36.5s-18.5 28.5 -33.5 42.5
s-33.833 25.5 -56.5 34.5s-48.667 13.5 -78 13.5c-64 0 -115.333 -20.833 -154 -62.5s-58 -94.5 -58 -158.5c0 -30.667 5.16699 -59.5 15.5 -86.5s24.833 -50.5 43.5 -70.5s41 -35.667 67 -47s54.667 -17 86 -17c28 0 53.333 4.83301 76 14.5s41.667 21.667 57 36
s26.833 28.833 34.5 43.5s11.5 26.667 11.5 36c0 10 -3.33301 17.167 -10 21.5s-14 6.5 -22 6.5s-14.833 -2.5 -20.5 -7.5s-12.167 -13.167 -19.5 -24.5c-13.333 -18.667 -27.333 -33.334 -42 -44.001s-36.334 -16 -65.001 -16c-38.667 0 -70 15.167 -94 45.5
s-36 66.833 -36 109.5zM400.002 -6c49.333 0 96 9.33301 140 28s82.667 44.667 116 78s59.333 72 78 116s28 90.667 28 140s-9.33301 96 -28 140s-44.667 82.667 -78 116s-72 59.333 -116 78s-90.667 28 -140 28s-96 -9.33301 -140 -28s-82.667 -44.667 -116 -78
s-59.333 -72 -78 -116s-28 -90.667 -28 -140s9.33301 -96 28 -140s44.667 -82.667 78 -116s72 -59.333 116 -78s90.667 -28 140 -28zM400.002 70c-37.333 0 -73 7.33301 -107 22s-64 35.167 -90 61.5s-46.333 57 -61 92s-22 71.833 -22 110.5s7.33301 75.5 22 110.5
s35 65.667 61 92s56 46.833 90 61.5s69.667 22 107 22s73 -7.33301 107 -22s64 -35.167 90 -61.5s46.333 -57 61 -92s22 -71.833 22 -110.5s-7.33301 -75.5 -22 -110.5s-35 -65.667 -61 -92s-56 -46.833 -90 -61.5s-69.667 -22 -107 -22z" />
    <glyph glyph-name="ordfeminine" unicode="&#xaa;" horiz-adv-x="361" 
d="M332 692c0 8.66699 -3.16699 15.167 -9.5 19.5s-14.166 6.5 -23.499 6.5s-17.166 -2.16699 -23.499 -6.5s-9.5 -10.833 -9.5 -19.5v-16h-2c-10 14 -21.5 24.5 -34.5 31.5s-29.167 10.5 -48.5 10.5c-45.333 0 -82 -15.5 -110 -46.5s-42 -69.833 -42 -116.5
c0 -47.333 14 -86.5 42 -117.5s64.667 -46.5 110 -46.5c19.333 0 35.5 3.5 48.5 10.5s24.5 17.5 34.5 31.5h2v-16c0 -8.66699 3.16699 -15.167 9.5 -19.5s14.166 -6.5 23.499 -6.5s17.166 2.16699 23.499 6.5s9.5 10.833 9.5 19.5v275zM184 451
c-24.667 0 -44.667 10.167 -60 30.5s-23 44.833 -23 73.5c0 28 7.66699 52.167 23 72.5s35.333 30.5 60 30.5s44.667 -10.167 60 -30.5s23 -44.5 23 -72.5c0 -28.667 -7.66699 -53.167 -23 -73.5s-35.333 -30.5 -60 -30.5z" />
    <glyph glyph-name="guillemotleft" unicode="&#xab;" horiz-adv-x="407" 
d="M196 268l99 -178c10 -17.333 21.333 -26 34 -26c10.667 0 20 3 28 9s12 14.667 12 26c0 8 -3.66699 18.333 -11 31l-83 138l83 138c7.33301 12.667 11 23 11 31c0 11.333 -4 20 -12 26s-17.333 9 -28 9c-12.667 0 -24 -8.66699 -34 -26zM38 268l99 -178
c10 -17.333 21.333 -26 34 -26c10.667 0 20 3 28 9s12 14.667 12 26c0 8 -3.66699 18.333 -11 31l-83 138l83 138c7.33301 12.667 11 23 11 31c0 11.333 -4 20 -12 26s-17.333 9 -28 9c-12.667 0 -24 -8.66699 -34 -26z" />
    <glyph glyph-name="logicalnot" unicode="&#xac;" horiz-adv-x="600" 
d="M471 316v-165c0 -13.333 3.5 -23.833 10.5 -31.5s17.167 -11.5 30.5 -11.5s23.5 3.83301 30.5 11.5s10.5 18.167 10.5 31.5v204c0 13.333 -3.5 23.833 -10.5 31.5s-17.167 11.5 -30.5 11.5h-422c-13.333 0 -23.833 -3.5 -31.5 -10.5s-11.5 -17.167 -11.5 -30.5
s3.83301 -23.5 11.5 -30.5s18.167 -10.5 31.5 -10.5h381z" />
    <glyph glyph-name="minus" unicode="&#xad;" horiz-adv-x="600" 
d="M510 212c13.333 0 23.833 3.5 31.5 10.5s11.5 17.167 11.5 30.5s-3.83301 23.5 -11.5 30.5s-18.167 10.5 -31.5 10.5h-420c-13.333 0 -23.833 -3.5 -31.5 -10.5s-11.5 -17.167 -11.5 -30.5s3.83301 -23.5 11.5 -30.5s18.167 -10.5 31.5 -10.5h420z" />
    <glyph glyph-name="minus" unicode="&#x2212;" horiz-adv-x="600" 
d="M510 212c13.333 0 23.833 3.5 31.5 10.5s11.5 17.167 11.5 30.5s-3.83301 23.5 -11.5 30.5s-18.167 10.5 -31.5 10.5h-420c-13.333 0 -23.833 -3.5 -31.5 -10.5s-11.5 -17.167 -11.5 -30.5s3.83301 -23.5 11.5 -30.5s18.167 -10.5 31.5 -10.5h420z" />
    <glyph glyph-name="registered" unicode="&#xae;" horiz-adv-x="800" 
d="M381 321l95 -153c5.33301 -8 10.833 -13.667 16.5 -17s13.5 -5 23.5 -5c9.33301 0 17.833 1.5 25.5 4.5s11.5 7.16699 11.5 12.5c0 3.33301 -1 7.5 -3 12.5s-4.33301 9.16699 -7 12.5l-89 136c31.333 4 56.333 15 75 33s28 45.333 28 82c0 43.333 -12.167 74 -36.5 92
s-62.5 27 -114.5 27h-132c-15.333 0 -23 -7 -23 -21v-359c0 -21.333 11 -32 33 -32s33 10.667 33 32v143h64zM317 381v117.002h82c28 0 50.333 -3.33301 67 -10s25 -21.334 25 -44.001c0 -26.667 -8.33301 -43.834 -25 -51.501s-41 -11.5 -73 -11.5h-76zM400 -5.99805
c49.333 0 96 9.33301 140 28s82.667 44.667 116 78s59.333 72 78 116s28 90.667 28 140s-9.33301 96 -28 140s-44.667 82.667 -78 116s-72 59.333 -116 78s-90.667 28 -140 28s-96 -9.33301 -140 -28s-82.667 -44.667 -116 -78s-59.333 -72 -78 -116s-28 -90.667 -28 -140
s9.33301 -96 28 -140s44.667 -82.667 78 -116s72 -59.333 116 -78s90.667 -28 140 -28zM400 70.002c-37.333 0 -73 7.33301 -107 22s-64 35.167 -90 61.5s-46.333 57 -61 92s-22 71.833 -22 110.5s7.33301 75.5 22 110.5s35 65.667 61 92s56 46.833 90 61.5
s69.667 22 107 22s73 -7.33301 107 -22s64 -35.167 90 -61.5s46.333 -57 61 -92s22 -71.833 22 -110.5s-7.33301 -75.5 -22 -110.5s-35 -65.667 -61 -92s-56 -46.833 -90 -61.5s-69.667 -22 -107 -22z" />
    <glyph glyph-name="macron" unicode="&#xaf;" 
d="M1 689c-13.333 0 -23.833 -3.5 -31.5 -10.5s-11.5 -17.167 -11.5 -30.5s3.83301 -23.5 11.5 -30.5s18.167 -10.5 31.5 -10.5h202c13.333 0 23.833 3.5 31.5 10.5s11.5 17.167 11.5 30.5s-3.83301 23.5 -11.5 30.5s-18.167 10.5 -31.5 10.5h-202z" />
    <glyph glyph-name="degree" unicode="&#xb0;" horiz-adv-x="400" 
d="M57 575c0 -39.333 14 -73 42 -101s61.667 -42 101 -42s73 14 101 42s42 61.667 42 101s-14 73 -42 101s-61.667 42 -101 42s-73 -14 -101 -42s-42 -61.667 -42 -101zM111 575c0 24.667 8.66699 45.667 26 63s38.333 26 63 26s45.667 -8.66699 63 -26s26 -38.333 26 -63
s-8.66699 -45.667 -26 -63s-38.333 -26 -63 -26s-45.667 8.66699 -63 26s-26 38.333 -26 63z" />
    <glyph glyph-name="plusminus" unicode="&#xb1;" horiz-adv-x="600" 
d="M259 353h-169c-13.333 0 -23.833 -3.5 -31.5 -10.5s-11.5 -17.167 -11.5 -30.5s3.83301 -23.5 11.5 -30.5s18.167 -10.5 31.5 -10.5h169v-110c0 -13.333 3.5 -23.833 10.5 -31.5s17.167 -11.5 30.5 -11.5s23.5 3.83301 30.5 11.5s10.5 18.167 10.5 31.5v110h169
c13.333 0 23.833 3.5 31.5 10.5s11.5 17.167 11.5 30.5s-3.83301 23.5 -11.5 30.5s-18.167 10.5 -31.5 10.5h-169v110c0 13.333 -3.5 23.833 -10.5 31.5s-17.167 11.5 -30.5 11.5s-23.5 -3.83301 -30.5 -11.5s-10.5 -18.167 -10.5 -31.5v-110zM510 0
c13.333 0 23.833 3.5 31.5 10.5s11.5 17.167 11.5 30.5s-3.83301 23.5 -11.5 30.5s-18.167 10.5 -31.5 10.5h-420c-13.333 0 -23.833 -3.5 -31.5 -10.5s-11.5 -17.167 -11.5 -30.5s3.83301 -23.5 11.5 -30.5s18.167 -10.5 31.5 -10.5h420z" />
    <glyph glyph-name="twosuperior" unicode="&#xb2;" horiz-adv-x="348" 
d="M131 351l144.999 175c12.667 15.333 21.834 29.333 27.501 42s8.5 26.667 8.5 42c0 30.667 -11.333 56.334 -34 77.001s-55.334 31 -98.001 31c-46 0 -82.167 -13 -108.5 -39s-39.5 -57.333 -39.5 -94c0 -22 10.333 -33 31 -33c8 0 14.833 2 20.5 6s8.5 10 8.5 18
c0 19.333 8 37.833 24 55.5s36 26.5 60 26.5c19.333 0 34.833 -4.66699 46.5 -14s17.5 -21.333 17.5 -36c0 -15.333 -8.66699 -34 -26 -56l-171 -217c-8 -10 -12 -17.667 -12 -23c0 -4.66699 2.33301 -9.33398 7 -14.001s12.334 -7 23.001 -7h218c25.333 0 38 10 38 30
s-12.667 30 -38 30h-148z" />
    <glyph glyph-name="threesuperior" unicode="&#xb3;" horiz-adv-x="348" 
d="M164 718c-38 0 -67.834 -9.83105 -89.501 -29.498s-32.5 -44.5 -32.5 -74.5c0 -18.667 8.33301 -28 25 -28c8 0 14.5 1.5 19.5 4.5s8.16699 9.16699 9.5 18.5c2.66699 13.333 9.33398 24.833 20.001 34.5s25.667 14.5 45 14.5c18 0 32.667 -5.33301 44 -16s17 -23 17 -37
c0 -18.667 -4.5 -33.334 -13.5 -44.001s-24.167 -18.334 -45.5 -23.001c-10.667 -2.66699 -18.334 -6 -23.001 -10s-7 -10.333 -7 -19c0 -8 2.83301 -14.167 8.5 -18.5s18.167 -6.5 37.5 -6.5c21.333 0 37.833 -5 49.5 -15s17.5 -26 17.5 -48
c0 -21.333 -7.66699 -39.333 -23 -54s-33.666 -22 -54.999 -22c-20.667 0 -37.167 4 -49.5 12s-22.833 21.333 -31.5 40c-4.66699 10 -9.16699 16.667 -13.5 20s-9.5 5 -15.5 5c-9.33301 0 -16.333 -3.16699 -21 -9.5s-7 -13.833 -7 -22.5c0 -26 12 -50 36 -72
s56.333 -33 97 -33c44.667 0 81.667 11.833 111 35.5s44 54.834 44 93.501c0 24.667 -6.83301 46.167 -20.5 64.5s-33.167 31.166 -58.5 38.499c18 10 31.667 23.167 41 39.5s14 33.5 14 51.5c0 31.333 -11.5 57.5 -34.5 78.5s-54.833 31.5 -95.5 31.5z" />
    <glyph glyph-name="acute" unicode="&#xb4;" 
d="M178 663c13.333 5.33301 22.5 11.166 27.5 17.499s7.5 12.833 7.5 19.5c0 9.33301 -3.33301 18.666 -10 27.999s-16 14 -28 14c-4.66699 0 -9.5 -0.666992 -14.5 -2s-11.5 -3.66602 -19.5 -6.99902l-115 -47c-12.667 -5.33301 -21.667 -11.166 -27 -17.499
s-8 -12.833 -8 -19.5c0 -9.33301 3.33301 -18.666 10 -27.999s16 -14 28 -14c4.66699 0 9.5 0.666992 14.5 2s11.5 3.66602 19.5 6.99902z" />
    <glyph glyph-name="mu" unicode="&#xb5;" horiz-adv-x="538" 
d="M58 -169c0 -14.667 4 -26.167 12 -34.5s18.667 -12.5 32 -12.5s24 4.16699 32 12.5s12 19.833 12 34.5v209c15.333 -16.667 33 -28.5 53 -35.5s43.333 -10.5 70 -10.5c52 0 94 9.66699 126 29c5.33301 -19.333 19 -29 41 -29c13.333 0 24 4.16699 32 12.5
s12 19.833 12 34.5v450c0 14.667 -4 26.167 -12 34.5s-18.667 12.5 -32 12.5s-24 -4.16699 -32 -12.5s-12 -19.833 -12 -34.5v-282c0 -50 -9.16699 -85.667 -27.5 -107s-50.166 -32 -95.499 -32c-44.667 0 -76.334 10.667 -95.001 32s-28 57 -28 107v282
c0 14.667 -4 26.167 -12 34.5s-18.667 12.5 -32 12.5s-24 -4.16699 -32 -12.5s-12 -19.833 -12 -34.5v-660z" />
    <glyph glyph-name="paragraph" unicode="&#xb6;" horiz-adv-x="600" 
d="M242 -173c0 -13.333 3.50098 -23.835 10.501 -31.502s17.167 -11.5 30.5 -11.5s23.5 3.83301 30.5 11.5s10.5 18.167 10.5 31.5v819h115v-819c0 -13.333 3.5 -23.833 10.5 -31.5s17.167 -11.5 30.5 -11.5s23.5 3.83301 30.5 11.5s10.5 18.167 10.5 31.5v837
c0 14.667 -3.83301 26.334 -11.5 35.001s-19.5 13 -35.5 13h-191c-82.667 0 -145.834 -16.667 -189.501 -50s-65.5 -77.666 -65.5 -132.999c0 -54.667 19.667 -99.167 59 -133.5s91 -51.5 155 -51.5v-517z" />
    <glyph glyph-name="periodcentered" unicode="&#xb7;" horiz-adv-x="250" 
d="M71 303c0 -14.667 5.33301 -27.334 16 -38.001s23.334 -16 38.001 -16s27.334 5.33301 38.001 16s16 23.334 16 38.001s-5.33301 27.334 -16 38.001s-23.334 16 -38.001 16s-27.334 -5.33301 -38.001 -16s-16 -23.334 -16 -38.001z" />
    <glyph glyph-name="periodcentered" unicode="&#x2219;" horiz-adv-x="250" 
d="M71 303c0 -14.667 5.33301 -27.334 16 -38.001s23.334 -16 38.001 -16s27.334 5.33301 38.001 16s16 23.334 16 38.001s-5.33301 27.334 -16 38.001s-23.334 16 -38.001 16s-27.334 -5.33301 -38.001 -16s-16 -23.334 -16 -38.001z" />
    <glyph glyph-name="cedilla" unicode="&#xb8;" 
d="M183 0l-52.999 -0.000976562l-26 -37c-6.66699 -10 -10 -18.333 -10 -25c0 -4 2.33301 -8.16699 7 -12.5s12.334 -6.5 23.001 -6.5c17.333 0 29 -1 35 -3s9 -7 9 -15c0 -18 -11.667 -27 -35 -27c-6 0 -16 1.33301 -30 4c-10.667 2.66699 -18 4 -22 4
c-6.66699 0 -11.834 -2.66699 -15.501 -8s-5.5 -11.666 -5.5 -18.999c0 -10.667 6.83301 -19.167 20.5 -25.5s31.167 -9.5 52.5 -9.5c34 0 61 7 81 21s30 35.667 30 65c0 12.667 -6.33301 25 -19 37s-29.334 18 -50.001 18c-5.33301 0 -11.333 -0.666992 -18 -2
c0 -0.666992 -1 -1 -3 -1z" />
    <glyph glyph-name="onesuperior" unicode="&#xb9;" horiz-adv-x="229" 
d="M87 652l-0.000976562 -331c0 -12 3.5 -21 10.5 -27s15.5 -9 25.5 -9c10.667 0 19.334 3 26.001 9s10 15 10 27v377c0 5.33301 -1.83301 9 -5.5 11s-8.16699 3 -13.5 3h-104c-18.667 0 -28 -10 -28 -30s9.33301 -30 28 -30h51z" />
    <glyph glyph-name="ordmasculine" unicode="&#xba;" horiz-adv-x="350" 
d="M23 555c0 -47.333 14 -86.5 42 -117.5s64.667 -46.5 110 -46.5c46 0 82.833 15.5 110.5 46.5s41.5 70.167 41.5 117.5c0 46.667 -14 85.5 -42 116.5s-64.667 46.5 -110 46.5s-82 -15.5 -110 -46.5s-42 -69.833 -42 -116.5zM95 555c0 28 7.5 52.167 22.5 72.5
s34.167 30.5 57.5 30.5s42.5 -10.167 57.5 -30.5s22.5 -44.5 22.5 -72.5c0 -28.667 -7.5 -53.167 -22.5 -73.5s-34.167 -30.5 -57.5 -30.5s-42.5 10.167 -57.5 30.5s-22.5 44.833 -22.5 73.5z" />
    <glyph glyph-name="guillemotright" unicode="&#xbb;" horiz-adv-x="407" 
d="M49 130c-7.33301 -12.667 -11 -23 -11 -31c0 -11.333 4 -20 12 -26s17.333 -9 28 -9c12.667 0 24 8.66699 34 26l99 178l-99 178c-10 17.333 -21.333 26 -34 26c-10.667 0 -20 -3 -28 -9s-12 -14.667 -12 -26c0 -8 3.66699 -18.333 11 -31l83 -138zM207 130
c-7.33301 -12.667 -11 -23 -11 -31c0 -11.333 4 -20 12 -26s17.333 -9 28 -9c12.667 0 24 8.66699 34 26l99 178l-99 178c-10 17.333 -21.333 26 -34 26c-10.667 0 -20 -3 -28 -9s-12 -14.667 -12 -26c0 -8 3.66699 -18.333 11 -31l83 -138z" />
    <glyph glyph-name="onequarter" unicode="&#xbc;" horiz-adv-x="805" 
d="M202 58c-5.33301 -13.333 -8.99902 -23.168 -10.999 -29.501s-3 -11.5 -3 -15.5c0 -7.33301 3 -13.666 9 -18.999s14 -8 24 -8c16 0 28.333 10 37 30l266 638c6 13.333 9.83301 23.166 11.5 29.499s2.5 11.5 2.5 15.5c0 6.66699 -3 12.834 -9 18.501s-14.667 8.5 -26 8.5
c-14.667 0 -26.334 -10 -35.001 -30zM115.001 651.998l-0.000976562 -331c0 -12 3.5 -21 10.5 -27s15.5 -9 25.5 -9c10.667 0 19.334 3 26.001 9s10 15 10 27v377c0 5.33301 -1.83301 9 -5.5 11s-8.16699 3 -13.5 3h-104c-18.667 0 -28 -10 -28 -30s9.33301 -30 28 -30h51z
M646 96.998v-72.001c0 -20.667 12 -31 36 -31s36 10.333 36 31v72h24c8 0 14.5 2.83301 19.5 8.5s7.5 12.834 7.5 21.501s-2.5 15.834 -7.5 21.501s-11.5 8.5 -19.5 8.5h-24v226c0 14.667 -4.5 25.667 -13.5 33s-21.167 11 -36.5 11c-20 0 -36.667 -10.667 -50 -32
l-159 -239c-4 -6 -7.33301 -12.167 -10 -18.5s-4 -11.833 -4 -16.5c0 -6.66699 2 -12.334 6 -17.001s9.66699 -7 17 -7h178zM528 156.997l116 198h2v-198h-118z" />
    <glyph glyph-name="onehalf" unicode="&#xbd;" horiz-adv-x="805" 
d="M172 58c-5.33301 -13.333 -8.99902 -23.168 -10.999 -29.501s-3 -11.5 -3 -15.5c0 -7.33301 3 -13.666 9 -18.999s14 -8 24 -8c16 0 28.333 10 37 30l266 638c6 13.333 9.83301 23.166 11.5 29.499s2.5 11.5 2.5 15.5c0 6.66699 -3 12.834 -9 18.501s-14.667 8.5 -26 8.5
c-14.667 0 -26.334 -10 -35.001 -30zM115.001 651.998l-0.000976562 -331c0 -12 3.5 -21 10.5 -27s15.5 -9 25.5 -9c10.667 0 19.334 3 26.001 9s10 15 10 27v377c0 5.33301 -1.83301 9 -5.5 11s-8.16699 3 -13.5 3h-104c-18.667 0 -28 -10 -28 -30s9.33301 -30 28 -30h51z
M553 59.998l144.999 175c12.667 15.333 21.834 29.333 27.501 42s8.5 26.667 8.5 42c0 30.667 -11.333 56.334 -34 77.001s-55.334 31 -98.001 31c-46 0 -82.167 -13 -108.5 -39s-39.5 -57.333 -39.5 -94c0 -22 10.333 -33 31 -33c8 0 14.833 2 20.5 6s8.5 10 8.5 18
c0 19.333 8 37.833 24 55.5s36 26.5 60 26.5c19.333 0 34.833 -4.66699 46.5 -14s17.5 -21.333 17.5 -36c0 -15.333 -8.66699 -34 -26 -56l-171 -217c-8 -10 -12 -17.667 -12 -23c0 -4.66699 2.33301 -9.33398 7 -14.001s12.334 -7 23.001 -7h218c25.333 0 38 10 38 30
s-12.667 30 -38 30h-148z" />
    <glyph glyph-name="threequarters" unicode="&#xbe;" horiz-adv-x="805" 
d="M262 58c-5.33301 -13.333 -8.99902 -23.168 -10.999 -29.501s-3 -11.5 -3 -15.5c0 -7.33301 3 -13.666 9 -18.999s14 -8 24 -8c16 0 28.333 10 37 30l266 638c6 13.333 9.83301 23.166 11.5 29.499s2.5 11.5 2.5 15.5c0 6.66699 -3 12.834 -9 18.501s-14.667 8.5 -26 8.5
c-14.667 0 -26.334 -10 -35.001 -30zM176.001 717.998c-38 0 -67.834 -9.83105 -89.501 -29.498s-32.5 -44.5 -32.5 -74.5c0 -18.667 8.33301 -28 25 -28c8 0 14.5 1.5 19.5 4.5s8.16699 9.16699 9.5 18.5c2.66699 13.333 9.33398 24.833 20.001 34.5s25.667 14.5 45 14.5
c18 0 32.667 -5.33301 44 -16s17 -23 17 -37c0 -18.667 -4.5 -33.334 -13.5 -44.001s-24.167 -18.334 -45.5 -23.001c-10.667 -2.66699 -18.334 -6 -23.001 -10s-7 -10.333 -7 -19c0 -8 2.83301 -14.167 8.5 -18.5s18.167 -6.5 37.5 -6.5c21.333 0 37.833 -5 49.5 -15
s17.5 -26 17.5 -48c0 -21.333 -7.66699 -39.333 -23 -54s-33.666 -22 -54.999 -22c-20.667 0 -37.167 4 -49.5 12s-22.833 21.333 -31.5 40c-4.66699 10 -9.16699 16.667 -13.5 20s-9.5 5 -15.5 5c-9.33301 0 -16.333 -3.16699 -21 -9.5s-7 -13.833 -7 -22.5
c0 -26 12 -50 36 -72s56.333 -33 97 -33c44.667 0 81.667 11.833 111 35.5s44 54.834 44 93.501c0 24.667 -6.83301 46.167 -20.5 64.5s-33.167 31.166 -58.5 38.499c18 10 31.667 23.167 41 39.5s14 33.5 14 51.5c0 31.333 -11.5 57.5 -34.5 78.5s-54.833 31.5 -95.5 31.5z
M646 97v-72.001c0 -20.667 12 -31 36 -31s36 10.333 36 31v72h24c8 0 14.5 2.83301 19.5 8.5s7.5 12.834 7.5 21.501s-2.5 15.834 -7.5 21.501s-11.5 8.5 -19.5 8.5h-24v226c0 14.667 -4.5 25.667 -13.5 33s-21.167 11 -36.5 11c-20 0 -36.667 -10.667 -50 -32l-159 -239
c-4 -6 -7.33301 -12.167 -10 -18.5s-4 -11.833 -4 -16.5c0 -6.66699 2 -12.334 6 -17.001s9.66699 -7 17 -7h178zM528 156.999l116 198h2v-198h-118z" />
    <glyph glyph-name="questiondown" unicode="&#xbf;" horiz-adv-x="444" 
d="M186 194c-51.333 -10.667 -92.167 -32.8301 -122.5 -66.4971s-45.5 -76.834 -45.5 -129.501c0 -26 5.33301 -50.333 16 -73s25.667 -42.334 45 -59.001s42 -29.5 68 -38.5s54 -13.5 84 -13.5c23.333 0 46.5 3.66699 69.5 11s43.667 17.833 62 31.5
s33.333 29.834 45 48.501s17.834 38.667 18.501 60c0 14 -4.16699 25.167 -12.5 33.5s-18.5 12.5 -30.5 12.5c-9.33301 0 -17 -2.33301 -23 -7s-11.333 -13.334 -16 -26.001c-10.667 -30 -25.5 -51.167 -44.5 -63.5s-42.833 -18.5 -71.5 -18.5c-34 0 -61.833 10 -83.5 30
s-32.5 46.667 -32.5 80c0 10.667 1.33301 21.334 4 32.001s7.16699 21 13.5 31s15.666 19 27.999 27s27.833 14 46.5 18c18 4 31.5 7.5 40.5 10.5s15.667 6.66699 20 11s7 9.66602 8 15.999s1.5 16.166 1.5 29.499v113c0 14.667 -4 26.167 -12 34.5s-18.667 12.5 -32 12.5
s-24 -4.16699 -32 -12.5s-12 -19.833 -12 -34.5v-100zM280.999 487.004c0 14 -5 26 -15 36s-22 15 -36 15s-26 -5 -36 -15s-15 -22 -15 -36s5 -26 15 -36s22 -15 36 -15s26 5 36 15s15 22 15 36z" />
    <glyph glyph-name="Agrave" unicode="&#xc0;" horiz-adv-x="612" 
d="M345 776c8 -3.33301 14.5 -5.66602 19.5 -6.99902s9.83301 -2 14.5 -2c12 0 21.333 4.66699 28 14s10 18.666 10 27.999c0 6.66699 -2.5 13.167 -7.5 19.5s-14.167 12.166 -27.5 17.499l-115 47c-8 3.33301 -14.5 5.66602 -19.5 6.99902s-9.83301 2 -14.5 2
c-12 0 -21.333 -4.66699 -28 -14s-10 -18.666 -10 -27.999c0 -6.66699 2.66699 -13.167 8 -19.5s14.333 -12.166 27 -17.499zM141 155h330.002l46 -128c4 -10.667 9.33301 -18.834 16 -24.501s15.667 -8.5 27 -8.5c12 0 22 3.33301 30 10s12 15.667 12 27
c0 4 -1 9.33301 -3 16s-4.33301 14 -7 22c-0.666992 2.66699 -1.33398 4.66699 -2.00098 6l-221 589c-6 16.667 -14 29.834 -24 39.501s-23 14.5 -39 14.5s-29 -4.83301 -39 -14.5s-18 -22.834 -24 -39.501l-221 -589c-0.666992 -1.33301 -1.33398 -3.33301 -2.00098 -6
c-2.66699 -8 -5 -15.333 -7 -22s-3 -12 -3 -16c0 -11.333 4 -20.333 12 -27s18 -10 30 -10c11.333 0 20.333 2.83301 27 8.5s12 13.834 16 24.501zM444.002 231h-276l137 385h2z" />
    <glyph glyph-name="Aacute" unicode="&#xc1;" horiz-adv-x="612" 
d="M382 823c13.333 5.33301 22.5 11.166 27.5 17.499s7.5 12.833 7.5 19.5c0 9.33301 -3.33301 18.666 -10 27.999s-16 14 -28 14c-4.66699 0 -9.5 -0.666992 -14.5 -2s-11.5 -3.66602 -19.5 -6.99902l-115 -47c-12.667 -5.33301 -21.667 -11.166 -27 -17.499
s-8 -12.833 -8 -19.5c0 -9.33301 3.33301 -18.666 10 -27.999s16 -14 28 -14c4.66699 0 9.5 0.666992 14.5 2s11.5 3.66602 19.5 6.99902zM141 155h330.002l46 -128c4 -10.667 9.33301 -18.834 16 -24.501s15.667 -8.5 27 -8.5c12 0 22 3.33301 30 10s12 15.667 12 27
c0 4 -1 9.33301 -3 16s-4.33301 14 -7 22c-0.666992 2.66699 -1.33398 4.66699 -2.00098 6l-221 589c-6 16.667 -14 29.834 -24 39.501s-23 14.5 -39 14.5s-29 -4.83301 -39 -14.5s-18 -22.834 -24 -39.501l-221 -589c-0.666992 -1.33301 -1.33398 -3.33301 -2.00098 -6
c-2.66699 -8 -5 -15.333 -7 -22s-3 -12 -3 -16c0 -11.333 4 -20.333 12 -27s18 -10 30 -10c11.333 0 20.333 2.83301 27 8.5s12 13.834 16 24.501zM444.002 231h-276l137 385h2z" />
    <glyph glyph-name="Acircumflex" unicode="&#xc2;" horiz-adv-x="612" 
d="M177 840c-15.333 -6.66699 -23 -18.334 -23 -35.001c0 -10.667 3.33301 -19.667 10 -27s15.334 -11 26.001 -11c7.33301 0 14.666 1.66699 21.999 5l94 37l94 -37c7.33301 -3.33301 14.666 -5 21.999 -5c10.667 0 19.334 3.66699 26.001 11s10 16.333 10 27
c0 16.667 -7.66699 28.334 -23 35.001l-129 55zM141 155h330.002l46 -128c4 -10.667 9.33301 -18.834 16 -24.501s15.667 -8.5 27 -8.5c12 0 22 3.33301 30 10s12 15.667 12 27c0 4 -1 9.33301 -3 16s-4.33301 14 -7 22c-0.666992 2.66699 -1.33398 4.66699 -2.00098 6
l-221 589c-6 16.667 -14 29.834 -24 39.501s-23 14.5 -39 14.5s-29 -4.83301 -39 -14.5s-18 -22.834 -24 -39.501l-221 -589c-0.666992 -1.33301 -1.33398 -3.33301 -2.00098 -6c-2.66699 -8 -5 -15.333 -7 -22s-3 -12 -3 -16c0 -11.333 4 -20.333 12 -27s18 -10 30 -10
c11.333 0 20.333 2.83301 27 8.5s12 13.834 16 24.501zM444.002 231h-276l137 385h2z" />
    <glyph glyph-name="Atilde" unicode="&#xc3;" horiz-adv-x="612" 
d="M157 815c0 -10 3.5 -18.999 10.5 -26.999s14.5 -12 22.5 -12c7.33301 0 16.666 3 27.999 9c12.667 7.33301 24 11 34 11c12.667 0 29.334 -3 50.001 -9c24 -7.33301 44 -11 60 -11c26.667 0 48.834 6.5 66.501 19.5s26.5 27.5 26.5 43.5c0 10 -3.5 19 -10.5 27
s-14.5 12 -22.5 12c-7.33301 0 -16.666 -3 -27.999 -9c-12.667 -7.33301 -24 -11 -34 -11c-12.667 0 -29.334 3 -50.001 9c-24 7.33301 -44 11 -60 11c-26.667 0 -48.834 -6.33301 -66.501 -19s-26.5 -27.334 -26.5 -44.001zM141 155.001h330.002l46 -128
c4 -10.667 9.33301 -18.834 16 -24.501s15.667 -8.5 27 -8.5c12 0 22 3.33301 30 10s12 15.667 12 27c0 4 -1 9.33301 -3 16s-4.33301 14 -7 22c-0.666992 2.66699 -1.33398 4.66699 -2.00098 6l-221 589c-6 16.667 -14 29.834 -24 39.501s-23 14.5 -39 14.5
s-29 -4.83301 -39 -14.5s-18 -22.834 -24 -39.501l-221 -589c-0.666992 -1.33301 -1.33398 -3.33301 -2.00098 -6c-2.66699 -8 -5 -15.333 -7 -22s-3 -12 -3 -16c0 -11.333 4 -20.333 12 -27s18 -10 30 -10c11.333 0 20.333 2.83301 27 8.5s12 13.834 16 24.501z
M444.002 231.001h-276l137 385h2z" />
    <glyph glyph-name="Adieresis" unicode="&#xc4;" horiz-adv-x="612" 
d="M159 818c0 -14.667 5.33301 -27.334 16 -38.001s23.334 -16 38.001 -16s27.334 5.33301 38.001 16s16 23.334 16 38.001s-5.33301 27.334 -16 38.001s-23.334 16 -38.001 16s-27.334 -5.33301 -38.001 -16s-16 -23.334 -16 -38.001zM345 818
c0 -14.667 5.33301 -27.334 16 -38.001s23.334 -16 38.001 -16s27.334 5.33301 38.001 16s16 23.334 16 38.001s-5.33301 27.334 -16 38.001s-23.334 16 -38.001 16s-27.334 -5.33301 -38.001 -16s-16 -23.334 -16 -38.001zM141 155h330.002l46 -128
c4 -10.667 9.33301 -18.834 16 -24.501s15.667 -8.5 27 -8.5c12 0 22 3.33301 30 10s12 15.667 12 27c0 4 -1 9.33301 -3 16s-4.33301 14 -7 22c-0.666992 2.66699 -1.33398 4.66699 -2.00098 6l-221 589c-6 16.667 -14 29.834 -24 39.501s-23 14.5 -39 14.5
s-29 -4.83301 -39 -14.5s-18 -22.834 -24 -39.501l-221 -589c-0.666992 -1.33301 -1.33398 -3.33301 -2.00098 -6c-2.66699 -8 -5 -15.333 -7 -22s-3 -12 -3 -16c0 -11.333 4 -20.333 12 -27s18 -10 30 -10c11.333 0 20.333 2.83301 27 8.5s12 13.834 16 24.501z
M444.002 231h-276l137 385h2z" />
    <glyph glyph-name="Aring" unicode="&#xc5;" horiz-adv-x="612" 
d="M212 828c0 -26 9.16699 -48.167 27.5 -66.5s40.5 -27.5 66.5 -27.5s48.167 9.16699 66.5 27.5s27.5 40.5 27.5 66.5s-9.16699 48.167 -27.5 66.5s-40.5 27.5 -66.5 27.5s-48.167 -9.16699 -66.5 -27.5s-27.5 -40.5 -27.5 -66.5zM260 828c0 12.667 4.5 23.5 13.5 32.5
s19.833 13.5 32.5 13.5s23.5 -4.5 32.5 -13.5s13.5 -19.833 13.5 -32.5s-4.5 -23.5 -13.5 -32.5s-19.833 -13.5 -32.5 -13.5s-23.5 4.5 -32.5 13.5s-13.5 19.833 -13.5 32.5zM141 155h330.002l46 -128c4 -10.667 9.33301 -18.834 16 -24.501s15.667 -8.5 27 -8.5
c12 0 22 3.33301 30 10s12 15.667 12 27c0 4 -1 9.33301 -3 16s-4.33301 14 -7 22c-0.666992 2.66699 -1.33398 4.66699 -2.00098 6l-221 589c-6 16.667 -14 29.834 -24 39.501s-23 14.5 -39 14.5s-29 -4.83301 -39 -14.5s-18 -22.834 -24 -39.501l-221 -589
c-0.666992 -1.33301 -1.33398 -3.33301 -2.00098 -6c-2.66699 -8 -5 -15.333 -7 -22s-3 -12 -3 -16c0 -11.333 4 -20.333 12 -27s18 -10 30 -10c11.333 0 20.333 2.83301 27 8.5s12 13.834 16 24.501zM444.002 231h-276l137 385h2z" />
    <glyph glyph-name="AE" unicode="&#xc6;" horiz-adv-x="759" 
d="M461 315h193.002c13.333 0 23.833 3.5 31.5 10.5s11.5 17.167 11.5 30.5s-3.83301 23.5 -11.5 30.5s-18.167 10.5 -31.5 10.5h-193v233h202c13.333 0 23.833 3.5 31.5 10.5s11.5 17.167 11.5 30.5s-3.83301 23.5 -11.5 30.5s-18.167 10.5 -31.5 10.5h-287
c-16.667 0 -28.834 -2.16699 -36.501 -6.5s-15.834 -14.833 -24.501 -31.5l-311 -607c-5.33301 -10.667 -8.83301 -18.667 -10.5 -24s-2.5 -11 -2.5 -17c0 -8.66699 3.83301 -16.167 11.5 -22.5s17.5 -9.5 29.5 -9.5c9.33301 0 17.333 2 24 6s12.667 11.333 18 22l68 133
h231v-107c0 -14 3.83301 -25.5 11.5 -34.5s19.5 -13.5 35.5 -13.5h253c13.333 0 23.833 3.5 31.5 10.5s11.5 17.167 11.5 30.5s-3.83301 23.5 -11.5 30.5s-18.167 10.5 -31.5 10.5h-212v233zM373.002 231h-193l191 379h2v-379z" />
    <glyph glyph-name="Ccedilla" unicode="&#xc7;" horiz-adv-x="593" 
d="M359 -5c28 0.666992 55.001 4.16797 81.001 10.501s48.667 14.333 68 24s34.333 20 45 31s16 21.833 16 32.5c0 12.667 -3.16699 22.667 -9.5 30s-14.833 11 -25.5 11c-9.33301 0 -25.333 -6.66699 -48 -20c-23.333 -13.333 -45.5 -24 -66.5 -32s-46.5 -12 -76.5 -12
c-36 0 -68 8.16699 -96 24.5s-51 38.333 -69 66s-31.333 58.334 -40 92.001s-13 68.167 -13 103.5c0 36 4.33301 70.833 13 104.5s22.167 64.167 40.5 91.5s41.666 49.166 69.999 65.499s61.5 24.5 99.5 24.5c30 0 54.333 -4.33301 73 -13s37 -20.334 55 -35.001
c9.33301 -7.33301 17 -12.833 23 -16.5s12.333 -5.5 19 -5.5c10.667 0 19.334 4 26.001 12s10 18 10 30c0 9.33301 -5 20 -15 32s-24.167 23.5 -42.5 34.5s-40.333 20 -66 27s-53.167 10.5 -82.5 10.5c-51.333 0 -96.833 -9.83301 -136.5 -29.5s-73 -46.5 -100 -80.5
s-47.167 -72.833 -60.5 -116.5s-20 -88.834 -20 -135.501c0 -44 6 -86.5 18 -127.5s29.667 -78.333 53 -112s52.333 -61 87 -82s74 -33.833 118 -38.5l-23 -33c-6.66699 -10 -10 -18.333 -10 -25c0 -4 2.33301 -8.16699 7 -12.5s12.334 -6.5 23.001 -6.5
c17.333 0 29 -1 35 -3s9 -7 9 -15c0 -18 -11.667 -27 -35 -27c-6 0 -16 1.33301 -30 4c-10.667 2.66699 -18 4 -22 4c-6.66699 0 -11.834 -2.66699 -15.501 -8s-5.5 -11.666 -5.5 -18.999c0 -10.667 6.83301 -19.167 20.5 -25.5s31.167 -9.5 52.5 -9.5c34 0 61 7 81 21
s30 35.667 30 65c0 12.667 -6.33301 25 -19 37s-29.334 18 -50.001 18c-5.33301 0 -11.333 -0.666992 -18 -2c0 -0.666992 -1 -1 -3 -1z" />
    <glyph glyph-name="Egrave" unicode="&#xc8;" horiz-adv-x="444" 
d="M261 776c8 -3.33301 14.5 -5.66602 19.5 -6.99902s9.83301 -2 14.5 -2c12 0 21.333 4.66699 28 14s10 18.666 10 27.999c0 6.66699 -2.5 13.167 -7.5 19.5s-14.167 12.166 -27.5 17.499l-115 47c-8 3.33301 -14.5 5.66602 -19.5 6.99902s-9.83301 2 -14.5 2
c-12 0 -21.333 -4.66699 -28 -14s-10 -18.666 -10 -27.999c0 -6.66699 2.66699 -13.167 8 -19.5s14.333 -12.166 27 -17.499zM146 315l193 0.000976562c13.333 0 23.833 3.5 31.5 10.5s11.5 17.167 11.5 30.5s-3.83301 23.5 -11.5 30.5s-18.167 10.5 -31.5 10.5h-193v233
h212c13.333 0 23.833 3.5 31.5 10.5s11.5 17.167 11.5 30.5s-3.83301 23.5 -11.5 30.5s-18.167 10.5 -31.5 10.5h-253c-16 0 -27.833 -4.33301 -35.5 -13s-11.5 -20.334 -11.5 -35.001v-616c0 -14 3.83301 -25.5 11.5 -34.5s19.5 -13.5 35.5 -13.5h253
c13.333 0 23.833 3.5 31.5 10.5s11.5 17.167 11.5 30.5s-3.83301 23.5 -11.5 30.5s-18.167 10.5 -31.5 10.5h-212v233z" />
    <glyph glyph-name="Eacute" unicode="&#xc9;" horiz-adv-x="444" 
d="M298 823c13.333 5.33301 22.5 11.166 27.5 17.499s7.5 12.833 7.5 19.5c0 9.33301 -3.33301 18.666 -10 27.999s-16 14 -28 14c-4.66699 0 -9.5 -0.666992 -14.5 -2s-11.5 -3.66602 -19.5 -6.99902l-115 -47c-12.667 -5.33301 -21.667 -11.166 -27 -17.499
s-8 -12.833 -8 -19.5c0 -9.33301 3.33301 -18.666 10 -27.999s16 -14 28 -14c4.66699 0 9.5 0.666992 14.5 2s11.5 3.66602 19.5 6.99902zM146 315l193 0.000976562c13.333 0 23.833 3.5 31.5 10.5s11.5 17.167 11.5 30.5s-3.83301 23.5 -11.5 30.5s-18.167 10.5 -31.5 10.5
h-193v233h212c13.333 0 23.833 3.5 31.5 10.5s11.5 17.167 11.5 30.5s-3.83301 23.5 -11.5 30.5s-18.167 10.5 -31.5 10.5h-253c-16 0 -27.833 -4.33301 -35.5 -13s-11.5 -20.334 -11.5 -35.001v-616c0 -14 3.83301 -25.5 11.5 -34.5s19.5 -13.5 35.5 -13.5h253
c13.333 0 23.833 3.5 31.5 10.5s11.5 17.167 11.5 30.5s-3.83301 23.5 -11.5 30.5s-18.167 10.5 -31.5 10.5h-212v233z" />
    <glyph glyph-name="Ecircumflex" unicode="&#xca;" horiz-adv-x="444" 
d="M93 840c-15.333 -6.66699 -23 -18.334 -23 -35.001c0 -10.667 3.33301 -19.667 10 -27s15.334 -11 26.001 -11c7.33301 0 14.666 1.66699 21.999 5l94 37l94 -37c7.33301 -3.33301 14.666 -5 21.999 -5c10.667 0 19.334 3.66699 26.001 11s10 16.333 10 27
c0 16.667 -7.66699 28.334 -23 35.001l-129 55zM146 315l193 0.000976562c13.333 0 23.833 3.5 31.5 10.5s11.5 17.167 11.5 30.5s-3.83301 23.5 -11.5 30.5s-18.167 10.5 -31.5 10.5h-193v233h212c13.333 0 23.833 3.5 31.5 10.5s11.5 17.167 11.5 30.5
s-3.83301 23.5 -11.5 30.5s-18.167 10.5 -31.5 10.5h-253c-16 0 -27.833 -4.33301 -35.5 -13s-11.5 -20.334 -11.5 -35.001v-616c0 -14 3.83301 -25.5 11.5 -34.5s19.5 -13.5 35.5 -13.5h253c13.333 0 23.833 3.5 31.5 10.5s11.5 17.167 11.5 30.5s-3.83301 23.5 -11.5 30.5
s-18.167 10.5 -31.5 10.5h-212v233z" />
    <glyph glyph-name="Edieresis" unicode="&#xcb;" horiz-adv-x="444" 
d="M75 818c0 -14.667 5.33301 -27.334 16 -38.001s23.334 -16 38.001 -16s27.334 5.33301 38.001 16s16 23.334 16 38.001s-5.33301 27.334 -16 38.001s-23.334 16 -38.001 16s-27.334 -5.33301 -38.001 -16s-16 -23.334 -16 -38.001zM261 818
c0 -14.667 5.33301 -27.334 16 -38.001s23.334 -16 38.001 -16s27.334 5.33301 38.001 16s16 23.334 16 38.001s-5.33301 27.334 -16 38.001s-23.334 16 -38.001 16s-27.334 -5.33301 -38.001 -16s-16 -23.334 -16 -38.001zM146 315l193 0.000976562
c13.333 0 23.833 3.5 31.5 10.5s11.5 17.167 11.5 30.5s-3.83301 23.5 -11.5 30.5s-18.167 10.5 -31.5 10.5h-193v233h212c13.333 0 23.833 3.5 31.5 10.5s11.5 17.167 11.5 30.5s-3.83301 23.5 -11.5 30.5s-18.167 10.5 -31.5 10.5h-253c-16 0 -27.833 -4.33301 -35.5 -13
s-11.5 -20.334 -11.5 -35.001v-616c0 -14 3.83301 -25.5 11.5 -34.5s19.5 -13.5 35.5 -13.5h253c13.333 0 23.833 3.5 31.5 10.5s11.5 17.167 11.5 30.5s-3.83301 23.5 -11.5 30.5s-18.167 10.5 -31.5 10.5h-212v233z" />
    <glyph glyph-name="Igrave" unicode="&#xcc;" 
d="M141 776c8 -3.33301 14.5 -5.66602 19.5 -6.99902s9.83301 -2 14.5 -2c12 0 21.333 4.66699 28 14s10 18.666 10 27.999c0 6.66699 -2.5 13.167 -7.5 19.5s-14.167 12.166 -27.5 17.499l-115 47c-8 3.33301 -14.5 5.66602 -19.5 6.99902s-9.83301 2 -14.5 2
c-12 0 -21.333 -4.66699 -28 -14s-10 -18.666 -10 -27.999c0 -6.66699 2.5 -13.167 7.5 -19.5s14.167 -12.166 27.5 -17.499zM146 671c0 14.667 -4 26.167 -12 34.5s-18.667 12.5 -32 12.5s-24 -4.16699 -32 -12.5s-12 -19.833 -12 -34.5v-630c0 -14.667 4 -26.167 12 -34.5
s18.667 -12.5 32 -12.5s24 4.16699 32 12.5s12 19.833 12 34.5v630z" />
    <glyph glyph-name="Iacute" unicode="&#xcd;" 
d="M178 823c13.333 5.33301 22.5 11.166 27.5 17.499s7.5 12.833 7.5 19.5c0 9.33301 -3.33301 18.666 -10 27.999s-16 14 -28 14c-4.66699 0 -9.5 -0.666992 -14.5 -2s-11.5 -3.66602 -19.5 -6.99902l-115 -47c-13.333 -5.33301 -22.5 -11.166 -27.5 -17.499
s-7.5 -12.833 -7.5 -19.5c0 -9.33301 3.33301 -18.666 10 -27.999s16 -14 28 -14c4.66699 0 9.5 0.666992 14.5 2s11.5 3.66602 19.5 6.99902zM146 671c0 14.667 -4 26.167 -12 34.5s-18.667 12.5 -32 12.5s-24 -4.16699 -32 -12.5s-12 -19.833 -12 -34.5v-630
c0 -14.667 4 -26.167 12 -34.5s18.667 -12.5 32 -12.5s24 4.16699 32 12.5s12 19.833 12 34.5v630z" />
    <glyph glyph-name="Icircumflex" unicode="&#xce;" 
d="M-27 840c-15.333 -6.66699 -23 -18.334 -23 -35.001c0 -10.667 3.33301 -19.667 10 -27s15.334 -11 26.001 -11c7.33301 0 14.666 1.66699 21.999 5l94 37l94 -37c7.33301 -3.33301 14.666 -5 21.999 -5c10.667 0 19.334 3.66699 26.001 11s10 16.333 10 27
c0 16.667 -7.66699 28.334 -23 35.001l-129 55zM146 671c0 14.667 -4 26.167 -12 34.5s-18.667 12.5 -32 12.5s-24 -4.16699 -32 -12.5s-12 -19.833 -12 -34.5v-630c0 -14.667 4 -26.167 12 -34.5s18.667 -12.5 32 -12.5s24 4.16699 32 12.5s12 19.833 12 34.5v630z" />
    <glyph glyph-name="Idieresis" unicode="&#xcf;" 
d="M-45 818c0 -14.667 5.33301 -27.334 16 -38.001s23.334 -16 38.001 -16s27.334 5.33301 38.001 16s16 23.334 16 38.001s-5.33301 27.334 -16 38.001s-23.334 16 -38.001 16s-27.334 -5.33301 -38.001 -16s-16 -23.334 -16 -38.001zM141 818
c0 -14.667 5.33301 -27.334 16 -38.001s23.334 -16 38.001 -16s27.334 5.33301 38.001 16s16 23.334 16 38.001s-5.33301 27.334 -16 38.001s-23.334 16 -38.001 16s-27.334 -5.33301 -38.001 -16s-16 -23.334 -16 -38.001zM146 671c0 14.667 -4 26.167 -12 34.5
s-18.667 12.5 -32 12.5s-24 -4.16699 -32 -12.5s-12 -19.833 -12 -34.5v-630c0 -14.667 4 -26.167 12 -34.5s18.667 -12.5 32 -12.5s24 4.16699 32 12.5s12 19.833 12 34.5v630z" />
    <glyph glyph-name="Eth" unicode="&#xd0;" horiz-adv-x="630" 
d="M63 48c0 -14 3.83203 -25.499 11.499 -34.499s19.5 -13.5 35.5 -13.5h185c46.667 0 89 8.66699 127 26s70.167 42 96.5 74s46.333 70 60 114s20.5 92.667 20.5 146c0 48 -6.66699 93.167 -20 135.5s-33.166 79.833 -59.499 112.5s-59.5 58.167 -99.5 76.5
s-85.667 27.5 -137 27.5h-173c-16 0 -27.833 -4.33301 -35.5 -13s-11.5 -20.334 -11.5 -35.001v-267h-38c-28.667 0 -43 -12.667 -43 -38s14.333 -38 43 -38h38v-273zM150.999 321.001l119.998 0.000976562c28.667 0 43 12.667 43 38s-14.333 38 -43 38h-120v239h120
c40.667 0 76 -7.16699 106 -21.5s54.333 -34.333 73 -60s32.5 -55 41.5 -88s13.5 -68.5 13.5 -106.5s-4.16699 -73.833 -12.5 -107.5s-21.666 -63.834 -39.999 -90.501s-42.166 -47.667 -71.499 -63s-64 -23 -104 -23h-126v245z" />
    <glyph glyph-name="Ntilde" unicode="&#xd1;" horiz-adv-x="668" 
d="M185 815c0 -10 3.5 -18.999 10.5 -26.999s14.5 -12 22.5 -12c7.33301 0 16.666 3 27.999 9c12.667 7.33301 24 11 34 11c12.667 0 29.334 -3 50.001 -9c24 -7.33301 44 -11 60 -11c26.667 0 48.834 6.5 66.501 19.5s26.5 27.5 26.5 43.5c0 10 -3.5 19 -10.5 27
s-14.5 12 -22.5 12c-7.33301 0 -16.666 -3 -27.999 -9c-12.667 -7.33301 -24 -11 -34 -11c-12.667 0 -29.334 3 -50.001 9c-24 7.33301 -44 11 -60 11c-26.667 0 -48.834 -6.33301 -66.501 -19s-26.5 -27.334 -26.5 -44.001zM146 557.001h2l360 -517
c12.667 -18 23 -30.167 31 -36.5s18.333 -9.5 31 -9.5c26.667 0 40 17.333 40 52v625c0 14.667 -4 26.167 -12 34.5s-18.667 12.5 -32 12.5s-24 -4.16699 -32 -12.5s-12 -19.833 -12 -34.5v-516h-2l-360 517c-12.667 18 -23 30.167 -31 36.5s-18.333 9.5 -31 9.5
c-26.667 0 -40 -17.333 -40 -52v-625c0 -14.667 4 -26.167 12 -34.5s18.667 -12.5 32 -12.5s24 4.16699 32 12.5s12 19.833 12 34.5v516z" />
    <glyph glyph-name="Ograve" unicode="&#xd2;" horiz-adv-x="686" 
d="M382 776c8 -3.33301 14.5 -5.66602 19.5 -6.99902s9.83301 -2 14.5 -2c12 0 21.333 4.66699 28 14s10 18.666 10 27.999c0 6.66699 -2.5 13.167 -7.5 19.5s-14.167 12.166 -27.5 17.499l-115 47c-8 3.33301 -14.5 5.66602 -19.5 6.99902s-9.83301 2 -14.5 2
c-12 0 -21.333 -4.66699 -28 -14s-10 -18.666 -10 -27.999c0 -6.66699 2.66699 -13.167 8 -19.5s14.333 -12.166 27 -17.499zM125 356c0 35.333 4 70 12 104s20.667 64.667 38 92s40.166 49.166 68.499 65.499s61.5 24.5 99.5 24.5c38.667 0 72 -8.16699 100 -24.5
s50.667 -38.166 68 -65.499s30 -58 38 -92s12 -68.667 12 -104s-4 -70 -12 -104s-20.667 -64.667 -38 -92s-40 -49.166 -68 -65.499s-61.333 -24.5 -100 -24.5c-38 0 -71.167 8.16699 -99.5 24.5s-51.166 38.166 -68.499 65.499s-30 58 -38 92s-12 68.667 -12 104zM31 356
c0 -46.667 6.83301 -91.667 20.5 -135s33.834 -82.166 60.501 -116.499s59.5 -61.333 98.5 -81s83.167 -29.5 132.5 -29.5s93.5 9.83301 132.5 29.5s71.833 46.667 98.5 81s46.834 73.166 60.501 116.499s20.5 88.333 20.5 135s-6.83301 91.667 -20.5 135
s-33.834 82.166 -60.501 116.499s-59.5 61.333 -98.5 81s-83.167 29.5 -132.5 29.5s-93.5 -9.83301 -132.5 -29.5s-71.833 -46.667 -98.5 -81s-46.834 -73.166 -60.501 -116.499s-20.5 -88.333 -20.5 -135z" />
    <glyph glyph-name="Oacute" unicode="&#xd3;" horiz-adv-x="686" 
d="M419 823c13.333 5.33301 22.5 11.166 27.5 17.499s7.5 12.833 7.5 19.5c0 9.33301 -3.33301 18.666 -10 27.999s-16 14 -28 14c-4.66699 0 -9.5 -0.666992 -14.5 -2s-11.5 -3.66602 -19.5 -6.99902l-115 -47c-12.667 -5.33301 -21.667 -11.166 -27 -17.499
s-8 -12.833 -8 -19.5c0 -9.33301 3.33301 -18.666 10 -27.999s16 -14 28 -14c4.66699 0 9.5 0.666992 14.5 2s11.5 3.66602 19.5 6.99902zM125 356c0 35.333 4 70 12 104s20.667 64.667 38 92s40.166 49.166 68.499 65.499s61.5 24.5 99.5 24.5
c38.667 0 72 -8.16699 100 -24.5s50.667 -38.166 68 -65.499s30 -58 38 -92s12 -68.667 12 -104s-4 -70 -12 -104s-20.667 -64.667 -38 -92s-40 -49.166 -68 -65.499s-61.333 -24.5 -100 -24.5c-38 0 -71.167 8.16699 -99.5 24.5s-51.166 38.166 -68.499 65.499
s-30 58 -38 92s-12 68.667 -12 104zM31 356c0 -46.667 6.83301 -91.667 20.5 -135s33.834 -82.166 60.501 -116.499s59.5 -61.333 98.5 -81s83.167 -29.5 132.5 -29.5s93.5 9.83301 132.5 29.5s71.833 46.667 98.5 81s46.834 73.166 60.501 116.499s20.5 88.333 20.5 135
s-6.83301 91.667 -20.5 135s-33.834 82.166 -60.501 116.499s-59.5 61.333 -98.5 81s-83.167 29.5 -132.5 29.5s-93.5 -9.83301 -132.5 -29.5s-71.833 -46.667 -98.5 -81s-46.834 -73.166 -60.501 -116.499s-20.5 -88.333 -20.5 -135z" />
    <glyph glyph-name="Ocircumflex" unicode="&#xd4;" horiz-adv-x="686" 
d="M214 840c-15.333 -6.66699 -23 -18.334 -23 -35.001c0 -10.667 3.33301 -19.667 10 -27s15.334 -11 26.001 -11c7.33301 0 14.666 1.66699 21.999 5l94 37l94 -37c7.33301 -3.33301 14.666 -5 21.999 -5c10.667 0 19.334 3.66699 26.001 11s10 16.333 10 27
c0 16.667 -7.66699 28.334 -23 35.001l-129 55zM125 356c0 35.333 4 70 12 104s20.667 64.667 38 92s40.166 49.166 68.499 65.499s61.5 24.5 99.5 24.5c38.667 0 72 -8.16699 100 -24.5s50.667 -38.166 68 -65.499s30 -58 38 -92s12 -68.667 12 -104s-4 -70 -12 -104
s-20.667 -64.667 -38 -92s-40 -49.166 -68 -65.499s-61.333 -24.5 -100 -24.5c-38 0 -71.167 8.16699 -99.5 24.5s-51.166 38.166 -68.499 65.499s-30 58 -38 92s-12 68.667 -12 104zM31 356c0 -46.667 6.83301 -91.667 20.5 -135s33.834 -82.166 60.501 -116.499
s59.5 -61.333 98.5 -81s83.167 -29.5 132.5 -29.5s93.5 9.83301 132.5 29.5s71.833 46.667 98.5 81s46.834 73.166 60.501 116.499s20.5 88.333 20.5 135s-6.83301 91.667 -20.5 135s-33.834 82.166 -60.501 116.499s-59.5 61.333 -98.5 81s-83.167 29.5 -132.5 29.5
s-93.5 -9.83301 -132.5 -29.5s-71.833 -46.667 -98.5 -81s-46.834 -73.166 -60.501 -116.499s-20.5 -88.333 -20.5 -135z" />
    <glyph glyph-name="Otilde" unicode="&#xd5;" horiz-adv-x="686" 
d="M194 815c0 -10 3.5 -18.999 10.5 -26.999s14.5 -12 22.5 -12c7.33301 0 16.666 3 27.999 9c12.667 7.33301 24 11 34 11c12.667 0 29.334 -3 50.001 -9c24 -7.33301 44 -11 60 -11c26.667 0 48.834 6.5 66.501 19.5s26.5 27.5 26.5 43.5c0 10 -3.5 19 -10.5 27
s-14.5 12 -22.5 12c-7.33301 0 -16.666 -3 -27.999 -9c-12.667 -7.33301 -24 -11 -34 -11c-12.667 0 -29.334 3 -50.001 9c-24 7.33301 -44 11 -60 11c-26.667 0 -48.834 -6.33301 -66.501 -19s-26.5 -27.334 -26.5 -44.001zM125 356.001c0 35.333 4 70 12 104
s20.667 64.667 38 92s40.166 49.166 68.499 65.499s61.5 24.5 99.5 24.5c38.667 0 72 -8.16699 100 -24.5s50.667 -38.166 68 -65.499s30 -58 38 -92s12 -68.667 12 -104s-4 -70 -12 -104s-20.667 -64.667 -38 -92s-40 -49.166 -68 -65.499s-61.333 -24.5 -100 -24.5
c-38 0 -71.167 8.16699 -99.5 24.5s-51.166 38.166 -68.499 65.499s-30 58 -38 92s-12 68.667 -12 104zM31 356.001c0 -46.667 6.83301 -91.667 20.5 -135s33.834 -82.166 60.501 -116.499s59.5 -61.333 98.5 -81s83.167 -29.5 132.5 -29.5s93.5 9.83301 132.5 29.5
s71.833 46.667 98.5 81s46.834 73.166 60.501 116.499s20.5 88.333 20.5 135s-6.83301 91.667 -20.5 135s-33.834 82.166 -60.501 116.499s-59.5 61.333 -98.5 81s-83.167 29.5 -132.5 29.5s-93.5 -9.83301 -132.5 -29.5s-71.833 -46.667 -98.5 -81
s-46.834 -73.166 -60.501 -116.499s-20.5 -88.333 -20.5 -135z" />
    <glyph glyph-name="Odieresis" unicode="&#xd6;" horiz-adv-x="686" 
d="M196 818c0 -14.667 5.33301 -27.334 16 -38.001s23.334 -16 38.001 -16s27.334 5.33301 38.001 16s16 23.334 16 38.001s-5.33301 27.334 -16 38.001s-23.334 16 -38.001 16s-27.334 -5.33301 -38.001 -16s-16 -23.334 -16 -38.001zM382 818
c0 -14.667 5.33301 -27.334 16 -38.001s23.334 -16 38.001 -16s27.334 5.33301 38.001 16s16 23.334 16 38.001s-5.33301 27.334 -16 38.001s-23.334 16 -38.001 16s-27.334 -5.33301 -38.001 -16s-16 -23.334 -16 -38.001zM125 356c0 35.333 4 70 12 104
s20.667 64.667 38 92s40.166 49.166 68.499 65.499s61.5 24.5 99.5 24.5c38.667 0 72 -8.16699 100 -24.5s50.667 -38.166 68 -65.499s30 -58 38 -92s12 -68.667 12 -104s-4 -70 -12 -104s-20.667 -64.667 -38 -92s-40 -49.166 -68 -65.499s-61.333 -24.5 -100 -24.5
c-38 0 -71.167 8.16699 -99.5 24.5s-51.166 38.166 -68.499 65.499s-30 58 -38 92s-12 68.667 -12 104zM31 356c0 -46.667 6.83301 -91.667 20.5 -135s33.834 -82.166 60.501 -116.499s59.5 -61.333 98.5 -81s83.167 -29.5 132.5 -29.5s93.5 9.83301 132.5 29.5
s71.833 46.667 98.5 81s46.834 73.166 60.501 116.499s20.5 88.333 20.5 135s-6.83301 91.667 -20.5 135s-33.834 82.166 -60.501 116.499s-59.5 61.333 -98.5 81s-83.167 29.5 -132.5 29.5s-93.5 -9.83301 -132.5 -29.5s-71.833 -46.667 -98.5 -81
s-46.834 -73.166 -60.501 -116.499s-20.5 -88.333 -20.5 -135z" />
    <glyph glyph-name="multiply" unicode="&#xd7;" horiz-adv-x="600" 
d="M300 309l-152 151c-8.66699 8.66699 -16 14.667 -22 18s-12.667 5 -20 5c-10 0 -18.5 -3.83301 -25.5 -11.5s-10.5 -16.167 -10.5 -25.5c0 -6.66699 1.33301 -12.834 4 -18.501s8.33398 -12.834 17.001 -21.501l153 -153l-153 -153
c-8.66699 -8.66699 -14.334 -15.834 -17.001 -21.501s-4 -11.834 -4 -18.501c0 -9.33301 3.5 -17.833 10.5 -25.5s15.5 -11.5 25.5 -11.5c7.33301 0 14 1.66699 20 5s13.333 9.33301 22 18l152 152l152 -152c8.66699 -8.66699 16 -14.667 22 -18s12.667 -5 20 -5
c10 0 18.5 3.83301 25.5 11.5s10.5 16.167 10.5 25.5c0 6.66699 -1.33301 12.834 -4 18.501s-8.33398 12.834 -17.001 21.501l-153 153l153 153c8.66699 8.66699 14.334 15.834 17.001 21.501s4 11.834 4 18.501c0 9.33301 -3.5 17.833 -10.5 25.5s-15.5 11.5 -25.5 11.5
c-7.33301 0 -14 -1.66699 -20 -5s-13.333 -9.33301 -22 -18z" />
    <glyph glyph-name="Oslash" unicode="&#xd8;" horiz-adv-x="686" 
d="M160 190c-12 24 -20.832 50.168 -26.499 78.501s-8.5 57.5 -8.5 87.5c0 35.333 4 70 12 104s20.667 64.667 38 92s40.166 49.166 68.499 65.499s61.5 24.5 99.5 24.5c32 0 60.333 -5.5 85 -16.5s46 -26.833 64 -47.5zM527.001 524.001
c11.333 -24 19.833 -50.333 25.5 -79s8.5 -58.334 8.5 -89.001c0 -35.333 -4 -70 -12 -104s-20.667 -64.667 -38 -92s-40 -49.166 -68 -65.499s-61.333 -24.5 -100 -24.5c-62 0 -111.667 21.667 -149 65zM545.001 639.001c-26.667 25.333 -56.833 44.8311 -90.5 58.498
s-70.834 20.5 -111.501 20.5c-49.333 0 -93.5 -9.83301 -132.5 -29.5s-71.833 -46.667 -98.5 -81s-46.834 -73.166 -60.501 -116.499s-20.5 -88.333 -20.5 -135c0 -43.333 5.83301 -85.166 17.5 -125.499s28.834 -77.166 51.501 -110.499l-66 -77
c-9.33301 -10.667 -14 -20.667 -14 -30c0 -6.66699 2.66699 -12.834 8 -18.501s12.333 -8.5 21 -8.5c11.333 0 21.666 5.33301 30.999 16l61 72c26 -25.333 56 -45 90 -59s71.333 -21 112 -21c49.333 0 93.5 9.83301 132.5 29.5s71.833 46.667 98.5 81
s46.834 73.166 60.501 116.499s20.5 88.333 20.5 135c0 43.333 -6 85.5 -18 126.5s-29.333 77.5 -52 109.5l69 80c8 8.66699 12 17.334 12 26.001s-3.16699 15.5 -9.5 20.5s-13.5 7.5 -21.5 7.5c-11.333 0 -21.666 -5.66699 -30.999 -17z" />
    <glyph glyph-name="Ugrave" unicode="&#xd9;" horiz-adv-x="668" 
d="M373 776c8 -3.33301 14.5 -5.66602 19.5 -6.99902s9.83301 -2 14.5 -2c12 0 21.333 4.66699 28 14s10 18.666 10 27.999c0 6.66699 -2.5 13.167 -7.5 19.5s-14.167 12.166 -27.5 17.499l-115 47c-8 3.33301 -14.5 5.66602 -19.5 6.99902s-9.83301 2 -14.5 2
c-12 0 -21.333 -4.66699 -28 -14s-10 -18.666 -10 -27.999c0 -6.66699 2.66699 -13.167 8 -19.5s14.333 -12.166 27 -17.499zM58 282c0 -56.667 8.16699 -104.167 24.5 -142.5s38 -68 65 -89s56.333 -35.667 88 -44s64.5 -12.5 98.5 -12.5s66.833 4.16699 98.5 12.5
s61 23 88 44s48.667 50.667 65 89s24.5 85.833 24.5 142.5v389c0 14.667 -4 26.167 -12 34.5s-18.667 12.5 -32 12.5s-24 -4.16699 -32 -12.5s-12 -19.833 -12 -34.5v-423c0 -55.333 -17.167 -98.833 -51.5 -130.5s-79.833 -47.5 -136.5 -47.5s-102.167 15.833 -136.5 47.5
s-51.5 75.167 -51.5 130.5v423c0 14.667 -4 26.167 -12 34.5s-18.667 12.5 -32 12.5s-24 -4.16699 -32 -12.5s-12 -19.833 -12 -34.5v-389z" />
    <glyph glyph-name="Uacute" unicode="&#xda;" horiz-adv-x="668" 
d="M410 823c13.333 5.33301 22.5 11.166 27.5 17.499s7.5 12.833 7.5 19.5c0 9.33301 -3.33301 18.666 -10 27.999s-16 14 -28 14c-4.66699 0 -9.5 -0.666992 -14.5 -2s-11.5 -3.66602 -19.5 -6.99902l-115 -47c-12.667 -5.33301 -21.667 -11.166 -27 -17.499
s-8 -12.833 -8 -19.5c0 -9.33301 3.33301 -18.666 10 -27.999s16 -14 28 -14c4.66699 0 9.5 0.666992 14.5 2s11.5 3.66602 19.5 6.99902zM58 282c0 -56.667 8.16699 -104.167 24.5 -142.5s38 -68 65 -89s56.333 -35.667 88 -44s64.5 -12.5 98.5 -12.5
s66.833 4.16699 98.5 12.5s61 23 88 44s48.667 50.667 65 89s24.5 85.833 24.5 142.5v389c0 14.667 -4 26.167 -12 34.5s-18.667 12.5 -32 12.5s-24 -4.16699 -32 -12.5s-12 -19.833 -12 -34.5v-423c0 -55.333 -17.167 -98.833 -51.5 -130.5s-79.833 -47.5 -136.5 -47.5
s-102.167 15.833 -136.5 47.5s-51.5 75.167 -51.5 130.5v423c0 14.667 -4 26.167 -12 34.5s-18.667 12.5 -32 12.5s-24 -4.16699 -32 -12.5s-12 -19.833 -12 -34.5v-389z" />
    <glyph glyph-name="Ucircumflex" unicode="&#xdb;" horiz-adv-x="668" 
d="M205 840c-15.333 -6.66699 -23 -18.334 -23 -35.001c0 -10.667 3.33301 -19.667 10 -27s15.334 -11 26.001 -11c7.33301 0 14.666 1.66699 21.999 5l94 37l94 -37c7.33301 -3.33301 14.666 -5 21.999 -5c10.667 0 19.334 3.66699 26.001 11s10 16.333 10 27
c0 16.667 -7.66699 28.334 -23 35.001l-129 55zM58 282c0 -56.667 8.16699 -104.167 24.5 -142.5s38 -68 65 -89s56.333 -35.667 88 -44s64.5 -12.5 98.5 -12.5s66.833 4.16699 98.5 12.5s61 23 88 44s48.667 50.667 65 89s24.5 85.833 24.5 142.5v389
c0 14.667 -4 26.167 -12 34.5s-18.667 12.5 -32 12.5s-24 -4.16699 -32 -12.5s-12 -19.833 -12 -34.5v-423c0 -55.333 -17.167 -98.833 -51.5 -130.5s-79.833 -47.5 -136.5 -47.5s-102.167 15.833 -136.5 47.5s-51.5 75.167 -51.5 130.5v423c0 14.667 -4 26.167 -12 34.5
s-18.667 12.5 -32 12.5s-24 -4.16699 -32 -12.5s-12 -19.833 -12 -34.5v-389z" />
    <glyph glyph-name="Udieresis" unicode="&#xdc;" horiz-adv-x="668" 
d="M187 818c0 -14.667 5.33301 -27.334 16 -38.001s23.334 -16 38.001 -16s27.334 5.33301 38.001 16s16 23.334 16 38.001s-5.33301 27.334 -16 38.001s-23.334 16 -38.001 16s-27.334 -5.33301 -38.001 -16s-16 -23.334 -16 -38.001zM373 818
c0 -14.667 5.33301 -27.334 16 -38.001s23.334 -16 38.001 -16s27.334 5.33301 38.001 16s16 23.334 16 38.001s-5.33301 27.334 -16 38.001s-23.334 16 -38.001 16s-27.334 -5.33301 -38.001 -16s-16 -23.334 -16 -38.001zM58 282c0 -56.667 8.16699 -104.167 24.5 -142.5
s38 -68 65 -89s56.333 -35.667 88 -44s64.5 -12.5 98.5 -12.5s66.833 4.16699 98.5 12.5s61 23 88 44s48.667 50.667 65 89s24.5 85.833 24.5 142.5v389c0 14.667 -4 26.167 -12 34.5s-18.667 12.5 -32 12.5s-24 -4.16699 -32 -12.5s-12 -19.833 -12 -34.5v-423
c0 -55.333 -17.167 -98.833 -51.5 -130.5s-79.833 -47.5 -136.5 -47.5s-102.167 15.833 -136.5 47.5s-51.5 75.167 -51.5 130.5v423c0 14.667 -4 26.167 -12 34.5s-18.667 12.5 -32 12.5s-24 -4.16699 -32 -12.5s-12 -19.833 -12 -34.5v-389z" />
    <glyph glyph-name="Yacute" unicode="&#xdd;" horiz-adv-x="500" 
d="M326 823c13.333 5.33301 22.5 11.166 27.5 17.499s7.5 12.833 7.5 19.5c0 9.33301 -3.33301 18.666 -10 27.999s-16 14 -28 14c-4.66699 0 -9.5 -0.666992 -14.5 -2s-11.5 -3.66602 -19.5 -6.99902l-115 -47c-12.667 -5.33301 -21.667 -11.166 -27 -17.499
s-8 -12.833 -8 -19.5c0 -9.33301 3.33301 -18.666 10 -27.999s16 -14 28 -14c4.66699 0 9.5 0.666992 14.5 2s11.5 3.66602 19.5 6.99902zM206 41c0 -14.667 4.00098 -26.167 12.001 -34.5s18.667 -12.5 32 -12.5s24 4.16699 32 12.5s12 19.833 12 34.5v293l191 311
c9.33301 14.667 14 27 14 37c0 10.667 -3.83301 19.334 -11.5 26.001s-17.167 10 -28.5 10c-18 0 -32.667 -9.33301 -44 -28l-165 -269l-165 269c-10.667 18.667 -25.334 28 -44.001 28c-11.333 0 -20.833 -3.33301 -28.5 -10s-11.5 -15.334 -11.5 -26.001
c0 -10 4.66699 -22.333 14 -37l191 -311v-293z" />
    <glyph glyph-name="Thorn" unicode="&#xde;" horiz-adv-x="519" 
d="M146 524h126c26.667 0 49.5 -4.33301 68.5 -13s34.5 -20 46.5 -34s20.833 -29.667 26.5 -47s8.5 -35 8.5 -53c0 -41.333 -13.667 -75.833 -41 -103.5s-62.333 -41.5 -105 -41.5h-130v292zM146 156l136.001 0.000976562c32 0 62 5.66699 90 17s52.333 27.166 73 47.499
s36.667 44 48 71s17 55.5 17 85.5c0 30.667 -5.33301 59.5 -16 86.5s-26.167 50.833 -46.5 71.5s-44.833 36.667 -73.5 48s-60.334 17 -95.001 17h-133v71c0 14.667 -4 26.167 -12 34.5s-18.667 12.5 -32 12.5s-24 -4.16699 -32 -12.5s-12 -19.833 -12 -34.5v-630
c0 -14.667 4 -26.167 12 -34.5s18.667 -12.5 32 -12.5s24 4.16699 32 12.5s12 19.833 12 34.5v115z" />
    <glyph glyph-name="germandbls" unicode="&#xdf;" horiz-adv-x="556" 
d="M58 37c0 -14 4.33203 -24.6738 12.999 -32.0068s19 -11 31 -11s22.333 3.66699 31 11s13 18 13 32v509c0 28.667 3 52.834 9 72.501s14 35.167 24 46.5s21.167 19.333 33.5 24s25.5 7 39.5 7c33.333 0 59.833 -11 79.5 -33s29.5 -49.667 29.5 -83
c0 -23.333 -2 -42.666 -6 -57.999s-9.33301 -27.333 -16 -36s-13.834 -15.167 -21.501 -19.5s-16.5 -8.16602 -26.5 -11.499c-18 -5.33301 -30 -10.666 -36 -15.999s-9 -14.666 -9 -27.999c0 -22.667 15 -35 45 -37c35.333 -2 64.333 -15.5 87 -40.5s34 -60.167 34 -105.5
c0 -49.333 -9.66699 -87.5 -29 -114.5s-52.666 -40.5 -99.999 -40.5c-11.333 0 -19.666 -3.66699 -24.999 -11s-8 -16.333 -8 -27c0 -12.667 4.66699 -22.667 14 -30s24 -11 44 -11c30.667 0 58.334 6.66699 83.001 20s45.5 31.333 62.5 54s30 47.667 39 75
s13.5 54.333 13.5 81c0 47.333 -12 89.5 -36 126.5s-56.667 60.833 -98 71.5c51.333 35.333 77 91.333 77 168c0 21.333 -4.66699 42.833 -14 64.5s-22.833 41.334 -40.5 59.001s-38.834 31.834 -63.501 42.501s-51.667 16 -81 16c-58 0 -104.5 -18.667 -139.5 -56
s-52.5 -88.333 -52.5 -153v-526z" />
    <glyph glyph-name="agrave" unicode="&#xe0;" horiz-adv-x="556" 
d="M317 616c8 -3.33301 14.5 -5.66602 19.5 -6.99902s9.83301 -2 14.5 -2c12 0 21.333 4.66699 28 14s10 18.666 10 27.999c0 6.66699 -2.5 13.167 -7.5 19.5s-14.167 12.166 -27.5 17.499l-115 47c-8 3.33301 -14.5 5.66602 -19.5 6.99902s-9.83301 2 -14.5 2
c-12 0 -21.333 -4.66699 -28 -14s-10 -18.666 -10 -27.999c0 -6.66699 2.66699 -13.167 8 -19.5s14.333 -12.166 27 -17.499zM498 495c0 14 -4.33203 24.6709 -12.999 32.0039s-18 11 -28 11c-10.667 0 -20.167 -3.66699 -28.5 -11s-12.5 -18 -12.5 -32v-28h-2
c-21.333 24 -43.5 41.833 -66.5 53.5s-49.167 17.5 -78.5 17.5c-36.667 0 -69.5 -7.33301 -98.5 -22s-53.667 -34.834 -74 -60.501s-35.666 -54.834 -45.999 -87.501s-15.5 -66.667 -15.5 -102s5.16699 -69.333 15.5 -102s25.666 -61.834 45.999 -87.501
s45 -45.834 74 -60.501s61.833 -22 98.5 -22c59.333 0 107.666 26.667 144.999 80h2v-37c0 -14 4.16699 -24.667 12.5 -32s17.833 -11 28.5 -11c10 0 19.333 3.66699 28 11s13 18 13 32v458zM123.001 266.004c0 24 2.66699 47.333 8 70s13.833 43.667 25.5 63
s26.834 34.666 45.501 45.999s41 17 67 17s48.333 -5.66699 67 -17s33.834 -26.666 45.501 -45.999s20.167 -40.333 25.5 -63s8 -46 8 -70s-2.66699 -47.333 -8 -70s-13.833 -43.667 -25.5 -63s-26.834 -34.666 -45.501 -45.999s-41 -17 -67 -17s-48.333 5.66699 -67 17
s-33.834 26.666 -45.501 45.999s-20.167 40.333 -25.5 63s-8 46 -8 70z" />
    <glyph glyph-name="aacute" unicode="&#xe1;" horiz-adv-x="556" 
d="M354 663c13.333 5.33301 22.5 11.166 27.5 17.499s7.5 12.833 7.5 19.5c0 9.33301 -3.33301 18.666 -10 27.999s-16 14 -28 14c-4.66699 0 -9.5 -0.666992 -14.5 -2s-11.5 -3.66602 -19.5 -6.99902l-115 -47c-12.667 -5.33301 -21.667 -11.166 -27 -17.499
s-8 -12.833 -8 -19.5c0 -9.33301 3.33301 -18.666 10 -27.999s16 -14 28 -14c4.66699 0 9.5 0.666992 14.5 2s11.5 3.66602 19.5 6.99902zM498 495c0 14 -4.33203 24.6709 -12.999 32.0039s-18 11 -28 11c-10.667 0 -20.167 -3.66699 -28.5 -11s-12.5 -18 -12.5 -32v-28h-2
c-21.333 24 -43.5 41.833 -66.5 53.5s-49.167 17.5 -78.5 17.5c-36.667 0 -69.5 -7.33301 -98.5 -22s-53.667 -34.834 -74 -60.501s-35.666 -54.834 -45.999 -87.501s-15.5 -66.667 -15.5 -102s5.16699 -69.333 15.5 -102s25.666 -61.834 45.999 -87.501
s45 -45.834 74 -60.501s61.833 -22 98.5 -22c59.333 0 107.666 26.667 144.999 80h2v-37c0 -14 4.16699 -24.667 12.5 -32s17.833 -11 28.5 -11c10 0 19.333 3.66699 28 11s13 18 13 32v458zM123.001 266.004c0 24 2.66699 47.333 8 70s13.833 43.667 25.5 63
s26.834 34.666 45.501 45.999s41 17 67 17s48.333 -5.66699 67 -17s33.834 -26.666 45.501 -45.999s20.167 -40.333 25.5 -63s8 -46 8 -70s-2.66699 -47.333 -8 -70s-13.833 -43.667 -25.5 -63s-26.834 -34.666 -45.501 -45.999s-41 -17 -67 -17s-48.333 5.66699 -67 17
s-33.834 26.666 -45.501 45.999s-20.167 40.333 -25.5 63s-8 46 -8 70z" />
    <glyph glyph-name="acircumflex" unicode="&#xe2;" horiz-adv-x="556" 
d="M149 680c-15.333 -6.66699 -23 -18.334 -23 -35.001c0 -10.667 3.33301 -19.667 10 -27s15.334 -11 26.001 -11c7.33301 0 14.666 1.66699 21.999 5l94 37l94 -37c7.33301 -3.33301 14.666 -5 21.999 -5c10.667 0 19.334 3.66699 26.001 11s10 16.333 10 27
c0 16.667 -7.66699 28.334 -23 35.001l-129 55zM498 495c0 14 -4.33203 24.6709 -12.999 32.0039s-18 11 -28 11c-10.667 0 -20.167 -3.66699 -28.5 -11s-12.5 -18 -12.5 -32v-28h-2c-21.333 24 -43.5 41.833 -66.5 53.5s-49.167 17.5 -78.5 17.5
c-36.667 0 -69.5 -7.33301 -98.5 -22s-53.667 -34.834 -74 -60.501s-35.666 -54.834 -45.999 -87.501s-15.5 -66.667 -15.5 -102s5.16699 -69.333 15.5 -102s25.666 -61.834 45.999 -87.501s45 -45.834 74 -60.501s61.833 -22 98.5 -22c59.333 0 107.666 26.667 144.999 80
h2v-37c0 -14 4.16699 -24.667 12.5 -32s17.833 -11 28.5 -11c10 0 19.333 3.66699 28 11s13 18 13 32v458zM123.001 266.004c0 24 2.66699 47.333 8 70s13.833 43.667 25.5 63s26.834 34.666 45.501 45.999s41 17 67 17s48.333 -5.66699 67 -17
s33.834 -26.666 45.501 -45.999s20.167 -40.333 25.5 -63s8 -46 8 -70s-2.66699 -47.333 -8 -70s-13.833 -43.667 -25.5 -63s-26.834 -34.666 -45.501 -45.999s-41 -17 -67 -17s-48.333 5.66699 -67 17s-33.834 26.666 -45.501 45.999s-20.167 40.333 -25.5 63s-8 46 -8 70z
" />
    <glyph glyph-name="atilde" unicode="&#xe3;" horiz-adv-x="556" 
d="M129 655c0 -10 3.5 -18.999 10.5 -26.999s14.5 -12 22.5 -12c7.33301 0 16.666 3 27.999 9c12.667 7.33301 24 11 34 11c12.667 0 29.334 -3 50.001 -9c24 -7.33301 44 -11 60 -11c26.667 0 48.834 6.5 66.501 19.5s26.5 27.5 26.5 43.5c0 10 -3.5 19 -10.5 27
s-14.5 12 -22.5 12c-7.33301 0 -16.666 -3 -27.999 -9c-12.667 -7.33301 -24 -11 -34 -11c-12.667 0 -29.334 3 -50.001 9c-24 7.33301 -44 11 -60 11c-26.667 0 -48.834 -6.33301 -66.501 -19s-26.5 -27.334 -26.5 -44.001zM498 495.001
c0 14 -4.33203 24.6709 -12.999 32.0039s-18 11 -28 11c-10.667 0 -20.167 -3.66699 -28.5 -11s-12.5 -18 -12.5 -32v-28h-2c-21.333 24 -43.5 41.833 -66.5 53.5s-49.167 17.5 -78.5 17.5c-36.667 0 -69.5 -7.33301 -98.5 -22s-53.667 -34.834 -74 -60.501
s-35.666 -54.834 -45.999 -87.501s-15.5 -66.667 -15.5 -102s5.16699 -69.333 15.5 -102s25.666 -61.834 45.999 -87.501s45 -45.834 74 -60.501s61.833 -22 98.5 -22c59.333 0 107.666 26.667 144.999 80h2v-37c0 -14 4.16699 -24.667 12.5 -32s17.833 -11 28.5 -11
c10 0 19.333 3.66699 28 11s13 18 13 32v458zM123.001 266.005c0 24 2.66699 47.333 8 70s13.833 43.667 25.5 63s26.834 34.666 45.501 45.999s41 17 67 17s48.333 -5.66699 67 -17s33.834 -26.666 45.501 -45.999s20.167 -40.333 25.5 -63s8 -46 8 -70
s-2.66699 -47.333 -8 -70s-13.833 -43.667 -25.5 -63s-26.834 -34.666 -45.501 -45.999s-41 -17 -67 -17s-48.333 5.66699 -67 17s-33.834 26.666 -45.501 45.999s-20.167 40.333 -25.5 63s-8 46 -8 70z" />
    <glyph glyph-name="adieresis" unicode="&#xe4;" horiz-adv-x="556" 
d="M131 658c0 -14.667 5.33301 -27.334 16 -38.001s23.334 -16 38.001 -16s27.334 5.33301 38.001 16s16 23.334 16 38.001s-5.33301 27.334 -16 38.001s-23.334 16 -38.001 16s-27.334 -5.33301 -38.001 -16s-16 -23.334 -16 -38.001zM317 658
c0 -14.667 5.33301 -27.334 16 -38.001s23.334 -16 38.001 -16s27.334 5.33301 38.001 16s16 23.334 16 38.001s-5.33301 27.334 -16 38.001s-23.334 16 -38.001 16s-27.334 -5.33301 -38.001 -16s-16 -23.334 -16 -38.001zM498 495c0 14 -4.33203 24.6709 -12.999 32.0039
s-18 11 -28 11c-10.667 0 -20.167 -3.66699 -28.5 -11s-12.5 -18 -12.5 -32v-28h-2c-21.333 24 -43.5 41.833 -66.5 53.5s-49.167 17.5 -78.5 17.5c-36.667 0 -69.5 -7.33301 -98.5 -22s-53.667 -34.834 -74 -60.501s-35.666 -54.834 -45.999 -87.501
s-15.5 -66.667 -15.5 -102s5.16699 -69.333 15.5 -102s25.666 -61.834 45.999 -87.501s45 -45.834 74 -60.501s61.833 -22 98.5 -22c59.333 0 107.666 26.667 144.999 80h2v-37c0 -14 4.16699 -24.667 12.5 -32s17.833 -11 28.5 -11c10 0 19.333 3.66699 28 11s13 18 13 32
v458zM123.001 266.004c0 24 2.66699 47.333 8 70s13.833 43.667 25.5 63s26.834 34.666 45.501 45.999s41 17 67 17s48.333 -5.66699 67 -17s33.834 -26.666 45.501 -45.999s20.167 -40.333 25.5 -63s8 -46 8 -70s-2.66699 -47.333 -8 -70s-13.833 -43.667 -25.5 -63
s-26.834 -34.666 -45.501 -45.999s-41 -17 -67 -17s-48.333 5.66699 -67 17s-33.834 26.666 -45.501 45.999s-20.167 40.333 -25.5 63s-8 46 -8 70z" />
    <glyph glyph-name="aring" unicode="&#xe5;" horiz-adv-x="556" 
d="M184 678c0 -26 9.16699 -48.167 27.5 -66.5s40.5 -27.5 66.5 -27.5s48.167 9.16699 66.5 27.5s27.5 40.5 27.5 66.5s-9.16699 48.167 -27.5 66.5s-40.5 27.5 -66.5 27.5s-48.167 -9.16699 -66.5 -27.5s-27.5 -40.5 -27.5 -66.5zM232 678c0 12.667 4.5 23.5 13.5 32.5
s19.833 13.5 32.5 13.5s23.5 -4.5 32.5 -13.5s13.5 -19.833 13.5 -32.5s-4.5 -23.5 -13.5 -32.5s-19.833 -13.5 -32.5 -13.5s-23.5 4.5 -32.5 13.5s-13.5 19.833 -13.5 32.5zM498 495c0 14 -4.33203 24.6709 -12.999 32.0039s-18 11 -28 11
c-10.667 0 -20.167 -3.66699 -28.5 -11s-12.5 -18 -12.5 -32v-28h-2c-21.333 24 -43.5 41.833 -66.5 53.5s-49.167 17.5 -78.5 17.5c-36.667 0 -69.5 -7.33301 -98.5 -22s-53.667 -34.834 -74 -60.501s-35.666 -54.834 -45.999 -87.501s-15.5 -66.667 -15.5 -102
s5.16699 -69.333 15.5 -102s25.666 -61.834 45.999 -87.501s45 -45.834 74 -60.501s61.833 -22 98.5 -22c59.333 0 107.666 26.667 144.999 80h2v-37c0 -14 4.16699 -24.667 12.5 -32s17.833 -11 28.5 -11c10 0 19.333 3.66699 28 11s13 18 13 32v458zM123.001 266.004
c0 24 2.66699 47.333 8 70s13.833 43.667 25.5 63s26.834 34.666 45.501 45.999s41 17 67 17s48.333 -5.66699 67 -17s33.834 -26.666 45.501 -45.999s20.167 -40.333 25.5 -63s8 -46 8 -70s-2.66699 -47.333 -8 -70s-13.833 -43.667 -25.5 -63
s-26.834 -34.666 -45.501 -45.999s-41 -17 -67 -17s-48.333 5.66699 -67 17s-33.834 26.666 -45.501 45.999s-20.167 40.333 -25.5 63s-8 46 -8 70z" />
    <glyph glyph-name="ae" unicode="&#xe6;" horiz-adv-x="889" 
d="M123 266c0 24 2.66699 47.333 8 70s13.833 43.667 25.5 63s26.834 34.666 45.501 45.999s41 17 67 17s48.333 -5.66699 67 -17s33.834 -26.666 45.501 -45.999s20.167 -40.333 25.5 -63s8 -46 8 -70s-2.66699 -47.333 -8 -70s-13.833 -43.667 -25.5 -63
s-26.834 -34.666 -45.501 -45.999s-41 -17 -67 -17s-48.333 5.66699 -67 17s-33.834 26.666 -45.501 45.999s-20.167 40.333 -25.5 63s-8 46 -8 70zM415 37c0 -14 4.16602 -24.6621 12.499 -31.9951s17.833 -11 28.5 -11c10 0 19.333 3.66699 28 11s13 18 13 32v21h2
c16.667 -21.333 38.667 -37.333 66 -48s57.666 -16 90.999 -16c22.667 0 45.667 3.5 69 10.5s44.5 16 63.5 27s34.333 23 46 36s17.5 24.833 17.5 35.5c0 12 -3.16699 21.5 -9.5 28.5s-13.833 10.5 -22.5 10.5c-8.66699 -0.666992 -21.667 -7.66699 -39 -21
c-18.667 -14.667 -37.667 -26.334 -57 -35.001s-44 -13.334 -74 -14.001c-49.333 0 -88 15.833 -116 47.5s-43 69.167 -45 112.5h325c18.667 0 31.5 3.83301 38.5 11.5s10.5 19.5 10.5 35.5c0 38 -6.16699 73 -18.5 105s-29.166 59.5 -50.499 82.5s-45.333 40.667 -72 53
s-54.334 18.5 -83.001 18.5c-16.667 0 -33 -2.5 -49 -7.5s-30.167 -11.167 -42.5 -18.5s-22.666 -14.666 -30.999 -21.999s-14.166 -13 -17.499 -17h-2v22c0 14 -4.33301 24.667 -13 32s-18 11 -28 11c-10.667 0 -20.167 -3.66699 -28.5 -11s-12.5 -18 -12.5 -32v-28h-2
c-21.333 24 -43.333 41.833 -66 53.5s-48.667 17.5 -78 17.5c-36.667 0 -69.5 -7.33301 -98.5 -22s-53.667 -34.834 -74 -60.501s-35.666 -54.834 -45.999 -87.501s-15.5 -66.667 -15.5 -102s5.16699 -69.333 15.5 -102s25.666 -61.834 45.999 -87.501
s45 -45.834 74 -60.501s61.833 -22 98.5 -22c59.333 0 107.333 26.667 144 80h2v-37zM494.999 298.005c0 20 2.66699 39.6641 8 58.9971s13.5 37 24.5 53s25.5 28.667 43.5 38s39 14 63 14c23.333 0 43.833 -4.66699 61.5 -14s32.5 -22.166 44.5 -38.499
s20.833 -34.166 26.5 -53.499s8.5 -38.666 8.5 -57.999h-280z" />
    <glyph glyph-name="ccedilla" unicode="&#xe7;" horiz-adv-x="444" 
d="M284 -5c40.667 0.666992 72.667 7.83398 96 21.501s35 29.167 35 46.5c0 24.667 -11.333 37 -34 37c-7.33301 0 -18 -3.66699 -32 -11c-11.333 -6 -22.5 -10.667 -33.5 -14s-24.5 -5 -40.5 -5c-26 0 -48.667 5.66699 -68 17s-35.333 26.666 -48 45.999
s-21.834 40.5 -27.501 63.5s-8.5 46.167 -8.5 69.5s2.83301 46.5 8.5 69.5s14.834 44.167 27.501 63.5s28.667 34.666 48 45.999s42 17 68 17c15.333 0 27.833 -1.5 37.5 -4.5s20.167 -7.16699 31.5 -12.5c15.333 -7.33301 28 -11 38 -11s18.5 3.83301 25.5 11.5
s10.5 16.167 10.5 25.5c0 18.667 -13 34.5 -39 47.5s-60.667 19.5 -104 19.5c-39.333 0 -74.166 -7.33301 -104.499 -22s-55.5 -34.667 -75.5 -60s-35 -54.333 -45 -87s-15 -67 -15 -103c0 -68 17 -127.333 51 -178s83 -80.667 147 -90l-24 -35
c-6.66699 -10 -10 -18.333 -10 -25c0 -4 2.33301 -8.16699 7 -12.5s12.334 -6.5 23.001 -6.5c17.333 0 29 -1 35 -3s9 -7 9 -15c0 -18 -11.667 -27 -35 -27c-6 0 -16 1.33301 -30 4c-10.667 2.66699 -18 4 -22 4c-6.66699 0 -11.834 -2.66699 -15.501 -8
s-5.5 -11.666 -5.5 -18.999c0 -10.667 6.83301 -19.167 20.5 -25.5s31.167 -9.5 52.5 -9.5c34 0 61 7 81 21s30 35.667 30 65c0 12.667 -6.33301 25 -19 37s-29.334 18 -50.001 18c-5.33301 0 -11.333 -0.666992 -18 -2c0 -0.666992 -1 -1 -3 -1z" />
    <glyph glyph-name="egrave" unicode="&#xe8;" horiz-adv-x="520" 
d="M299 616c8 -3.33301 14.5 -5.66602 19.5 -6.99902s9.83301 -2 14.5 -2c12 0 21.333 4.66699 28 14s10 18.666 10 27.999c0 6.66699 -2.5 13.167 -7.5 19.5s-14.167 12.166 -27.5 17.499l-115 47c-8 3.33301 -14.5 5.66602 -19.5 6.99902s-9.83301 2 -14.5 2
c-12 0 -21.333 -4.66699 -28 -14s-10 -18.666 -10 -27.999c0 -6.66699 2.66699 -13.167 8 -19.5s14.333 -12.166 27 -17.499zM445 232c18.667 0 31.5 3.83008 38.5 11.4971s10.5 19.5 10.5 35.5c0 32 -5.16699 63.5 -15.5 94.5s-25.5 59 -45.5 84s-44.167 44.667 -72.5 59
s-60.166 21.5 -95.499 21.5c-36 0 -68.833 -7.16699 -98.5 -21.5s-55 -34.166 -76 -59.499s-37 -54.5 -48 -87.5s-16.5 -67.5 -16.5 -103.5s4.83301 -70.333 14.5 -103s24.5 -61.667 44.5 -87s45.5 -45.333 76.5 -60s67.167 -22 108.5 -22c25.333 0 50.666 3.5 75.999 10.5
s48.333 16.167 69 27.5s37.167 23.333 49.5 36s18.5 24.334 18.5 35.001c0 12 -3.16699 21.5 -9.5 28.5s-13.833 10.5 -22.5 10.5c-7.33301 0 -19.666 -6.66699 -36.999 -20c-20.667 -16 -41.334 -28.667 -62.001 -38s-47.667 -14 -81 -14c-48 0 -86.167 15.333 -114.5 46
s-42.5 69.334 -42.5 116.001h331zM114 297.997c0.666992 21.333 4 41.666 10 60.999s14.833 36.666 26.5 51.999s27 27.666 46 36.999s41.833 14 68.5 14c23.333 0 43.833 -4.66699 61.5 -14s32.5 -22.166 44.5 -38.499s20.833 -34.166 26.5 -53.499
s8.5 -38.666 8.5 -57.999h-292z" />
    <glyph glyph-name="eacute" unicode="&#xe9;" horiz-adv-x="520" 
d="M336 663c13.333 5.33301 22.5 11.166 27.5 17.499s7.5 12.833 7.5 19.5c0 9.33301 -3.33301 18.666 -10 27.999s-16 14 -28 14c-4.66699 0 -9.5 -0.666992 -14.5 -2s-11.5 -3.66602 -19.5 -6.99902l-115 -47c-12.667 -5.33301 -21.667 -11.166 -27 -17.499
s-8 -12.833 -8 -19.5c0 -9.33301 3.33301 -18.666 10 -27.999s16 -14 28 -14c4.66699 0 9.5 0.666992 14.5 2s11.5 3.66602 19.5 6.99902zM445 232c18.667 0 31.5 3.83008 38.5 11.4971s10.5 19.5 10.5 35.5c0 32 -5.16699 63.5 -15.5 94.5s-25.5 59 -45.5 84
s-44.167 44.667 -72.5 59s-60.166 21.5 -95.499 21.5c-36 0 -68.833 -7.16699 -98.5 -21.5s-55 -34.166 -76 -59.499s-37 -54.5 -48 -87.5s-16.5 -67.5 -16.5 -103.5s4.83301 -70.333 14.5 -103s24.5 -61.667 44.5 -87s45.5 -45.333 76.5 -60s67.167 -22 108.5 -22
c25.333 0 50.666 3.5 75.999 10.5s48.333 16.167 69 27.5s37.167 23.333 49.5 36s18.5 24.334 18.5 35.001c0 12 -3.16699 21.5 -9.5 28.5s-13.833 10.5 -22.5 10.5c-7.33301 0 -19.666 -6.66699 -36.999 -20c-20.667 -16 -41.334 -28.667 -62.001 -38s-47.667 -14 -81 -14
c-48 0 -86.167 15.333 -114.5 46s-42.5 69.334 -42.5 116.001h331zM114 297.997c0.666992 21.333 4 41.666 10 60.999s14.833 36.666 26.5 51.999s27 27.666 46 36.999s41.833 14 68.5 14c23.333 0 43.833 -4.66699 61.5 -14s32.5 -22.166 44.5 -38.499
s20.833 -34.166 26.5 -53.499s8.5 -38.666 8.5 -57.999h-292z" />
    <glyph glyph-name="ecircumflex" unicode="&#xea;" horiz-adv-x="520" 
d="M131 680c-15.333 -6.66699 -23 -18.334 -23 -35.001c0 -10.667 3.33301 -19.667 10 -27s15.334 -11 26.001 -11c7.33301 0 14.666 1.66699 21.999 5l94 37l94 -37c7.33301 -3.33301 14.666 -5 21.999 -5c10.667 0 19.334 3.66699 26.001 11s10 16.333 10 27
c0 16.667 -7.66699 28.334 -23 35.001l-129 55zM445 232c18.667 0 31.5 3.83008 38.5 11.4971s10.5 19.5 10.5 35.5c0 32 -5.16699 63.5 -15.5 94.5s-25.5 59 -45.5 84s-44.167 44.667 -72.5 59s-60.166 21.5 -95.499 21.5c-36 0 -68.833 -7.16699 -98.5 -21.5
s-55 -34.166 -76 -59.499s-37 -54.5 -48 -87.5s-16.5 -67.5 -16.5 -103.5s4.83301 -70.333 14.5 -103s24.5 -61.667 44.5 -87s45.5 -45.333 76.5 -60s67.167 -22 108.5 -22c25.333 0 50.666 3.5 75.999 10.5s48.333 16.167 69 27.5s37.167 23.333 49.5 36
s18.5 24.334 18.5 35.001c0 12 -3.16699 21.5 -9.5 28.5s-13.833 10.5 -22.5 10.5c-7.33301 0 -19.666 -6.66699 -36.999 -20c-20.667 -16 -41.334 -28.667 -62.001 -38s-47.667 -14 -81 -14c-48 0 -86.167 15.333 -114.5 46s-42.5 69.334 -42.5 116.001h331zM114 297.997
c0.666992 21.333 4 41.666 10 60.999s14.833 36.666 26.5 51.999s27 27.666 46 36.999s41.833 14 68.5 14c23.333 0 43.833 -4.66699 61.5 -14s32.5 -22.166 44.5 -38.499s20.833 -34.166 26.5 -53.499s8.5 -38.666 8.5 -57.999h-292z" />
    <glyph glyph-name="edieresis" unicode="&#xeb;" horiz-adv-x="520" 
d="M113 658c0 -14.667 5.33301 -27.334 16 -38.001s23.334 -16 38.001 -16s27.334 5.33301 38.001 16s16 23.334 16 38.001s-5.33301 27.334 -16 38.001s-23.334 16 -38.001 16s-27.334 -5.33301 -38.001 -16s-16 -23.334 -16 -38.001zM299 658
c0 -14.667 5.33301 -27.334 16 -38.001s23.334 -16 38.001 -16s27.334 5.33301 38.001 16s16 23.334 16 38.001s-5.33301 27.334 -16 38.001s-23.334 16 -38.001 16s-27.334 -5.33301 -38.001 -16s-16 -23.334 -16 -38.001zM445 232c18.667 0 31.5 3.83008 38.5 11.4971
s10.5 19.5 10.5 35.5c0 32 -5.16699 63.5 -15.5 94.5s-25.5 59 -45.5 84s-44.167 44.667 -72.5 59s-60.166 21.5 -95.499 21.5c-36 0 -68.833 -7.16699 -98.5 -21.5s-55 -34.166 -76 -59.499s-37 -54.5 -48 -87.5s-16.5 -67.5 -16.5 -103.5s4.83301 -70.333 14.5 -103
s24.5 -61.667 44.5 -87s45.5 -45.333 76.5 -60s67.167 -22 108.5 -22c25.333 0 50.666 3.5 75.999 10.5s48.333 16.167 69 27.5s37.167 23.333 49.5 36s18.5 24.334 18.5 35.001c0 12 -3.16699 21.5 -9.5 28.5s-13.833 10.5 -22.5 10.5
c-7.33301 0 -19.666 -6.66699 -36.999 -20c-20.667 -16 -41.334 -28.667 -62.001 -38s-47.667 -14 -81 -14c-48 0 -86.167 15.333 -114.5 46s-42.5 69.334 -42.5 116.001h331zM114 297.997c0.666992 21.333 4 41.666 10 60.999s14.833 36.666 26.5 51.999
s27 27.666 46 36.999s41.833 14 68.5 14c23.333 0 43.833 -4.66699 61.5 -14s32.5 -22.166 44.5 -38.499s20.833 -34.166 26.5 -53.499s8.5 -38.666 8.5 -57.999h-292z" />
    <glyph glyph-name="igrave" unicode="&#xec;" 
d="M141 616c8 -3.33301 14.5 -5.66602 19.5 -6.99902s9.83301 -2 14.5 -2c12 0 21.333 4.66699 28 14s10 18.666 10 27.999c0 6.66699 -2.5 13.167 -7.5 19.5s-14.167 12.166 -27.5 17.499l-115 47c-8 3.33301 -14.5 5.66602 -19.5 6.99902s-9.83301 2 -14.5 2
c-12 0 -21.333 -4.66699 -28 -14s-10 -18.666 -10 -27.999c0 -6.66699 2.5 -13.167 7.5 -19.5s14.167 -12.166 27.5 -17.499zM146 491c0 14.667 -4 26.167 -12 34.5s-18.667 12.5 -32 12.5s-24 -4.16699 -32 -12.5s-12 -19.833 -12 -34.5v-450c0 -14.667 4 -26.167 12 -34.5
s18.667 -12.5 32 -12.5s24 4.16699 32 12.5s12 19.833 12 34.5v450z" />
    <glyph glyph-name="iacute" unicode="&#xed;" 
d="M178 663c13.333 5.33301 22.5 11.166 27.5 17.499s7.5 12.833 7.5 19.5c0 9.33301 -3.33301 18.666 -10 27.999s-16 14 -28 14c-4.66699 0 -9.5 -0.666992 -14.5 -2s-11.5 -3.66602 -19.5 -6.99902l-115 -47c-13.333 -5.33301 -22.5 -11.166 -27.5 -17.499
s-7.5 -12.833 -7.5 -19.5c0 -9.33301 3.33301 -18.666 10 -27.999s16 -14 28 -14c4.66699 0 9.5 0.666992 14.5 2s11.5 3.66602 19.5 6.99902zM146 491c0 14.667 -4 26.167 -12 34.5s-18.667 12.5 -32 12.5s-24 -4.16699 -32 -12.5s-12 -19.833 -12 -34.5v-450
c0 -14.667 4 -26.167 12 -34.5s18.667 -12.5 32 -12.5s24 4.16699 32 12.5s12 19.833 12 34.5v450z" />
    <glyph glyph-name="icircumflex" unicode="&#xee;" 
d="M-27 680c-15.333 -6.66699 -23 -18.334 -23 -35.001c0 -10.667 3.33301 -19.667 10 -27s15.334 -11 26.001 -11c7.33301 0 14.666 1.66699 21.999 5l94 37l94 -37c7.33301 -3.33301 14.666 -5 21.999 -5c10.667 0 19.334 3.66699 26.001 11s10 16.333 10 27
c0 16.667 -7.66699 28.334 -23 35.001l-129 55zM146 491c0 14.667 -4 26.167 -12 34.5s-18.667 12.5 -32 12.5s-24 -4.16699 -32 -12.5s-12 -19.833 -12 -34.5v-450c0 -14.667 4 -26.167 12 -34.5s18.667 -12.5 32 -12.5s24 4.16699 32 12.5s12 19.833 12 34.5v450z" />
    <glyph glyph-name="idieresis" unicode="&#xef;" 
d="M-45 658c0 -14.667 5.33301 -27.334 16 -38.001s23.334 -16 38.001 -16s27.334 5.33301 38.001 16s16 23.334 16 38.001s-5.33301 27.334 -16 38.001s-23.334 16 -38.001 16s-27.334 -5.33301 -38.001 -16s-16 -23.334 -16 -38.001zM141 658
c0 -14.667 5.33301 -27.334 16 -38.001s23.334 -16 38.001 -16s27.334 5.33301 38.001 16s16 23.334 16 38.001s-5.33301 27.334 -16 38.001s-23.334 16 -38.001 16s-27.334 -5.33301 -38.001 -16s-16 -23.334 -16 -38.001zM146 491c0 14.667 -4 26.167 -12 34.5
s-18.667 12.5 -32 12.5s-24 -4.16699 -32 -12.5s-12 -19.833 -12 -34.5v-450c0 -14.667 4 -26.167 12 -34.5s18.667 -12.5 32 -12.5s24 4.16699 32 12.5s12 19.833 12 34.5v450z" />
    <glyph glyph-name="eth" unicode="&#xf0;" horiz-adv-x="538" 
d="M35 262c0 -34 5.16895 -67 15.502 -99s25.333 -60.667 45 -86s43.667 -45.5 72 -60.5s60.166 -22.5 95.499 -22.5c79.333 0 139.166 27.667 179.499 83s60.5 129.333 60.5 222c0 76.667 -11.833 146 -35.5 208s-63.5 118 -119.5 168l78 38c14 7.33301 21 17 21 29
c0 8 -2.33301 14 -7 18s-10.334 6 -17.001 6c-7.33301 0 -17 -3 -29 -9l-92 -46c-22 16.667 -46 31 -72 43s-47 18 -63 18c-10.667 0 -19.5 -2.83301 -26.5 -8.5s-10.5 -13.167 -10.5 -22.5c0 -10 3.16699 -17.667 9.5 -23s17.5 -11.333 33.5 -18
c22.667 -10 39.667 -19.667 51 -29l-77 -37c-11.333 -5.33301 -17 -13 -17 -23c0 -8 2.5 -14.5 7.5 -19.5s10.5 -7.5 16.5 -7.5c7.33301 0 17 3 29 9l87 42c26 -21.333 49.833 -45.833 71.5 -73.5s38.167 -56.834 49.5 -87.501l-2 -2c-14 18 -32.5 32.5 -55.5 43.5
s-46.5 16.5 -70.5 16.5c-35.333 0 -67.333 -7.5 -96 -22.5s-52.667 -35.167 -72 -60.5s-34.166 -54.166 -44.499 -86.499s-15.5 -65.833 -15.5 -100.5zM123.002 262c0 23.333 3 46.333 9 69s15 43.334 27 62.001s27.167 33.5 45.5 44.5s39.833 16.5 64.5 16.5
s46.167 -5.5 64.5 -16.5s33.666 -25.833 45.999 -44.5s21.333 -39.334 27 -62.001s8.5 -45.667 8.5 -69s-2.83301 -46.333 -8.5 -69s-14.667 -43.334 -27 -62.001s-27.666 -33.5 -45.999 -44.5s-39.833 -16.5 -64.5 -16.5s-46.167 5.5 -64.5 16.5s-33.5 25.833 -45.5 44.5
s-21 39.334 -27 62.001s-9 45.667 -9 69z" />
    <glyph glyph-name="ntilde" unicode="&#xf1;" horiz-adv-x="538" 
d="M120 655c0 -10 3.5 -18.999 10.5 -26.999s14.5 -12 22.5 -12c7.33301 0 16.666 3 27.999 9c12.667 7.33301 24 11 34 11c12.667 0 29.334 -3 50.001 -9c24 -7.33301 44 -11 60 -11c26.667 0 48.834 6.5 66.501 19.5s26.5 27.5 26.5 43.5c0 10 -3.5 19 -10.5 27
s-14.5 12 -22.5 12c-7.33301 0 -16.666 -3 -27.999 -9c-12.667 -7.33301 -24 -11 -34 -11c-12.667 0 -29.334 3 -50.001 9c-24 7.33301 -44 11 -60 11c-26.667 0 -48.834 -6.33301 -66.501 -19s-26.5 -27.334 -26.5 -44.001zM58 41.001
c0 -14.667 3.99805 -26.167 11.998 -34.5s18.667 -12.5 32 -12.5s24 4.16699 32 12.5s12 19.833 12 34.5v290c0 43.333 12.333 76 37 98s53.334 33 86.001 33s61.334 -11 86.001 -33s37 -54.667 37 -98v-290c0 -14.667 4 -26.167 12 -34.5s18.667 -12.5 32 -12.5
s24 4.16699 32 12.5s12 19.833 12 34.5v295c0 36 -5.5 67 -16.5 93s-25.667 47 -44 63s-38.166 27.667 -59.499 35s-43 11 -65 11c-28 0 -54.833 -5.66699 -80.5 -17s-47.834 -29 -66.501 -53l-2 2v21c0 14.667 -4 26.167 -12 34.5s-18.667 12.5 -32 12.5
s-24 -4.16699 -32 -12.5s-12 -19.833 -12 -34.5v-450z" />
    <glyph glyph-name="ograve" unicode="&#xf2;" horiz-adv-x="538" 
d="M308 616c8 -3.33301 14.5 -5.66602 19.5 -6.99902s9.83301 -2 14.5 -2c12 0 21.333 4.66699 28 14s10 18.666 10 27.999c0 6.66699 -2.5 13.167 -7.5 19.5s-14.167 12.166 -27.5 17.499l-115 47c-8 3.33301 -14.5 5.66602 -19.5 6.99902s-9.83301 2 -14.5 2
c-12 0 -21.333 -4.66699 -28 -14s-10 -18.666 -10 -27.999c0 -6.66699 2.66699 -13.167 8 -19.5s14.333 -12.166 27 -17.499zM35 266c0 -35.333 5.16699 -69.333 15.5 -102s25.666 -61.834 45.999 -87.501s45 -45.834 74 -60.501s61.833 -22 98.5 -22s69.5 7.33301 98.5 22
s53.667 34.834 74 60.501s35.666 54.834 45.999 87.501s15.5 66.667 15.5 102s-5.16699 69.333 -15.5 102s-25.666 61.834 -45.999 87.501s-45 45.834 -74 60.501s-61.833 22 -98.5 22s-69.5 -7.33301 -98.5 -22s-53.667 -34.834 -74 -60.501
s-35.666 -54.834 -45.999 -87.501s-15.5 -66.667 -15.5 -102zM123 266c0 24 2.66699 47.333 8 70s13.833 43.667 25.5 63s26.834 34.666 45.501 45.999s41 17 67 17s48.333 -5.66699 67 -17s33.834 -26.666 45.501 -45.999s20.167 -40.333 25.5 -63s8 -46 8 -70
s-2.66699 -47.333 -8 -70s-13.833 -43.667 -25.5 -63s-26.834 -34.666 -45.501 -45.999s-41 -17 -67 -17s-48.333 5.66699 -67 17s-33.834 26.666 -45.501 45.999s-20.167 40.333 -25.5 63s-8 46 -8 70z" />
    <glyph glyph-name="oacute" unicode="&#xf3;" horiz-adv-x="538" 
d="M345 663c13.333 5.33301 22.5 11.166 27.5 17.499s7.5 12.833 7.5 19.5c0 9.33301 -3.33301 18.666 -10 27.999s-16 14 -28 14c-4.66699 0 -9.5 -0.666992 -14.5 -2s-11.5 -3.66602 -19.5 -6.99902l-115 -47c-12.667 -5.33301 -21.667 -11.166 -27 -17.499
s-8 -12.833 -8 -19.5c0 -9.33301 3.33301 -18.666 10 -27.999s16 -14 28 -14c4.66699 0 9.5 0.666992 14.5 2s11.5 3.66602 19.5 6.99902zM35 266c0 -35.333 5.16699 -69.333 15.5 -102s25.666 -61.834 45.999 -87.501s45 -45.834 74 -60.501s61.833 -22 98.5 -22
s69.5 7.33301 98.5 22s53.667 34.834 74 60.501s35.666 54.834 45.999 87.501s15.5 66.667 15.5 102s-5.16699 69.333 -15.5 102s-25.666 61.834 -45.999 87.501s-45 45.834 -74 60.501s-61.833 22 -98.5 22s-69.5 -7.33301 -98.5 -22s-53.667 -34.834 -74 -60.501
s-35.666 -54.834 -45.999 -87.501s-15.5 -66.667 -15.5 -102zM123 266c0 24 2.66699 47.333 8 70s13.833 43.667 25.5 63s26.834 34.666 45.501 45.999s41 17 67 17s48.333 -5.66699 67 -17s33.834 -26.666 45.501 -45.999s20.167 -40.333 25.5 -63s8 -46 8 -70
s-2.66699 -47.333 -8 -70s-13.833 -43.667 -25.5 -63s-26.834 -34.666 -45.501 -45.999s-41 -17 -67 -17s-48.333 5.66699 -67 17s-33.834 26.666 -45.501 45.999s-20.167 40.333 -25.5 63s-8 46 -8 70z" />
    <glyph glyph-name="ocircumflex" unicode="&#xf4;" horiz-adv-x="538" 
d="M140 680c-15.333 -6.66699 -23 -18.334 -23 -35.001c0 -10.667 3.33301 -19.667 10 -27s15.334 -11 26.001 -11c7.33301 0 14.666 1.66699 21.999 5l94 37l94 -37c7.33301 -3.33301 14.666 -5 21.999 -5c10.667 0 19.334 3.66699 26.001 11s10 16.333 10 27
c0 16.667 -7.66699 28.334 -23 35.001l-129 55zM35 266c0 -35.333 5.16699 -69.333 15.5 -102s25.666 -61.834 45.999 -87.501s45 -45.834 74 -60.501s61.833 -22 98.5 -22s69.5 7.33301 98.5 22s53.667 34.834 74 60.501s35.666 54.834 45.999 87.501s15.5 66.667 15.5 102
s-5.16699 69.333 -15.5 102s-25.666 61.834 -45.999 87.501s-45 45.834 -74 60.501s-61.833 22 -98.5 22s-69.5 -7.33301 -98.5 -22s-53.667 -34.834 -74 -60.501s-35.666 -54.834 -45.999 -87.501s-15.5 -66.667 -15.5 -102zM123 266c0 24 2.66699 47.333 8 70
s13.833 43.667 25.5 63s26.834 34.666 45.501 45.999s41 17 67 17s48.333 -5.66699 67 -17s33.834 -26.666 45.501 -45.999s20.167 -40.333 25.5 -63s8 -46 8 -70s-2.66699 -47.333 -8 -70s-13.833 -43.667 -25.5 -63s-26.834 -34.666 -45.501 -45.999s-41 -17 -67 -17
s-48.333 5.66699 -67 17s-33.834 26.666 -45.501 45.999s-20.167 40.333 -25.5 63s-8 46 -8 70z" />
    <glyph glyph-name="otilde" unicode="&#xf5;" horiz-adv-x="538" 
d="M120 655c0 -10 3.5 -18.999 10.5 -26.999s14.5 -12 22.5 -12c7.33301 0 16.666 3 27.999 9c12.667 7.33301 24 11 34 11c12.667 0 29.334 -3 50.001 -9c24 -7.33301 44 -11 60 -11c26.667 0 48.834 6.5 66.501 19.5s26.5 27.5 26.5 43.5c0 10 -3.5 19 -10.5 27
s-14.5 12 -22.5 12c-7.33301 0 -16.666 -3 -27.999 -9c-12.667 -7.33301 -24 -11 -34 -11c-12.667 0 -29.334 3 -50.001 9c-24 7.33301 -44 11 -60 11c-26.667 0 -48.834 -6.33301 -66.501 -19s-26.5 -27.334 -26.5 -44.001zM35 266.001
c0 -35.333 5.16699 -69.333 15.5 -102s25.666 -61.834 45.999 -87.501s45 -45.834 74 -60.501s61.833 -22 98.5 -22s69.5 7.33301 98.5 22s53.667 34.834 74 60.501s35.666 54.834 45.999 87.501s15.5 66.667 15.5 102s-5.16699 69.333 -15.5 102
s-25.666 61.834 -45.999 87.501s-45 45.834 -74 60.501s-61.833 22 -98.5 22s-69.5 -7.33301 -98.5 -22s-53.667 -34.834 -74 -60.501s-35.666 -54.834 -45.999 -87.501s-15.5 -66.667 -15.5 -102zM123 266.001c0 24 2.66699 47.333 8 70s13.833 43.667 25.5 63
s26.834 34.666 45.501 45.999s41 17 67 17s48.333 -5.66699 67 -17s33.834 -26.666 45.501 -45.999s20.167 -40.333 25.5 -63s8 -46 8 -70s-2.66699 -47.333 -8 -70s-13.833 -43.667 -25.5 -63s-26.834 -34.666 -45.501 -45.999s-41 -17 -67 -17s-48.333 5.66699 -67 17
s-33.834 26.666 -45.501 45.999s-20.167 40.333 -25.5 63s-8 46 -8 70z" />
    <glyph glyph-name="odieresis" unicode="&#xf6;" horiz-adv-x="538" 
d="M122 658c0 -14.667 5.33301 -27.334 16 -38.001s23.334 -16 38.001 -16s27.334 5.33301 38.001 16s16 23.334 16 38.001s-5.33301 27.334 -16 38.001s-23.334 16 -38.001 16s-27.334 -5.33301 -38.001 -16s-16 -23.334 -16 -38.001zM308 658
c0 -14.667 5.33301 -27.334 16 -38.001s23.334 -16 38.001 -16s27.334 5.33301 38.001 16s16 23.334 16 38.001s-5.33301 27.334 -16 38.001s-23.334 16 -38.001 16s-27.334 -5.33301 -38.001 -16s-16 -23.334 -16 -38.001zM35 266c0 -35.333 5.16699 -69.333 15.5 -102
s25.666 -61.834 45.999 -87.501s45 -45.834 74 -60.501s61.833 -22 98.5 -22s69.5 7.33301 98.5 22s53.667 34.834 74 60.501s35.666 54.834 45.999 87.501s15.5 66.667 15.5 102s-5.16699 69.333 -15.5 102s-25.666 61.834 -45.999 87.501s-45 45.834 -74 60.501
s-61.833 22 -98.5 22s-69.5 -7.33301 -98.5 -22s-53.667 -34.834 -74 -60.501s-35.666 -54.834 -45.999 -87.501s-15.5 -66.667 -15.5 -102zM123 266c0 24 2.66699 47.333 8 70s13.833 43.667 25.5 63s26.834 34.666 45.501 45.999s41 17 67 17s48.333 -5.66699 67 -17
s33.834 -26.666 45.501 -45.999s20.167 -40.333 25.5 -63s8 -46 8 -70s-2.66699 -47.333 -8 -70s-13.833 -43.667 -25.5 -63s-26.834 -34.666 -45.501 -45.999s-41 -17 -67 -17s-48.333 5.66699 -67 17s-33.834 26.666 -45.501 45.999s-20.167 40.333 -25.5 63s-8 46 -8 70z
" />
    <glyph glyph-name="divide" unicode="&#xf7;" horiz-adv-x="600" 
d="M510 212c13.333 0 23.833 3.5 31.5 10.5s11.5 17.167 11.5 30.5s-3.83301 23.5 -11.5 30.5s-18.167 10.5 -31.5 10.5h-420c-13.333 0 -23.833 -3.5 -31.5 -10.5s-11.5 -17.167 -11.5 -30.5s3.83301 -23.5 11.5 -30.5s18.167 -10.5 31.5 -10.5h420zM228 460
c0 -20 7 -37 21 -51s31 -21 51 -21s37 7 51 21s21 31 21 51s-7 37 -21 51s-31 21 -51 21s-37 -7 -51 -21s-21 -31 -21 -51zM228 46c0 -20 7 -37 21 -51s31 -21 51 -21s37 7 51 21s21 31 21 51s-7 37 -21 51s-31 21 -51 21s-37 -7 -51 -21s-21 -31 -21 -51z" />
    <glyph glyph-name="oslash" unicode="&#xf8;" horiz-adv-x="538" 
d="M41 39c-12 -14 -18.001 -25.666 -18.001 -34.999c0 -7.33301 3 -13.833 9 -19.5s13 -8.5 21 -8.5c12 0 22.667 6.33301 32 19l42 51c38.667 -34.667 86 -52 142 -52c36.667 0 69.5 7.33301 98.5 22s53.667 34.834 74 60.501s35.666 54.834 45.999 87.501
s15.5 66.667 15.5 102c0 65.333 -16.667 123.333 -50 174l48 57c9.33301 11.333 14 21.666 14 30.999c0 8 -3 14.667 -9 20s-13.333 8 -22 8c-10.667 0 -21 -6.33301 -31 -19l-41 -50c-18.667 16 -40.167 28.5 -64.5 37.5s-50.5 13.5 -78.5 13.5
c-36.667 0 -69.5 -7.33301 -98.5 -22s-53.667 -34.834 -74 -60.501s-35.666 -54.834 -45.999 -87.501s-15.5 -66.667 -15.5 -102c0 -32.667 4.33301 -64 13 -94s21.334 -56.333 38.001 -79zM142.999 162.001c-13.333 30.667 -20.001 65.334 -20.001 104.001
c0 24 2.66699 47.333 8 70s13.833 43.667 25.5 63s26.834 34.666 45.501 45.999s41 17 67 17c38 0 68.667 -12.333 92 -37zM394.998 370.001c13.333 -29.333 20.001 -64.001 20.001 -104.001c0 -24 -2.66699 -47.333 -8 -70s-13.833 -43.667 -25.5 -63
s-26.834 -34.666 -45.501 -45.999s-41 -17 -67 -17c-38 0 -68.667 12.333 -92 37z" />
    <glyph glyph-name="ugrave" unicode="&#xf9;" horiz-adv-x="538" 
d="M308 616c8 -3.33301 14.5 -5.66602 19.5 -6.99902s9.83301 -2 14.5 -2c12 0 21.333 4.66699 28 14s10 18.666 10 27.999c0 6.66699 -2.5 13.167 -7.5 19.5s-14.167 12.166 -27.5 17.499l-115 47c-8 3.33301 -14.5 5.66602 -19.5 6.99902s-9.83301 2 -14.5 2
c-12 0 -21.333 -4.66699 -28 -14s-10 -18.666 -10 -27.999c0 -6.66699 2.66699 -13.167 8 -19.5s14.333 -12.166 27 -17.499zM58 206c0 -37.333 5.66699 -69.666 17 -96.999s27 -49.5 47 -66.5s42.5 -29.333 67.5 -37s51.5 -11.5 79.5 -11.5s54.5 3.83301 79.5 11.5
s47.5 20 67.5 37s35.667 39.167 47 66.5s17 59.666 17 96.999v285c0 14.667 -4 26.167 -12 34.5s-18.667 12.5 -32 12.5s-24 -4.16699 -32 -12.5s-12 -19.833 -12 -34.5v-282c0 -92.667 -41 -139 -123 -139s-123 46.333 -123 139v282c0 14.667 -4 26.167 -12 34.5
s-18.667 12.5 -32 12.5s-24 -4.16699 -32 -12.5s-12 -19.833 -12 -34.5v-285z" />
    <glyph glyph-name="uacute" unicode="&#xfa;" horiz-adv-x="538" 
d="M345 663c13.333 5.33301 22.5 11.166 27.5 17.499s7.5 12.833 7.5 19.5c0 9.33301 -3.33301 18.666 -10 27.999s-16 14 -28 14c-4.66699 0 -9.5 -0.666992 -14.5 -2s-11.5 -3.66602 -19.5 -6.99902l-115 -47c-12.667 -5.33301 -21.667 -11.166 -27 -17.499
s-8 -12.833 -8 -19.5c0 -9.33301 3.33301 -18.666 10 -27.999s16 -14 28 -14c4.66699 0 9.5 0.666992 14.5 2s11.5 3.66602 19.5 6.99902zM58 206c0 -37.333 5.66699 -69.666 17 -96.999s27 -49.5 47 -66.5s42.5 -29.333 67.5 -37s51.5 -11.5 79.5 -11.5
s54.5 3.83301 79.5 11.5s47.5 20 67.5 37s35.667 39.167 47 66.5s17 59.666 17 96.999v285c0 14.667 -4 26.167 -12 34.5s-18.667 12.5 -32 12.5s-24 -4.16699 -32 -12.5s-12 -19.833 -12 -34.5v-282c0 -92.667 -41 -139 -123 -139s-123 46.333 -123 139v282
c0 14.667 -4 26.167 -12 34.5s-18.667 12.5 -32 12.5s-24 -4.16699 -32 -12.5s-12 -19.833 -12 -34.5v-285z" />
    <glyph glyph-name="ucircumflex" unicode="&#xfb;" horiz-adv-x="538" 
d="M140 680c-15.333 -6.66699 -23 -18.334 -23 -35.001c0 -10.667 3.33301 -19.667 10 -27s15.334 -11 26.001 -11c7.33301 0 14.666 1.66699 21.999 5l94 37l94 -37c7.33301 -3.33301 14.666 -5 21.999 -5c10.667 0 19.334 3.66699 26.001 11s10 16.333 10 27
c0 16.667 -7.66699 28.334 -23 35.001l-129 55zM58 206c0 -37.333 5.66699 -69.666 17 -96.999s27 -49.5 47 -66.5s42.5 -29.333 67.5 -37s51.5 -11.5 79.5 -11.5s54.5 3.83301 79.5 11.5s47.5 20 67.5 37s35.667 39.167 47 66.5s17 59.666 17 96.999v285
c0 14.667 -4 26.167 -12 34.5s-18.667 12.5 -32 12.5s-24 -4.16699 -32 -12.5s-12 -19.833 -12 -34.5v-282c0 -92.667 -41 -139 -123 -139s-123 46.333 -123 139v282c0 14.667 -4 26.167 -12 34.5s-18.667 12.5 -32 12.5s-24 -4.16699 -32 -12.5s-12 -19.833 -12 -34.5v-285
z" />
    <glyph glyph-name="udieresis" unicode="&#xfc;" horiz-adv-x="538" 
d="M122 658c0 -14.667 5.33301 -27.334 16 -38.001s23.334 -16 38.001 -16s27.334 5.33301 38.001 16s16 23.334 16 38.001s-5.33301 27.334 -16 38.001s-23.334 16 -38.001 16s-27.334 -5.33301 -38.001 -16s-16 -23.334 -16 -38.001zM308 658
c0 -14.667 5.33301 -27.334 16 -38.001s23.334 -16 38.001 -16s27.334 5.33301 38.001 16s16 23.334 16 38.001s-5.33301 27.334 -16 38.001s-23.334 16 -38.001 16s-27.334 -5.33301 -38.001 -16s-16 -23.334 -16 -38.001zM58 206c0 -37.333 5.66699 -69.666 17 -96.999
s27 -49.5 47 -66.5s42.5 -29.333 67.5 -37s51.5 -11.5 79.5 -11.5s54.5 3.83301 79.5 11.5s47.5 20 67.5 37s35.667 39.167 47 66.5s17 59.666 17 96.999v285c0 14.667 -4 26.167 -12 34.5s-18.667 12.5 -32 12.5s-24 -4.16699 -32 -12.5s-12 -19.833 -12 -34.5v-282
c0 -92.667 -41 -139 -123 -139s-123 46.333 -123 139v282c0 14.667 -4 26.167 -12 34.5s-18.667 12.5 -32 12.5s-24 -4.16699 -32 -12.5s-12 -19.833 -12 -34.5v-285z" />
    <glyph glyph-name="yacute" unicode="&#xfd;" horiz-adv-x="444" 
d="M298 663c13.333 5.33301 22.5 11.166 27.5 17.499s7.5 12.833 7.5 19.5c0 9.33301 -3.33301 18.666 -10 27.999s-16 14 -28 14c-4.66699 0 -9.5 -0.666992 -14.5 -2s-11.5 -3.66602 -19.5 -6.99902l-115 -47c-12.667 -5.33301 -21.667 -11.166 -27 -17.499
s-8 -12.833 -8 -19.5c0 -9.33301 3.33301 -18.666 10 -27.999s16 -14 28 -14c4.66699 0 9.5 0.666992 14.5 2s11.5 3.66602 19.5 6.99902zM179 19l-56.001 -149c-5.33301 -14 -8.83301 -24.333 -10.5 -31s-2.5 -12.667 -2.5 -18c0 -10.667 4 -19.5 12 -26.5
s17.333 -10.5 28 -10.5c20.667 0 35 11 43 33l222 635c4.66699 14.667 7.83398 25.167 9.50098 31.5s2.5 12.166 2.5 17.499c0 10.667 -4 19.5 -12 26.5s-17.333 10.5 -28 10.5c-21.333 0 -35.333 -11 -42 -33l-120 -365h-2l-122 365c-3.33301 10 -8.83301 18 -16.5 24
s-16.834 9 -27.501 9s-20 -3.5 -28 -10.5s-12 -15.833 -12 -26.5c0 -5.33301 0.833008 -11.166 2.5 -17.499s4.83398 -16.833 9.50098 -31.5z" />
    <glyph glyph-name="thorn" unicode="&#xfe;" horiz-adv-x="556" 
d="M141 266c0 24 2.66699 47.333 8 70s13.833 43.667 25.5 63s26.834 34.666 45.501 45.999s41 17 67 17s48.333 -5.66699 67 -17s33.834 -26.666 45.501 -45.999s20.167 -40.333 25.5 -63s8 -46 8 -70s-2.66699 -47.333 -8 -70s-13.833 -43.667 -25.5 -63
s-26.834 -34.666 -45.501 -45.999s-41 -17 -67 -17s-48.333 5.66699 -67 17s-33.834 26.666 -45.501 45.999s-20.167 40.333 -25.5 63s-8 46 -8 70zM62 -169c0 -14.667 3.99609 -26.1719 11.9961 -34.5049s18.667 -12.5 32 -12.5s24 4.16699 32 12.5s12 19.833 12 34.5v235
h2c13.333 -19.333 32.333 -36.166 57 -50.499s53 -21.5 85 -21.5c35.333 0 67 7.33301 95 22s52 34.834 72 60.501s35 54.834 45 87.501s15 66.667 15 102s-5.16699 69.333 -15.5 102s-25.166 61.834 -44.499 87.501s-43.166 45.834 -71.499 60.501s-60.166 22 -95.499 22
c-69.333 0 -116.666 -24.333 -141.999 -73h-2v260c0 14.667 -4 26.167 -12 34.5s-18.667 12.5 -32 12.5s-24 -4.16699 -32 -12.5s-12 -19.833 -12 -34.5v-894z" />
    <glyph glyph-name="ydieresis" unicode="&#xff;" horiz-adv-x="444" 
d="M75 658c0 -14.667 5.33301 -27.334 16 -38.001s23.334 -16 38.001 -16s27.334 5.33301 38.001 16s16 23.334 16 38.001s-5.33301 27.334 -16 38.001s-23.334 16 -38.001 16s-27.334 -5.33301 -38.001 -16s-16 -23.334 -16 -38.001zM261 658
c0 -14.667 5.33301 -27.334 16 -38.001s23.334 -16 38.001 -16s27.334 5.33301 38.001 16s16 23.334 16 38.001s-5.33301 27.334 -16 38.001s-23.334 16 -38.001 16s-27.334 -5.33301 -38.001 -16s-16 -23.334 -16 -38.001zM179 19l-56.001 -149
c-5.33301 -14 -8.83301 -24.333 -10.5 -31s-2.5 -12.667 -2.5 -18c0 -10.667 4 -19.5 12 -26.5s17.333 -10.5 28 -10.5c20.667 0 35 11 43 33l222 635c4.66699 14.667 7.83398 25.167 9.50098 31.5s2.5 12.166 2.5 17.499c0 10.667 -4 19.5 -12 26.5s-17.333 10.5 -28 10.5
c-21.333 0 -35.333 -11 -42 -33l-120 -365h-2l-122 365c-3.33301 10 -8.83301 18 -16.5 24s-16.834 9 -27.501 9s-20 -3.5 -28 -10.5s-12 -15.833 -12 -26.5c0 -5.33301 0.833008 -11.166 2.5 -17.499s4.83398 -16.833 9.50098 -31.5z" />
    <glyph glyph-name="OE" unicode="&#x152;" horiz-adv-x="926" 
d="M125 356c0 35.333 4 70 12 104s20.667 64.667 38 92s40.166 49.166 68.499 65.499s61.5 24.5 99.5 24.5c38.667 0 72 -8.16699 100 -24.5s50.667 -38.166 68 -65.499s30 -58 38 -92s12 -68.667 12 -104s-4 -70 -12 -104s-20.667 -64.667 -38 -92s-40 -49.166 -68 -65.499
s-61.333 -24.5 -100 -24.5c-38 0 -71.167 8.16699 -99.5 24.5s-51.166 38.166 -68.499 65.499s-30 58 -38 92s-12 68.667 -12 104zM554 48c0 -14 3.83301 -25.501 11.5 -34.501s19.5 -13.5 35.5 -13.5h251c13.333 0 23.833 3.5 31.5 10.5s11.5 17.167 11.5 30.5
s-3.83301 23.5 -11.5 30.5s-18.167 10.5 -31.5 10.5h-210v233h193c13.333 0 23.833 3.5 31.5 10.5s11.5 17.167 11.5 30.5s-3.83301 23.5 -11.5 30.5s-18.167 10.5 -31.5 10.5h-193v233h200c13.333 0 23.833 3.5 31.5 10.5s11.5 17.167 11.5 30.5s-3.83301 23.5 -11.5 30.5
s-18.167 10.5 -31.5 10.5h-241c-16 0 -27.833 -4.33301 -35.5 -13s-11.5 -20.334 -11.5 -35.001v-46c-28 31.333 -59.5 55.833 -94.5 73.5s-73.833 26.5 -116.5 26.5c-49.333 0 -93.5 -9.83301 -132.5 -29.5s-71.833 -46.667 -98.5 -81s-46.834 -73.166 -60.501 -116.499
s-20.5 -88.333 -20.5 -135s6.83301 -91.667 20.5 -135s33.834 -82.166 60.501 -116.499s59.5 -61.333 98.5 -81s83.167 -29.5 132.5 -29.5c42 0 81.667 10.167 119 30.5s67.333 46.833 90 79.5h2v-56z" />
    <glyph glyph-name="oe" unicode="&#x153;" horiz-adv-x="907" 
d="M501 298c0 20 3 39.667 9 59s15 37 27 53s27.167 28.667 45.5 38s39.833 14 64.5 14s46.167 -4.66699 64.5 -14s33.5 -22 45.5 -38s21 -33.667 27 -53s9 -39 9 -59h-292zM35 266c0 -35.333 5.16406 -69.3291 15.4971 -101.996s25.5 -61.834 45.5 -87.501
s44.333 -45.834 73 -60.501s61 -22 97 -22c39.333 0 75.666 9.5 108.999 28.5s61.333 44.167 84 75.5c18.667 -32 45.334 -57.333 80.001 -76s75.667 -28 123 -28c24.667 0 49.334 3.5 74.001 10.5s47.167 16 67.5 27s36.5 23 48.5 36s18 24.833 18 35.5
c0 12 -3.16699 21.5 -9.5 28.5s-13.833 10.5 -22.5 10.5c-8.66699 -0.666992 -21.667 -7.66699 -39 -21c-18.667 -14.667 -37.667 -26.334 -57 -35.001s-44.666 -13.334 -75.999 -14.001c-52.667 0 -93.334 15 -122.001 45s-43 68.333 -43 115h331
c18.667 0 31.5 3.83301 38.5 11.5s10.5 19.5 10.5 35.5c0 32.667 -5.16699 64.334 -15.5 95.001s-25.666 58.5 -45.999 83.5s-45.166 44.667 -74.499 59s-62 21.5 -98 21.5c-40.667 0 -77.5 -9.33301 -110.5 -28s-58.833 -44 -77.5 -76c-22 32 -49.667 57.333 -83 76
s-70 28 -110 28c-36 0 -68.333 -7.33301 -97 -22s-53 -34.834 -73 -60.501s-35.167 -54.667 -45.5 -87s-15.5 -66.5 -15.5 -102.5zM267.997 462.004c25.333 0 47.333 -5.66699 66 -17s33.834 -26.666 45.501 -45.999s20.167 -40.333 25.5 -63s8 -46 8 -70
s-2.66699 -47.5 -8 -70.5s-13.833 -44 -25.5 -63s-26.834 -34.167 -45.501 -45.5s-40.667 -17 -66 -17s-47.333 5.66699 -66 17s-33.834 26.666 -45.501 45.999s-20.167 40.333 -25.5 63s-8 46 -8 70s2.66699 47.5 8 70.5s13.833 44 25.5 63s26.834 34.167 45.501 45.5
s40.667 17 66 17z" />
    <glyph glyph-name="Scaron" unicode="&#x160;" horiz-adv-x="481" 
d="M241 767l129 55c15.333 6.66699 23 18.334 23 35.001c0 10.667 -3.33301 19.667 -10 27s-15.334 11 -26.001 11c-7.33301 0 -14.666 -1.66699 -21.999 -5l-94 -37l-94 37c-7.33301 3.33301 -14.666 5 -21.999 5c-10.667 0 -19.334 -3.66699 -26.001 -11
s-10 -16.333 -10 -27c0 -16.667 7.66699 -28.334 23 -35.001zM238 718c-32 0 -61.001 -5.33398 -87.001 -16.001s-48.167 -25.167 -66.5 -43.5s-32.333 -38.166 -42 -59.499s-14.5 -42.666 -14.5 -63.999c0 -30 5.16699 -55.5 15.5 -76.5s24.5 -38.5 42.5 -52.5
s36.833 -25.167 56.5 -33.5s44.5 -17.833 74.5 -28.5c25.333 -8.66699 45.833 -16.167 61.5 -22.5s30.334 -14.333 44.001 -24s24.334 -21.167 32.001 -34.5s11.5 -29.333 11.5 -48c0 -40.667 -13.333 -75 -40 -103s-62 -42 -106 -42c-24.667 0 -46.167 3.5 -64.5 10.5
s-37.5 16.167 -57.5 27.5c-19.333 11.333 -32.666 17 -39.999 17c-12 0 -21.167 -4.33301 -27.5 -13s-9.5 -19.334 -9.5 -32.001c0 -12 5.66699 -23.333 17 -34s26.666 -19.834 45.999 -27.501s40.666 -13.667 63.999 -18s47 -6.5 71 -6.5c38 0 72 6 102 18
s55.333 28.5 76 49.5s36.334 45 47.001 72s16 55.5 16 85.5c0 31.333 -5.5 58.166 -16.5 80.499s-25.667 40.833 -44 55.5s-37.5 26.5 -57.5 35.5s-46 19.167 -78 30.5c-23.333 8 -42.666 15.167 -57.999 21.5s-29.5 14 -42.5 23s-23.167 19.667 -30.5 32
s-11 26.833 -11 43.5c0 30 10.667 54.333 32 73s48.333 28 81 28c23.333 0 42.166 -2.66699 56.499 -8s28.5 -12.666 42.5 -21.999c17.333 -10.667 31 -16 41 -16c10.667 0 19.667 3.83301 27 11.5s11 16.834 11 27.501c0 11.333 -4.83301 22 -14.5 32
s-22.834 18.833 -39.501 26.5s-35.5 13.667 -56.5 18s-42.5 6.5 -64.5 6.5z" />
    <glyph glyph-name="scaron" unicode="&#x161;" horiz-adv-x="444" 
d="M222 607l129 55c15.333 6.66699 23 18.334 23 35.001c0 10.667 -3.33301 19.667 -10 27s-15.334 11 -26.001 11c-7.33301 0 -14.666 -1.66699 -21.999 -5l-94 -37l-94 37c-7.33301 3.33301 -14.666 5 -21.999 5c-10.667 0 -19.334 -3.66699 -26.001 -11
s-10 -16.333 -10 -27c0 -16.667 7.66699 -28.334 23 -35.001zM46 388c0 -19.333 4.50293 -36.499 13.5029 -51.499s21 -28 36 -39s30.833 -20.5 47.5 -28.5s38 -17.333 64 -28c41.333 -17.333 72.166 -32.833 92.499 -46.5s30.5 -31.167 30.5 -52.5
c0 -18.667 -9.5 -35.334 -28.5 -50.001s-43.833 -22 -74.5 -22c-25.333 0 -47 3.83301 -65 11.5s-36.333 18.167 -55 31.5c-21.333 14.667 -37 22 -47 22s-18.5 -3.83301 -25.5 -11.5s-10.5 -17.167 -10.5 -28.5s5.16699 -23 15.5 -35s24.666 -23 42.999 -33
s39.666 -18 63.999 -24s50.166 -9 77.499 -9c53.333 0 99 14.167 137 42.5s57 68.833 57 121.5c0 20.667 -4.83301 38.834 -14.5 54.501s-22.334 29.167 -38.001 40.5s-32.5 21.166 -50.5 29.499s-40 17.5 -66 27.5c-39.333 15.333 -68.333 28.833 -87 40.5
s-28 26.5 -28 44.5c0 21.333 8.83301 37.833 26.5 49.5s39.834 17.5 66.501 17.5c22 0 40 -3.16699 54 -9.5s28 -14.833 42 -25.5c9.33301 -6.66699 16.833 -11.5 22.5 -14.5s11.834 -4.5 18.501 -4.5c12.667 0 22.5 3.5 29.5 10.5s10.5 15.5 10.5 25.5
c0 13.333 -5.5 25.833 -16.5 37.5s-25.5 21.667 -43.5 30s-37.5 14.833 -58.5 19.5s-40.5 7 -58.5 7c-22.667 0 -44.667 -3.16699 -66 -9.5s-40.833 -16 -58.5 -29s-31.5 -29 -41.5 -48s-15 -40.167 -15 -63.5z" />
    <glyph glyph-name="Ydieresis" unicode="&#x178;" horiz-adv-x="500" 
d="M103 818c0 -14.667 5.33301 -27.334 16 -38.001s23.334 -16 38.001 -16s27.334 5.33301 38.001 16s16 23.334 16 38.001s-5.33301 27.334 -16 38.001s-23.334 16 -38.001 16s-27.334 -5.33301 -38.001 -16s-16 -23.334 -16 -38.001zM289 818
c0 -14.667 5.33301 -27.334 16 -38.001s23.334 -16 38.001 -16s27.334 5.33301 38.001 16s16 23.334 16 38.001s-5.33301 27.334 -16 38.001s-23.334 16 -38.001 16s-27.334 -5.33301 -38.001 -16s-16 -23.334 -16 -38.001zM206 41c0 -14.667 4.00098 -26.167 12.001 -34.5
s18.667 -12.5 32 -12.5s24 4.16699 32 12.5s12 19.833 12 34.5v293l191 311c9.33301 14.667 14 27 14 37c0 10.667 -3.83301 19.334 -11.5 26.001s-17.167 10 -28.5 10c-18 0 -32.667 -9.33301 -44 -28l-165 -269l-165 269c-10.667 18.667 -25.334 28 -44.001 28
c-11.333 0 -20.833 -3.33301 -28.5 -10s-11.5 -15.334 -11.5 -26.001c0 -10 4.66699 -22.333 14 -37l191 -311v-293z" />
    <glyph glyph-name="florin" unicode="&#x192;" horiz-adv-x="536" 
d="M147 432c-10.667 0 -19.666 -3.66895 -26.999 -11.002s-11 -16.333 -11 -27s3.66699 -19.667 11 -27s16.333 -11 27 -11h50l-66 -371c-8 -44.667 -16.5 -76.5 -25.5 -95.5s-21.833 -28.5 -38.5 -28.5h-41c-30 0 -45 -12.333 -45 -37c0 -12 5.33301 -21.667 16 -29
s27 -11 49 -11c54.667 0 92.834 13.167 114.501 39.5s38.5 71.833 50.5 136.5l72 396h75c10.667 0 19.667 3.66699 27 11s11 16.333 11 27s-3.66699 19.667 -11 27s-16.333 11 -27 11h-62l20 111c6.66699 36.667 16.167 63.334 28.5 80.001s29.833 25 52.5 25
c38 0 57 10.667 57 32c0 11.333 -5.33301 20.5 -16 27.5s-27.334 10.5 -50.001 10.5c-46.667 0 -81.834 -12.667 -105.501 -38s-40.5 -66.666 -50.5 -123.999l-22 -124h-63z" />
    <glyph glyph-name="circumflex" unicode="&#x2c6;" 
d="M-27 680c-15.333 -6.66699 -23 -18.334 -23 -35.001c0 -10.667 3.33301 -19.667 10 -27s15.334 -11 26.001 -11c7.33301 0 14.666 1.66699 21.999 5l94 37l94 -37c7.33301 -3.33301 14.666 -5 21.999 -5c10.667 0 19.334 3.66699 26.001 11s10 16.333 10 27
c0 16.667 -7.66699 28.334 -23 35.001l-129 55z" />
    <glyph glyph-name="tilde" unicode="&#x2dc;" 
d="M-47 655c0 -10 3.5 -18.999 10.5 -26.999s14.5 -12 22.5 -12c7.33301 0 16.666 3 27.999 9c12.667 7.33301 24 11 34 11c12.667 0 29.334 -3 50.001 -9c24 -7.33301 44 -11 60 -11c26.667 0 48.834 6.5 66.501 19.5s26.5 27.5 26.5 43.5c0 10 -3.5 19 -10.5 27
s-14.5 12 -22.5 12c-7.33301 0 -16.666 -3 -27.999 -9c-12.667 -7.33301 -24 -11 -34 -11c-12.667 0 -29.334 3 -50.001 9c-24 7.33301 -44 11 -60 11c-26.667 0 -48.834 -6.33301 -66.501 -19s-26.5 -27.334 -26.5 -44.001z" />
    <glyph glyph-name="endash" unicode="&#x2013;" horiz-adv-x="500" 
d="M462 230c10.667 0 19.667 3.66699 27 11s11 16.333 11 27s-3.66699 19.667 -11 27s-16.333 11 -27 11h-424c-10.667 0 -19.667 -3.66699 -27 -11s-11 -16.333 -11 -27s3.66699 -19.667 11 -27s16.333 -11 27 -11h424z" />
    <glyph glyph-name="emdash" unicode="&#x2014;" horiz-adv-x="1000" 
d="M0 306c-10.667 0 -19.667 -3.66699 -27 -11s-11 -16.333 -11 -27s3.66699 -19.667 11 -27s16.333 -11 27 -11h1000c10.667 0 19.667 3.66699 27 11s11 16.333 11 27s-3.66699 19.667 -11 27s-16.333 11 -27 11h-1000z" />
    <glyph glyph-name="quoteleft" unicode="&#x2018;" 
d="M36 571c-7.33301 -14.667 -10.999 -27 -10.999 -37c0 -10.667 4 -19.667 12 -27s17.333 -11 28 -11c11.333 0 20.5 3.16699 27.5 9.5s13.5 15.5 19.5 27.5l56 110c7.33301 14.667 11 27 11 37c0 10.667 -4 19.667 -12 27s-17.333 11 -28 11
c-11.333 0 -20.333 -3.16699 -27 -9.5s-13.334 -15.5 -20.001 -27.5z" />
    <glyph glyph-name="quoteright" unicode="&#x2019;" 
d="M36 571c-7.33301 -14.667 -10.999 -27 -10.999 -37c0 -10.667 4 -19.667 12 -27s17.333 -11 28 -11c11.333 0 20.5 3.16699 27.5 9.5s13.5 15.5 19.5 27.5l56 110c7.33301 14.667 11 27 11 37c0 10.667 -4 19.667 -12 27s-17.333 11 -28 11
c-11.333 0 -20.333 -3.16699 -27 -9.5s-13.334 -15.5 -20.001 -27.5z" />
    <glyph glyph-name="quotesinglbase" unicode="&#x201a;" 
d="M36 -51c-7.33301 -14.667 -10.999 -27 -10.999 -37c0 -10.667 4 -19.667 12 -27s17.333 -11 28 -11c11.333 0 20.5 3.16699 27.5 9.5s13.5 15.5 19.5 27.5l56 110c7.33301 14.667 11 27 11 37c0 10.667 -4 19.667 -12 27s-17.333 11 -28 11
c-11.333 0 -20.333 -3.16699 -27 -9.5s-13.334 -15.5 -20.001 -27.5z" />
    <glyph glyph-name="quotedblleft" unicode="&#x201c;" horiz-adv-x="334" 
d="M172 571c-7.33301 -14.667 -10.999 -27 -10.999 -37c0 -10.667 4 -19.667 12 -27s17.333 -11 28 -11c11.333 0 20.5 3.16699 27.5 9.5s13.5 15.5 19.5 27.5l56 110c7.33301 14.667 11 27 11 37c0 10.667 -4 19.667 -12 27s-17.333 11 -28 11
c-11.333 0 -20.333 -3.16699 -27 -9.5s-13.334 -15.5 -20.001 -27.5zM30.001 571c-7.33301 -14.667 -10.999 -27 -10.999 -37c0 -10.667 4 -19.667 12 -27s17.333 -11 28 -11c11.333 0 20.5 3.16699 27.5 9.5s13.5 15.5 19.5 27.5l56 110c7.33301 14.667 11 27 11 37
c0 10.667 -4 19.667 -12 27s-17.333 11 -28 11c-11.333 0 -20.333 -3.16699 -27 -9.5s-13.334 -15.5 -20.001 -27.5z" />
    <glyph glyph-name="quotedblright" unicode="&#x201d;" horiz-adv-x="334" 
d="M172 571c-7.33301 -14.667 -10.999 -27 -10.999 -37c0 -10.667 4 -19.667 12 -27s17.333 -11 28 -11c11.333 0 20.5 3.16699 27.5 9.5s13.5 15.5 19.5 27.5l56 110c7.33301 14.667 11 27 11 37c0 10.667 -4 19.667 -12 27s-17.333 11 -28 11
c-11.333 0 -20.333 -3.16699 -27 -9.5s-13.334 -15.5 -20.001 -27.5zM30.001 571c-7.33301 -14.667 -10.999 -27 -10.999 -37c0 -10.667 4 -19.667 12 -27s17.333 -11 28 -11c11.333 0 20.5 3.16699 27.5 9.5s13.5 15.5 19.5 27.5l56 110c7.33301 14.667 11 27 11 37
c0 10.667 -4 19.667 -12 27s-17.333 11 -28 11c-11.333 0 -20.333 -3.16699 -27 -9.5s-13.334 -15.5 -20.001 -27.5z" />
    <glyph glyph-name="quotedblbase" unicode="&#x201e;" horiz-adv-x="334" 
d="M172 -51c-7.33301 -14.667 -10.999 -27 -10.999 -37c0 -10.667 4 -19.667 12 -27s17.333 -11 28 -11c11.333 0 20.5 3.16699 27.5 9.5s13.5 15.5 19.5 27.5l56 110c7.33301 14.667 11 27 11 37c0 10.667 -4 19.667 -12 27s-17.333 11 -28 11
c-11.333 0 -20.333 -3.16699 -27 -9.5s-13.334 -15.5 -20.001 -27.5zM30.001 -51c-7.33301 -14.667 -10.999 -27 -10.999 -37c0 -10.667 4 -19.667 12 -27s17.333 -11 28 -11c11.333 0 20.5 3.16699 27.5 9.5s13.5 15.5 19.5 27.5l56 110c7.33301 14.667 11 27 11 37
c0 10.667 -4 19.667 -12 27s-17.333 11 -28 11c-11.333 0 -20.333 -3.16699 -27 -9.5s-13.334 -15.5 -20.001 -27.5z" />
    <glyph glyph-name="dagger" unicode="&#x2020;" horiz-adv-x="612" 
d="M265 470h-195c-13.333 0 -23.833 -3.5 -31.5 -10.5s-11.5 -17.167 -11.5 -30.5s3.83301 -23.5 11.5 -30.5s18.167 -10.5 31.5 -10.5h195v-561c0 -13.333 3.5 -23.833 10.5 -31.5s17.167 -11.5 30.5 -11.5s23.5 3.83301 30.5 11.5s10.5 18.167 10.5 31.5v561h195
c13.333 0 23.833 3.5 31.5 10.5s11.5 17.167 11.5 30.5s-3.83301 23.5 -11.5 30.5s-18.167 10.5 -31.5 10.5h-195v205c0 13.333 -3.5 23.833 -10.5 31.5s-17.167 11.5 -30.5 11.5s-23.5 -3.83301 -30.5 -11.5s-10.5 -18.167 -10.5 -31.5v-205z" />
    <glyph glyph-name="daggerdbl" unicode="&#x2021;" horiz-adv-x="612" 
d="M265 94h-195c-13.333 0 -23.833 -3.5 -31.5 -10.5s-11.5 -17.167 -11.5 -30.5s3.83301 -23.5 11.5 -30.5s18.167 -10.5 31.5 -10.5h195v-185c0 -13.333 3.5 -23.833 10.5 -31.5s17.167 -11.5 30.5 -11.5s23.5 3.83301 30.5 11.5s10.5 18.167 10.5 31.5v185h195
c13.333 0 23.833 3.5 31.5 10.5s11.5 17.167 11.5 30.5s-3.83301 23.5 -11.5 30.5s-18.167 10.5 -31.5 10.5h-195v314h195c13.333 0 23.833 3.5 31.5 10.5s11.5 17.167 11.5 30.5s-3.83301 23.5 -11.5 30.5s-18.167 10.5 -31.5 10.5h-195v185
c0 13.333 -3.5 23.833 -10.5 31.5s-17.167 11.5 -30.5 11.5s-23.5 -3.83301 -30.5 -11.5s-10.5 -18.167 -10.5 -31.5v-185h-195c-13.333 0 -23.833 -3.5 -31.5 -10.5s-11.5 -17.167 -11.5 -30.5s3.83301 -23.5 11.5 -30.5s18.167 -10.5 31.5 -10.5h195v-314z" />
    <glyph glyph-name="bullet" unicode="&#x2022;" horiz-adv-x="500" 
d="M72 356c0 -24 4.66699 -46.833 14 -68.5s22.166 -40.667 38.499 -57s35.333 -29.166 57 -38.499s44.5 -14 68.5 -14s46.833 4.66699 68.5 14s40.834 22.166 57.501 38.499s29.5 35.333 38.5 57s13.5 44.5 13.5 68.5s-4.5 46.833 -13.5 68.5s-21.833 40.834 -38.5 57.501
s-35.834 29.5 -57.501 38.5s-44.5 13.5 -68.5 13.5s-46.833 -4.5 -68.5 -13.5s-40.667 -21.833 -57 -38.5s-29.166 -35.834 -38.499 -57.501s-14 -44.5 -14 -68.5z" />
    <glyph glyph-name="ellipsis" unicode="&#x2026;" horiz-adv-x="1000" 
d="M116 45c0 -14 5 -26 15 -36s22 -15 36 -15s26 5 36 15s15 22 15 36s-5 26 -15 36s-22 15 -36 15s-26 -5 -36 -15s-15 -22 -15 -36zM449 45c0 -14 5 -26 15 -36s22 -15 36 -15s26 5 36 15s15 22 15 36s-5 26 -15 36s-22 15 -36 15s-26 -5 -36 -15s-15 -22 -15 -36zM782 45
c0 -14 5 -26 15 -36s22 -15 36 -15s26 5 36 15s15 22 15 36s-5 26 -15 36s-22 15 -36 15s-26 -5 -36 -15s-15 -22 -15 -36z" />
    <glyph glyph-name="perthousand" unicode="&#x2030;" horiz-adv-x="1093" 
d="M211 58c-5.33301 -13.333 -8.99902 -23.1699 -10.999 -29.5029s-3 -11.5 -3 -15.5c0 -7.33301 3 -13.666 9 -18.999s14 -8 24 -8c16 0 28.333 10 37 30l266 638c6 14.667 9.83301 24.834 11.5 30.501s2.5 10.5 2.5 14.5c0 6.66699 -3 12.834 -9 18.501
s-14.667 8.5 -26 8.5c-14.667 0 -26.334 -10 -35.001 -30zM545.001 -6.00391c48 0 85.333 16.333 112 49s40 72.667 40 120s-13.333 87.333 -40 120s-64 49 -112 49s-85.333 -16.333 -112 -49s-40 -72.667 -40 -120s13.333 -87.333 40 -120s64 -49 112 -49zM545.001 47.9961
c-29.333 0 -51 11.5 -65 34.5s-21 49.833 -21 80.5s7 57.5 21 80.5s35.667 34.5 65 34.5s51 -11.5 65 -34.5s21 -49.833 21 -80.5s-7 -57.5 -21 -80.5s-35.667 -34.5 -65 -34.5zM198.001 379.996c48 0 85.333 16.333 112 49s40 72.667 40 120s-13.333 87.333 -40 120
s-64 49 -112 49s-85.333 -16.333 -112 -49s-40 -72.667 -40 -120s13.333 -87.333 40 -120s64 -49 112 -49zM198.001 433.996c-29.333 0 -51 11.5 -65 34.5s-21 49.833 -21 80.5s7 57.5 21 80.5s35.667 34.5 65 34.5s51 -11.5 65 -34.5s21 -49.833 21 -80.5
s-7 -57.5 -21 -80.5s-35.667 -34.5 -65 -34.5zM895.001 -6.00391c48 0 85.333 16.333 112 49s40 72.667 40 120s-13.333 87.333 -40 120s-64 49 -112 49s-85.333 -16.333 -112 -49s-40 -72.667 -40 -120s13.333 -87.333 40 -120s64 -49 112 -49zM895.001 47.9961
c-29.333 0 -51 11.5 -65 34.5s-21 49.833 -21 80.5s7 57.5 21 80.5s35.667 34.5 65 34.5s51 -11.5 65 -34.5s21 -49.833 21 -80.5s-7 -57.5 -21 -80.5s-35.667 -34.5 -65 -34.5z" />
    <glyph glyph-name="guilsinglleft" unicode="&#x2039;" horiz-adv-x="259" 
d="M43 268l99 -178c10 -17.333 21.333 -26 34 -26c10.667 0 20 3 28 9s12 14.667 12 26c0 8 -3.66699 18.333 -11 31l-83 138l83 138c7.33301 12.667 11 23 11 31c0 11.333 -4 20 -12 26s-17.333 9 -28 9c-12.667 0 -24 -8.66699 -34 -26z" />
    <glyph glyph-name="guilsinglright" unicode="&#x203a;" horiz-adv-x="259" 
d="M54 130c-7.33301 -12.667 -11 -23 -11 -31c0 -11.333 4 -20 12 -26s17.333 -9 28 -9c12.667 0 24 8.66699 34 26l99 178l-99 178c-10 17.333 -21.333 26 -34 26c-10.667 0 -20 -3 -28 -9s-12 -14.667 -12 -26c0 -8 3.66699 -18.333 11 -31l83 -138z" />
    <glyph glyph-name="trademark" unicode="&#x2122;" horiz-adv-x="990" 
d="M185 341c0 -13.333 3.5 -23.833 10.5 -31.5s17.167 -11.5 30.5 -11.5s23.5 3.83301 30.5 11.5s10.5 18.167 10.5 31.5v305h95c21.333 0 32 11 32 33s-10.667 33 -32 33h-272c-21.333 0 -32 -11 -32 -33s10.667 -33 32 -33h95v-305zM474 336
c0 -10.667 3.66309 -19.667 10.9961 -27s16.333 -11 27 -11s19.667 3.66699 27 11s11 16.333 11 27v288h2l108 -289c4.66699 -13.333 10.334 -22.833 17.001 -28.5s15.334 -8.5 26.001 -8.5s19.334 2.83301 26.001 8.5s12.334 15.167 17.001 28.5l108 289h2v-288
c0 -10.667 3.66699 -19.667 11 -27s16.333 -11 27 -11s19.667 3.66699 27 11s11 16.333 11 27v315c0 44.667 -21 67 -63 67c-15.333 0 -28.833 -2.83301 -40.5 -8.5s-20.5 -15.834 -26.5 -30.501l-98 -261l-100 261c-6 14.667 -14.833 24.834 -26.5 30.501
s-25.167 8.5 -40.5 8.5c-42 0 -63 -22.333 -63 -67v-315z" />
    </font>
</defs>
</svg>
